%TF.GenerationSoftware,KiCad,Pcbnew,(5.1.10)-1*%
%TF.CreationDate,2022-05-26T11:50:09-06:00*%
%TF.ProjectId,Back_Panel,4261636b-5f50-4616-9e65-6c2e6b696361,rev?*%
%TF.SameCoordinates,Original*%
%TF.FileFunction,Copper,L2,Bot*%
%TF.FilePolarity,Positive*%
%FSLAX46Y46*%
G04 Gerber Fmt 4.6, Leading zero omitted, Abs format (unit mm)*
G04 Created by KiCad (PCBNEW (5.1.10)-1) date 2022-05-26 11:50:09*
%MOMM*%
%LPD*%
G01*
G04 APERTURE LIST*
%TA.AperFunction,NonConductor*%
%ADD10C,0.254000*%
%TD*%
%TA.AperFunction,NonConductor*%
%ADD11C,0.100000*%
%TD*%
G04 APERTURE END LIST*
D10*
X407765000Y735000D02*
X735000Y735000D01*
X735000Y28800000D01*
X43861444Y28800000D01*
X43865001Y28763885D01*
X43865000Y13286105D01*
X43861444Y13250000D01*
X43875635Y13105915D01*
X43917663Y12967367D01*
X43985913Y12839680D01*
X44077762Y12727762D01*
X44189680Y12635913D01*
X44317367Y12567663D01*
X44455915Y12525635D01*
X44600000Y12511444D01*
X44636105Y12515000D01*
X57763895Y12515000D01*
X57800000Y12511444D01*
X57836105Y12515000D01*
X57944085Y12525635D01*
X58082633Y12567663D01*
X58210320Y12635913D01*
X58322238Y12727762D01*
X58414087Y12839680D01*
X58482337Y12967367D01*
X58524365Y13105915D01*
X58538556Y13250000D01*
X58535000Y13286105D01*
X58535000Y28763895D01*
X58538556Y28800000D01*
X63861443Y28800000D01*
X63865000Y28763885D01*
X63864999Y13286105D01*
X63861443Y13250000D01*
X63875634Y13105915D01*
X63917662Y12967367D01*
X63985912Y12839680D01*
X64077761Y12727762D01*
X64189679Y12635913D01*
X64317366Y12567663D01*
X64455914Y12525635D01*
X64599999Y12511444D01*
X64636104Y12515000D01*
X77763895Y12515000D01*
X77800000Y12511444D01*
X77836105Y12515000D01*
X77944085Y12525635D01*
X78082633Y12567663D01*
X78210320Y12635913D01*
X78322238Y12727762D01*
X78414087Y12839680D01*
X78482337Y12967367D01*
X78524365Y13105915D01*
X78538556Y13250000D01*
X78535000Y13286105D01*
X78535000Y28763895D01*
X78538556Y28800000D01*
X83861444Y28800000D01*
X83865001Y28763885D01*
X83865000Y13286105D01*
X83861444Y13250000D01*
X83875635Y13105915D01*
X83917663Y12967367D01*
X83985913Y12839680D01*
X84077762Y12727762D01*
X84189680Y12635913D01*
X84317367Y12567663D01*
X84455915Y12525635D01*
X84600000Y12511444D01*
X84636105Y12515000D01*
X97763895Y12515000D01*
X97800000Y12511444D01*
X97836105Y12515000D01*
X97944085Y12525635D01*
X98082633Y12567663D01*
X98210320Y12635913D01*
X98322238Y12727762D01*
X98414087Y12839680D01*
X98482337Y12967367D01*
X98524365Y13105915D01*
X98538556Y13250000D01*
X98535000Y13286105D01*
X98535000Y28763895D01*
X98538556Y28800000D01*
X103861444Y28800000D01*
X103865001Y28763885D01*
X103865000Y13286105D01*
X103861444Y13250000D01*
X103875635Y13105915D01*
X103917663Y12967367D01*
X103985913Y12839680D01*
X104077762Y12727762D01*
X104189680Y12635913D01*
X104317367Y12567663D01*
X104455915Y12525635D01*
X104600000Y12511444D01*
X104636105Y12515000D01*
X117763895Y12515000D01*
X117800000Y12511444D01*
X117836105Y12515000D01*
X117944085Y12525635D01*
X118082633Y12567663D01*
X118210320Y12635913D01*
X118322238Y12727762D01*
X118414087Y12839680D01*
X118482337Y12967367D01*
X118524365Y13105915D01*
X118538556Y13250000D01*
X118535000Y13286105D01*
X118535000Y28763895D01*
X118538556Y28800000D01*
X118524365Y28944085D01*
X118482337Y29082633D01*
X118414087Y29210320D01*
X118322238Y29322238D01*
X118210320Y29414087D01*
X118082633Y29482337D01*
X117944085Y29524365D01*
X117836105Y29535000D01*
X117800000Y29538556D01*
X117763895Y29535000D01*
X104636105Y29535000D01*
X104600000Y29538556D01*
X104563895Y29535000D01*
X104455915Y29524365D01*
X104317367Y29482337D01*
X104189680Y29414087D01*
X104077762Y29322238D01*
X103985913Y29210320D01*
X103917663Y29082633D01*
X103875635Y28944085D01*
X103861444Y28800000D01*
X98538556Y28800000D01*
X98524365Y28944085D01*
X98482337Y29082633D01*
X98414087Y29210320D01*
X98322238Y29322238D01*
X98210320Y29414087D01*
X98082633Y29482337D01*
X97944085Y29524365D01*
X97836105Y29535000D01*
X97800000Y29538556D01*
X97763895Y29535000D01*
X84636105Y29535000D01*
X84600000Y29538556D01*
X84563895Y29535000D01*
X84455915Y29524365D01*
X84317367Y29482337D01*
X84189680Y29414087D01*
X84077762Y29322238D01*
X83985913Y29210320D01*
X83917663Y29082633D01*
X83875635Y28944085D01*
X83861444Y28800000D01*
X78538556Y28800000D01*
X78524365Y28944085D01*
X78482337Y29082633D01*
X78414087Y29210320D01*
X78322238Y29322238D01*
X78210320Y29414087D01*
X78082633Y29482337D01*
X77944085Y29524365D01*
X77836105Y29535000D01*
X77800000Y29538556D01*
X77763895Y29535000D01*
X64636104Y29535000D01*
X64599999Y29538556D01*
X64563894Y29535000D01*
X64455914Y29524365D01*
X64317366Y29482337D01*
X64189679Y29414087D01*
X64077761Y29322238D01*
X63985912Y29210320D01*
X63917662Y29082633D01*
X63875634Y28944085D01*
X63861443Y28800000D01*
X58538556Y28800000D01*
X58524365Y28944085D01*
X58482337Y29082633D01*
X58414087Y29210320D01*
X58322238Y29322238D01*
X58210320Y29414087D01*
X58082633Y29482337D01*
X57944085Y29524365D01*
X57836105Y29535000D01*
X57800000Y29538556D01*
X57763895Y29535000D01*
X44636105Y29535000D01*
X44600000Y29538556D01*
X44563895Y29535000D01*
X44455915Y29524365D01*
X44317367Y29482337D01*
X44189680Y29414087D01*
X44077762Y29322238D01*
X43985913Y29210320D01*
X43917663Y29082633D01*
X43875635Y28944085D01*
X43861444Y28800000D01*
X735000Y28800000D01*
X735000Y36257785D01*
X209632665Y36257785D01*
X209632665Y35742215D01*
X209733248Y35236552D01*
X209930548Y34760227D01*
X210216983Y34331546D01*
X210581546Y33966983D01*
X211010227Y33680548D01*
X211486552Y33483248D01*
X211992215Y33382665D01*
X212318824Y33382665D01*
X211985634Y32946216D01*
X211247253Y31695991D01*
X210661923Y30367211D01*
X210237860Y28978528D01*
X209981018Y27549438D01*
X209895001Y26100000D01*
X209981018Y24650562D01*
X210237860Y23221472D01*
X210661923Y21832789D01*
X211247253Y20504009D01*
X211985634Y19253784D01*
X212866700Y18099666D01*
X213878084Y17057854D01*
X215005587Y16142974D01*
X216233382Y15367869D01*
X217544233Y14743420D01*
X218919740Y14278392D01*
X220340592Y13979313D01*
X221786844Y13850383D01*
X223238194Y13893410D01*
X224674268Y14107791D01*
X226074907Y14490516D01*
X227420449Y15036213D01*
X228692005Y15737222D01*
X229432665Y16268664D01*
X229432665Y15942215D01*
X229533248Y15436552D01*
X229730548Y14960227D01*
X230016983Y14531546D01*
X230381546Y14166983D01*
X230810227Y13880548D01*
X231286552Y13683248D01*
X231792215Y13582665D01*
X232307785Y13582665D01*
X232813448Y13683248D01*
X233289773Y13880548D01*
X233718454Y14166983D01*
X234083017Y14531546D01*
X234369452Y14960227D01*
X234566752Y15436552D01*
X234667335Y15942215D01*
X234667335Y16457785D01*
X234566752Y16963448D01*
X234369452Y17439773D01*
X234083017Y17868454D01*
X233718454Y18233017D01*
X233289773Y18519452D01*
X232813448Y18716752D01*
X232307785Y18817335D01*
X231994445Y18817335D01*
X232702089Y19867952D01*
X233365109Y21159723D01*
X233870693Y22520845D01*
X234211745Y23932210D01*
X234383476Y25374006D01*
X234383476Y26825994D01*
X234211745Y28267790D01*
X233870693Y29679155D01*
X233365109Y31040277D01*
X232702089Y32332048D01*
X231890940Y33536335D01*
X230943051Y34636232D01*
X229871726Y35616299D01*
X228977700Y36257785D01*
X249632664Y36257785D01*
X249632664Y35742215D01*
X249733247Y35236551D01*
X249930547Y34760227D01*
X250216983Y34331546D01*
X250581546Y33966983D01*
X251010227Y33680547D01*
X251486551Y33483247D01*
X251992215Y33382664D01*
X252318821Y33382664D01*
X251985632Y32946216D01*
X251247251Y31695991D01*
X250661921Y30367211D01*
X250237858Y28978528D01*
X249981016Y27549438D01*
X249894999Y26100000D01*
X249981016Y24650562D01*
X250237858Y23221472D01*
X250661921Y21832789D01*
X251247251Y20504009D01*
X251985632Y19253784D01*
X252866699Y18099665D01*
X253878082Y17057853D01*
X255005585Y16142973D01*
X256233381Y15367868D01*
X257544232Y14743419D01*
X258919738Y14278391D01*
X260340590Y13979313D01*
X261786843Y13850382D01*
X263238193Y13893409D01*
X264674267Y14107790D01*
X266074906Y14490516D01*
X267420448Y15036213D01*
X268692004Y15737221D01*
X269432664Y16268662D01*
X269432664Y15942215D01*
X269533247Y15436551D01*
X269730547Y14960227D01*
X270016983Y14531546D01*
X270381546Y14166983D01*
X270810227Y13880547D01*
X271286551Y13683247D01*
X271792215Y13582664D01*
X272307785Y13582664D01*
X272813449Y13683247D01*
X273289773Y13880547D01*
X273718454Y14166983D01*
X274083017Y14531546D01*
X274369453Y14960227D01*
X274566753Y15436551D01*
X274667336Y15942215D01*
X274667336Y16457785D01*
X274566753Y16963449D01*
X274369453Y17439773D01*
X274083017Y17868454D01*
X273718454Y18233017D01*
X273289773Y18519453D01*
X272813449Y18716753D01*
X272307785Y18817336D01*
X271994446Y18817336D01*
X272702088Y19867951D01*
X273365109Y21159722D01*
X273491504Y21500000D01*
X298361444Y21500000D01*
X298365001Y21463885D01*
X298365000Y13436105D01*
X298361444Y13400000D01*
X298375635Y13255915D01*
X298417663Y13117367D01*
X298485913Y12989680D01*
X298577762Y12877762D01*
X298689680Y12785913D01*
X298817367Y12717663D01*
X298955915Y12675635D01*
X299100000Y12661444D01*
X299136105Y12665000D01*
X309913895Y12665000D01*
X309950000Y12661444D01*
X309986105Y12665000D01*
X310094085Y12675635D01*
X310232633Y12717663D01*
X310360320Y12785913D01*
X310472238Y12877762D01*
X310564087Y12989680D01*
X310632337Y13117367D01*
X310674365Y13255915D01*
X310688556Y13400000D01*
X310685000Y13436105D01*
X310685000Y21463895D01*
X310688556Y21500000D01*
X310674365Y21644085D01*
X310632337Y21782633D01*
X310564087Y21910320D01*
X310472238Y22022238D01*
X310360320Y22114087D01*
X310232633Y22182337D01*
X310094085Y22224365D01*
X309986105Y22235000D01*
X309950000Y22238556D01*
X309913895Y22235000D01*
X299136105Y22235000D01*
X299100000Y22238556D01*
X299063895Y22235000D01*
X298955915Y22224365D01*
X298817367Y22182337D01*
X298689680Y22114087D01*
X298577762Y22022238D01*
X298485913Y21910320D01*
X298417663Y21782633D01*
X298375635Y21644085D01*
X298361444Y21500000D01*
X273491504Y21500000D01*
X273870693Y22520844D01*
X274211745Y23932210D01*
X274383476Y25374006D01*
X274383476Y26825994D01*
X274211745Y28267790D01*
X273870693Y29679156D01*
X273365109Y31040278D01*
X272702088Y32332049D01*
X271890940Y33536336D01*
X270943050Y34636233D01*
X269871726Y35616300D01*
X268692004Y36462779D01*
X267420448Y37163787D01*
X266074906Y37709484D01*
X264674267Y38092210D01*
X263238193Y38306591D01*
X261786843Y38349618D01*
X260340590Y38220687D01*
X258919738Y37921609D01*
X257544232Y37456581D01*
X256233381Y36832132D01*
X255005585Y36057027D01*
X254867336Y35944849D01*
X254867336Y36257785D01*
X254766753Y36763449D01*
X254569453Y37239773D01*
X254283017Y37668454D01*
X253918454Y38033017D01*
X253489773Y38319453D01*
X253013449Y38516753D01*
X252507785Y38617336D01*
X251992215Y38617336D01*
X251486551Y38516753D01*
X251010227Y38319453D01*
X250581546Y38033017D01*
X250216983Y37668454D01*
X249930547Y37239773D01*
X249733247Y36763449D01*
X249632664Y36257785D01*
X228977700Y36257785D01*
X228692005Y36462778D01*
X227420449Y37163787D01*
X226074907Y37709484D01*
X224674268Y38092209D01*
X223238194Y38306590D01*
X221786844Y38349617D01*
X220340592Y38220687D01*
X218919740Y37921608D01*
X217544233Y37456580D01*
X216233382Y36832131D01*
X215005587Y36057026D01*
X214867335Y35944845D01*
X214867335Y36257785D01*
X214766752Y36763448D01*
X214569452Y37239773D01*
X214283017Y37668454D01*
X213918454Y38033017D01*
X213489773Y38319452D01*
X213013448Y38516752D01*
X212507785Y38617335D01*
X211992215Y38617335D01*
X211486552Y38516752D01*
X211010227Y38319452D01*
X210581546Y38033017D01*
X210216983Y37668454D01*
X209930548Y37239773D01*
X209733248Y36763448D01*
X209632665Y36257785D01*
X735000Y36257785D01*
X735000Y77065000D01*
X407765001Y77065000D01*
X407765000Y735000D01*
%TA.AperFunction,NonConductor*%
D11*
G36*
X407765000Y735000D02*
G01*
X735000Y735000D01*
X735000Y28800000D01*
X43861444Y28800000D01*
X43865001Y28763885D01*
X43865000Y13286105D01*
X43861444Y13250000D01*
X43875635Y13105915D01*
X43917663Y12967367D01*
X43985913Y12839680D01*
X44077762Y12727762D01*
X44189680Y12635913D01*
X44317367Y12567663D01*
X44455915Y12525635D01*
X44600000Y12511444D01*
X44636105Y12515000D01*
X57763895Y12515000D01*
X57800000Y12511444D01*
X57836105Y12515000D01*
X57944085Y12525635D01*
X58082633Y12567663D01*
X58210320Y12635913D01*
X58322238Y12727762D01*
X58414087Y12839680D01*
X58482337Y12967367D01*
X58524365Y13105915D01*
X58538556Y13250000D01*
X58535000Y13286105D01*
X58535000Y28763895D01*
X58538556Y28800000D01*
X63861443Y28800000D01*
X63865000Y28763885D01*
X63864999Y13286105D01*
X63861443Y13250000D01*
X63875634Y13105915D01*
X63917662Y12967367D01*
X63985912Y12839680D01*
X64077761Y12727762D01*
X64189679Y12635913D01*
X64317366Y12567663D01*
X64455914Y12525635D01*
X64599999Y12511444D01*
X64636104Y12515000D01*
X77763895Y12515000D01*
X77800000Y12511444D01*
X77836105Y12515000D01*
X77944085Y12525635D01*
X78082633Y12567663D01*
X78210320Y12635913D01*
X78322238Y12727762D01*
X78414087Y12839680D01*
X78482337Y12967367D01*
X78524365Y13105915D01*
X78538556Y13250000D01*
X78535000Y13286105D01*
X78535000Y28763895D01*
X78538556Y28800000D01*
X83861444Y28800000D01*
X83865001Y28763885D01*
X83865000Y13286105D01*
X83861444Y13250000D01*
X83875635Y13105915D01*
X83917663Y12967367D01*
X83985913Y12839680D01*
X84077762Y12727762D01*
X84189680Y12635913D01*
X84317367Y12567663D01*
X84455915Y12525635D01*
X84600000Y12511444D01*
X84636105Y12515000D01*
X97763895Y12515000D01*
X97800000Y12511444D01*
X97836105Y12515000D01*
X97944085Y12525635D01*
X98082633Y12567663D01*
X98210320Y12635913D01*
X98322238Y12727762D01*
X98414087Y12839680D01*
X98482337Y12967367D01*
X98524365Y13105915D01*
X98538556Y13250000D01*
X98535000Y13286105D01*
X98535000Y28763895D01*
X98538556Y28800000D01*
X103861444Y28800000D01*
X103865001Y28763885D01*
X103865000Y13286105D01*
X103861444Y13250000D01*
X103875635Y13105915D01*
X103917663Y12967367D01*
X103985913Y12839680D01*
X104077762Y12727762D01*
X104189680Y12635913D01*
X104317367Y12567663D01*
X104455915Y12525635D01*
X104600000Y12511444D01*
X104636105Y12515000D01*
X117763895Y12515000D01*
X117800000Y12511444D01*
X117836105Y12515000D01*
X117944085Y12525635D01*
X118082633Y12567663D01*
X118210320Y12635913D01*
X118322238Y12727762D01*
X118414087Y12839680D01*
X118482337Y12967367D01*
X118524365Y13105915D01*
X118538556Y13250000D01*
X118535000Y13286105D01*
X118535000Y28763895D01*
X118538556Y28800000D01*
X118524365Y28944085D01*
X118482337Y29082633D01*
X118414087Y29210320D01*
X118322238Y29322238D01*
X118210320Y29414087D01*
X118082633Y29482337D01*
X117944085Y29524365D01*
X117836105Y29535000D01*
X117800000Y29538556D01*
X117763895Y29535000D01*
X104636105Y29535000D01*
X104600000Y29538556D01*
X104563895Y29535000D01*
X104455915Y29524365D01*
X104317367Y29482337D01*
X104189680Y29414087D01*
X104077762Y29322238D01*
X103985913Y29210320D01*
X103917663Y29082633D01*
X103875635Y28944085D01*
X103861444Y28800000D01*
X98538556Y28800000D01*
X98524365Y28944085D01*
X98482337Y29082633D01*
X98414087Y29210320D01*
X98322238Y29322238D01*
X98210320Y29414087D01*
X98082633Y29482337D01*
X97944085Y29524365D01*
X97836105Y29535000D01*
X97800000Y29538556D01*
X97763895Y29535000D01*
X84636105Y29535000D01*
X84600000Y29538556D01*
X84563895Y29535000D01*
X84455915Y29524365D01*
X84317367Y29482337D01*
X84189680Y29414087D01*
X84077762Y29322238D01*
X83985913Y29210320D01*
X83917663Y29082633D01*
X83875635Y28944085D01*
X83861444Y28800000D01*
X78538556Y28800000D01*
X78524365Y28944085D01*
X78482337Y29082633D01*
X78414087Y29210320D01*
X78322238Y29322238D01*
X78210320Y29414087D01*
X78082633Y29482337D01*
X77944085Y29524365D01*
X77836105Y29535000D01*
X77800000Y29538556D01*
X77763895Y29535000D01*
X64636104Y29535000D01*
X64599999Y29538556D01*
X64563894Y29535000D01*
X64455914Y29524365D01*
X64317366Y29482337D01*
X64189679Y29414087D01*
X64077761Y29322238D01*
X63985912Y29210320D01*
X63917662Y29082633D01*
X63875634Y28944085D01*
X63861443Y28800000D01*
X58538556Y28800000D01*
X58524365Y28944085D01*
X58482337Y29082633D01*
X58414087Y29210320D01*
X58322238Y29322238D01*
X58210320Y29414087D01*
X58082633Y29482337D01*
X57944085Y29524365D01*
X57836105Y29535000D01*
X57800000Y29538556D01*
X57763895Y29535000D01*
X44636105Y29535000D01*
X44600000Y29538556D01*
X44563895Y29535000D01*
X44455915Y29524365D01*
X44317367Y29482337D01*
X44189680Y29414087D01*
X44077762Y29322238D01*
X43985913Y29210320D01*
X43917663Y29082633D01*
X43875635Y28944085D01*
X43861444Y28800000D01*
X735000Y28800000D01*
X735000Y36257785D01*
X209632665Y36257785D01*
X209632665Y35742215D01*
X209733248Y35236552D01*
X209930548Y34760227D01*
X210216983Y34331546D01*
X210581546Y33966983D01*
X211010227Y33680548D01*
X211486552Y33483248D01*
X211992215Y33382665D01*
X212318824Y33382665D01*
X211985634Y32946216D01*
X211247253Y31695991D01*
X210661923Y30367211D01*
X210237860Y28978528D01*
X209981018Y27549438D01*
X209895001Y26100000D01*
X209981018Y24650562D01*
X210237860Y23221472D01*
X210661923Y21832789D01*
X211247253Y20504009D01*
X211985634Y19253784D01*
X212866700Y18099666D01*
X213878084Y17057854D01*
X215005587Y16142974D01*
X216233382Y15367869D01*
X217544233Y14743420D01*
X218919740Y14278392D01*
X220340592Y13979313D01*
X221786844Y13850383D01*
X223238194Y13893410D01*
X224674268Y14107791D01*
X226074907Y14490516D01*
X227420449Y15036213D01*
X228692005Y15737222D01*
X229432665Y16268664D01*
X229432665Y15942215D01*
X229533248Y15436552D01*
X229730548Y14960227D01*
X230016983Y14531546D01*
X230381546Y14166983D01*
X230810227Y13880548D01*
X231286552Y13683248D01*
X231792215Y13582665D01*
X232307785Y13582665D01*
X232813448Y13683248D01*
X233289773Y13880548D01*
X233718454Y14166983D01*
X234083017Y14531546D01*
X234369452Y14960227D01*
X234566752Y15436552D01*
X234667335Y15942215D01*
X234667335Y16457785D01*
X234566752Y16963448D01*
X234369452Y17439773D01*
X234083017Y17868454D01*
X233718454Y18233017D01*
X233289773Y18519452D01*
X232813448Y18716752D01*
X232307785Y18817335D01*
X231994445Y18817335D01*
X232702089Y19867952D01*
X233365109Y21159723D01*
X233870693Y22520845D01*
X234211745Y23932210D01*
X234383476Y25374006D01*
X234383476Y26825994D01*
X234211745Y28267790D01*
X233870693Y29679155D01*
X233365109Y31040277D01*
X232702089Y32332048D01*
X231890940Y33536335D01*
X230943051Y34636232D01*
X229871726Y35616299D01*
X228977700Y36257785D01*
X249632664Y36257785D01*
X249632664Y35742215D01*
X249733247Y35236551D01*
X249930547Y34760227D01*
X250216983Y34331546D01*
X250581546Y33966983D01*
X251010227Y33680547D01*
X251486551Y33483247D01*
X251992215Y33382664D01*
X252318821Y33382664D01*
X251985632Y32946216D01*
X251247251Y31695991D01*
X250661921Y30367211D01*
X250237858Y28978528D01*
X249981016Y27549438D01*
X249894999Y26100000D01*
X249981016Y24650562D01*
X250237858Y23221472D01*
X250661921Y21832789D01*
X251247251Y20504009D01*
X251985632Y19253784D01*
X252866699Y18099665D01*
X253878082Y17057853D01*
X255005585Y16142973D01*
X256233381Y15367868D01*
X257544232Y14743419D01*
X258919738Y14278391D01*
X260340590Y13979313D01*
X261786843Y13850382D01*
X263238193Y13893409D01*
X264674267Y14107790D01*
X266074906Y14490516D01*
X267420448Y15036213D01*
X268692004Y15737221D01*
X269432664Y16268662D01*
X269432664Y15942215D01*
X269533247Y15436551D01*
X269730547Y14960227D01*
X270016983Y14531546D01*
X270381546Y14166983D01*
X270810227Y13880547D01*
X271286551Y13683247D01*
X271792215Y13582664D01*
X272307785Y13582664D01*
X272813449Y13683247D01*
X273289773Y13880547D01*
X273718454Y14166983D01*
X274083017Y14531546D01*
X274369453Y14960227D01*
X274566753Y15436551D01*
X274667336Y15942215D01*
X274667336Y16457785D01*
X274566753Y16963449D01*
X274369453Y17439773D01*
X274083017Y17868454D01*
X273718454Y18233017D01*
X273289773Y18519453D01*
X272813449Y18716753D01*
X272307785Y18817336D01*
X271994446Y18817336D01*
X272702088Y19867951D01*
X273365109Y21159722D01*
X273491504Y21500000D01*
X298361444Y21500000D01*
X298365001Y21463885D01*
X298365000Y13436105D01*
X298361444Y13400000D01*
X298375635Y13255915D01*
X298417663Y13117367D01*
X298485913Y12989680D01*
X298577762Y12877762D01*
X298689680Y12785913D01*
X298817367Y12717663D01*
X298955915Y12675635D01*
X299100000Y12661444D01*
X299136105Y12665000D01*
X309913895Y12665000D01*
X309950000Y12661444D01*
X309986105Y12665000D01*
X310094085Y12675635D01*
X310232633Y12717663D01*
X310360320Y12785913D01*
X310472238Y12877762D01*
X310564087Y12989680D01*
X310632337Y13117367D01*
X310674365Y13255915D01*
X310688556Y13400000D01*
X310685000Y13436105D01*
X310685000Y21463895D01*
X310688556Y21500000D01*
X310674365Y21644085D01*
X310632337Y21782633D01*
X310564087Y21910320D01*
X310472238Y22022238D01*
X310360320Y22114087D01*
X310232633Y22182337D01*
X310094085Y22224365D01*
X309986105Y22235000D01*
X309950000Y22238556D01*
X309913895Y22235000D01*
X299136105Y22235000D01*
X299100000Y22238556D01*
X299063895Y22235000D01*
X298955915Y22224365D01*
X298817367Y22182337D01*
X298689680Y22114087D01*
X298577762Y22022238D01*
X298485913Y21910320D01*
X298417663Y21782633D01*
X298375635Y21644085D01*
X298361444Y21500000D01*
X273491504Y21500000D01*
X273870693Y22520844D01*
X274211745Y23932210D01*
X274383476Y25374006D01*
X274383476Y26825994D01*
X274211745Y28267790D01*
X273870693Y29679156D01*
X273365109Y31040278D01*
X272702088Y32332049D01*
X271890940Y33536336D01*
X270943050Y34636233D01*
X269871726Y35616300D01*
X268692004Y36462779D01*
X267420448Y37163787D01*
X266074906Y37709484D01*
X264674267Y38092210D01*
X263238193Y38306591D01*
X261786843Y38349618D01*
X260340590Y38220687D01*
X258919738Y37921609D01*
X257544232Y37456581D01*
X256233381Y36832132D01*
X255005585Y36057027D01*
X254867336Y35944849D01*
X254867336Y36257785D01*
X254766753Y36763449D01*
X254569453Y37239773D01*
X254283017Y37668454D01*
X253918454Y38033017D01*
X253489773Y38319453D01*
X253013449Y38516753D01*
X252507785Y38617336D01*
X251992215Y38617336D01*
X251486551Y38516753D01*
X251010227Y38319453D01*
X250581546Y38033017D01*
X250216983Y37668454D01*
X249930547Y37239773D01*
X249733247Y36763449D01*
X249632664Y36257785D01*
X228977700Y36257785D01*
X228692005Y36462778D01*
X227420449Y37163787D01*
X226074907Y37709484D01*
X224674268Y38092209D01*
X223238194Y38306590D01*
X221786844Y38349617D01*
X220340592Y38220687D01*
X218919740Y37921608D01*
X217544233Y37456580D01*
X216233382Y36832131D01*
X215005587Y36057026D01*
X214867335Y35944845D01*
X214867335Y36257785D01*
X214766752Y36763448D01*
X214569452Y37239773D01*
X214283017Y37668454D01*
X213918454Y38033017D01*
X213489773Y38319452D01*
X213013448Y38516752D01*
X212507785Y38617335D01*
X211992215Y38617335D01*
X211486552Y38516752D01*
X211010227Y38319452D01*
X210581546Y38033017D01*
X210216983Y37668454D01*
X209930548Y37239773D01*
X209733248Y36763448D01*
X209632665Y36257785D01*
X735000Y36257785D01*
X735000Y77065000D01*
X407765001Y77065000D01*
X407765000Y735000D01*
G37*
%TD.AperFunction*%
M02*
