%TF.GenerationSoftware,KiCad,Pcbnew,(5.1.10)-1*%
%TF.CreationDate,2022-05-26T11:50:09-06:00*%
%TF.ProjectId,Back_Panel,4261636b-5f50-4616-9e65-6c2e6b696361,rev?*%
%TF.SameCoordinates,Original*%
%TF.FileFunction,Profile,NP*%
%FSLAX46Y46*%
G04 Gerber Fmt 4.6, Leading zero omitted, Abs format (unit mm)*
G04 Created by KiCad (PCBNEW (5.1.10)-1) date 2022-05-26 11:50:09*
%MOMM*%
%LPD*%
G01*
G04 APERTURE LIST*
%TA.AperFunction,Profile*%
%ADD10C,0.200000*%
%TD*%
G04 APERTURE END LIST*
D10*
X299100000Y21500000D02*
X309950000Y21500000D01*
X309950000Y21500000D02*
X309950000Y13400000D01*
X309950000Y13400000D02*
X299100000Y13400000D01*
X299100000Y13400000D02*
X299100000Y21500000D01*
X84600000Y28800000D02*
X97800000Y28800000D01*
X97800000Y28800000D02*
X97800000Y13250000D01*
X97800000Y13250000D02*
X84600000Y13250000D01*
X84600000Y13250000D02*
X84600000Y28800000D01*
X44600000Y28800000D02*
X57800000Y28800000D01*
X57800000Y28800000D02*
X57800000Y13250000D01*
X57800000Y13250000D02*
X44600000Y13250000D01*
X44600000Y13250000D02*
X44600000Y28800000D01*
X64599999Y28800000D02*
X77800000Y28800000D01*
X77800000Y28800000D02*
X77800000Y13250000D01*
X77800000Y13250000D02*
X64599999Y13250000D01*
X64599999Y13250000D02*
X64599999Y28800000D01*
X104600000Y28800000D02*
X117800000Y28800000D01*
X117800000Y28800000D02*
X117800000Y13250000D01*
X117800000Y13250000D02*
X104600000Y13250000D01*
X104600000Y13250000D02*
X104600000Y28800000D01*
X0Y77800000D02*
X0Y0D01*
X0Y0D02*
X408500000Y0D01*
X408500000Y0D02*
X408500000Y77800000D01*
X408500000Y77800000D02*
X0Y77800000D01*
X233649999Y26100000D02*
G75*
G03*
X233649999Y26100000I-11499999J0D01*
G01*
X273925000Y16200000D02*
G75*
G03*
X273925000Y16200000I-1875000J0D01*
G01*
X273649999Y26100000D02*
G75*
G03*
X273649999Y26100000I-11500000J0D01*
G01*
X254125000Y36000000D02*
G75*
G03*
X254125000Y36000000I-1875000J0D01*
G01*
X233924999Y16200000D02*
G75*
G03*
X233924999Y16200000I-1874999J0D01*
G01*
X214124999Y36000000D02*
G75*
G03*
X214124999Y36000000I-1874999J0D01*
G01*
M02*
