%TF.GenerationSoftware,KiCad,Pcbnew,(5.1.10)-1*%
%TF.CreationDate,2022-05-26T11:50:09-06:00*%
%TF.ProjectId,Back_Panel,4261636b-5f50-4616-9e65-6c2e6b696361,rev?*%
%TF.SameCoordinates,Original*%
%TF.FileFunction,Legend,Bot*%
%TF.FilePolarity,Positive*%
%FSLAX46Y46*%
G04 Gerber Fmt 4.6, Leading zero omitted, Abs format (unit mm)*
G04 Created by KiCad (PCBNEW (5.1.10)-1) date 2022-05-26 11:50:09*
%MOMM*%
%LPD*%
G01*
G04 APERTURE LIST*
%ADD10C,0.150000*%
G04 APERTURE END LIST*
D10*
X344904761Y39197619D02*
X345238095Y39673809D01*
X345476190Y39197619D02*
X345476190Y40197619D01*
X345095238Y40197619D01*
X345000000Y40150000D01*
X344952380Y40102380D01*
X344904761Y40007142D01*
X344904761Y39864285D01*
X344952380Y39769047D01*
X345000000Y39721428D01*
X345095238Y39673809D01*
X345476190Y39673809D01*
X344571428Y39864285D02*
X344333333Y39197619D01*
X344095238Y39864285D02*
X344333333Y39197619D01*
X344428571Y38959523D01*
X344476190Y38911904D01*
X344571428Y38864285D01*
X343285714Y39197619D02*
X343285714Y39721428D01*
X343333333Y39816666D01*
X343428571Y39864285D01*
X343619047Y39864285D01*
X343714285Y39816666D01*
X343285714Y39245238D02*
X343380952Y39197619D01*
X343619047Y39197619D01*
X343714285Y39245238D01*
X343761904Y39340476D01*
X343761904Y39435714D01*
X343714285Y39530952D01*
X343619047Y39578571D01*
X343380952Y39578571D01*
X343285714Y39626190D01*
X342809523Y39864285D02*
X342809523Y39197619D01*
X342809523Y39769047D02*
X342761904Y39816666D01*
X342666666Y39864285D01*
X342523809Y39864285D01*
X342428571Y39816666D01*
X342380952Y39721428D01*
X342380952Y39197619D01*
X341142857Y39197619D02*
X341142857Y40197619D01*
X340809523Y39483333D01*
X340476190Y40197619D01*
X340476190Y39197619D01*
X339857142Y39197619D02*
X339952380Y39245238D01*
X340000000Y39292857D01*
X340047619Y39388095D01*
X340047619Y39673809D01*
X340000000Y39769047D01*
X339952380Y39816666D01*
X339857142Y39864285D01*
X339714285Y39864285D01*
X339619047Y39816666D01*
X339571428Y39769047D01*
X339523809Y39673809D01*
X339523809Y39388095D01*
X339571428Y39292857D01*
X339619047Y39245238D01*
X339714285Y39197619D01*
X339857142Y39197619D01*
X339095238Y39197619D02*
X339095238Y39864285D01*
X339095238Y39673809D02*
X339047619Y39769047D01*
X339000000Y39816666D01*
X338904761Y39864285D01*
X338809523Y39864285D01*
X338047619Y39864285D02*
X338047619Y39054761D01*
X338095238Y38959523D01*
X338142857Y38911904D01*
X338238095Y38864285D01*
X338380952Y38864285D01*
X338476190Y38911904D01*
X338047619Y39245238D02*
X338142857Y39197619D01*
X338333333Y39197619D01*
X338428571Y39245238D01*
X338476190Y39292857D01*
X338523809Y39388095D01*
X338523809Y39673809D01*
X338476190Y39769047D01*
X338428571Y39816666D01*
X338333333Y39864285D01*
X338142857Y39864285D01*
X338047619Y39816666D01*
X337190476Y39245238D02*
X337285714Y39197619D01*
X337476190Y39197619D01*
X337571428Y39245238D01*
X337619047Y39340476D01*
X337619047Y39721428D01*
X337571428Y39816666D01*
X337476190Y39864285D01*
X337285714Y39864285D01*
X337190476Y39816666D01*
X337142857Y39721428D01*
X337142857Y39626190D01*
X337619047Y39530952D01*
X336714285Y39864285D02*
X336714285Y39197619D01*
X336714285Y39769047D02*
X336666666Y39816666D01*
X336571428Y39864285D01*
X336428571Y39864285D01*
X336333333Y39816666D01*
X336285714Y39721428D01*
X336285714Y39197619D01*
X335857142Y39245238D02*
X335761904Y39197619D01*
X335571428Y39197619D01*
X335476190Y39245238D01*
X335428571Y39340476D01*
X335428571Y39388095D01*
X335476190Y39483333D01*
X335571428Y39530952D01*
X335714285Y39530952D01*
X335809523Y39578571D01*
X335857142Y39673809D01*
X335857142Y39721428D01*
X335809523Y39816666D01*
X335714285Y39864285D01*
X335571428Y39864285D01*
X335476190Y39816666D01*
X335142857Y39864285D02*
X334761904Y39864285D01*
X335000000Y40197619D02*
X335000000Y39340476D01*
X334952380Y39245238D01*
X334857142Y39197619D01*
X334761904Y39197619D01*
X334047619Y39245238D02*
X334142857Y39197619D01*
X334333333Y39197619D01*
X334428571Y39245238D01*
X334476190Y39340476D01*
X334476190Y39721428D01*
X334428571Y39816666D01*
X334333333Y39864285D01*
X334142857Y39864285D01*
X334047619Y39816666D01*
X334000000Y39721428D01*
X334000000Y39626190D01*
X334476190Y39530952D01*
X333571428Y39197619D02*
X333571428Y39864285D01*
X333571428Y39673809D02*
X333523809Y39769047D01*
X333476190Y39816666D01*
X333380952Y39864285D01*
X333285714Y39864285D01*
X332952380Y39864285D02*
X332952380Y39197619D01*
X332952380Y39769047D02*
X332904761Y39816666D01*
X332809523Y39864285D01*
X332666666Y39864285D01*
X332571428Y39816666D01*
X332523809Y39721428D01*
X332523809Y39197619D01*
X343261904Y38071428D02*
X343119047Y38023809D01*
X343071428Y37976190D01*
X343023809Y37880952D01*
X343023809Y37738095D01*
X343071428Y37642857D01*
X343119047Y37595238D01*
X343214285Y37547619D01*
X343595238Y37547619D01*
X343595238Y38547619D01*
X343261904Y38547619D01*
X343166666Y38500000D01*
X343119047Y38452380D01*
X343071428Y38357142D01*
X343071428Y38261904D01*
X343119047Y38166666D01*
X343166666Y38119047D01*
X343261904Y38071428D01*
X343595238Y38071428D01*
X342166666Y37547619D02*
X342166666Y38071428D01*
X342214285Y38166666D01*
X342309523Y38214285D01*
X342500000Y38214285D01*
X342595238Y38166666D01*
X342166666Y37595238D02*
X342261904Y37547619D01*
X342500000Y37547619D01*
X342595238Y37595238D01*
X342642857Y37690476D01*
X342642857Y37785714D01*
X342595238Y37880952D01*
X342500000Y37928571D01*
X342261904Y37928571D01*
X342166666Y37976190D01*
X341261904Y37595238D02*
X341357142Y37547619D01*
X341547619Y37547619D01*
X341642857Y37595238D01*
X341690476Y37642857D01*
X341738095Y37738095D01*
X341738095Y38023809D01*
X341690476Y38119047D01*
X341642857Y38166666D01*
X341547619Y38214285D01*
X341357142Y38214285D01*
X341261904Y38166666D01*
X340833333Y37547619D02*
X340833333Y38547619D01*
X340738095Y37928571D02*
X340452380Y37547619D01*
X340452380Y38214285D02*
X340833333Y37833333D01*
X340023809Y37547619D02*
X340023809Y38547619D01*
X339642857Y38547619D01*
X339547619Y38500000D01*
X339500000Y38452380D01*
X339452380Y38357142D01*
X339452380Y38214285D01*
X339500000Y38119047D01*
X339547619Y38071428D01*
X339642857Y38023809D01*
X340023809Y38023809D01*
X338595238Y37547619D02*
X338595238Y38071428D01*
X338642857Y38166666D01*
X338738095Y38214285D01*
X338928571Y38214285D01*
X339023809Y38166666D01*
X338595238Y37595238D02*
X338690476Y37547619D01*
X338928571Y37547619D01*
X339023809Y37595238D01*
X339071428Y37690476D01*
X339071428Y37785714D01*
X339023809Y37880952D01*
X338928571Y37928571D01*
X338690476Y37928571D01*
X338595238Y37976190D01*
X338119047Y38214285D02*
X338119047Y37547619D01*
X338119047Y38119047D02*
X338071428Y38166666D01*
X337976190Y38214285D01*
X337833333Y38214285D01*
X337738095Y38166666D01*
X337690476Y38071428D01*
X337690476Y37547619D01*
X336833333Y37595238D02*
X336928571Y37547619D01*
X337119047Y37547619D01*
X337214285Y37595238D01*
X337261904Y37690476D01*
X337261904Y38071428D01*
X337214285Y38166666D01*
X337119047Y38214285D01*
X336928571Y38214285D01*
X336833333Y38166666D01*
X336785714Y38071428D01*
X336785714Y37976190D01*
X337261904Y37880952D01*
X336214285Y37547619D02*
X336309523Y37595238D01*
X336357142Y37690476D01*
X336357142Y38547619D01*
X335642857Y38547619D02*
X335547619Y38547619D01*
X335452380Y38500000D01*
X335404761Y38452380D01*
X335357142Y38357142D01*
X335309523Y38166666D01*
X335309523Y37928571D01*
X335357142Y37738095D01*
X335404761Y37642857D01*
X335452380Y37595238D01*
X335547619Y37547619D01*
X335642857Y37547619D01*
X335738095Y37595238D01*
X335785714Y37642857D01*
X335833333Y37738095D01*
X335880952Y37928571D01*
X335880952Y38166666D01*
X335833333Y38357142D01*
X335785714Y38452380D01*
X335738095Y38500000D01*
X335642857Y38547619D01*
X334357142Y37547619D02*
X334928571Y37547619D01*
X334642857Y37547619D02*
X334642857Y38547619D01*
X334738095Y38404761D01*
X334833333Y38309523D01*
X334928571Y38261904D01*
X342452380Y35897619D02*
X342452380Y36897619D01*
X342119047Y36183333D01*
X341785714Y36897619D01*
X341785714Y35897619D01*
X340880952Y35897619D02*
X340880952Y36421428D01*
X340928571Y36516666D01*
X341023809Y36564285D01*
X341214285Y36564285D01*
X341309523Y36516666D01*
X340880952Y35945238D02*
X340976190Y35897619D01*
X341214285Y35897619D01*
X341309523Y35945238D01*
X341357142Y36040476D01*
X341357142Y36135714D01*
X341309523Y36230952D01*
X341214285Y36278571D01*
X340976190Y36278571D01*
X340880952Y36326190D01*
X340500000Y36564285D02*
X340261904Y35897619D01*
X340023809Y36564285D02*
X340261904Y35897619D01*
X340357142Y35659523D01*
X340404761Y35611904D01*
X340500000Y35564285D01*
X338928571Y36802380D02*
X338880952Y36850000D01*
X338785714Y36897619D01*
X338547619Y36897619D01*
X338452380Y36850000D01*
X338404761Y36802380D01*
X338357142Y36707142D01*
X338357142Y36611904D01*
X338404761Y36469047D01*
X338976190Y35897619D01*
X338357142Y35897619D01*
X337738095Y36897619D02*
X337642857Y36897619D01*
X337547619Y36850000D01*
X337500000Y36802380D01*
X337452380Y36707142D01*
X337404761Y36516666D01*
X337404761Y36278571D01*
X337452380Y36088095D01*
X337500000Y35992857D01*
X337547619Y35945238D01*
X337642857Y35897619D01*
X337738095Y35897619D01*
X337833333Y35945238D01*
X337880952Y35992857D01*
X337928571Y36088095D01*
X337976190Y36278571D01*
X337976190Y36516666D01*
X337928571Y36707142D01*
X337880952Y36802380D01*
X337833333Y36850000D01*
X337738095Y36897619D01*
X337023809Y36802380D02*
X336976190Y36850000D01*
X336880952Y36897619D01*
X336642857Y36897619D01*
X336547619Y36850000D01*
X336500000Y36802380D01*
X336452380Y36707142D01*
X336452380Y36611904D01*
X336500000Y36469047D01*
X337071428Y35897619D01*
X336452380Y35897619D01*
X336071428Y36802380D02*
X336023809Y36850000D01*
X335928571Y36897619D01*
X335690476Y36897619D01*
X335595238Y36850000D01*
X335547619Y36802380D01*
X335500000Y36707142D01*
X335500000Y36611904D01*
X335547619Y36469047D01*
X336119047Y35897619D01*
X335500000Y35897619D01*
M02*
