M48
; DRILL file {KiCad (5.1.9)-1} date 01/25/22 19:13:18
; FORMAT={-:-/ absolute / metric / decimal}
; #@! TF.CreationDate,2022-01-25T19:13:18-07:00
; #@! TF.GenerationSoftware,Kicad,Pcbnew,(5.1.9)-1
; #@! TF.FileFunction,Plated,1,2,PTH
FMAT,2
METRIC
T1C0.400
T2C1.000
T3C1.016
T4C3.048
T5C3.500
T6C4.000
T7C5.300
%
G90
G05
T1
X59.0Y-268.767
X59.568Y-213.045
X60.048Y-240.565
X65.388Y-218.865
X65.448Y-214.615
X86.748Y-210.015
X89.998Y-211.815
X94.348Y-214.715
X104.598Y-169.565
X106.898Y-167.915
X109.548Y-166.215
X124.425Y-358.138
X124.425Y-361.938
X158.998Y-276.465
X159.998Y-274.065
X160.002Y-265.665
X163.198Y-279.865
X164.998Y-276.265
X166.298Y-261.065
X168.002Y-273.665
X169.498Y-263.565
X183.598Y-357.765
X184.271Y-361.938
X219.648Y-202.465
X219.698Y-204.065
X219.698Y-217.065
X221.248Y-204.065
X225.998Y-47.365
X228.998Y-49.365
X229.348Y-39.215
X230.998Y-44.265
T2
X49.408Y-189.18
X49.408Y-255.53
X51.948Y-189.18
X51.948Y-255.53
X54.488Y-189.18
X54.488Y-255.53
X57.028Y-189.18
X57.028Y-255.53
X59.568Y-189.18
X59.568Y-255.53
X62.108Y-189.18
X62.108Y-255.53
X64.648Y-189.18
X67.188Y-189.18
X67.188Y-255.53
X69.728Y-255.53
X71.252Y-189.18
X72.268Y-255.53
X73.792Y-189.18
X74.808Y-255.53
X76.332Y-189.18
X77.348Y-255.53
X78.872Y-189.18
X79.888Y-255.53
X81.412Y-189.18
X82.428Y-255.53
X83.952Y-189.18
X84.968Y-255.53
X86.492Y-189.18
X89.032Y-189.18
X91.572Y-189.18
X94.112Y-189.18
X107.45Y-8.27
X108.47Y-5.73
X109.49Y-8.27
X110.51Y-5.73
X111.53Y-8.27
X112.55Y-5.73
X122.45Y-8.27
X123.47Y-5.73
X124.49Y-8.27
X125.51Y-5.73
X126.53Y-8.27
X127.55Y-5.73
X137.45Y-8.27
X138.47Y-5.73
X139.49Y-8.27
X140.51Y-5.73
X141.53Y-8.27
X142.55Y-5.73
X152.45Y-8.27
X153.47Y-5.73
X154.49Y-8.27
X155.51Y-5.73
X156.53Y-8.27
X157.55Y-5.73
X182.45Y-8.27
X183.47Y-5.73
X184.49Y-8.27
X185.51Y-5.73
X186.53Y-8.27
X187.55Y-5.73
X197.45Y-8.27
X198.47Y-5.73
X199.49Y-8.27
X200.51Y-5.73
X201.53Y-8.27
X202.55Y-5.73
T3
X49.408Y-198.225
X49.408Y-246.485
X51.948Y-198.225
X51.948Y-246.485
X54.488Y-198.225
X54.488Y-246.485
X57.028Y-198.225
X57.028Y-246.485
X59.568Y-198.225
X59.568Y-246.485
X62.108Y-198.225
X62.108Y-246.485
X64.648Y-198.225
X67.188Y-198.225
X67.188Y-246.485
X69.728Y-246.485
X71.252Y-198.225
X72.268Y-246.485
X73.792Y-198.225
X74.808Y-246.485
X76.332Y-198.225
X77.348Y-246.485
X78.872Y-198.225
X79.888Y-246.485
X81.412Y-198.225
X82.428Y-246.485
X83.952Y-198.225
X84.968Y-246.485
X86.492Y-198.225
X89.032Y-198.225
X91.572Y-198.225
X94.112Y-198.225
T4
X46.868Y-213.465
X46.868Y-241.405
X97.668Y-198.225
X98.938Y-246.485
T5
X39.748Y-150.135
X39.748Y-158.685
X66.798Y-151.135
X66.798Y-159.685
T6
X300.0Y-153.0
X300.0Y-265.0
X300.0Y-275.0
X300.0Y-387.0
X322.5Y-153.0
X322.5Y-265.0
X322.5Y-275.0
X322.5Y-387.0
T7
X180.0Y-33.0
X180.0Y-128.0
X357.5Y-33.0
X357.5Y-128.0
T0
M30
