G04 #@! TF.GenerationSoftware,KiCad,Pcbnew,(5.1.9)-1*
G04 #@! TF.CreationDate,2022-01-25T19:13:17-07:00*
G04 #@! TF.ProjectId,Lifting_Mech_PCB_Mount,4c696674-696e-4675-9f4d-6563685f5043,rev?*
G04 #@! TF.SameCoordinates,Original*
G04 #@! TF.FileFunction,Soldermask,Top*
G04 #@! TF.FilePolarity,Negative*
%FSLAX46Y46*%
G04 Gerber Fmt 4.6, Leading zero omitted, Abs format (unit mm)*
G04 Created by KiCad (PCBNEW (5.1.9)-1) date 2022-01-25 19:13:17*
%MOMM*%
%LPD*%
G01*
G04 APERTURE LIST*
%ADD10C,8.000000*%
%ADD11C,7.000000*%
%ADD12R,0.600000X1.550000*%
%ADD13R,1.500000X2.000000*%
%ADD14R,1.250000X0.700000*%
%ADD15C,2.400000*%
%ADD16C,1.600000*%
%ADD17R,1.600000X1.600000*%
%ADD18O,1.727200X2.032000*%
%ADD19C,4.064000*%
%ADD20R,1.700000X0.600000*%
%ADD21R,1.800000X1.200000*%
%ADD22C,9.200000*%
%ADD23R,1.700000X1.700000*%
%ADD24O,1.700000X1.700000*%
G04 APERTURE END LIST*
D10*
X300000000Y-153000000D03*
D11*
X66798000Y-159685000D03*
X66798000Y-151135000D03*
X39748000Y-158685000D03*
X39748000Y-150135000D03*
D12*
X59000000Y-358062000D03*
X60000000Y-358062000D03*
X61000000Y-358062000D03*
D13*
X62300000Y-361938000D03*
X57700000Y-361938000D03*
D12*
X179000000Y-358062000D03*
X180000000Y-358062000D03*
X181000000Y-358062000D03*
D13*
X182300000Y-361938000D03*
X177700000Y-361938000D03*
D12*
X119000000Y-358062000D03*
X120000000Y-358062000D03*
X121000000Y-358062000D03*
D13*
X122300000Y-361938000D03*
X117700000Y-361938000D03*
D14*
X162000000Y-282950000D03*
X162000000Y-281050000D03*
X160000000Y-282000000D03*
X162000000Y-272950000D03*
X162000000Y-271050000D03*
X160000000Y-272000000D03*
X162000000Y-262950000D03*
X162000000Y-261050000D03*
X160000000Y-262000000D03*
D15*
X116000000Y-3430000D03*
X104000000Y-3430000D03*
D16*
X110510000Y-5730000D03*
X109490000Y-8270000D03*
X108470000Y-5730000D03*
D17*
X107450000Y-8270000D03*
D16*
X112550000Y-5730000D03*
X111530000Y-8270000D03*
D15*
X131000000Y-3430000D03*
X119000000Y-3430000D03*
D16*
X125510000Y-5730000D03*
X124490000Y-8270000D03*
X123470000Y-5730000D03*
D17*
X122450000Y-8270000D03*
D16*
X127550000Y-5730000D03*
X126530000Y-8270000D03*
D15*
X146000000Y-3430000D03*
X134000000Y-3430000D03*
D16*
X140510000Y-5730000D03*
X139490000Y-8270000D03*
X138470000Y-5730000D03*
D17*
X137450000Y-8270000D03*
D16*
X142550000Y-5730000D03*
X141530000Y-8270000D03*
D15*
X161000000Y-3430000D03*
X149000000Y-3430000D03*
D16*
X155510000Y-5730000D03*
X154490000Y-8270000D03*
X153470000Y-5730000D03*
D17*
X152450000Y-8270000D03*
D16*
X157550000Y-5730000D03*
X156530000Y-8270000D03*
D15*
X191000000Y-3430000D03*
X179000000Y-3430000D03*
D16*
X185510000Y-5730000D03*
X184490000Y-8270000D03*
X183470000Y-5730000D03*
D17*
X182450000Y-8270000D03*
D16*
X187550000Y-5730000D03*
X186530000Y-8270000D03*
D15*
X206000000Y-3430000D03*
X194000000Y-3430000D03*
D16*
X200510000Y-5730000D03*
X199490000Y-8270000D03*
X198470000Y-5730000D03*
D17*
X197450000Y-8270000D03*
D16*
X202550000Y-5730000D03*
X201530000Y-8270000D03*
D18*
X84968000Y-246485000D03*
X82428000Y-246485000D03*
X79888000Y-246485000D03*
X77348000Y-246485000D03*
X74808000Y-246485000D03*
X72268000Y-246485000D03*
X69728000Y-246485000D03*
X67188000Y-246485000D03*
X62108000Y-246485000D03*
X59568000Y-246485000D03*
X57028000Y-246485000D03*
X54488000Y-246485000D03*
X51948000Y-246485000D03*
X49408000Y-246485000D03*
X94112000Y-198225000D03*
X91572000Y-198225000D03*
X89032000Y-198225000D03*
X86492000Y-198225000D03*
X83952000Y-198225000D03*
X81412000Y-198225000D03*
X78872000Y-198225000D03*
X76332000Y-198225000D03*
X73792000Y-198225000D03*
X71252000Y-198225000D03*
X67188000Y-198225000D03*
X64648000Y-198225000D03*
X62108000Y-198225000D03*
X59568000Y-198225000D03*
X57028000Y-198225000D03*
X54488000Y-198225000D03*
X51948000Y-198225000D03*
X49408000Y-198225000D03*
D19*
X98938000Y-246485000D03*
X46868000Y-241405000D03*
X97668000Y-198225000D03*
X46868000Y-213465000D03*
D20*
X226938000Y-327500000D03*
X226938000Y-326500000D03*
X226937000Y-335500000D03*
X226937000Y-334500000D03*
X226937000Y-333500000D03*
X226937000Y-332500000D03*
X226937000Y-331500000D03*
X226937000Y-330500000D03*
X226937000Y-329500000D03*
X226937000Y-328500000D03*
D21*
X223062000Y-325200000D03*
X223062000Y-336800000D03*
X223062000Y-213600000D03*
X223062000Y-202000000D03*
D20*
X226937000Y-205300000D03*
X226937000Y-206300000D03*
X226937000Y-207300000D03*
X226937000Y-208300000D03*
X226937000Y-209300000D03*
X226937000Y-210300000D03*
X226937000Y-211300000D03*
X226937000Y-212300000D03*
X226938000Y-203300000D03*
X226938000Y-204300000D03*
D22*
X180000000Y-128000000D03*
X357500000Y-128000000D03*
X357500000Y-33000000D03*
X180000000Y-33000000D03*
D10*
X300000000Y-265000000D03*
X322500000Y-265000000D03*
X300000000Y-387000000D03*
X322500000Y-153000000D03*
X300000000Y-275000000D03*
X322500000Y-275000000D03*
X322500000Y-387000000D03*
D23*
X84968000Y-255530000D03*
D24*
X82428000Y-255530000D03*
X79888000Y-255530000D03*
X77348000Y-255530000D03*
X74808000Y-255530000D03*
X72268000Y-255530000D03*
X69728000Y-255530000D03*
X67188000Y-255530000D03*
D23*
X62108000Y-255530000D03*
D24*
X59568000Y-255530000D03*
X57028000Y-255530000D03*
X54488000Y-255530000D03*
X51948000Y-255530000D03*
X49408000Y-255530000D03*
D23*
X94112000Y-189180000D03*
D24*
X91572000Y-189180000D03*
X89032000Y-189180000D03*
X86492000Y-189180000D03*
X83952000Y-189180000D03*
X81412000Y-189180000D03*
X78872000Y-189180000D03*
X76332000Y-189180000D03*
X73792000Y-189180000D03*
X71252000Y-189180000D03*
X49408000Y-189180000D03*
X51948000Y-189180000D03*
X54488000Y-189180000D03*
X57028000Y-189180000D03*
X59568000Y-189180000D03*
X62108000Y-189180000D03*
X64648000Y-189180000D03*
D23*
X67188000Y-189180000D03*
M02*
