G04 #@! TF.GenerationSoftware,KiCad,Pcbnew,(5.1.9)-1*
G04 #@! TF.CreationDate,2022-01-25T19:13:17-07:00*
G04 #@! TF.ProjectId,Lifting_Mech_PCB_Mount,4c696674-696e-4675-9f4d-6563685f5043,rev?*
G04 #@! TF.SameCoordinates,Original*
G04 #@! TF.FileFunction,Legend,Bot*
G04 #@! TF.FilePolarity,Positive*
%FSLAX46Y46*%
G04 Gerber Fmt 4.6, Leading zero omitted, Abs format (unit mm)*
G04 Created by KiCad (PCBNEW (5.1.9)-1) date 2022-01-25 19:13:17*
%MOMM*%
%LPD*%
G01*
G04 APERTURE LIST*
%ADD10C,0.150000*%
%ADD11C,8.000000*%
%ADD12C,7.000000*%
%ADD13C,2.400000*%
%ADD14C,1.600000*%
%ADD15R,1.600000X1.600000*%
%ADD16O,1.727200X2.032000*%
%ADD17C,4.064000*%
%ADD18C,9.200000*%
%ADD19R,1.700000X1.700000*%
%ADD20O,1.700000X1.700000*%
G04 APERTURE END LIST*
D10*
X84515619Y-243659285D02*
X84515619Y-244230714D01*
X84515619Y-243945000D02*
X85515619Y-243945000D01*
X85372761Y-244040238D01*
X85277523Y-244135476D01*
X85229904Y-244230714D01*
X46868000Y-197209000D02*
X48392000Y-195685000D01*
X46868000Y-208639000D02*
X46868000Y-197209000D01*
X44328000Y-211179000D02*
X46868000Y-208639000D01*
X44328000Y-243945000D02*
X44328000Y-211179000D01*
X46868000Y-246485000D02*
X44328000Y-243945000D01*
X46868000Y-249025000D02*
X46868000Y-246485000D01*
X112908000Y-249025000D02*
X46868000Y-249025000D01*
X112908000Y-195685000D02*
X112908000Y-249025000D01*
X48392000Y-195685000D02*
X112908000Y-195685000D01*
X101224000Y-246485000D02*
G75*
G03*
X101224000Y-246485000I-2286000J0D01*
G01*
X49154000Y-241405000D02*
G75*
G03*
X49154000Y-241405000I-2286000J0D01*
G01*
X99954000Y-198225000D02*
G75*
G03*
X99954000Y-198225000I-2286000J0D01*
G01*
X49154000Y-213465000D02*
G75*
G03*
X49154000Y-213465000I-2286000J0D01*
G01*
%LPC*%
D11*
X300000000Y-153000000D03*
D12*
X66798000Y-159685000D03*
X66798000Y-151135000D03*
X39748000Y-158685000D03*
X39748000Y-150135000D03*
D13*
X116000000Y-3430000D03*
X104000000Y-3430000D03*
D14*
X110510000Y-5730000D03*
X109490000Y-8270000D03*
X108470000Y-5730000D03*
D15*
X107450000Y-8270000D03*
D14*
X112550000Y-5730000D03*
X111530000Y-8270000D03*
D13*
X131000000Y-3430000D03*
X119000000Y-3430000D03*
D14*
X125510000Y-5730000D03*
X124490000Y-8270000D03*
X123470000Y-5730000D03*
D15*
X122450000Y-8270000D03*
D14*
X127550000Y-5730000D03*
X126530000Y-8270000D03*
D13*
X146000000Y-3430000D03*
X134000000Y-3430000D03*
D14*
X140510000Y-5730000D03*
X139490000Y-8270000D03*
X138470000Y-5730000D03*
D15*
X137450000Y-8270000D03*
D14*
X142550000Y-5730000D03*
X141530000Y-8270000D03*
D13*
X161000000Y-3430000D03*
X149000000Y-3430000D03*
D14*
X155510000Y-5730000D03*
X154490000Y-8270000D03*
X153470000Y-5730000D03*
D15*
X152450000Y-8270000D03*
D14*
X157550000Y-5730000D03*
X156530000Y-8270000D03*
D13*
X191000000Y-3430000D03*
X179000000Y-3430000D03*
D14*
X185510000Y-5730000D03*
X184490000Y-8270000D03*
X183470000Y-5730000D03*
D15*
X182450000Y-8270000D03*
D14*
X187550000Y-5730000D03*
X186530000Y-8270000D03*
D13*
X206000000Y-3430000D03*
X194000000Y-3430000D03*
D14*
X200510000Y-5730000D03*
X199490000Y-8270000D03*
X198470000Y-5730000D03*
D15*
X197450000Y-8270000D03*
D14*
X202550000Y-5730000D03*
X201530000Y-8270000D03*
D16*
X84968000Y-246485000D03*
X82428000Y-246485000D03*
X79888000Y-246485000D03*
X77348000Y-246485000D03*
X74808000Y-246485000D03*
X72268000Y-246485000D03*
X69728000Y-246485000D03*
X67188000Y-246485000D03*
X62108000Y-246485000D03*
X59568000Y-246485000D03*
X57028000Y-246485000D03*
X54488000Y-246485000D03*
X51948000Y-246485000D03*
X49408000Y-246485000D03*
X94112000Y-198225000D03*
X91572000Y-198225000D03*
X89032000Y-198225000D03*
X86492000Y-198225000D03*
X83952000Y-198225000D03*
X81412000Y-198225000D03*
X78872000Y-198225000D03*
X76332000Y-198225000D03*
X73792000Y-198225000D03*
X71252000Y-198225000D03*
X67188000Y-198225000D03*
X64648000Y-198225000D03*
X62108000Y-198225000D03*
X59568000Y-198225000D03*
X57028000Y-198225000D03*
X54488000Y-198225000D03*
X51948000Y-198225000D03*
X49408000Y-198225000D03*
D17*
X98938000Y-246485000D03*
X46868000Y-241405000D03*
X97668000Y-198225000D03*
X46868000Y-213465000D03*
D18*
X180000000Y-128000000D03*
X357500000Y-128000000D03*
X357500000Y-33000000D03*
X180000000Y-33000000D03*
D11*
X300000000Y-265000000D03*
X322500000Y-265000000D03*
X300000000Y-387000000D03*
X322500000Y-153000000D03*
X300000000Y-275000000D03*
X322500000Y-275000000D03*
X322500000Y-387000000D03*
D19*
X84968000Y-255530000D03*
D20*
X82428000Y-255530000D03*
X79888000Y-255530000D03*
X77348000Y-255530000D03*
X74808000Y-255530000D03*
X72268000Y-255530000D03*
X69728000Y-255530000D03*
X67188000Y-255530000D03*
D19*
X62108000Y-255530000D03*
D20*
X59568000Y-255530000D03*
X57028000Y-255530000D03*
X54488000Y-255530000D03*
X51948000Y-255530000D03*
X49408000Y-255530000D03*
D19*
X94112000Y-189180000D03*
D20*
X91572000Y-189180000D03*
X89032000Y-189180000D03*
X86492000Y-189180000D03*
X83952000Y-189180000D03*
X81412000Y-189180000D03*
X78872000Y-189180000D03*
X76332000Y-189180000D03*
X73792000Y-189180000D03*
X71252000Y-189180000D03*
X49408000Y-189180000D03*
X51948000Y-189180000D03*
X54488000Y-189180000D03*
X57028000Y-189180000D03*
X59568000Y-189180000D03*
X62108000Y-189180000D03*
X64648000Y-189180000D03*
D19*
X67188000Y-189180000D03*
M02*
