G04 #@! TF.GenerationSoftware,KiCad,Pcbnew,(5.1.9)-1*
G04 #@! TF.CreationDate,2022-01-25T19:13:17-07:00*
G04 #@! TF.ProjectId,Lifting_Mech_PCB_Mount,4c696674-696e-4675-9f4d-6563685f5043,rev?*
G04 #@! TF.SameCoordinates,Original*
G04 #@! TF.FileFunction,Paste,Top*
G04 #@! TF.FilePolarity,Positive*
%FSLAX46Y46*%
G04 Gerber Fmt 4.6, Leading zero omitted, Abs format (unit mm)*
G04 Created by KiCad (PCBNEW (5.1.9)-1) date 2022-01-25 19:13:17*
%MOMM*%
%LPD*%
G01*
G04 APERTURE LIST*
%ADD10R,0.600000X1.550000*%
%ADD11R,1.500000X2.000000*%
%ADD12R,1.250000X0.700000*%
%ADD13R,1.700000X0.600000*%
%ADD14R,1.800000X1.200000*%
G04 APERTURE END LIST*
D10*
X59000000Y-358062000D03*
X60000000Y-358062000D03*
X61000000Y-358062000D03*
D11*
X62300000Y-361938000D03*
X57700000Y-361938000D03*
D10*
X179000000Y-358062000D03*
X180000000Y-358062000D03*
X181000000Y-358062000D03*
D11*
X182300000Y-361938000D03*
X177700000Y-361938000D03*
D10*
X119000000Y-358062000D03*
X120000000Y-358062000D03*
X121000000Y-358062000D03*
D11*
X122300000Y-361938000D03*
X117700000Y-361938000D03*
D12*
X162000000Y-282950000D03*
X162000000Y-281050000D03*
X160000000Y-282000000D03*
X162000000Y-272950000D03*
X162000000Y-271050000D03*
X160000000Y-272000000D03*
X162000000Y-262950000D03*
X162000000Y-261050000D03*
X160000000Y-262000000D03*
D13*
X226938000Y-327500000D03*
X226938000Y-326500000D03*
X226937000Y-335500000D03*
X226937000Y-334500000D03*
X226937000Y-333500000D03*
X226937000Y-332500000D03*
X226937000Y-331500000D03*
X226937000Y-330500000D03*
X226937000Y-329500000D03*
X226937000Y-328500000D03*
D14*
X223062000Y-325200000D03*
X223062000Y-336800000D03*
X223062000Y-213600000D03*
X223062000Y-202000000D03*
D13*
X226937000Y-205300000D03*
X226937000Y-206300000D03*
X226937000Y-207300000D03*
X226937000Y-208300000D03*
X226937000Y-209300000D03*
X226937000Y-210300000D03*
X226937000Y-211300000D03*
X226937000Y-212300000D03*
X226938000Y-203300000D03*
X226938000Y-204300000D03*
M02*
