G04 #@! TF.GenerationSoftware,KiCad,Pcbnew,(5.1.9)-1*
G04 #@! TF.CreationDate,2022-02-01T16:59:12-07:00*
G04 #@! TF.ProjectId,Limit_to_RJ11,4c696d69-745f-4746-9f5f-524a31312e6b,rev?*
G04 #@! TF.SameCoordinates,Original*
G04 #@! TF.FileFunction,Copper,L1,Top*
G04 #@! TF.FilePolarity,Positive*
%FSLAX46Y46*%
G04 Gerber Fmt 4.6, Leading zero omitted, Abs format (unit mm)*
G04 Created by KiCad (PCBNEW (5.1.9)-1) date 2022-02-01 16:59:12*
%MOMM*%
%LPD*%
G01*
G04 APERTURE LIST*
G04 #@! TA.AperFunction,ComponentPad*
%ADD10C,1.600000*%
G04 #@! TD*
G04 #@! TA.AperFunction,ComponentPad*
%ADD11R,1.600000X1.600000*%
G04 #@! TD*
G04 #@! TA.AperFunction,ComponentPad*
%ADD12R,1.700000X1.700000*%
G04 #@! TD*
G04 #@! TA.AperFunction,ComponentPad*
%ADD13O,1.700000X1.700000*%
G04 #@! TD*
G04 #@! TA.AperFunction,Conductor*
%ADD14C,0.250000*%
G04 #@! TD*
G04 #@! TA.AperFunction,Conductor*
%ADD15C,0.254000*%
G04 #@! TD*
G04 #@! TA.AperFunction,Conductor*
%ADD16C,0.100000*%
G04 #@! TD*
G04 APERTURE END LIST*
D10*
X14490000Y-26020000D03*
X15510000Y-23480000D03*
X16530000Y-26020000D03*
D11*
X17550000Y-23480000D03*
D10*
X12450000Y-26020000D03*
X13470000Y-23480000D03*
D12*
X15000000Y-3000000D03*
D13*
X15000000Y-5540000D03*
X15000000Y-8080000D03*
X15000000Y-10620000D03*
X15000000Y-13160000D03*
X15000000Y-15700000D03*
D14*
X25000000Y-5000000D02*
X25000000Y-25000000D01*
X5000000Y-25000000D02*
X5000000Y-5000000D01*
X23980000Y-26020000D02*
X25000000Y-25000000D01*
X15510000Y-22348630D02*
X15510000Y-23480000D01*
X16625011Y-21233619D02*
X15510000Y-22348630D01*
X16625011Y-9705011D02*
X16625011Y-21233619D01*
X15000000Y-8080000D02*
X16625011Y-9705011D01*
X13364999Y-27145001D02*
X14490000Y-26020000D01*
X11909999Y-27145001D02*
X13364999Y-27145001D01*
X11199992Y-26434994D02*
X11909999Y-27145001D01*
X11199992Y-14420008D02*
X11199992Y-26434994D01*
X15000000Y-10620000D02*
X11199992Y-14420008D01*
X16175001Y-20774999D02*
X13470000Y-23480000D01*
X16175001Y-14335001D02*
X16175001Y-20774999D01*
X15000000Y-13160000D02*
X16175001Y-14335001D01*
X11650001Y-25220001D02*
X12450000Y-26020000D01*
X11650001Y-19049999D02*
X11650001Y-25220001D01*
X15000000Y-15700000D02*
X11650001Y-19049999D01*
X17195002Y-26020000D02*
X16530000Y-26020000D01*
X18675001Y-24540001D02*
X17195002Y-26020000D01*
X18675001Y-9215001D02*
X18675001Y-24540001D01*
X15000000Y-5540000D02*
X18675001Y-9215001D01*
D15*
X29115001Y-29115000D02*
X22656890Y-29115000D01*
X22764482Y-28855250D01*
X22835000Y-28500732D01*
X22835000Y-28139268D01*
X22764482Y-27784750D01*
X22626156Y-27450801D01*
X22425338Y-27150256D01*
X22169744Y-26894662D01*
X21869199Y-26693844D01*
X21552939Y-26562845D01*
X23616761Y-26562845D01*
X23784802Y-26888643D01*
X24176607Y-27089426D01*
X24600055Y-27209914D01*
X25038873Y-27245476D01*
X25476197Y-27194746D01*
X25895221Y-27059674D01*
X26215198Y-26888643D01*
X26383239Y-26562845D01*
X25000000Y-25179605D01*
X23616761Y-26562845D01*
X21552939Y-26562845D01*
X21535250Y-26555518D01*
X21180732Y-26485000D01*
X20819268Y-26485000D01*
X20464750Y-26555518D01*
X20130801Y-26693844D01*
X19830256Y-26894662D01*
X19574662Y-27150256D01*
X19373844Y-27450801D01*
X19235518Y-27784750D01*
X19165000Y-28139268D01*
X19165000Y-28500732D01*
X19235518Y-28855250D01*
X19343110Y-29115000D01*
X10656890Y-29115000D01*
X10764482Y-28855250D01*
X10835000Y-28500732D01*
X10835000Y-28139268D01*
X10764482Y-27784750D01*
X10626156Y-27450801D01*
X10425338Y-27150256D01*
X10169744Y-26894662D01*
X9869199Y-26693844D01*
X9535250Y-26555518D01*
X9180732Y-26485000D01*
X8819268Y-26485000D01*
X8464750Y-26555518D01*
X8130801Y-26693844D01*
X7830256Y-26894662D01*
X7574662Y-27150256D01*
X7373844Y-27450801D01*
X7235518Y-27784750D01*
X7165000Y-28139268D01*
X7165000Y-28500732D01*
X7235518Y-28855250D01*
X7343110Y-29115000D01*
X885000Y-29115000D01*
X885000Y-26562845D01*
X3616761Y-26562845D01*
X3784802Y-26888643D01*
X4176607Y-27089426D01*
X4600055Y-27209914D01*
X5038873Y-27245476D01*
X5476197Y-27194746D01*
X5895221Y-27059674D01*
X6215198Y-26888643D01*
X6383239Y-26562845D01*
X5000000Y-25179605D01*
X3616761Y-26562845D01*
X885000Y-26562845D01*
X885000Y-25038873D01*
X2754524Y-25038873D01*
X2805254Y-25476197D01*
X2940326Y-25895221D01*
X3111357Y-26215198D01*
X3437155Y-26383239D01*
X4820395Y-25000000D01*
X5179605Y-25000000D01*
X6562845Y-26383239D01*
X6888643Y-26215198D01*
X7089426Y-25823393D01*
X7209914Y-25399945D01*
X7245476Y-24961127D01*
X7194746Y-24523803D01*
X7059674Y-24104779D01*
X6888643Y-23784802D01*
X6562845Y-23616761D01*
X5179605Y-25000000D01*
X4820395Y-25000000D01*
X3437155Y-23616761D01*
X3111357Y-23784802D01*
X2910574Y-24176607D01*
X2790086Y-24600055D01*
X2754524Y-25038873D01*
X885000Y-25038873D01*
X885000Y-23437155D01*
X3616761Y-23437155D01*
X5000000Y-24820395D01*
X6383239Y-23437155D01*
X6215198Y-23111357D01*
X5823393Y-22910574D01*
X5399945Y-22790086D01*
X4961127Y-22754524D01*
X4523803Y-22805254D01*
X4104779Y-22940326D01*
X3784802Y-23111357D01*
X3616761Y-23437155D01*
X885000Y-23437155D01*
X885000Y-14420008D01*
X10436316Y-14420008D01*
X10439992Y-14457330D01*
X10439993Y-26397662D01*
X10436316Y-26434994D01*
X10450990Y-26583979D01*
X10494446Y-26727240D01*
X10565018Y-26859270D01*
X10594064Y-26894662D01*
X10659992Y-26974995D01*
X10688990Y-26998793D01*
X11346200Y-27656003D01*
X11369998Y-27685002D01*
X11398996Y-27708800D01*
X11485723Y-27779975D01*
X11617752Y-27850547D01*
X11761013Y-27894004D01*
X11909999Y-27908678D01*
X11947332Y-27905001D01*
X13327677Y-27905001D01*
X13364999Y-27908677D01*
X13402321Y-27905001D01*
X13402332Y-27905001D01*
X13513985Y-27894004D01*
X13657246Y-27850547D01*
X13789275Y-27779975D01*
X13905000Y-27685002D01*
X13928803Y-27655999D01*
X14166113Y-27418688D01*
X14348665Y-27455000D01*
X14631335Y-27455000D01*
X14908574Y-27399853D01*
X15169727Y-27291680D01*
X15404759Y-27134637D01*
X15510000Y-27029396D01*
X15615241Y-27134637D01*
X15850273Y-27291680D01*
X16111426Y-27399853D01*
X16388665Y-27455000D01*
X16671335Y-27455000D01*
X16948574Y-27399853D01*
X17209727Y-27291680D01*
X17444759Y-27134637D01*
X17644637Y-26934759D01*
X17801680Y-26699727D01*
X17909853Y-26438574D01*
X17924410Y-26365393D01*
X19186004Y-25103800D01*
X19215002Y-25080002D01*
X19248755Y-25038873D01*
X22754524Y-25038873D01*
X22805254Y-25476197D01*
X22940326Y-25895221D01*
X23111357Y-26215198D01*
X23437155Y-26383239D01*
X24820395Y-25000000D01*
X25179605Y-25000000D01*
X26562845Y-26383239D01*
X26888643Y-26215198D01*
X27089426Y-25823393D01*
X27209914Y-25399945D01*
X27245476Y-24961127D01*
X27194746Y-24523803D01*
X27059674Y-24104779D01*
X26888643Y-23784802D01*
X26562845Y-23616761D01*
X25179605Y-25000000D01*
X24820395Y-25000000D01*
X23437155Y-23616761D01*
X23111357Y-23784802D01*
X22910574Y-24176607D01*
X22790086Y-24600055D01*
X22754524Y-25038873D01*
X19248755Y-25038873D01*
X19309975Y-24964277D01*
X19380547Y-24832248D01*
X19424004Y-24688987D01*
X19435001Y-24577334D01*
X19435001Y-24577326D01*
X19438677Y-24540001D01*
X19435001Y-24502676D01*
X19435001Y-23437155D01*
X23616761Y-23437155D01*
X25000000Y-24820395D01*
X26383239Y-23437155D01*
X26215198Y-23111357D01*
X25823393Y-22910574D01*
X25399945Y-22790086D01*
X24961127Y-22754524D01*
X24523803Y-22805254D01*
X24104779Y-22940326D01*
X23784802Y-23111357D01*
X23616761Y-23437155D01*
X19435001Y-23437155D01*
X19435001Y-9252323D01*
X19438677Y-9215000D01*
X19435001Y-9177677D01*
X19435001Y-9177668D01*
X19424004Y-9066015D01*
X19380547Y-8922754D01*
X19309975Y-8790725D01*
X19215002Y-8675000D01*
X19186005Y-8651203D01*
X17097647Y-6562845D01*
X23616761Y-6562845D01*
X23784802Y-6888643D01*
X24176607Y-7089426D01*
X24600055Y-7209914D01*
X25038873Y-7245476D01*
X25476197Y-7194746D01*
X25895221Y-7059674D01*
X26215198Y-6888643D01*
X26383239Y-6562845D01*
X25000000Y-5179605D01*
X23616761Y-6562845D01*
X17097647Y-6562845D01*
X16441209Y-5906408D01*
X16485000Y-5686260D01*
X16485000Y-5393740D01*
X16427932Y-5106842D01*
X16399779Y-5038873D01*
X22754524Y-5038873D01*
X22805254Y-5476197D01*
X22940326Y-5895221D01*
X23111357Y-6215198D01*
X23437155Y-6383239D01*
X24820395Y-5000000D01*
X25179605Y-5000000D01*
X26562845Y-6383239D01*
X26888643Y-6215198D01*
X27089426Y-5823393D01*
X27209914Y-5399945D01*
X27245476Y-4961127D01*
X27194746Y-4523803D01*
X27059674Y-4104779D01*
X26888643Y-3784802D01*
X26562845Y-3616761D01*
X25179605Y-5000000D01*
X24820395Y-5000000D01*
X23437155Y-3616761D01*
X23111357Y-3784802D01*
X22910574Y-4176607D01*
X22790086Y-4600055D01*
X22754524Y-5038873D01*
X16399779Y-5038873D01*
X16315990Y-4836589D01*
X16153475Y-4593368D01*
X16021620Y-4461513D01*
X16094180Y-4439502D01*
X16204494Y-4380537D01*
X16301185Y-4301185D01*
X16380537Y-4204494D01*
X16439502Y-4094180D01*
X16475812Y-3974482D01*
X16488072Y-3850000D01*
X16488072Y-3437155D01*
X23616761Y-3437155D01*
X25000000Y-4820395D01*
X26383239Y-3437155D01*
X26215198Y-3111357D01*
X25823393Y-2910574D01*
X25399945Y-2790086D01*
X24961127Y-2754524D01*
X24523803Y-2805254D01*
X24104779Y-2940326D01*
X23784802Y-3111357D01*
X23616761Y-3437155D01*
X16488072Y-3437155D01*
X16488072Y-2150000D01*
X16475812Y-2025518D01*
X16439502Y-1905820D01*
X16380537Y-1795506D01*
X16301185Y-1698815D01*
X16204494Y-1619463D01*
X16094180Y-1560498D01*
X15974482Y-1524188D01*
X15850000Y-1511928D01*
X14150000Y-1511928D01*
X14025518Y-1524188D01*
X13905820Y-1560498D01*
X13795506Y-1619463D01*
X13698815Y-1698815D01*
X13619463Y-1795506D01*
X13560498Y-1905820D01*
X13524188Y-2025518D01*
X13511928Y-2150000D01*
X13511928Y-3850000D01*
X13524188Y-3974482D01*
X13560498Y-4094180D01*
X13619463Y-4204494D01*
X13698815Y-4301185D01*
X13795506Y-4380537D01*
X13905820Y-4439502D01*
X13978380Y-4461513D01*
X13846525Y-4593368D01*
X13684010Y-4836589D01*
X13572068Y-5106842D01*
X13515000Y-5393740D01*
X13515000Y-5686260D01*
X13572068Y-5973158D01*
X13684010Y-6243411D01*
X13846525Y-6486632D01*
X14053368Y-6693475D01*
X14227760Y-6810000D01*
X14053368Y-6926525D01*
X13846525Y-7133368D01*
X13684010Y-7376589D01*
X13572068Y-7646842D01*
X13515000Y-7933740D01*
X13515000Y-8226260D01*
X13572068Y-8513158D01*
X13684010Y-8783411D01*
X13846525Y-9026632D01*
X14053368Y-9233475D01*
X14227760Y-9350000D01*
X14053368Y-9466525D01*
X13846525Y-9673368D01*
X13684010Y-9916589D01*
X13572068Y-10186842D01*
X13515000Y-10473740D01*
X13515000Y-10766260D01*
X13558790Y-10986408D01*
X10688995Y-13856204D01*
X10659991Y-13880007D01*
X10634782Y-13910725D01*
X10565018Y-13995732D01*
X10539884Y-14042754D01*
X10494446Y-14127762D01*
X10450989Y-14271023D01*
X10439992Y-14382676D01*
X10439992Y-14382686D01*
X10436316Y-14420008D01*
X885000Y-14420008D01*
X885000Y-6562845D01*
X3616761Y-6562845D01*
X3784802Y-6888643D01*
X4176607Y-7089426D01*
X4600055Y-7209914D01*
X5038873Y-7245476D01*
X5476197Y-7194746D01*
X5895221Y-7059674D01*
X6215198Y-6888643D01*
X6383239Y-6562845D01*
X5000000Y-5179605D01*
X3616761Y-6562845D01*
X885000Y-6562845D01*
X885000Y-5038873D01*
X2754524Y-5038873D01*
X2805254Y-5476197D01*
X2940326Y-5895221D01*
X3111357Y-6215198D01*
X3437155Y-6383239D01*
X4820395Y-5000000D01*
X5179605Y-5000000D01*
X6562845Y-6383239D01*
X6888643Y-6215198D01*
X7089426Y-5823393D01*
X7209914Y-5399945D01*
X7245476Y-4961127D01*
X7194746Y-4523803D01*
X7059674Y-4104779D01*
X6888643Y-3784802D01*
X6562845Y-3616761D01*
X5179605Y-5000000D01*
X4820395Y-5000000D01*
X3437155Y-3616761D01*
X3111357Y-3784802D01*
X2910574Y-4176607D01*
X2790086Y-4600055D01*
X2754524Y-5038873D01*
X885000Y-5038873D01*
X885000Y-3437155D01*
X3616761Y-3437155D01*
X5000000Y-4820395D01*
X6383239Y-3437155D01*
X6215198Y-3111357D01*
X5823393Y-2910574D01*
X5399945Y-2790086D01*
X4961127Y-2754524D01*
X4523803Y-2805254D01*
X4104779Y-2940326D01*
X3784802Y-3111357D01*
X3616761Y-3437155D01*
X885000Y-3437155D01*
X885000Y-885000D01*
X29115000Y-885000D01*
X29115001Y-29115000D01*
G04 #@! TA.AperFunction,Conductor*
D16*
G36*
X29115001Y-29115000D02*
G01*
X22656890Y-29115000D01*
X22764482Y-28855250D01*
X22835000Y-28500732D01*
X22835000Y-28139268D01*
X22764482Y-27784750D01*
X22626156Y-27450801D01*
X22425338Y-27150256D01*
X22169744Y-26894662D01*
X21869199Y-26693844D01*
X21552939Y-26562845D01*
X23616761Y-26562845D01*
X23784802Y-26888643D01*
X24176607Y-27089426D01*
X24600055Y-27209914D01*
X25038873Y-27245476D01*
X25476197Y-27194746D01*
X25895221Y-27059674D01*
X26215198Y-26888643D01*
X26383239Y-26562845D01*
X25000000Y-25179605D01*
X23616761Y-26562845D01*
X21552939Y-26562845D01*
X21535250Y-26555518D01*
X21180732Y-26485000D01*
X20819268Y-26485000D01*
X20464750Y-26555518D01*
X20130801Y-26693844D01*
X19830256Y-26894662D01*
X19574662Y-27150256D01*
X19373844Y-27450801D01*
X19235518Y-27784750D01*
X19165000Y-28139268D01*
X19165000Y-28500732D01*
X19235518Y-28855250D01*
X19343110Y-29115000D01*
X10656890Y-29115000D01*
X10764482Y-28855250D01*
X10835000Y-28500732D01*
X10835000Y-28139268D01*
X10764482Y-27784750D01*
X10626156Y-27450801D01*
X10425338Y-27150256D01*
X10169744Y-26894662D01*
X9869199Y-26693844D01*
X9535250Y-26555518D01*
X9180732Y-26485000D01*
X8819268Y-26485000D01*
X8464750Y-26555518D01*
X8130801Y-26693844D01*
X7830256Y-26894662D01*
X7574662Y-27150256D01*
X7373844Y-27450801D01*
X7235518Y-27784750D01*
X7165000Y-28139268D01*
X7165000Y-28500732D01*
X7235518Y-28855250D01*
X7343110Y-29115000D01*
X885000Y-29115000D01*
X885000Y-26562845D01*
X3616761Y-26562845D01*
X3784802Y-26888643D01*
X4176607Y-27089426D01*
X4600055Y-27209914D01*
X5038873Y-27245476D01*
X5476197Y-27194746D01*
X5895221Y-27059674D01*
X6215198Y-26888643D01*
X6383239Y-26562845D01*
X5000000Y-25179605D01*
X3616761Y-26562845D01*
X885000Y-26562845D01*
X885000Y-25038873D01*
X2754524Y-25038873D01*
X2805254Y-25476197D01*
X2940326Y-25895221D01*
X3111357Y-26215198D01*
X3437155Y-26383239D01*
X4820395Y-25000000D01*
X5179605Y-25000000D01*
X6562845Y-26383239D01*
X6888643Y-26215198D01*
X7089426Y-25823393D01*
X7209914Y-25399945D01*
X7245476Y-24961127D01*
X7194746Y-24523803D01*
X7059674Y-24104779D01*
X6888643Y-23784802D01*
X6562845Y-23616761D01*
X5179605Y-25000000D01*
X4820395Y-25000000D01*
X3437155Y-23616761D01*
X3111357Y-23784802D01*
X2910574Y-24176607D01*
X2790086Y-24600055D01*
X2754524Y-25038873D01*
X885000Y-25038873D01*
X885000Y-23437155D01*
X3616761Y-23437155D01*
X5000000Y-24820395D01*
X6383239Y-23437155D01*
X6215198Y-23111357D01*
X5823393Y-22910574D01*
X5399945Y-22790086D01*
X4961127Y-22754524D01*
X4523803Y-22805254D01*
X4104779Y-22940326D01*
X3784802Y-23111357D01*
X3616761Y-23437155D01*
X885000Y-23437155D01*
X885000Y-14420008D01*
X10436316Y-14420008D01*
X10439992Y-14457330D01*
X10439993Y-26397662D01*
X10436316Y-26434994D01*
X10450990Y-26583979D01*
X10494446Y-26727240D01*
X10565018Y-26859270D01*
X10594064Y-26894662D01*
X10659992Y-26974995D01*
X10688990Y-26998793D01*
X11346200Y-27656003D01*
X11369998Y-27685002D01*
X11398996Y-27708800D01*
X11485723Y-27779975D01*
X11617752Y-27850547D01*
X11761013Y-27894004D01*
X11909999Y-27908678D01*
X11947332Y-27905001D01*
X13327677Y-27905001D01*
X13364999Y-27908677D01*
X13402321Y-27905001D01*
X13402332Y-27905001D01*
X13513985Y-27894004D01*
X13657246Y-27850547D01*
X13789275Y-27779975D01*
X13905000Y-27685002D01*
X13928803Y-27655999D01*
X14166113Y-27418688D01*
X14348665Y-27455000D01*
X14631335Y-27455000D01*
X14908574Y-27399853D01*
X15169727Y-27291680D01*
X15404759Y-27134637D01*
X15510000Y-27029396D01*
X15615241Y-27134637D01*
X15850273Y-27291680D01*
X16111426Y-27399853D01*
X16388665Y-27455000D01*
X16671335Y-27455000D01*
X16948574Y-27399853D01*
X17209727Y-27291680D01*
X17444759Y-27134637D01*
X17644637Y-26934759D01*
X17801680Y-26699727D01*
X17909853Y-26438574D01*
X17924410Y-26365393D01*
X19186004Y-25103800D01*
X19215002Y-25080002D01*
X19248755Y-25038873D01*
X22754524Y-25038873D01*
X22805254Y-25476197D01*
X22940326Y-25895221D01*
X23111357Y-26215198D01*
X23437155Y-26383239D01*
X24820395Y-25000000D01*
X25179605Y-25000000D01*
X26562845Y-26383239D01*
X26888643Y-26215198D01*
X27089426Y-25823393D01*
X27209914Y-25399945D01*
X27245476Y-24961127D01*
X27194746Y-24523803D01*
X27059674Y-24104779D01*
X26888643Y-23784802D01*
X26562845Y-23616761D01*
X25179605Y-25000000D01*
X24820395Y-25000000D01*
X23437155Y-23616761D01*
X23111357Y-23784802D01*
X22910574Y-24176607D01*
X22790086Y-24600055D01*
X22754524Y-25038873D01*
X19248755Y-25038873D01*
X19309975Y-24964277D01*
X19380547Y-24832248D01*
X19424004Y-24688987D01*
X19435001Y-24577334D01*
X19435001Y-24577326D01*
X19438677Y-24540001D01*
X19435001Y-24502676D01*
X19435001Y-23437155D01*
X23616761Y-23437155D01*
X25000000Y-24820395D01*
X26383239Y-23437155D01*
X26215198Y-23111357D01*
X25823393Y-22910574D01*
X25399945Y-22790086D01*
X24961127Y-22754524D01*
X24523803Y-22805254D01*
X24104779Y-22940326D01*
X23784802Y-23111357D01*
X23616761Y-23437155D01*
X19435001Y-23437155D01*
X19435001Y-9252323D01*
X19438677Y-9215000D01*
X19435001Y-9177677D01*
X19435001Y-9177668D01*
X19424004Y-9066015D01*
X19380547Y-8922754D01*
X19309975Y-8790725D01*
X19215002Y-8675000D01*
X19186005Y-8651203D01*
X17097647Y-6562845D01*
X23616761Y-6562845D01*
X23784802Y-6888643D01*
X24176607Y-7089426D01*
X24600055Y-7209914D01*
X25038873Y-7245476D01*
X25476197Y-7194746D01*
X25895221Y-7059674D01*
X26215198Y-6888643D01*
X26383239Y-6562845D01*
X25000000Y-5179605D01*
X23616761Y-6562845D01*
X17097647Y-6562845D01*
X16441209Y-5906408D01*
X16485000Y-5686260D01*
X16485000Y-5393740D01*
X16427932Y-5106842D01*
X16399779Y-5038873D01*
X22754524Y-5038873D01*
X22805254Y-5476197D01*
X22940326Y-5895221D01*
X23111357Y-6215198D01*
X23437155Y-6383239D01*
X24820395Y-5000000D01*
X25179605Y-5000000D01*
X26562845Y-6383239D01*
X26888643Y-6215198D01*
X27089426Y-5823393D01*
X27209914Y-5399945D01*
X27245476Y-4961127D01*
X27194746Y-4523803D01*
X27059674Y-4104779D01*
X26888643Y-3784802D01*
X26562845Y-3616761D01*
X25179605Y-5000000D01*
X24820395Y-5000000D01*
X23437155Y-3616761D01*
X23111357Y-3784802D01*
X22910574Y-4176607D01*
X22790086Y-4600055D01*
X22754524Y-5038873D01*
X16399779Y-5038873D01*
X16315990Y-4836589D01*
X16153475Y-4593368D01*
X16021620Y-4461513D01*
X16094180Y-4439502D01*
X16204494Y-4380537D01*
X16301185Y-4301185D01*
X16380537Y-4204494D01*
X16439502Y-4094180D01*
X16475812Y-3974482D01*
X16488072Y-3850000D01*
X16488072Y-3437155D01*
X23616761Y-3437155D01*
X25000000Y-4820395D01*
X26383239Y-3437155D01*
X26215198Y-3111357D01*
X25823393Y-2910574D01*
X25399945Y-2790086D01*
X24961127Y-2754524D01*
X24523803Y-2805254D01*
X24104779Y-2940326D01*
X23784802Y-3111357D01*
X23616761Y-3437155D01*
X16488072Y-3437155D01*
X16488072Y-2150000D01*
X16475812Y-2025518D01*
X16439502Y-1905820D01*
X16380537Y-1795506D01*
X16301185Y-1698815D01*
X16204494Y-1619463D01*
X16094180Y-1560498D01*
X15974482Y-1524188D01*
X15850000Y-1511928D01*
X14150000Y-1511928D01*
X14025518Y-1524188D01*
X13905820Y-1560498D01*
X13795506Y-1619463D01*
X13698815Y-1698815D01*
X13619463Y-1795506D01*
X13560498Y-1905820D01*
X13524188Y-2025518D01*
X13511928Y-2150000D01*
X13511928Y-3850000D01*
X13524188Y-3974482D01*
X13560498Y-4094180D01*
X13619463Y-4204494D01*
X13698815Y-4301185D01*
X13795506Y-4380537D01*
X13905820Y-4439502D01*
X13978380Y-4461513D01*
X13846525Y-4593368D01*
X13684010Y-4836589D01*
X13572068Y-5106842D01*
X13515000Y-5393740D01*
X13515000Y-5686260D01*
X13572068Y-5973158D01*
X13684010Y-6243411D01*
X13846525Y-6486632D01*
X14053368Y-6693475D01*
X14227760Y-6810000D01*
X14053368Y-6926525D01*
X13846525Y-7133368D01*
X13684010Y-7376589D01*
X13572068Y-7646842D01*
X13515000Y-7933740D01*
X13515000Y-8226260D01*
X13572068Y-8513158D01*
X13684010Y-8783411D01*
X13846525Y-9026632D01*
X14053368Y-9233475D01*
X14227760Y-9350000D01*
X14053368Y-9466525D01*
X13846525Y-9673368D01*
X13684010Y-9916589D01*
X13572068Y-10186842D01*
X13515000Y-10473740D01*
X13515000Y-10766260D01*
X13558790Y-10986408D01*
X10688995Y-13856204D01*
X10659991Y-13880007D01*
X10634782Y-13910725D01*
X10565018Y-13995732D01*
X10539884Y-14042754D01*
X10494446Y-14127762D01*
X10450989Y-14271023D01*
X10439992Y-14382676D01*
X10439992Y-14382686D01*
X10436316Y-14420008D01*
X885000Y-14420008D01*
X885000Y-6562845D01*
X3616761Y-6562845D01*
X3784802Y-6888643D01*
X4176607Y-7089426D01*
X4600055Y-7209914D01*
X5038873Y-7245476D01*
X5476197Y-7194746D01*
X5895221Y-7059674D01*
X6215198Y-6888643D01*
X6383239Y-6562845D01*
X5000000Y-5179605D01*
X3616761Y-6562845D01*
X885000Y-6562845D01*
X885000Y-5038873D01*
X2754524Y-5038873D01*
X2805254Y-5476197D01*
X2940326Y-5895221D01*
X3111357Y-6215198D01*
X3437155Y-6383239D01*
X4820395Y-5000000D01*
X5179605Y-5000000D01*
X6562845Y-6383239D01*
X6888643Y-6215198D01*
X7089426Y-5823393D01*
X7209914Y-5399945D01*
X7245476Y-4961127D01*
X7194746Y-4523803D01*
X7059674Y-4104779D01*
X6888643Y-3784802D01*
X6562845Y-3616761D01*
X5179605Y-5000000D01*
X4820395Y-5000000D01*
X3437155Y-3616761D01*
X3111357Y-3784802D01*
X2910574Y-4176607D01*
X2790086Y-4600055D01*
X2754524Y-5038873D01*
X885000Y-5038873D01*
X885000Y-3437155D01*
X3616761Y-3437155D01*
X5000000Y-4820395D01*
X6383239Y-3437155D01*
X6215198Y-3111357D01*
X5823393Y-2910574D01*
X5399945Y-2790086D01*
X4961127Y-2754524D01*
X4523803Y-2805254D01*
X4104779Y-2940326D01*
X3784802Y-3111357D01*
X3616761Y-3437155D01*
X885000Y-3437155D01*
X885000Y-885000D01*
X29115000Y-885000D01*
X29115001Y-29115000D01*
G37*
G04 #@! TD.AperFunction*
M02*
