%TF.GenerationSoftware,KiCad,Pcbnew,(5.1.10)-1*%
%TF.CreationDate,2022-11-15T17:47:35-07:00*%
%TF.ProjectId,Stepper_to_XLR4,53746570-7065-4725-9f74-6f5f584c5234,rev?*%
%TF.SameCoordinates,Original*%
%TF.FileFunction,Copper,L1,Top*%
%TF.FilePolarity,Positive*%
%FSLAX46Y46*%
G04 Gerber Fmt 4.6, Leading zero omitted, Abs format (unit mm)*
G04 Created by KiCad (PCBNEW (5.1.10)-1) date 2022-11-15 17:47:35*
%MOMM*%
%LPD*%
G01*
G04 APERTURE LIST*
%TA.AperFunction,WasherPad*%
%ADD10C,5.000000*%
%TD*%
%TA.AperFunction,ComponentPad*%
%ADD11C,2.000000*%
%TD*%
%TA.AperFunction,ComponentPad*%
%ADD12C,2.500000*%
%TD*%
%TA.AperFunction,Conductor*%
%ADD13C,4.000000*%
%TD*%
%TA.AperFunction,Conductor*%
%ADD14C,0.254000*%
%TD*%
%TA.AperFunction,Conductor*%
%ADD15C,0.100000*%
%TD*%
G04 APERTURE END LIST*
D10*
%TO.P,MH4,*%
%TO.N,*%
X19050000Y-44000000D03*
%TD*%
%TO.P,MH1,*%
%TO.N,*%
X19050000Y-5000000D03*
%TD*%
D11*
%TO.P,J1,4*%
%TO.N,Net-(J1-Pad4)*%
X-5000000Y-41000000D03*
%TO.P,J1,3*%
%TO.N,Net-(J1-Pad3)*%
X-11000000Y-41000000D03*
%TO.P,J1,2*%
%TO.N,Net-(J1-Pad2)*%
X-17000000Y-41000000D03*
%TO.P,J1,1*%
%TO.N,Net-(J1-Pad1)*%
X-23000000Y-41000000D03*
%TD*%
%TO.P,PS1,5*%
%TO.N,GND*%
X-21930000Y-6815000D03*
%TO.P,PS1,4*%
%TO.N,Net-(J1-Pad4)*%
X-9870000Y-16985000D03*
D12*
%TO.P,PS1,3*%
%TO.N,Net-(J1-Pad3)*%
X-9870000Y-13170000D03*
%TO.P,PS1,2*%
%TO.N,Net-(J1-Pad2)*%
X-17490000Y-13170000D03*
D11*
%TO.P,PS1,1*%
%TO.N,Net-(J1-Pad1)*%
X-17490000Y-16985000D03*
%TD*%
D13*
%TO.N,Net-(J1-Pad4)*%
X-5000000Y-21855000D02*
X-9870000Y-16985000D01*
X-5000000Y-41000000D02*
X-5000000Y-21855000D01*
%TO.N,Net-(J1-Pad3)*%
X-8130299Y-12784991D02*
X-9870000Y-12784991D01*
X-3260299Y-45200010D02*
X-799990Y-42739701D01*
X-6799990Y-45200010D02*
X-3260299Y-45200010D01*
X-799990Y-20115299D02*
X-8130299Y-12784991D01*
X-799990Y-42739701D02*
X-799990Y-20115299D01*
X-11000000Y-41000000D02*
X-6799990Y-45200010D01*
%TO.N,Net-(J1-Pad2)*%
X-19229701Y-12784991D02*
X-17490000Y-12784991D01*
X-27200010Y-20755299D02*
X-19229701Y-12784991D01*
X-27200010Y-42739701D02*
X-27200010Y-20755299D01*
X-24739701Y-45200010D02*
X-27200010Y-42739701D01*
X-21200010Y-45200010D02*
X-24739701Y-45200010D01*
X-17000000Y-41000000D02*
X-21200010Y-45200010D01*
%TO.N,Net-(J1-Pad1)*%
X-23000000Y-22495000D02*
X-17490000Y-16985000D01*
X-23000000Y-41000000D02*
X-23000000Y-22495000D01*
%TD*%
D14*
%TO.N,GND*%
X-292247Y-705546D02*
X-148986Y-749003D01*
X-37333Y-760000D01*
X37440001Y-760000D01*
X37440000Y-50140000D01*
X-33740000Y-50140000D01*
X-33740000Y-20755299D01*
X-29847758Y-20755299D01*
X-29835009Y-20884743D01*
X-29835010Y-42610267D01*
X-29847758Y-42739701D01*
X-29835010Y-42869135D01*
X-29835010Y-42869142D01*
X-29796883Y-43256250D01*
X-29646211Y-43752950D01*
X-29401533Y-44210711D01*
X-29072251Y-44611942D01*
X-28971704Y-44694459D01*
X-26694455Y-46971709D01*
X-26611942Y-47072251D01*
X-26210712Y-47401533D01*
X-25752951Y-47646211D01*
X-25256252Y-47796883D01*
X-25204743Y-47801956D01*
X-24869143Y-47835010D01*
X-24869136Y-47835010D01*
X-24739702Y-47847758D01*
X-24610268Y-47835010D01*
X-21329444Y-47835010D01*
X-21200010Y-47847758D01*
X-21070576Y-47835010D01*
X-21070568Y-47835010D01*
X-20683460Y-47796883D01*
X-20186760Y-47646211D01*
X-19728999Y-47401533D01*
X-19327769Y-47072251D01*
X-19245252Y-46971704D01*
X-15045245Y-42771698D01*
X-14798478Y-42471011D01*
X-14553799Y-42013250D01*
X-14403127Y-41516551D01*
X-14352252Y-41000001D01*
X-14352252Y-41000000D01*
X-13647748Y-41000000D01*
X-13596873Y-41516549D01*
X-13446201Y-42013249D01*
X-13201522Y-42471010D01*
X-12954755Y-42771697D01*
X-8754744Y-46971709D01*
X-8672231Y-47072251D01*
X-8271001Y-47401533D01*
X-7813240Y-47646211D01*
X-7316541Y-47796883D01*
X-7265032Y-47801956D01*
X-6929432Y-47835010D01*
X-6929425Y-47835010D01*
X-6799991Y-47847758D01*
X-6670557Y-47835010D01*
X-3389733Y-47835010D01*
X-3260299Y-47847758D01*
X-3130865Y-47835010D01*
X-3130857Y-47835010D01*
X-2743749Y-47796883D01*
X-2247049Y-47646211D01*
X-1789288Y-47401533D01*
X-1388058Y-47072251D01*
X-1305541Y-46971704D01*
X971710Y-44694454D01*
X1072251Y-44611942D01*
X1401533Y-44210712D01*
X1646211Y-43752951D01*
X1664934Y-43691229D01*
X15915000Y-43691229D01*
X15915000Y-44308771D01*
X16035476Y-44914446D01*
X16271799Y-45484979D01*
X16614886Y-45998446D01*
X17051554Y-46435114D01*
X17565021Y-46778201D01*
X18135554Y-47014524D01*
X18741229Y-47135000D01*
X19358771Y-47135000D01*
X19964446Y-47014524D01*
X20534979Y-46778201D01*
X21048446Y-46435114D01*
X21485114Y-45998446D01*
X21828201Y-45484979D01*
X22064524Y-44914446D01*
X22185000Y-44308771D01*
X22185000Y-43691229D01*
X22064524Y-43085554D01*
X21828201Y-42515021D01*
X21485114Y-42001554D01*
X21048446Y-41564886D01*
X20534979Y-41221799D01*
X19964446Y-40985476D01*
X19358771Y-40865000D01*
X18741229Y-40865000D01*
X18135554Y-40985476D01*
X17565021Y-41221799D01*
X17051554Y-41564886D01*
X16614886Y-42001554D01*
X16271799Y-42515021D01*
X16035476Y-43085554D01*
X15915000Y-43691229D01*
X1664934Y-43691229D01*
X1693557Y-43596873D01*
X1796883Y-43256252D01*
X1813695Y-43085554D01*
X1835010Y-42869143D01*
X1835010Y-42869136D01*
X1847758Y-42739702D01*
X1835010Y-42610268D01*
X1835010Y-20244733D01*
X1847758Y-20115299D01*
X1835010Y-19985865D01*
X1835010Y-19985857D01*
X1796883Y-19598749D01*
X1646211Y-19102049D01*
X1401533Y-18644288D01*
X1072251Y-18243058D01*
X971703Y-18160540D01*
X-6175536Y-11013303D01*
X-6258058Y-10912750D01*
X-6659288Y-10583468D01*
X-7117049Y-10338790D01*
X-7613749Y-10188118D01*
X-8000857Y-10149991D01*
X-8000865Y-10149991D01*
X-8130299Y-10137243D01*
X-8259733Y-10149991D01*
X-9299084Y-10149991D01*
X-9142905Y-10085299D01*
X-8891495Y-9917312D01*
X-8677688Y-9703505D01*
X-8509701Y-9452095D01*
X-8393989Y-9172743D01*
X-8335000Y-8876184D01*
X-8335000Y-8573816D01*
X-8393989Y-8277257D01*
X-8509701Y-7997905D01*
X-8677688Y-7746495D01*
X-8891495Y-7532688D01*
X-9142905Y-7364701D01*
X-9422257Y-7248989D01*
X-9718816Y-7190000D01*
X-10021184Y-7190000D01*
X-10317743Y-7248989D01*
X-10597095Y-7364701D01*
X-10848505Y-7532688D01*
X-11062312Y-7746495D01*
X-11230299Y-7997905D01*
X-11346011Y-8277257D01*
X-11405000Y-8573816D01*
X-11405000Y-8876184D01*
X-11346011Y-9172743D01*
X-11230299Y-9452095D01*
X-11062312Y-9703505D01*
X-10848505Y-9917312D01*
X-10597095Y-10085299D01*
X-10356108Y-10185120D01*
X-10386550Y-10188118D01*
X-10883250Y-10338790D01*
X-11341011Y-10583468D01*
X-11742241Y-10912750D01*
X-12071523Y-11313980D01*
X-12316201Y-11771741D01*
X-12466873Y-12268441D01*
X-12517749Y-12784991D01*
X-12466873Y-13301541D01*
X-12316201Y-13798241D01*
X-12071523Y-14256002D01*
X-11742241Y-14657232D01*
X-11464710Y-14884996D01*
X-11742241Y-15112759D01*
X-12071522Y-15513990D01*
X-12316201Y-15971751D01*
X-12466873Y-16468451D01*
X-12517748Y-16985000D01*
X-12466873Y-17501549D01*
X-12316201Y-17998249D01*
X-12071522Y-18456010D01*
X-11824755Y-18756697D01*
X-7634999Y-22946454D01*
X-7635000Y-40638548D01*
X-9228303Y-39045245D01*
X-9528990Y-38798478D01*
X-9986751Y-38553799D01*
X-10483451Y-38403127D01*
X-11000000Y-38352252D01*
X-11516549Y-38403127D01*
X-12013249Y-38553799D01*
X-12471010Y-38798478D01*
X-12872241Y-39127759D01*
X-13201522Y-39528990D01*
X-13446201Y-39986751D01*
X-13596873Y-40483451D01*
X-13647748Y-41000000D01*
X-14352252Y-41000000D01*
X-14403127Y-40483451D01*
X-14553799Y-39986751D01*
X-14798478Y-39528990D01*
X-15127759Y-39127759D01*
X-15528990Y-38798478D01*
X-15986751Y-38553799D01*
X-16483451Y-38403127D01*
X-17000001Y-38352252D01*
X-17516551Y-38403127D01*
X-18013250Y-38553799D01*
X-18471011Y-38798478D01*
X-18771698Y-39045245D01*
X-20365000Y-40638547D01*
X-20365000Y-23586452D01*
X-15535245Y-18756697D01*
X-15288478Y-18456011D01*
X-15043799Y-17998250D01*
X-14893127Y-17501550D01*
X-14842252Y-16985000D01*
X-14893127Y-16468450D01*
X-15043799Y-15971751D01*
X-15288478Y-15513990D01*
X-15617759Y-15112759D01*
X-15895290Y-14884996D01*
X-15617759Y-14657232D01*
X-15288477Y-14256002D01*
X-15043799Y-13798241D01*
X-14893127Y-13301541D01*
X-14842251Y-12784991D01*
X-14893127Y-12268441D01*
X-15043799Y-11771741D01*
X-15288477Y-11313980D01*
X-15617759Y-10912750D01*
X-16018989Y-10583468D01*
X-16476750Y-10338790D01*
X-16973450Y-10188118D01*
X-17360558Y-10149991D01*
X-19100268Y-10149991D01*
X-19229702Y-10137243D01*
X-19359136Y-10149991D01*
X-19359143Y-10149991D01*
X-19694743Y-10183045D01*
X-19746252Y-10188118D01*
X-19983215Y-10260000D01*
X-20242951Y-10338790D01*
X-20700712Y-10583468D01*
X-21101942Y-10912750D01*
X-21184455Y-11013292D01*
X-28971708Y-18800545D01*
X-29072250Y-18883058D01*
X-29401532Y-19284288D01*
X-29468084Y-19408799D01*
X-29646211Y-19742050D01*
X-29796883Y-20238749D01*
X-29847758Y-20755299D01*
X-33740000Y-20755299D01*
X-33740000Y-7950413D01*
X-22885808Y-7950413D01*
X-22790044Y-8214814D01*
X-22500429Y-8355704D01*
X-22188892Y-8437384D01*
X-21867405Y-8456718D01*
X-21548325Y-8412961D01*
X-21243912Y-8307795D01*
X-21069956Y-8214814D01*
X-20974192Y-7950413D01*
X-21930000Y-6994605D01*
X-22885808Y-7950413D01*
X-33740000Y-7950413D01*
X-33740000Y-6877595D01*
X-23571718Y-6877595D01*
X-23527961Y-7196675D01*
X-23422795Y-7501088D01*
X-23329814Y-7675044D01*
X-23065413Y-7770808D01*
X-22109605Y-6815000D01*
X-21750395Y-6815000D01*
X-20794587Y-7770808D01*
X-20530186Y-7675044D01*
X-20389296Y-7385429D01*
X-20307616Y-7073892D01*
X-20288282Y-6752405D01*
X-20332039Y-6433325D01*
X-20437205Y-6128912D01*
X-20530186Y-5954956D01*
X-20794587Y-5859192D01*
X-21750395Y-6815000D01*
X-22109605Y-6815000D01*
X-23065413Y-5859192D01*
X-23329814Y-5954956D01*
X-23470704Y-6244571D01*
X-23552384Y-6556108D01*
X-23571718Y-6877595D01*
X-33740000Y-6877595D01*
X-33740000Y-5679587D01*
X-22885808Y-5679587D01*
X-21930000Y-6635395D01*
X-20974192Y-5679587D01*
X-21069956Y-5415186D01*
X-21359571Y-5274296D01*
X-21671108Y-5192616D01*
X-21992595Y-5173282D01*
X-22311675Y-5217039D01*
X-22616088Y-5322205D01*
X-22790044Y-5415186D01*
X-22885808Y-5679587D01*
X-33740000Y-5679587D01*
X-33740000Y-3493816D01*
X-19025000Y-3493816D01*
X-19025000Y-3796184D01*
X-18966011Y-4092743D01*
X-18850299Y-4372095D01*
X-18682312Y-4623505D01*
X-18468505Y-4837312D01*
X-18217095Y-5005299D01*
X-17937743Y-5121011D01*
X-17641184Y-5180000D01*
X-17338816Y-5180000D01*
X-17042257Y-5121011D01*
X-16762905Y-5005299D01*
X-16511495Y-4837312D01*
X-16365412Y-4691229D01*
X15915000Y-4691229D01*
X15915000Y-5308771D01*
X16035476Y-5914446D01*
X16271799Y-6484979D01*
X16614886Y-6998446D01*
X17051554Y-7435114D01*
X17565021Y-7778201D01*
X18135554Y-8014524D01*
X18741229Y-8135000D01*
X19358771Y-8135000D01*
X19964446Y-8014524D01*
X20534979Y-7778201D01*
X21048446Y-7435114D01*
X21485114Y-6998446D01*
X21828201Y-6484979D01*
X22064524Y-5914446D01*
X22185000Y-5308771D01*
X22185000Y-4691229D01*
X22064524Y-4085554D01*
X21828201Y-3515021D01*
X21485114Y-3001554D01*
X21048446Y-2564886D01*
X20534979Y-2221799D01*
X19964446Y-1985476D01*
X19358771Y-1865000D01*
X18741229Y-1865000D01*
X18135554Y-1985476D01*
X17565021Y-2221799D01*
X17051554Y-2564886D01*
X16614886Y-3001554D01*
X16271799Y-3515021D01*
X16035476Y-4085554D01*
X15915000Y-4691229D01*
X-16365412Y-4691229D01*
X-16297688Y-4623505D01*
X-16129701Y-4372095D01*
X-16013989Y-4092743D01*
X-15955000Y-3796184D01*
X-15955000Y-3493816D01*
X-16013989Y-3197257D01*
X-16129701Y-2917905D01*
X-16297688Y-2666495D01*
X-16511495Y-2452688D01*
X-16762905Y-2284701D01*
X-17042257Y-2168989D01*
X-17338816Y-2110000D01*
X-17641184Y-2110000D01*
X-17937743Y-2168989D01*
X-18217095Y-2284701D01*
X-18468505Y-2452688D01*
X-18682312Y-2666495D01*
X-18850299Y-2917905D01*
X-18966011Y-3197257D01*
X-19025000Y-3493816D01*
X-33740000Y-3493816D01*
X-33740000Y-660000D01*
X-377456Y-660000D01*
X-292247Y-705546D01*
%TA.AperFunction,Conductor*%
D15*
G36*
X-292247Y-705546D02*
G01*
X-148986Y-749003D01*
X-37333Y-760000D01*
X37440001Y-760000D01*
X37440000Y-50140000D01*
X-33740000Y-50140000D01*
X-33740000Y-20755299D01*
X-29847758Y-20755299D01*
X-29835009Y-20884743D01*
X-29835010Y-42610267D01*
X-29847758Y-42739701D01*
X-29835010Y-42869135D01*
X-29835010Y-42869142D01*
X-29796883Y-43256250D01*
X-29646211Y-43752950D01*
X-29401533Y-44210711D01*
X-29072251Y-44611942D01*
X-28971704Y-44694459D01*
X-26694455Y-46971709D01*
X-26611942Y-47072251D01*
X-26210712Y-47401533D01*
X-25752951Y-47646211D01*
X-25256252Y-47796883D01*
X-25204743Y-47801956D01*
X-24869143Y-47835010D01*
X-24869136Y-47835010D01*
X-24739702Y-47847758D01*
X-24610268Y-47835010D01*
X-21329444Y-47835010D01*
X-21200010Y-47847758D01*
X-21070576Y-47835010D01*
X-21070568Y-47835010D01*
X-20683460Y-47796883D01*
X-20186760Y-47646211D01*
X-19728999Y-47401533D01*
X-19327769Y-47072251D01*
X-19245252Y-46971704D01*
X-15045245Y-42771698D01*
X-14798478Y-42471011D01*
X-14553799Y-42013250D01*
X-14403127Y-41516551D01*
X-14352252Y-41000001D01*
X-14352252Y-41000000D01*
X-13647748Y-41000000D01*
X-13596873Y-41516549D01*
X-13446201Y-42013249D01*
X-13201522Y-42471010D01*
X-12954755Y-42771697D01*
X-8754744Y-46971709D01*
X-8672231Y-47072251D01*
X-8271001Y-47401533D01*
X-7813240Y-47646211D01*
X-7316541Y-47796883D01*
X-7265032Y-47801956D01*
X-6929432Y-47835010D01*
X-6929425Y-47835010D01*
X-6799991Y-47847758D01*
X-6670557Y-47835010D01*
X-3389733Y-47835010D01*
X-3260299Y-47847758D01*
X-3130865Y-47835010D01*
X-3130857Y-47835010D01*
X-2743749Y-47796883D01*
X-2247049Y-47646211D01*
X-1789288Y-47401533D01*
X-1388058Y-47072251D01*
X-1305541Y-46971704D01*
X971710Y-44694454D01*
X1072251Y-44611942D01*
X1401533Y-44210712D01*
X1646211Y-43752951D01*
X1664934Y-43691229D01*
X15915000Y-43691229D01*
X15915000Y-44308771D01*
X16035476Y-44914446D01*
X16271799Y-45484979D01*
X16614886Y-45998446D01*
X17051554Y-46435114D01*
X17565021Y-46778201D01*
X18135554Y-47014524D01*
X18741229Y-47135000D01*
X19358771Y-47135000D01*
X19964446Y-47014524D01*
X20534979Y-46778201D01*
X21048446Y-46435114D01*
X21485114Y-45998446D01*
X21828201Y-45484979D01*
X22064524Y-44914446D01*
X22185000Y-44308771D01*
X22185000Y-43691229D01*
X22064524Y-43085554D01*
X21828201Y-42515021D01*
X21485114Y-42001554D01*
X21048446Y-41564886D01*
X20534979Y-41221799D01*
X19964446Y-40985476D01*
X19358771Y-40865000D01*
X18741229Y-40865000D01*
X18135554Y-40985476D01*
X17565021Y-41221799D01*
X17051554Y-41564886D01*
X16614886Y-42001554D01*
X16271799Y-42515021D01*
X16035476Y-43085554D01*
X15915000Y-43691229D01*
X1664934Y-43691229D01*
X1693557Y-43596873D01*
X1796883Y-43256252D01*
X1813695Y-43085554D01*
X1835010Y-42869143D01*
X1835010Y-42869136D01*
X1847758Y-42739702D01*
X1835010Y-42610268D01*
X1835010Y-20244733D01*
X1847758Y-20115299D01*
X1835010Y-19985865D01*
X1835010Y-19985857D01*
X1796883Y-19598749D01*
X1646211Y-19102049D01*
X1401533Y-18644288D01*
X1072251Y-18243058D01*
X971703Y-18160540D01*
X-6175536Y-11013303D01*
X-6258058Y-10912750D01*
X-6659288Y-10583468D01*
X-7117049Y-10338790D01*
X-7613749Y-10188118D01*
X-8000857Y-10149991D01*
X-8000865Y-10149991D01*
X-8130299Y-10137243D01*
X-8259733Y-10149991D01*
X-9299084Y-10149991D01*
X-9142905Y-10085299D01*
X-8891495Y-9917312D01*
X-8677688Y-9703505D01*
X-8509701Y-9452095D01*
X-8393989Y-9172743D01*
X-8335000Y-8876184D01*
X-8335000Y-8573816D01*
X-8393989Y-8277257D01*
X-8509701Y-7997905D01*
X-8677688Y-7746495D01*
X-8891495Y-7532688D01*
X-9142905Y-7364701D01*
X-9422257Y-7248989D01*
X-9718816Y-7190000D01*
X-10021184Y-7190000D01*
X-10317743Y-7248989D01*
X-10597095Y-7364701D01*
X-10848505Y-7532688D01*
X-11062312Y-7746495D01*
X-11230299Y-7997905D01*
X-11346011Y-8277257D01*
X-11405000Y-8573816D01*
X-11405000Y-8876184D01*
X-11346011Y-9172743D01*
X-11230299Y-9452095D01*
X-11062312Y-9703505D01*
X-10848505Y-9917312D01*
X-10597095Y-10085299D01*
X-10356108Y-10185120D01*
X-10386550Y-10188118D01*
X-10883250Y-10338790D01*
X-11341011Y-10583468D01*
X-11742241Y-10912750D01*
X-12071523Y-11313980D01*
X-12316201Y-11771741D01*
X-12466873Y-12268441D01*
X-12517749Y-12784991D01*
X-12466873Y-13301541D01*
X-12316201Y-13798241D01*
X-12071523Y-14256002D01*
X-11742241Y-14657232D01*
X-11464710Y-14884996D01*
X-11742241Y-15112759D01*
X-12071522Y-15513990D01*
X-12316201Y-15971751D01*
X-12466873Y-16468451D01*
X-12517748Y-16985000D01*
X-12466873Y-17501549D01*
X-12316201Y-17998249D01*
X-12071522Y-18456010D01*
X-11824755Y-18756697D01*
X-7634999Y-22946454D01*
X-7635000Y-40638548D01*
X-9228303Y-39045245D01*
X-9528990Y-38798478D01*
X-9986751Y-38553799D01*
X-10483451Y-38403127D01*
X-11000000Y-38352252D01*
X-11516549Y-38403127D01*
X-12013249Y-38553799D01*
X-12471010Y-38798478D01*
X-12872241Y-39127759D01*
X-13201522Y-39528990D01*
X-13446201Y-39986751D01*
X-13596873Y-40483451D01*
X-13647748Y-41000000D01*
X-14352252Y-41000000D01*
X-14403127Y-40483451D01*
X-14553799Y-39986751D01*
X-14798478Y-39528990D01*
X-15127759Y-39127759D01*
X-15528990Y-38798478D01*
X-15986751Y-38553799D01*
X-16483451Y-38403127D01*
X-17000001Y-38352252D01*
X-17516551Y-38403127D01*
X-18013250Y-38553799D01*
X-18471011Y-38798478D01*
X-18771698Y-39045245D01*
X-20365000Y-40638547D01*
X-20365000Y-23586452D01*
X-15535245Y-18756697D01*
X-15288478Y-18456011D01*
X-15043799Y-17998250D01*
X-14893127Y-17501550D01*
X-14842252Y-16985000D01*
X-14893127Y-16468450D01*
X-15043799Y-15971751D01*
X-15288478Y-15513990D01*
X-15617759Y-15112759D01*
X-15895290Y-14884996D01*
X-15617759Y-14657232D01*
X-15288477Y-14256002D01*
X-15043799Y-13798241D01*
X-14893127Y-13301541D01*
X-14842251Y-12784991D01*
X-14893127Y-12268441D01*
X-15043799Y-11771741D01*
X-15288477Y-11313980D01*
X-15617759Y-10912750D01*
X-16018989Y-10583468D01*
X-16476750Y-10338790D01*
X-16973450Y-10188118D01*
X-17360558Y-10149991D01*
X-19100268Y-10149991D01*
X-19229702Y-10137243D01*
X-19359136Y-10149991D01*
X-19359143Y-10149991D01*
X-19694743Y-10183045D01*
X-19746252Y-10188118D01*
X-19983215Y-10260000D01*
X-20242951Y-10338790D01*
X-20700712Y-10583468D01*
X-21101942Y-10912750D01*
X-21184455Y-11013292D01*
X-28971708Y-18800545D01*
X-29072250Y-18883058D01*
X-29401532Y-19284288D01*
X-29468084Y-19408799D01*
X-29646211Y-19742050D01*
X-29796883Y-20238749D01*
X-29847758Y-20755299D01*
X-33740000Y-20755299D01*
X-33740000Y-7950413D01*
X-22885808Y-7950413D01*
X-22790044Y-8214814D01*
X-22500429Y-8355704D01*
X-22188892Y-8437384D01*
X-21867405Y-8456718D01*
X-21548325Y-8412961D01*
X-21243912Y-8307795D01*
X-21069956Y-8214814D01*
X-20974192Y-7950413D01*
X-21930000Y-6994605D01*
X-22885808Y-7950413D01*
X-33740000Y-7950413D01*
X-33740000Y-6877595D01*
X-23571718Y-6877595D01*
X-23527961Y-7196675D01*
X-23422795Y-7501088D01*
X-23329814Y-7675044D01*
X-23065413Y-7770808D01*
X-22109605Y-6815000D01*
X-21750395Y-6815000D01*
X-20794587Y-7770808D01*
X-20530186Y-7675044D01*
X-20389296Y-7385429D01*
X-20307616Y-7073892D01*
X-20288282Y-6752405D01*
X-20332039Y-6433325D01*
X-20437205Y-6128912D01*
X-20530186Y-5954956D01*
X-20794587Y-5859192D01*
X-21750395Y-6815000D01*
X-22109605Y-6815000D01*
X-23065413Y-5859192D01*
X-23329814Y-5954956D01*
X-23470704Y-6244571D01*
X-23552384Y-6556108D01*
X-23571718Y-6877595D01*
X-33740000Y-6877595D01*
X-33740000Y-5679587D01*
X-22885808Y-5679587D01*
X-21930000Y-6635395D01*
X-20974192Y-5679587D01*
X-21069956Y-5415186D01*
X-21359571Y-5274296D01*
X-21671108Y-5192616D01*
X-21992595Y-5173282D01*
X-22311675Y-5217039D01*
X-22616088Y-5322205D01*
X-22790044Y-5415186D01*
X-22885808Y-5679587D01*
X-33740000Y-5679587D01*
X-33740000Y-3493816D01*
X-19025000Y-3493816D01*
X-19025000Y-3796184D01*
X-18966011Y-4092743D01*
X-18850299Y-4372095D01*
X-18682312Y-4623505D01*
X-18468505Y-4837312D01*
X-18217095Y-5005299D01*
X-17937743Y-5121011D01*
X-17641184Y-5180000D01*
X-17338816Y-5180000D01*
X-17042257Y-5121011D01*
X-16762905Y-5005299D01*
X-16511495Y-4837312D01*
X-16365412Y-4691229D01*
X15915000Y-4691229D01*
X15915000Y-5308771D01*
X16035476Y-5914446D01*
X16271799Y-6484979D01*
X16614886Y-6998446D01*
X17051554Y-7435114D01*
X17565021Y-7778201D01*
X18135554Y-8014524D01*
X18741229Y-8135000D01*
X19358771Y-8135000D01*
X19964446Y-8014524D01*
X20534979Y-7778201D01*
X21048446Y-7435114D01*
X21485114Y-6998446D01*
X21828201Y-6484979D01*
X22064524Y-5914446D01*
X22185000Y-5308771D01*
X22185000Y-4691229D01*
X22064524Y-4085554D01*
X21828201Y-3515021D01*
X21485114Y-3001554D01*
X21048446Y-2564886D01*
X20534979Y-2221799D01*
X19964446Y-1985476D01*
X19358771Y-1865000D01*
X18741229Y-1865000D01*
X18135554Y-1985476D01*
X17565021Y-2221799D01*
X17051554Y-2564886D01*
X16614886Y-3001554D01*
X16271799Y-3515021D01*
X16035476Y-4085554D01*
X15915000Y-4691229D01*
X-16365412Y-4691229D01*
X-16297688Y-4623505D01*
X-16129701Y-4372095D01*
X-16013989Y-4092743D01*
X-15955000Y-3796184D01*
X-15955000Y-3493816D01*
X-16013989Y-3197257D01*
X-16129701Y-2917905D01*
X-16297688Y-2666495D01*
X-16511495Y-2452688D01*
X-16762905Y-2284701D01*
X-17042257Y-2168989D01*
X-17338816Y-2110000D01*
X-17641184Y-2110000D01*
X-17937743Y-2168989D01*
X-18217095Y-2284701D01*
X-18468505Y-2452688D01*
X-18682312Y-2666495D01*
X-18850299Y-2917905D01*
X-18966011Y-3197257D01*
X-19025000Y-3493816D01*
X-33740000Y-3493816D01*
X-33740000Y-660000D01*
X-377456Y-660000D01*
X-292247Y-705546D01*
G37*
%TD.AperFunction*%
%TD*%
M02*
