%TF.GenerationSoftware,KiCad,Pcbnew,(5.1.10)-1*%
%TF.CreationDate,2022-05-27T13:17:46-06:00*%
%TF.ProjectId,Lift_02,4c696674-5f30-4322-9e6b-696361645f70,rev?*%
%TF.SameCoordinates,Original*%
%TF.FileFunction,Legend,Top*%
%TF.FilePolarity,Positive*%
%FSLAX46Y46*%
G04 Gerber Fmt 4.6, Leading zero omitted, Abs format (unit mm)*
G04 Created by KiCad (PCBNEW (5.1.10)-1) date 2022-05-27 13:17:46*
%MOMM*%
%LPD*%
G01*
G04 APERTURE LIST*
%ADD10C,0.150000*%
%ADD11C,0.100000*%
%ADD12C,0.125000*%
%ADD13C,0.254000*%
%ADD14C,0.120000*%
%ADD15C,0.127000*%
%ADD16C,0.399000*%
G04 APERTURE END LIST*
D10*
X44566666Y-74602380D02*
X44090476Y-74602380D01*
X44090476Y-73602380D01*
X44900000Y-74602380D02*
X44900000Y-73935714D01*
X44900000Y-73602380D02*
X44852380Y-73650000D01*
X44900000Y-73697619D01*
X44947619Y-73650000D01*
X44900000Y-73602380D01*
X44900000Y-73697619D01*
X45233333Y-73935714D02*
X45614285Y-73935714D01*
X45376190Y-74602380D02*
X45376190Y-73745238D01*
X45423809Y-73650000D01*
X45519047Y-73602380D01*
X45614285Y-73602380D01*
X45804761Y-73935714D02*
X46185714Y-73935714D01*
X45947619Y-73602380D02*
X45947619Y-74459523D01*
X45995238Y-74554761D01*
X46090476Y-74602380D01*
X46185714Y-74602380D01*
X46280952Y-74697619D02*
X47042857Y-74697619D01*
X47471428Y-73602380D02*
X47566666Y-73602380D01*
X47661904Y-73650000D01*
X47709523Y-73697619D01*
X47757142Y-73792857D01*
X47804761Y-73983333D01*
X47804761Y-74221428D01*
X47757142Y-74411904D01*
X47709523Y-74507142D01*
X47661904Y-74554761D01*
X47566666Y-74602380D01*
X47471428Y-74602380D01*
X47376190Y-74554761D01*
X47328571Y-74507142D01*
X47280952Y-74411904D01*
X47233333Y-74221428D01*
X47233333Y-73983333D01*
X47280952Y-73792857D01*
X47328571Y-73697619D01*
X47376190Y-73650000D01*
X47471428Y-73602380D01*
X48185714Y-73697619D02*
X48233333Y-73650000D01*
X48328571Y-73602380D01*
X48566666Y-73602380D01*
X48661904Y-73650000D01*
X48709523Y-73697619D01*
X48757142Y-73792857D01*
X48757142Y-73888095D01*
X48709523Y-74030952D01*
X48138095Y-74602380D01*
X48757142Y-74602380D01*
X40495238Y-76252380D02*
X40161904Y-75776190D01*
X39923809Y-76252380D02*
X39923809Y-75252380D01*
X40304761Y-75252380D01*
X40400000Y-75300000D01*
X40447619Y-75347619D01*
X40495238Y-75442857D01*
X40495238Y-75585714D01*
X40447619Y-75680952D01*
X40400000Y-75728571D01*
X40304761Y-75776190D01*
X39923809Y-75776190D01*
X40828571Y-75585714D02*
X41066666Y-76252380D01*
X41304761Y-75585714D02*
X41066666Y-76252380D01*
X40971428Y-76490476D01*
X40923809Y-76538095D01*
X40828571Y-76585714D01*
X42114285Y-76252380D02*
X42114285Y-75728571D01*
X42066666Y-75633333D01*
X41971428Y-75585714D01*
X41780952Y-75585714D01*
X41685714Y-75633333D01*
X42114285Y-76204761D02*
X42019047Y-76252380D01*
X41780952Y-76252380D01*
X41685714Y-76204761D01*
X41638095Y-76109523D01*
X41638095Y-76014285D01*
X41685714Y-75919047D01*
X41780952Y-75871428D01*
X42019047Y-75871428D01*
X42114285Y-75823809D01*
X42590476Y-75585714D02*
X42590476Y-76252380D01*
X42590476Y-75680952D02*
X42638095Y-75633333D01*
X42733333Y-75585714D01*
X42876190Y-75585714D01*
X42971428Y-75633333D01*
X43019047Y-75728571D01*
X43019047Y-76252380D01*
X44257142Y-76252380D02*
X44257142Y-75252380D01*
X44590476Y-75966666D01*
X44923809Y-75252380D01*
X44923809Y-76252380D01*
X45542857Y-76252380D02*
X45447619Y-76204761D01*
X45400000Y-76157142D01*
X45352380Y-76061904D01*
X45352380Y-75776190D01*
X45400000Y-75680952D01*
X45447619Y-75633333D01*
X45542857Y-75585714D01*
X45685714Y-75585714D01*
X45780952Y-75633333D01*
X45828571Y-75680952D01*
X45876190Y-75776190D01*
X45876190Y-76061904D01*
X45828571Y-76157142D01*
X45780952Y-76204761D01*
X45685714Y-76252380D01*
X45542857Y-76252380D01*
X46304761Y-76252380D02*
X46304761Y-75585714D01*
X46304761Y-75776190D02*
X46352380Y-75680952D01*
X46400000Y-75633333D01*
X46495238Y-75585714D01*
X46590476Y-75585714D01*
X47352380Y-75585714D02*
X47352380Y-76395238D01*
X47304761Y-76490476D01*
X47257142Y-76538095D01*
X47161904Y-76585714D01*
X47019047Y-76585714D01*
X46923809Y-76538095D01*
X47352380Y-76204761D02*
X47257142Y-76252380D01*
X47066666Y-76252380D01*
X46971428Y-76204761D01*
X46923809Y-76157142D01*
X46876190Y-76061904D01*
X46876190Y-75776190D01*
X46923809Y-75680952D01*
X46971428Y-75633333D01*
X47066666Y-75585714D01*
X47257142Y-75585714D01*
X47352380Y-75633333D01*
X48209523Y-76204761D02*
X48114285Y-76252380D01*
X47923809Y-76252380D01*
X47828571Y-76204761D01*
X47780952Y-76109523D01*
X47780952Y-75728571D01*
X47828571Y-75633333D01*
X47923809Y-75585714D01*
X48114285Y-75585714D01*
X48209523Y-75633333D01*
X48257142Y-75728571D01*
X48257142Y-75823809D01*
X47780952Y-75919047D01*
X48685714Y-75585714D02*
X48685714Y-76252380D01*
X48685714Y-75680952D02*
X48733333Y-75633333D01*
X48828571Y-75585714D01*
X48971428Y-75585714D01*
X49066666Y-75633333D01*
X49114285Y-75728571D01*
X49114285Y-76252380D01*
X49542857Y-76204761D02*
X49638095Y-76252380D01*
X49828571Y-76252380D01*
X49923809Y-76204761D01*
X49971428Y-76109523D01*
X49971428Y-76061904D01*
X49923809Y-75966666D01*
X49828571Y-75919047D01*
X49685714Y-75919047D01*
X49590476Y-75871428D01*
X49542857Y-75776190D01*
X49542857Y-75728571D01*
X49590476Y-75633333D01*
X49685714Y-75585714D01*
X49828571Y-75585714D01*
X49923809Y-75633333D01*
X50257142Y-75585714D02*
X50638095Y-75585714D01*
X50400000Y-75252380D02*
X50400000Y-76109523D01*
X50447619Y-76204761D01*
X50542857Y-76252380D01*
X50638095Y-76252380D01*
X51352380Y-76204761D02*
X51257142Y-76252380D01*
X51066666Y-76252380D01*
X50971428Y-76204761D01*
X50923809Y-76109523D01*
X50923809Y-75728571D01*
X50971428Y-75633333D01*
X51066666Y-75585714D01*
X51257142Y-75585714D01*
X51352380Y-75633333D01*
X51400000Y-75728571D01*
X51400000Y-75823809D01*
X50923809Y-75919047D01*
X51828571Y-76252380D02*
X51828571Y-75585714D01*
X51828571Y-75776190D02*
X51876190Y-75680952D01*
X51923809Y-75633333D01*
X52019047Y-75585714D01*
X52114285Y-75585714D01*
X52447619Y-75585714D02*
X52447619Y-76252380D01*
X52447619Y-75680952D02*
X52495238Y-75633333D01*
X52590476Y-75585714D01*
X52733333Y-75585714D01*
X52828571Y-75633333D01*
X52876190Y-75728571D01*
X52876190Y-76252380D01*
X42733333Y-76902380D02*
X42257142Y-76902380D01*
X42209523Y-77378571D01*
X42257142Y-77330952D01*
X42352380Y-77283333D01*
X42590476Y-77283333D01*
X42685714Y-77330952D01*
X42733333Y-77378571D01*
X42780952Y-77473809D01*
X42780952Y-77711904D01*
X42733333Y-77807142D01*
X42685714Y-77854761D01*
X42590476Y-77902380D01*
X42352380Y-77902380D01*
X42257142Y-77854761D01*
X42209523Y-77807142D01*
X43923809Y-76854761D02*
X43066666Y-78140476D01*
X44209523Y-76997619D02*
X44257142Y-76950000D01*
X44352380Y-76902380D01*
X44590476Y-76902380D01*
X44685714Y-76950000D01*
X44733333Y-76997619D01*
X44780952Y-77092857D01*
X44780952Y-77188095D01*
X44733333Y-77330952D01*
X44161904Y-77902380D01*
X44780952Y-77902380D01*
X45638095Y-76902380D02*
X45447619Y-76902380D01*
X45352380Y-76950000D01*
X45304761Y-76997619D01*
X45209523Y-77140476D01*
X45161904Y-77330952D01*
X45161904Y-77711904D01*
X45209523Y-77807142D01*
X45257142Y-77854761D01*
X45352380Y-77902380D01*
X45542857Y-77902380D01*
X45638095Y-77854761D01*
X45685714Y-77807142D01*
X45733333Y-77711904D01*
X45733333Y-77473809D01*
X45685714Y-77378571D01*
X45638095Y-77330952D01*
X45542857Y-77283333D01*
X45352380Y-77283333D01*
X45257142Y-77330952D01*
X45209523Y-77378571D01*
X45161904Y-77473809D01*
X46876190Y-76854761D02*
X46019047Y-78140476D01*
X47161904Y-76997619D02*
X47209523Y-76950000D01*
X47304761Y-76902380D01*
X47542857Y-76902380D01*
X47638095Y-76950000D01*
X47685714Y-76997619D01*
X47733333Y-77092857D01*
X47733333Y-77188095D01*
X47685714Y-77330952D01*
X47114285Y-77902380D01*
X47733333Y-77902380D01*
X48352380Y-76902380D02*
X48447619Y-76902380D01*
X48542857Y-76950000D01*
X48590476Y-76997619D01*
X48638095Y-77092857D01*
X48685714Y-77283333D01*
X48685714Y-77521428D01*
X48638095Y-77711904D01*
X48590476Y-77807142D01*
X48542857Y-77854761D01*
X48447619Y-77902380D01*
X48352380Y-77902380D01*
X48257142Y-77854761D01*
X48209523Y-77807142D01*
X48161904Y-77711904D01*
X48114285Y-77521428D01*
X48114285Y-77283333D01*
X48161904Y-77092857D01*
X48209523Y-76997619D01*
X48257142Y-76950000D01*
X48352380Y-76902380D01*
X49066666Y-76997619D02*
X49114285Y-76950000D01*
X49209523Y-76902380D01*
X49447619Y-76902380D01*
X49542857Y-76950000D01*
X49590476Y-76997619D01*
X49638095Y-77092857D01*
X49638095Y-77188095D01*
X49590476Y-77330952D01*
X49019047Y-77902380D01*
X49638095Y-77902380D01*
X50019047Y-76997619D02*
X50066666Y-76950000D01*
X50161904Y-76902380D01*
X50400000Y-76902380D01*
X50495238Y-76950000D01*
X50542857Y-76997619D01*
X50590476Y-77092857D01*
X50590476Y-77188095D01*
X50542857Y-77330952D01*
X49971428Y-77902380D01*
X50590476Y-77902380D01*
D11*
X340607142Y-27273809D02*
X340630952Y-27250000D01*
X340678571Y-27226190D01*
X340797619Y-27226190D01*
X340845238Y-27250000D01*
X340869047Y-27273809D01*
X340892857Y-27321428D01*
X340892857Y-27369047D01*
X340869047Y-27440476D01*
X340583333Y-27726190D01*
X340892857Y-27726190D01*
X340595238Y-29892857D02*
X340595238Y-30226190D01*
X340476190Y-29702380D02*
X340357142Y-30059523D01*
X340666666Y-30059523D01*
X277476190Y-71345238D02*
X277880952Y-71345238D01*
X277928571Y-71321428D01*
X277952380Y-71297619D01*
X277976190Y-71250000D01*
X277976190Y-71154761D01*
X277952380Y-71107142D01*
X277928571Y-71083333D01*
X277880952Y-71059523D01*
X277476190Y-71059523D01*
X277476190Y-70869047D02*
X277476190Y-70559523D01*
X277666666Y-70726190D01*
X277666666Y-70654761D01*
X277690476Y-70607142D01*
X277714285Y-70583333D01*
X277761904Y-70559523D01*
X277880952Y-70559523D01*
X277928571Y-70583333D01*
X277952380Y-70607142D01*
X277976190Y-70654761D01*
X277976190Y-70797619D01*
X277952380Y-70845238D01*
X277928571Y-70869047D01*
X277785714Y-69964285D02*
X277785714Y-69583333D01*
X277976190Y-68964285D02*
X277476190Y-68964285D01*
X277476190Y-68773809D01*
X277500000Y-68726190D01*
X277523809Y-68702380D01*
X277571428Y-68678571D01*
X277642857Y-68678571D01*
X277690476Y-68702380D01*
X277714285Y-68726190D01*
X277738095Y-68773809D01*
X277738095Y-68964285D01*
X277976190Y-68464285D02*
X277642857Y-68464285D01*
X277476190Y-68464285D02*
X277500000Y-68488095D01*
X277523809Y-68464285D01*
X277500000Y-68440476D01*
X277476190Y-68464285D01*
X277523809Y-68464285D01*
X277642857Y-68226190D02*
X277976190Y-68226190D01*
X277690476Y-68226190D02*
X277666666Y-68202380D01*
X277642857Y-68154761D01*
X277642857Y-68083333D01*
X277666666Y-68035714D01*
X277714285Y-68011904D01*
X277976190Y-68011904D01*
X277642857Y-67178571D02*
X277976190Y-67178571D01*
X277452380Y-67297619D02*
X277809523Y-67416666D01*
X277809523Y-67107142D01*
X274976190Y-71345238D02*
X275380952Y-71345238D01*
X275428571Y-71321428D01*
X275452380Y-71297619D01*
X275476190Y-71250000D01*
X275476190Y-71154761D01*
X275452380Y-71107142D01*
X275428571Y-71083333D01*
X275380952Y-71059523D01*
X274976190Y-71059523D01*
X274976190Y-70869047D02*
X274976190Y-70559523D01*
X275166666Y-70726190D01*
X275166666Y-70654761D01*
X275190476Y-70607142D01*
X275214285Y-70583333D01*
X275261904Y-70559523D01*
X275380952Y-70559523D01*
X275428571Y-70583333D01*
X275452380Y-70607142D01*
X275476190Y-70654761D01*
X275476190Y-70797619D01*
X275452380Y-70845238D01*
X275428571Y-70869047D01*
X275285714Y-69964285D02*
X275285714Y-69583333D01*
X275476190Y-68964285D02*
X274976190Y-68964285D01*
X274976190Y-68773809D01*
X275000000Y-68726190D01*
X275023809Y-68702380D01*
X275071428Y-68678571D01*
X275142857Y-68678571D01*
X275190476Y-68702380D01*
X275214285Y-68726190D01*
X275238095Y-68773809D01*
X275238095Y-68964285D01*
X275476190Y-68464285D02*
X275142857Y-68464285D01*
X274976190Y-68464285D02*
X275000000Y-68488095D01*
X275023809Y-68464285D01*
X275000000Y-68440476D01*
X274976190Y-68464285D01*
X275023809Y-68464285D01*
X275142857Y-68226190D02*
X275476190Y-68226190D01*
X275190476Y-68226190D02*
X275166666Y-68202380D01*
X275142857Y-68154761D01*
X275142857Y-68083333D01*
X275166666Y-68035714D01*
X275214285Y-68011904D01*
X275476190Y-68011904D01*
X275023809Y-67416666D02*
X275000000Y-67392857D01*
X274976190Y-67345238D01*
X274976190Y-67226190D01*
X275000000Y-67178571D01*
X275023809Y-67154761D01*
X275071428Y-67130952D01*
X275119047Y-67130952D01*
X275190476Y-67154761D01*
X275476190Y-67440476D01*
X275476190Y-67130952D01*
X292726190Y-71833333D02*
X293130952Y-71833333D01*
X293178571Y-71809523D01*
X293202380Y-71785714D01*
X293226190Y-71738095D01*
X293226190Y-71642857D01*
X293202380Y-71595238D01*
X293178571Y-71571428D01*
X293130952Y-71547619D01*
X292726190Y-71547619D01*
X292773809Y-71333333D02*
X292750000Y-71309523D01*
X292726190Y-71261904D01*
X292726190Y-71142857D01*
X292750000Y-71095238D01*
X292773809Y-71071428D01*
X292821428Y-71047619D01*
X292869047Y-71047619D01*
X292940476Y-71071428D01*
X293226190Y-71357142D01*
X293226190Y-71047619D01*
X293035714Y-70452380D02*
X293035714Y-70071428D01*
X293226190Y-69452380D02*
X292726190Y-69452380D01*
X292726190Y-69261904D01*
X292750000Y-69214285D01*
X292773809Y-69190476D01*
X292821428Y-69166666D01*
X292892857Y-69166666D01*
X292940476Y-69190476D01*
X292964285Y-69214285D01*
X292988095Y-69261904D01*
X292988095Y-69452380D01*
X293226190Y-68952380D02*
X292892857Y-68952380D01*
X292726190Y-68952380D02*
X292750000Y-68976190D01*
X292773809Y-68952380D01*
X292750000Y-68928571D01*
X292726190Y-68952380D01*
X292773809Y-68952380D01*
X292892857Y-68714285D02*
X293226190Y-68714285D01*
X292940476Y-68714285D02*
X292916666Y-68690476D01*
X292892857Y-68642857D01*
X292892857Y-68571428D01*
X292916666Y-68523809D01*
X292964285Y-68500000D01*
X293226190Y-68500000D01*
X293226190Y-67619047D02*
X293226190Y-67904761D01*
X293226190Y-67761904D02*
X292726190Y-67761904D01*
X292797619Y-67809523D01*
X292845238Y-67857142D01*
X292869047Y-67904761D01*
X292773809Y-67428571D02*
X292750000Y-67404761D01*
X292726190Y-67357142D01*
X292726190Y-67238095D01*
X292750000Y-67190476D01*
X292773809Y-67166666D01*
X292821428Y-67142857D01*
X292869047Y-67142857D01*
X292940476Y-67166666D01*
X293226190Y-67452380D01*
X293226190Y-67142857D01*
D12*
X349404761Y-54226190D02*
X349119047Y-54226190D01*
X349261904Y-54226190D02*
X349261904Y-53726190D01*
X349214285Y-53797619D01*
X349166666Y-53845238D01*
X349119047Y-53869047D01*
X349595238Y-53773809D02*
X349619047Y-53750000D01*
X349666666Y-53726190D01*
X349785714Y-53726190D01*
X349833333Y-53750000D01*
X349857142Y-53773809D01*
X349880952Y-53821428D01*
X349880952Y-53869047D01*
X349857142Y-53940476D01*
X349571428Y-54226190D01*
X349880952Y-54226190D01*
D10*
X349357142Y-56839285D02*
X348928571Y-56839285D01*
X349142857Y-56839285D02*
X349142857Y-56089285D01*
X349071428Y-56196428D01*
X349000000Y-56267857D01*
X348928571Y-56303571D01*
X349821428Y-56089285D02*
X349892857Y-56089285D01*
X349964285Y-56125000D01*
X350000000Y-56160714D01*
X350035714Y-56232142D01*
X350071428Y-56375000D01*
X350071428Y-56553571D01*
X350035714Y-56696428D01*
X350000000Y-56767857D01*
X349964285Y-56803571D01*
X349892857Y-56839285D01*
X349821428Y-56839285D01*
X349750000Y-56803571D01*
X349714285Y-56767857D01*
X349678571Y-56696428D01*
X349642857Y-56553571D01*
X349642857Y-56375000D01*
X349678571Y-56232142D01*
X349714285Y-56160714D01*
X349750000Y-56125000D01*
X349821428Y-56089285D01*
X349178571Y-58910714D02*
X349107142Y-58875000D01*
X349071428Y-58839285D01*
X349035714Y-58767857D01*
X349035714Y-58732142D01*
X349071428Y-58660714D01*
X349107142Y-58625000D01*
X349178571Y-58589285D01*
X349321428Y-58589285D01*
X349392857Y-58625000D01*
X349428571Y-58660714D01*
X349464285Y-58732142D01*
X349464285Y-58767857D01*
X349428571Y-58839285D01*
X349392857Y-58875000D01*
X349321428Y-58910714D01*
X349178571Y-58910714D01*
X349107142Y-58946428D01*
X349071428Y-58982142D01*
X349035714Y-59053571D01*
X349035714Y-59196428D01*
X349071428Y-59267857D01*
X349107142Y-59303571D01*
X349178571Y-59339285D01*
X349321428Y-59339285D01*
X349392857Y-59303571D01*
X349428571Y-59267857D01*
X349464285Y-59196428D01*
X349464285Y-59053571D01*
X349428571Y-58982142D01*
X349392857Y-58946428D01*
X349321428Y-58910714D01*
D11*
X295476190Y-71833333D02*
X295880952Y-71833333D01*
X295928571Y-71809523D01*
X295952380Y-71785714D01*
X295976190Y-71738095D01*
X295976190Y-71642857D01*
X295952380Y-71595238D01*
X295928571Y-71571428D01*
X295880952Y-71547619D01*
X295476190Y-71547619D01*
X295523809Y-71333333D02*
X295500000Y-71309523D01*
X295476190Y-71261904D01*
X295476190Y-71142857D01*
X295500000Y-71095238D01*
X295523809Y-71071428D01*
X295571428Y-71047619D01*
X295619047Y-71047619D01*
X295690476Y-71071428D01*
X295976190Y-71357142D01*
X295976190Y-71047619D01*
X295785714Y-70452380D02*
X295785714Y-70071428D01*
X295976190Y-69452380D02*
X295476190Y-69452380D01*
X295476190Y-69261904D01*
X295500000Y-69214285D01*
X295523809Y-69190476D01*
X295571428Y-69166666D01*
X295642857Y-69166666D01*
X295690476Y-69190476D01*
X295714285Y-69214285D01*
X295738095Y-69261904D01*
X295738095Y-69452380D01*
X295976190Y-68952380D02*
X295642857Y-68952380D01*
X295476190Y-68952380D02*
X295500000Y-68976190D01*
X295523809Y-68952380D01*
X295500000Y-68928571D01*
X295476190Y-68952380D01*
X295523809Y-68952380D01*
X295642857Y-68714285D02*
X295976190Y-68714285D01*
X295690476Y-68714285D02*
X295666666Y-68690476D01*
X295642857Y-68642857D01*
X295642857Y-68571428D01*
X295666666Y-68523809D01*
X295714285Y-68500000D01*
X295976190Y-68500000D01*
X295976190Y-67619047D02*
X295976190Y-67904761D01*
X295976190Y-67761904D02*
X295476190Y-67761904D01*
X295547619Y-67809523D01*
X295595238Y-67857142D01*
X295619047Y-67904761D01*
X295476190Y-67309523D02*
X295476190Y-67261904D01*
X295500000Y-67214285D01*
X295523809Y-67190476D01*
X295571428Y-67166666D01*
X295666666Y-67142857D01*
X295785714Y-67142857D01*
X295880952Y-67166666D01*
X295928571Y-67190476D01*
X295952380Y-67214285D01*
X295976190Y-67261904D01*
X295976190Y-67309523D01*
X295952380Y-67357142D01*
X295928571Y-67380952D01*
X295880952Y-67404761D01*
X295785714Y-67428571D01*
X295666666Y-67428571D01*
X295571428Y-67404761D01*
X295523809Y-67380952D01*
X295500000Y-67357142D01*
X295476190Y-67309523D01*
X297976190Y-70714285D02*
X298380952Y-70714285D01*
X298428571Y-70690476D01*
X298452380Y-70666666D01*
X298476190Y-70619047D01*
X298476190Y-70523809D01*
X298452380Y-70476190D01*
X298428571Y-70452380D01*
X298380952Y-70428571D01*
X297976190Y-70428571D01*
X298023809Y-70214285D02*
X298000000Y-70190476D01*
X297976190Y-70142857D01*
X297976190Y-70023809D01*
X298000000Y-69976190D01*
X298023809Y-69952380D01*
X298071428Y-69928571D01*
X298119047Y-69928571D01*
X298190476Y-69952380D01*
X298476190Y-70238095D01*
X298476190Y-69928571D01*
X298285714Y-69714285D02*
X298285714Y-69333333D01*
X298476190Y-68714285D02*
X297976190Y-68714285D01*
X297976190Y-68523809D01*
X298000000Y-68476190D01*
X298023809Y-68452380D01*
X298071428Y-68428571D01*
X298142857Y-68428571D01*
X298190476Y-68452380D01*
X298214285Y-68476190D01*
X298238095Y-68523809D01*
X298238095Y-68714285D01*
X298476190Y-68214285D02*
X298142857Y-68214285D01*
X297976190Y-68214285D02*
X298000000Y-68238095D01*
X298023809Y-68214285D01*
X298000000Y-68190476D01*
X297976190Y-68214285D01*
X298023809Y-68214285D01*
X298142857Y-67976190D02*
X298476190Y-67976190D01*
X298190476Y-67976190D02*
X298166666Y-67952380D01*
X298142857Y-67904761D01*
X298142857Y-67833333D01*
X298166666Y-67785714D01*
X298214285Y-67761904D01*
X298476190Y-67761904D01*
X298190476Y-67452380D02*
X298166666Y-67500000D01*
X298142857Y-67523809D01*
X298095238Y-67547619D01*
X298071428Y-67547619D01*
X298023809Y-67523809D01*
X298000000Y-67500000D01*
X297976190Y-67452380D01*
X297976190Y-67357142D01*
X298000000Y-67309523D01*
X298023809Y-67285714D01*
X298071428Y-67261904D01*
X298095238Y-67261904D01*
X298142857Y-67285714D01*
X298166666Y-67309523D01*
X298190476Y-67357142D01*
X298190476Y-67452380D01*
X298214285Y-67500000D01*
X298238095Y-67523809D01*
X298285714Y-67547619D01*
X298380952Y-67547619D01*
X298428571Y-67523809D01*
X298452380Y-67500000D01*
X298476190Y-67452380D01*
X298476190Y-67357142D01*
X298452380Y-67309523D01*
X298428571Y-67285714D01*
X298380952Y-67261904D01*
X298285714Y-67261904D01*
X298238095Y-67285714D01*
X298214285Y-67309523D01*
X298190476Y-67357142D01*
D13*
%TO.C,J7*%
X313500000Y-80800000D02*
X295500000Y-80800000D01*
X295500000Y-80800000D02*
X295500000Y-84300000D01*
X313500000Y-80800000D02*
X313500000Y-84300000D01*
X313500000Y-84300000D02*
X295500000Y-84300000D01*
D14*
%TO.C,C4*%
X346453733Y-47690000D02*
X346746267Y-47690000D01*
X346453733Y-48710000D02*
X346746267Y-48710000D01*
%TO.C,C3*%
X346453733Y-22690000D02*
X346746267Y-22690000D01*
X346453733Y-23710000D02*
X346746267Y-23710000D01*
%TO.C,R8*%
X336877500Y-48454724D02*
X336877500Y-47945276D01*
X337922500Y-48454724D02*
X337922500Y-47945276D01*
%TO.C,R5*%
X338477500Y-48454724D02*
X338477500Y-47945276D01*
X339522500Y-48454724D02*
X339522500Y-47945276D01*
%TO.C,R18*%
X353097500Y-58995276D02*
X353097500Y-59504724D01*
X352052500Y-58995276D02*
X352052500Y-59504724D01*
%TO.C,R17*%
X337922500Y-58957776D02*
X337922500Y-59467224D01*
X336877500Y-58957776D02*
X336877500Y-59467224D01*
%TO.C,R16*%
X354772500Y-58995276D02*
X354772500Y-59504724D01*
X353727500Y-58995276D02*
X353727500Y-59504724D01*
%TO.C,R15*%
X337922500Y-29545276D02*
X337922500Y-30054724D01*
X336877500Y-29545276D02*
X336877500Y-30054724D01*
%TO.C,R14*%
X336322500Y-58945276D02*
X336322500Y-59454724D01*
X335277500Y-58945276D02*
X335277500Y-59454724D01*
%TO.C,R13*%
X350477500Y-54654724D02*
X350477500Y-54145276D01*
X351522500Y-54654724D02*
X351522500Y-54145276D01*
%TO.C,R12*%
X338477500Y-54504724D02*
X338477500Y-53995276D01*
X339522500Y-54504724D02*
X339522500Y-53995276D01*
%TO.C,R11*%
X336322500Y-29545276D02*
X336322500Y-30054724D01*
X335277500Y-29545276D02*
X335277500Y-30054724D01*
%TO.C,R10*%
X353677500Y-54654724D02*
X353677500Y-54145276D01*
X354722500Y-54654724D02*
X354722500Y-54145276D01*
%TO.C,R9*%
X334977500Y-54504724D02*
X334977500Y-53995276D01*
X336022500Y-54504724D02*
X336022500Y-53995276D01*
%TO.C,R7*%
X338277500Y-24054724D02*
X338277500Y-23545276D01*
X339322500Y-24054724D02*
X339322500Y-23545276D01*
%TO.C,R6*%
X350677500Y-48454724D02*
X350677500Y-47945276D01*
X351722500Y-48454724D02*
X351722500Y-47945276D01*
%TO.C,R4*%
X336677500Y-24054724D02*
X336677500Y-23545276D01*
X337722500Y-24054724D02*
X337722500Y-23545276D01*
%TO.C,R3*%
X352277500Y-48454724D02*
X352277500Y-47945276D01*
X353322500Y-48454724D02*
X353322500Y-47945276D01*
%TO.C,C12*%
X351510000Y-59103733D02*
X351510000Y-59396267D01*
X350490000Y-59103733D02*
X350490000Y-59396267D01*
%TO.C,C11*%
X339510000Y-59053733D02*
X339510000Y-59346267D01*
X338490000Y-59053733D02*
X338490000Y-59346267D01*
%TO.C,C10*%
X339510000Y-29653733D02*
X339510000Y-29946267D01*
X338490000Y-29653733D02*
X338490000Y-29946267D01*
%TO.C,C9*%
X353110000Y-54253733D02*
X353110000Y-54546267D01*
X352090000Y-54253733D02*
X352090000Y-54546267D01*
%TO.C,C8*%
X337760000Y-54103733D02*
X337760000Y-54396267D01*
X336740000Y-54103733D02*
X336740000Y-54396267D01*
%TO.C,C7*%
X339890000Y-23946267D02*
X339890000Y-23653733D01*
X340910000Y-23946267D02*
X340910000Y-23653733D01*
%TO.C,C6*%
X349090000Y-48346267D02*
X349090000Y-48053733D01*
X350110000Y-48346267D02*
X350110000Y-48053733D01*
%TO.C,C5*%
X340090000Y-48346267D02*
X340090000Y-48053733D01*
X341110000Y-48346267D02*
X341110000Y-48053733D01*
%TO.C,J14*%
X182520000Y-32520000D02*
X182520000Y-29860000D01*
X182520000Y-32520000D02*
X207980000Y-32520000D01*
X207980000Y-32520000D02*
X207980000Y-29860000D01*
X182520000Y-29860000D02*
X207980000Y-29860000D01*
X179920000Y-29860000D02*
X181250000Y-29860000D01*
X179920000Y-31190000D02*
X179920000Y-29860000D01*
%TO.C,J13*%
X182520000Y-68080000D02*
X182520000Y-65420000D01*
X182520000Y-68080000D02*
X207980000Y-68080000D01*
X207980000Y-68080000D02*
X207980000Y-65420000D01*
X182520000Y-65420000D02*
X207980000Y-65420000D01*
X179920000Y-65420000D02*
X181250000Y-65420000D01*
X179920000Y-66750000D02*
X179920000Y-65420000D01*
%TO.C,J10*%
X137520000Y-32520000D02*
X137520000Y-29860000D01*
X137520000Y-32520000D02*
X162980000Y-32520000D01*
X162980000Y-32520000D02*
X162980000Y-29860000D01*
X137520000Y-29860000D02*
X162980000Y-29860000D01*
X134920000Y-29860000D02*
X136250000Y-29860000D01*
X134920000Y-31190000D02*
X134920000Y-29860000D01*
%TO.C,J8*%
X137520000Y-68080000D02*
X137520000Y-65420000D01*
X137520000Y-68080000D02*
X162980000Y-68080000D01*
X162980000Y-68080000D02*
X162980000Y-65420000D01*
X137520000Y-65420000D02*
X162980000Y-65420000D01*
X134920000Y-65420000D02*
X136250000Y-65420000D01*
X134920000Y-66750000D02*
X134920000Y-65420000D01*
%TO.C,U2*%
X345000000Y-50565000D02*
X341550000Y-50565000D01*
X345000000Y-50565000D02*
X346950000Y-50565000D01*
X345000000Y-59435000D02*
X343050000Y-59435000D01*
X345000000Y-59435000D02*
X346950000Y-59435000D01*
%TO.C,U3*%
X345000000Y-25565000D02*
X341550000Y-25565000D01*
X345000000Y-25565000D02*
X346950000Y-25565000D01*
X345000000Y-34435000D02*
X343050000Y-34435000D01*
X345000000Y-34435000D02*
X346950000Y-34435000D01*
D15*
%TO.C,D1*%
X241798000Y-42490000D02*
X240579000Y-42490000D01*
D13*
X238900000Y-40909000D02*
X238900000Y-40500000D01*
X238900000Y-44500000D02*
X238900000Y-44091000D01*
X243600000Y-40909000D02*
X243600000Y-40500000D01*
X243600000Y-44500000D02*
X243600000Y-44091000D01*
X243600000Y-40500000D02*
X238900000Y-40500000D01*
D15*
X241600000Y-42460000D02*
X240817000Y-41980000D01*
X241639000Y-42970000D02*
X241639000Y-41954000D01*
X240817000Y-41970000D02*
X240817000Y-42986000D01*
X240817000Y-43000000D02*
X241600000Y-42460000D01*
D13*
X243600000Y-44500000D02*
X238900000Y-44500000D01*
%TO.C,U1*%
X85100000Y-25343000D02*
X85100000Y-23443000D01*
X84201000Y-25343000D02*
X84201000Y-23443000D01*
X84201000Y-23443000D02*
X85100000Y-23443000D01*
X81661000Y-25343000D02*
X81661000Y-23845000D01*
X81661000Y-23845000D02*
X82560000Y-23845000D01*
X82560000Y-23845000D02*
X82560000Y-25343000D01*
X79121000Y-25343000D02*
X79121000Y-23443000D01*
X79121000Y-23443000D02*
X80020000Y-23443000D01*
X80020000Y-23443000D02*
X80020000Y-25343000D01*
X77099000Y-26044000D02*
X77099000Y-25343000D01*
X77099000Y-25343000D02*
X87101000Y-25343000D01*
X87101000Y-25343000D02*
X87101000Y-26044000D01*
D16*
X86301009Y-24444468D02*
G75*
G03*
X86301000Y-24447000I-200009J-532D01*
G01*
D14*
%TO.C,R2*%
X296335000Y-51372936D02*
X296335000Y-51827064D01*
X294865000Y-51372936D02*
X294865000Y-51827064D01*
%TO.C,R1*%
X299135000Y-51372936D02*
X299135000Y-51827064D01*
X297665000Y-51372936D02*
X297665000Y-51827064D01*
D13*
%TO.C,PS2*%
X201493000Y2932000D02*
X201493000Y265000D01*
X179493000Y2932000D02*
X179493000Y265000D01*
X177993000Y265000D02*
X177993000Y-19293000D01*
X177993000Y-19293000D02*
X203066000Y-19293000D01*
X203066000Y-19293000D02*
X203066000Y265000D01*
X177993000Y265000D02*
X202993000Y265000D01*
X179493000Y2932000D02*
X201493000Y2932000D01*
%TO.C,PS1*%
X161493000Y2932000D02*
X161493000Y265000D01*
X139493000Y2932000D02*
X139493000Y265000D01*
X137993000Y265000D02*
X137993000Y-19293000D01*
X137993000Y-19293000D02*
X163066000Y-19293000D01*
X163066000Y-19293000D02*
X163066000Y265000D01*
X137993000Y265000D02*
X162993000Y265000D01*
X139493000Y2932000D02*
X161493000Y2932000D01*
D14*
%TO.C,J12*%
X248660000Y-36420000D02*
X248660000Y-39080000D01*
X296980000Y-36420000D02*
X248660000Y-36420000D01*
X296980000Y-39080000D02*
X248660000Y-39080000D01*
X296980000Y-36420000D02*
X296980000Y-39080000D01*
X298250000Y-36420000D02*
X299580000Y-36420000D01*
X299580000Y-36420000D02*
X299580000Y-37750000D01*
D13*
%TO.C,J6*%
X355700000Y-11130000D02*
X355700000Y-5530000D01*
X367900000Y-5530000D02*
X367900000Y-11130000D01*
X367900000Y1870000D02*
X355700000Y1870000D01*
X367900000Y-11130000D02*
X355700000Y-11130000D01*
X367900000Y1870000D02*
X367900000Y-2730000D01*
X355700000Y-2730000D02*
X355700000Y1870000D01*
%TO.C,J5*%
X335700000Y-11130000D02*
X335700000Y-5530000D01*
X347900000Y-5530000D02*
X347900000Y-11130000D01*
X347900000Y1870000D02*
X335700000Y1870000D01*
X347900000Y-11130000D02*
X335700000Y-11130000D01*
X347900000Y1870000D02*
X347900000Y-2730000D01*
X335700000Y-2730000D02*
X335700000Y1870000D01*
D14*
%TO.C,J4*%
X251270000Y-48550000D02*
X251270000Y-45890000D01*
X251270000Y-48550000D02*
X299590000Y-48550000D01*
X299590000Y-48550000D02*
X299590000Y-45890000D01*
X251270000Y-45890000D02*
X299590000Y-45890000D01*
X248670000Y-45890000D02*
X250000000Y-45890000D01*
X248670000Y-47220000D02*
X248670000Y-45890000D01*
%TO.C,J3*%
X251270000Y-66330000D02*
X251270000Y-63670000D01*
X251270000Y-66330000D02*
X299590000Y-66330000D01*
X299590000Y-66330000D02*
X299590000Y-63670000D01*
X251270000Y-63670000D02*
X299590000Y-63670000D01*
X248670000Y-63670000D02*
X250000000Y-63670000D01*
X248670000Y-65000000D02*
X248670000Y-63670000D01*
D13*
%TO.C,J2*%
X315700000Y-11130000D02*
X315700000Y-5530000D01*
X327900000Y-5530000D02*
X327900000Y-11130000D01*
X327900000Y1870000D02*
X315700000Y1870000D01*
X327900000Y-11130000D02*
X315700000Y-11130000D01*
X327900000Y1870000D02*
X327900000Y-2730000D01*
X315700000Y-2730000D02*
X315700000Y1870000D01*
%TO.C,J1*%
X295700000Y-11130000D02*
X295700000Y-5530000D01*
X307900000Y-5530000D02*
X307900000Y-11130000D01*
X307900000Y1870000D02*
X295700000Y1870000D01*
X307900000Y-11130000D02*
X295700000Y-11130000D01*
X307900000Y1870000D02*
X307900000Y-2730000D01*
X295700000Y-2730000D02*
X295700000Y1870000D01*
%TO.C,F1*%
X102551000Y-46757000D02*
X102551000Y-24157000D01*
X110751000Y-24957000D02*
X110751000Y-46057000D01*
X110751000Y-46057000D02*
X103351000Y-46057000D01*
X103351000Y-46057000D02*
X103351000Y-24957000D01*
X103351000Y-24957000D02*
X110751000Y-24957000D01*
X110651000Y-45957000D02*
X103451000Y-25057000D01*
X111551000Y-24157000D02*
X108431000Y-24157000D01*
X105569000Y-24157000D02*
X102551000Y-24157000D01*
X102551000Y-46757000D02*
X105571000Y-46757000D01*
X108429000Y-46757000D02*
X111551000Y-46757000D01*
X111551000Y-24157000D02*
X111551000Y-46757000D01*
%TO.C,DC1*%
X103544000Y-4306000D02*
X103544000Y-10745000D01*
X107360000Y875000D02*
X103544000Y875000D01*
X103544000Y875000D02*
X103544000Y-44000D01*
X106682000Y-10745000D02*
X103544000Y-10745000D01*
X111882000Y-10745000D02*
X107518000Y-10745000D01*
X113323000Y-4303000D02*
X113323000Y-10745000D01*
X113323000Y-10745000D02*
X112718000Y-10745000D01*
X110535000Y875000D02*
X113323000Y875000D01*
X113323000Y875000D02*
X113323000Y-47000D01*
X110535000Y875000D02*
X107360000Y875000D01*
D14*
%TO.C,C2*%
X78765000Y-16261252D02*
X78765000Y-15738748D01*
X80235000Y-16261252D02*
X80235000Y-15738748D01*
%TO.C,C1*%
X83790000Y-16811252D02*
X83790000Y-15388748D01*
X85610000Y-16811252D02*
X85610000Y-15388748D01*
%TO.C,J7*%
D10*
X303212023Y-85659380D02*
X303212023Y-86373666D01*
X303164404Y-86516523D01*
X303069166Y-86611761D01*
X302926309Y-86659380D01*
X302831071Y-86659380D01*
X303592976Y-85659380D02*
X304259642Y-85659380D01*
X303831071Y-86659380D01*
%TO.C,C4*%
X346433333Y-47127142D02*
X346385714Y-47174761D01*
X346242857Y-47222380D01*
X346147619Y-47222380D01*
X346004761Y-47174761D01*
X345909523Y-47079523D01*
X345861904Y-46984285D01*
X345814285Y-46793809D01*
X345814285Y-46650952D01*
X345861904Y-46460476D01*
X345909523Y-46365238D01*
X346004761Y-46270000D01*
X346147619Y-46222380D01*
X346242857Y-46222380D01*
X346385714Y-46270000D01*
X346433333Y-46317619D01*
X347290476Y-46555714D02*
X347290476Y-47222380D01*
X347052380Y-46174761D02*
X346814285Y-46889047D01*
X347433333Y-46889047D01*
%TO.C,C3*%
X346433333Y-22127142D02*
X346385714Y-22174761D01*
X346242857Y-22222380D01*
X346147619Y-22222380D01*
X346004761Y-22174761D01*
X345909523Y-22079523D01*
X345861904Y-21984285D01*
X345814285Y-21793809D01*
X345814285Y-21650952D01*
X345861904Y-21460476D01*
X345909523Y-21365238D01*
X346004761Y-21270000D01*
X346147619Y-21222380D01*
X346242857Y-21222380D01*
X346385714Y-21270000D01*
X346433333Y-21317619D01*
X346766666Y-21222380D02*
X347385714Y-21222380D01*
X347052380Y-21603333D01*
X347195238Y-21603333D01*
X347290476Y-21650952D01*
X347338095Y-21698571D01*
X347385714Y-21793809D01*
X347385714Y-22031904D01*
X347338095Y-22127142D01*
X347290476Y-22174761D01*
X347195238Y-22222380D01*
X346909523Y-22222380D01*
X346814285Y-22174761D01*
X346766666Y-22127142D01*
%TO.C,R8*%
X337852380Y-45566666D02*
X337376190Y-45900000D01*
X337852380Y-46138095D02*
X336852380Y-46138095D01*
X336852380Y-45757142D01*
X336900000Y-45661904D01*
X336947619Y-45614285D01*
X337042857Y-45566666D01*
X337185714Y-45566666D01*
X337280952Y-45614285D01*
X337328571Y-45661904D01*
X337376190Y-45757142D01*
X337376190Y-46138095D01*
X337280952Y-44995238D02*
X337233333Y-45090476D01*
X337185714Y-45138095D01*
X337090476Y-45185714D01*
X337042857Y-45185714D01*
X336947619Y-45138095D01*
X336900000Y-45090476D01*
X336852380Y-44995238D01*
X336852380Y-44804761D01*
X336900000Y-44709523D01*
X336947619Y-44661904D01*
X337042857Y-44614285D01*
X337090476Y-44614285D01*
X337185714Y-44661904D01*
X337233333Y-44709523D01*
X337280952Y-44804761D01*
X337280952Y-44995238D01*
X337328571Y-45090476D01*
X337376190Y-45138095D01*
X337471428Y-45185714D01*
X337661904Y-45185714D01*
X337757142Y-45138095D01*
X337804761Y-45090476D01*
X337852380Y-44995238D01*
X337852380Y-44804761D01*
X337804761Y-44709523D01*
X337757142Y-44661904D01*
X337661904Y-44614285D01*
X337471428Y-44614285D01*
X337376190Y-44661904D01*
X337328571Y-44709523D01*
X337280952Y-44804761D01*
%TO.C,R5*%
X339452380Y-45566666D02*
X338976190Y-45900000D01*
X339452380Y-46138095D02*
X338452380Y-46138095D01*
X338452380Y-45757142D01*
X338500000Y-45661904D01*
X338547619Y-45614285D01*
X338642857Y-45566666D01*
X338785714Y-45566666D01*
X338880952Y-45614285D01*
X338928571Y-45661904D01*
X338976190Y-45757142D01*
X338976190Y-46138095D01*
X338452380Y-44661904D02*
X338452380Y-45138095D01*
X338928571Y-45185714D01*
X338880952Y-45138095D01*
X338833333Y-45042857D01*
X338833333Y-44804761D01*
X338880952Y-44709523D01*
X338928571Y-44661904D01*
X339023809Y-44614285D01*
X339261904Y-44614285D01*
X339357142Y-44661904D01*
X339404761Y-44709523D01*
X339452380Y-44804761D01*
X339452380Y-45042857D01*
X339404761Y-45138095D01*
X339357142Y-45185714D01*
%TO.C,R18*%
X352952380Y-62892857D02*
X352476190Y-63226190D01*
X352952380Y-63464285D02*
X351952380Y-63464285D01*
X351952380Y-63083333D01*
X352000000Y-62988095D01*
X352047619Y-62940476D01*
X352142857Y-62892857D01*
X352285714Y-62892857D01*
X352380952Y-62940476D01*
X352428571Y-62988095D01*
X352476190Y-63083333D01*
X352476190Y-63464285D01*
X352952380Y-61940476D02*
X352952380Y-62511904D01*
X352952380Y-62226190D02*
X351952380Y-62226190D01*
X352095238Y-62321428D01*
X352190476Y-62416666D01*
X352238095Y-62511904D01*
X352380952Y-61369047D02*
X352333333Y-61464285D01*
X352285714Y-61511904D01*
X352190476Y-61559523D01*
X352142857Y-61559523D01*
X352047619Y-61511904D01*
X352000000Y-61464285D01*
X351952380Y-61369047D01*
X351952380Y-61178571D01*
X352000000Y-61083333D01*
X352047619Y-61035714D01*
X352142857Y-60988095D01*
X352190476Y-60988095D01*
X352285714Y-61035714D01*
X352333333Y-61083333D01*
X352380952Y-61178571D01*
X352380952Y-61369047D01*
X352428571Y-61464285D01*
X352476190Y-61511904D01*
X352571428Y-61559523D01*
X352761904Y-61559523D01*
X352857142Y-61511904D01*
X352904761Y-61464285D01*
X352952380Y-61369047D01*
X352952380Y-61178571D01*
X352904761Y-61083333D01*
X352857142Y-61035714D01*
X352761904Y-60988095D01*
X352571428Y-60988095D01*
X352476190Y-61035714D01*
X352428571Y-61083333D01*
X352380952Y-61178571D01*
%TO.C,R17*%
X337852380Y-63142857D02*
X337376190Y-63476190D01*
X337852380Y-63714285D02*
X336852380Y-63714285D01*
X336852380Y-63333333D01*
X336900000Y-63238095D01*
X336947619Y-63190476D01*
X337042857Y-63142857D01*
X337185714Y-63142857D01*
X337280952Y-63190476D01*
X337328571Y-63238095D01*
X337376190Y-63333333D01*
X337376190Y-63714285D01*
X337852380Y-62190476D02*
X337852380Y-62761904D01*
X337852380Y-62476190D02*
X336852380Y-62476190D01*
X336995238Y-62571428D01*
X337090476Y-62666666D01*
X337138095Y-62761904D01*
X336852380Y-61857142D02*
X336852380Y-61190476D01*
X337852380Y-61619047D01*
%TO.C,R16*%
X354702380Y-62892857D02*
X354226190Y-63226190D01*
X354702380Y-63464285D02*
X353702380Y-63464285D01*
X353702380Y-63083333D01*
X353750000Y-62988095D01*
X353797619Y-62940476D01*
X353892857Y-62892857D01*
X354035714Y-62892857D01*
X354130952Y-62940476D01*
X354178571Y-62988095D01*
X354226190Y-63083333D01*
X354226190Y-63464285D01*
X354702380Y-61940476D02*
X354702380Y-62511904D01*
X354702380Y-62226190D02*
X353702380Y-62226190D01*
X353845238Y-62321428D01*
X353940476Y-62416666D01*
X353988095Y-62511904D01*
X353702380Y-61083333D02*
X353702380Y-61273809D01*
X353750000Y-61369047D01*
X353797619Y-61416666D01*
X353940476Y-61511904D01*
X354130952Y-61559523D01*
X354511904Y-61559523D01*
X354607142Y-61511904D01*
X354654761Y-61464285D01*
X354702380Y-61369047D01*
X354702380Y-61178571D01*
X354654761Y-61083333D01*
X354607142Y-61035714D01*
X354511904Y-60988095D01*
X354273809Y-60988095D01*
X354178571Y-61035714D01*
X354130952Y-61083333D01*
X354083333Y-61178571D01*
X354083333Y-61369047D01*
X354130952Y-61464285D01*
X354178571Y-61511904D01*
X354273809Y-61559523D01*
%TO.C,R15*%
X337852380Y-27442857D02*
X337376190Y-27776190D01*
X337852380Y-28014285D02*
X336852380Y-28014285D01*
X336852380Y-27633333D01*
X336900000Y-27538095D01*
X336947619Y-27490476D01*
X337042857Y-27442857D01*
X337185714Y-27442857D01*
X337280952Y-27490476D01*
X337328571Y-27538095D01*
X337376190Y-27633333D01*
X337376190Y-28014285D01*
X337852380Y-26490476D02*
X337852380Y-27061904D01*
X337852380Y-26776190D02*
X336852380Y-26776190D01*
X336995238Y-26871428D01*
X337090476Y-26966666D01*
X337138095Y-27061904D01*
X336852380Y-25585714D02*
X336852380Y-26061904D01*
X337328571Y-26109523D01*
X337280952Y-26061904D01*
X337233333Y-25966666D01*
X337233333Y-25728571D01*
X337280952Y-25633333D01*
X337328571Y-25585714D01*
X337423809Y-25538095D01*
X337661904Y-25538095D01*
X337757142Y-25585714D01*
X337804761Y-25633333D01*
X337852380Y-25728571D01*
X337852380Y-25966666D01*
X337804761Y-26061904D01*
X337757142Y-26109523D01*
%TO.C,R14*%
X336252380Y-63142857D02*
X335776190Y-63476190D01*
X336252380Y-63714285D02*
X335252380Y-63714285D01*
X335252380Y-63333333D01*
X335300000Y-63238095D01*
X335347619Y-63190476D01*
X335442857Y-63142857D01*
X335585714Y-63142857D01*
X335680952Y-63190476D01*
X335728571Y-63238095D01*
X335776190Y-63333333D01*
X335776190Y-63714285D01*
X336252380Y-62190476D02*
X336252380Y-62761904D01*
X336252380Y-62476190D02*
X335252380Y-62476190D01*
X335395238Y-62571428D01*
X335490476Y-62666666D01*
X335538095Y-62761904D01*
X335585714Y-61333333D02*
X336252380Y-61333333D01*
X335204761Y-61571428D02*
X335919047Y-61809523D01*
X335919047Y-61190476D01*
%TO.C,R13*%
X351452380Y-52042857D02*
X350976190Y-52376190D01*
X351452380Y-52614285D02*
X350452380Y-52614285D01*
X350452380Y-52233333D01*
X350500000Y-52138095D01*
X350547619Y-52090476D01*
X350642857Y-52042857D01*
X350785714Y-52042857D01*
X350880952Y-52090476D01*
X350928571Y-52138095D01*
X350976190Y-52233333D01*
X350976190Y-52614285D01*
X351452380Y-51090476D02*
X351452380Y-51661904D01*
X351452380Y-51376190D02*
X350452380Y-51376190D01*
X350595238Y-51471428D01*
X350690476Y-51566666D01*
X350738095Y-51661904D01*
X350452380Y-50757142D02*
X350452380Y-50138095D01*
X350833333Y-50471428D01*
X350833333Y-50328571D01*
X350880952Y-50233333D01*
X350928571Y-50185714D01*
X351023809Y-50138095D01*
X351261904Y-50138095D01*
X351357142Y-50185714D01*
X351404761Y-50233333D01*
X351452380Y-50328571D01*
X351452380Y-50614285D01*
X351404761Y-50709523D01*
X351357142Y-50757142D01*
%TO.C,R12*%
X339452380Y-51892857D02*
X338976190Y-52226190D01*
X339452380Y-52464285D02*
X338452380Y-52464285D01*
X338452380Y-52083333D01*
X338500000Y-51988095D01*
X338547619Y-51940476D01*
X338642857Y-51892857D01*
X338785714Y-51892857D01*
X338880952Y-51940476D01*
X338928571Y-51988095D01*
X338976190Y-52083333D01*
X338976190Y-52464285D01*
X339452380Y-50940476D02*
X339452380Y-51511904D01*
X339452380Y-51226190D02*
X338452380Y-51226190D01*
X338595238Y-51321428D01*
X338690476Y-51416666D01*
X338738095Y-51511904D01*
X338547619Y-50559523D02*
X338500000Y-50511904D01*
X338452380Y-50416666D01*
X338452380Y-50178571D01*
X338500000Y-50083333D01*
X338547619Y-50035714D01*
X338642857Y-49988095D01*
X338738095Y-49988095D01*
X338880952Y-50035714D01*
X339452380Y-50607142D01*
X339452380Y-49988095D01*
%TO.C,R11*%
X336252380Y-27442857D02*
X335776190Y-27776190D01*
X336252380Y-28014285D02*
X335252380Y-28014285D01*
X335252380Y-27633333D01*
X335300000Y-27538095D01*
X335347619Y-27490476D01*
X335442857Y-27442857D01*
X335585714Y-27442857D01*
X335680952Y-27490476D01*
X335728571Y-27538095D01*
X335776190Y-27633333D01*
X335776190Y-28014285D01*
X336252380Y-26490476D02*
X336252380Y-27061904D01*
X336252380Y-26776190D02*
X335252380Y-26776190D01*
X335395238Y-26871428D01*
X335490476Y-26966666D01*
X335538095Y-27061904D01*
X336252380Y-25538095D02*
X336252380Y-26109523D01*
X336252380Y-25823809D02*
X335252380Y-25823809D01*
X335395238Y-25919047D01*
X335490476Y-26014285D01*
X335538095Y-26109523D01*
%TO.C,R10*%
X354652380Y-52042857D02*
X354176190Y-52376190D01*
X354652380Y-52614285D02*
X353652380Y-52614285D01*
X353652380Y-52233333D01*
X353700000Y-52138095D01*
X353747619Y-52090476D01*
X353842857Y-52042857D01*
X353985714Y-52042857D01*
X354080952Y-52090476D01*
X354128571Y-52138095D01*
X354176190Y-52233333D01*
X354176190Y-52614285D01*
X354652380Y-51090476D02*
X354652380Y-51661904D01*
X354652380Y-51376190D02*
X353652380Y-51376190D01*
X353795238Y-51471428D01*
X353890476Y-51566666D01*
X353938095Y-51661904D01*
X353652380Y-50471428D02*
X353652380Y-50376190D01*
X353700000Y-50280952D01*
X353747619Y-50233333D01*
X353842857Y-50185714D01*
X354033333Y-50138095D01*
X354271428Y-50138095D01*
X354461904Y-50185714D01*
X354557142Y-50233333D01*
X354604761Y-50280952D01*
X354652380Y-50376190D01*
X354652380Y-50471428D01*
X354604761Y-50566666D01*
X354557142Y-50614285D01*
X354461904Y-50661904D01*
X354271428Y-50709523D01*
X354033333Y-50709523D01*
X353842857Y-50661904D01*
X353747619Y-50614285D01*
X353700000Y-50566666D01*
X353652380Y-50471428D01*
%TO.C,R9*%
X335952380Y-51816666D02*
X335476190Y-52150000D01*
X335952380Y-52388095D02*
X334952380Y-52388095D01*
X334952380Y-52007142D01*
X335000000Y-51911904D01*
X335047619Y-51864285D01*
X335142857Y-51816666D01*
X335285714Y-51816666D01*
X335380952Y-51864285D01*
X335428571Y-51911904D01*
X335476190Y-52007142D01*
X335476190Y-52388095D01*
X335952380Y-51340476D02*
X335952380Y-51150000D01*
X335904761Y-51054761D01*
X335857142Y-51007142D01*
X335714285Y-50911904D01*
X335523809Y-50864285D01*
X335142857Y-50864285D01*
X335047619Y-50911904D01*
X335000000Y-50959523D01*
X334952380Y-51054761D01*
X334952380Y-51245238D01*
X335000000Y-51340476D01*
X335047619Y-51388095D01*
X335142857Y-51435714D01*
X335380952Y-51435714D01*
X335476190Y-51388095D01*
X335523809Y-51340476D01*
X335571428Y-51245238D01*
X335571428Y-51054761D01*
X335523809Y-50959523D01*
X335476190Y-50911904D01*
X335380952Y-50864285D01*
%TO.C,R7*%
X339202380Y-21166666D02*
X338726190Y-21500000D01*
X339202380Y-21738095D02*
X338202380Y-21738095D01*
X338202380Y-21357142D01*
X338250000Y-21261904D01*
X338297619Y-21214285D01*
X338392857Y-21166666D01*
X338535714Y-21166666D01*
X338630952Y-21214285D01*
X338678571Y-21261904D01*
X338726190Y-21357142D01*
X338726190Y-21738095D01*
X338202380Y-20833333D02*
X338202380Y-20166666D01*
X339202380Y-20595238D01*
%TO.C,R6*%
X351652380Y-45566666D02*
X351176190Y-45900000D01*
X351652380Y-46138095D02*
X350652380Y-46138095D01*
X350652380Y-45757142D01*
X350700000Y-45661904D01*
X350747619Y-45614285D01*
X350842857Y-45566666D01*
X350985714Y-45566666D01*
X351080952Y-45614285D01*
X351128571Y-45661904D01*
X351176190Y-45757142D01*
X351176190Y-46138095D01*
X350652380Y-44709523D02*
X350652380Y-44900000D01*
X350700000Y-44995238D01*
X350747619Y-45042857D01*
X350890476Y-45138095D01*
X351080952Y-45185714D01*
X351461904Y-45185714D01*
X351557142Y-45138095D01*
X351604761Y-45090476D01*
X351652380Y-44995238D01*
X351652380Y-44804761D01*
X351604761Y-44709523D01*
X351557142Y-44661904D01*
X351461904Y-44614285D01*
X351223809Y-44614285D01*
X351128571Y-44661904D01*
X351080952Y-44709523D01*
X351033333Y-44804761D01*
X351033333Y-44995238D01*
X351080952Y-45090476D01*
X351128571Y-45138095D01*
X351223809Y-45185714D01*
%TO.C,R4*%
X337702380Y-21166666D02*
X337226190Y-21500000D01*
X337702380Y-21738095D02*
X336702380Y-21738095D01*
X336702380Y-21357142D01*
X336750000Y-21261904D01*
X336797619Y-21214285D01*
X336892857Y-21166666D01*
X337035714Y-21166666D01*
X337130952Y-21214285D01*
X337178571Y-21261904D01*
X337226190Y-21357142D01*
X337226190Y-21738095D01*
X337035714Y-20309523D02*
X337702380Y-20309523D01*
X336654761Y-20547619D02*
X337369047Y-20785714D01*
X337369047Y-20166666D01*
%TO.C,R3*%
X353252380Y-45566666D02*
X352776190Y-45900000D01*
X353252380Y-46138095D02*
X352252380Y-46138095D01*
X352252380Y-45757142D01*
X352300000Y-45661904D01*
X352347619Y-45614285D01*
X352442857Y-45566666D01*
X352585714Y-45566666D01*
X352680952Y-45614285D01*
X352728571Y-45661904D01*
X352776190Y-45757142D01*
X352776190Y-46138095D01*
X352252380Y-45233333D02*
X352252380Y-44614285D01*
X352633333Y-44947619D01*
X352633333Y-44804761D01*
X352680952Y-44709523D01*
X352728571Y-44661904D01*
X352823809Y-44614285D01*
X353061904Y-44614285D01*
X353157142Y-44661904D01*
X353204761Y-44709523D01*
X353252380Y-44804761D01*
X353252380Y-45090476D01*
X353204761Y-45185714D01*
X353157142Y-45233333D01*
%TO.C,C12*%
X351357142Y-62892857D02*
X351404761Y-62940476D01*
X351452380Y-63083333D01*
X351452380Y-63178571D01*
X351404761Y-63321428D01*
X351309523Y-63416666D01*
X351214285Y-63464285D01*
X351023809Y-63511904D01*
X350880952Y-63511904D01*
X350690476Y-63464285D01*
X350595238Y-63416666D01*
X350500000Y-63321428D01*
X350452380Y-63178571D01*
X350452380Y-63083333D01*
X350500000Y-62940476D01*
X350547619Y-62892857D01*
X351452380Y-61940476D02*
X351452380Y-62511904D01*
X351452380Y-62226190D02*
X350452380Y-62226190D01*
X350595238Y-62321428D01*
X350690476Y-62416666D01*
X350738095Y-62511904D01*
X350547619Y-61559523D02*
X350500000Y-61511904D01*
X350452380Y-61416666D01*
X350452380Y-61178571D01*
X350500000Y-61083333D01*
X350547619Y-61035714D01*
X350642857Y-60988095D01*
X350738095Y-60988095D01*
X350880952Y-61035714D01*
X351452380Y-61607142D01*
X351452380Y-60988095D01*
%TO.C,C11*%
X339357142Y-62842857D02*
X339404761Y-62890476D01*
X339452380Y-63033333D01*
X339452380Y-63128571D01*
X339404761Y-63271428D01*
X339309523Y-63366666D01*
X339214285Y-63414285D01*
X339023809Y-63461904D01*
X338880952Y-63461904D01*
X338690476Y-63414285D01*
X338595238Y-63366666D01*
X338500000Y-63271428D01*
X338452380Y-63128571D01*
X338452380Y-63033333D01*
X338500000Y-62890476D01*
X338547619Y-62842857D01*
X339452380Y-61890476D02*
X339452380Y-62461904D01*
X339452380Y-62176190D02*
X338452380Y-62176190D01*
X338595238Y-62271428D01*
X338690476Y-62366666D01*
X338738095Y-62461904D01*
X339452380Y-60938095D02*
X339452380Y-61509523D01*
X339452380Y-61223809D02*
X338452380Y-61223809D01*
X338595238Y-61319047D01*
X338690476Y-61414285D01*
X338738095Y-61509523D01*
%TO.C,C10*%
X339357142Y-27442857D02*
X339404761Y-27490476D01*
X339452380Y-27633333D01*
X339452380Y-27728571D01*
X339404761Y-27871428D01*
X339309523Y-27966666D01*
X339214285Y-28014285D01*
X339023809Y-28061904D01*
X338880952Y-28061904D01*
X338690476Y-28014285D01*
X338595238Y-27966666D01*
X338500000Y-27871428D01*
X338452380Y-27728571D01*
X338452380Y-27633333D01*
X338500000Y-27490476D01*
X338547619Y-27442857D01*
X339452380Y-26490476D02*
X339452380Y-27061904D01*
X339452380Y-26776190D02*
X338452380Y-26776190D01*
X338595238Y-26871428D01*
X338690476Y-26966666D01*
X338738095Y-27061904D01*
X338452380Y-25871428D02*
X338452380Y-25776190D01*
X338500000Y-25680952D01*
X338547619Y-25633333D01*
X338642857Y-25585714D01*
X338833333Y-25538095D01*
X339071428Y-25538095D01*
X339261904Y-25585714D01*
X339357142Y-25633333D01*
X339404761Y-25680952D01*
X339452380Y-25776190D01*
X339452380Y-25871428D01*
X339404761Y-25966666D01*
X339357142Y-26014285D01*
X339261904Y-26061904D01*
X339071428Y-26109523D01*
X338833333Y-26109523D01*
X338642857Y-26061904D01*
X338547619Y-26014285D01*
X338500000Y-25966666D01*
X338452380Y-25871428D01*
%TO.C,C9*%
X353107142Y-51666666D02*
X353154761Y-51714285D01*
X353202380Y-51857142D01*
X353202380Y-51952380D01*
X353154761Y-52095238D01*
X353059523Y-52190476D01*
X352964285Y-52238095D01*
X352773809Y-52285714D01*
X352630952Y-52285714D01*
X352440476Y-52238095D01*
X352345238Y-52190476D01*
X352250000Y-52095238D01*
X352202380Y-51952380D01*
X352202380Y-51857142D01*
X352250000Y-51714285D01*
X352297619Y-51666666D01*
X353202380Y-51190476D02*
X353202380Y-51000000D01*
X353154761Y-50904761D01*
X353107142Y-50857142D01*
X352964285Y-50761904D01*
X352773809Y-50714285D01*
X352392857Y-50714285D01*
X352297619Y-50761904D01*
X352250000Y-50809523D01*
X352202380Y-50904761D01*
X352202380Y-51095238D01*
X352250000Y-51190476D01*
X352297619Y-51238095D01*
X352392857Y-51285714D01*
X352630952Y-51285714D01*
X352726190Y-51238095D01*
X352773809Y-51190476D01*
X352821428Y-51095238D01*
X352821428Y-50904761D01*
X352773809Y-50809523D01*
X352726190Y-50761904D01*
X352630952Y-50714285D01*
%TO.C,C8*%
X337607142Y-51666666D02*
X337654761Y-51714285D01*
X337702380Y-51857142D01*
X337702380Y-51952380D01*
X337654761Y-52095238D01*
X337559523Y-52190476D01*
X337464285Y-52238095D01*
X337273809Y-52285714D01*
X337130952Y-52285714D01*
X336940476Y-52238095D01*
X336845238Y-52190476D01*
X336750000Y-52095238D01*
X336702380Y-51952380D01*
X336702380Y-51857142D01*
X336750000Y-51714285D01*
X336797619Y-51666666D01*
X337130952Y-51095238D02*
X337083333Y-51190476D01*
X337035714Y-51238095D01*
X336940476Y-51285714D01*
X336892857Y-51285714D01*
X336797619Y-51238095D01*
X336750000Y-51190476D01*
X336702380Y-51095238D01*
X336702380Y-50904761D01*
X336750000Y-50809523D01*
X336797619Y-50761904D01*
X336892857Y-50714285D01*
X336940476Y-50714285D01*
X337035714Y-50761904D01*
X337083333Y-50809523D01*
X337130952Y-50904761D01*
X337130952Y-51095238D01*
X337178571Y-51190476D01*
X337226190Y-51238095D01*
X337321428Y-51285714D01*
X337511904Y-51285714D01*
X337607142Y-51238095D01*
X337654761Y-51190476D01*
X337702380Y-51095238D01*
X337702380Y-50904761D01*
X337654761Y-50809523D01*
X337607142Y-50761904D01*
X337511904Y-50714285D01*
X337321428Y-50714285D01*
X337226190Y-50761904D01*
X337178571Y-50809523D01*
X337130952Y-50904761D01*
%TO.C,C7*%
X340857142Y-21166666D02*
X340904761Y-21214285D01*
X340952380Y-21357142D01*
X340952380Y-21452380D01*
X340904761Y-21595238D01*
X340809523Y-21690476D01*
X340714285Y-21738095D01*
X340523809Y-21785714D01*
X340380952Y-21785714D01*
X340190476Y-21738095D01*
X340095238Y-21690476D01*
X340000000Y-21595238D01*
X339952380Y-21452380D01*
X339952380Y-21357142D01*
X340000000Y-21214285D01*
X340047619Y-21166666D01*
X339952380Y-20833333D02*
X339952380Y-20166666D01*
X340952380Y-20595238D01*
%TO.C,C6*%
X349957142Y-45566666D02*
X350004761Y-45614285D01*
X350052380Y-45757142D01*
X350052380Y-45852380D01*
X350004761Y-45995238D01*
X349909523Y-46090476D01*
X349814285Y-46138095D01*
X349623809Y-46185714D01*
X349480952Y-46185714D01*
X349290476Y-46138095D01*
X349195238Y-46090476D01*
X349100000Y-45995238D01*
X349052380Y-45852380D01*
X349052380Y-45757142D01*
X349100000Y-45614285D01*
X349147619Y-45566666D01*
X349052380Y-44709523D02*
X349052380Y-44900000D01*
X349100000Y-44995238D01*
X349147619Y-45042857D01*
X349290476Y-45138095D01*
X349480952Y-45185714D01*
X349861904Y-45185714D01*
X349957142Y-45138095D01*
X350004761Y-45090476D01*
X350052380Y-44995238D01*
X350052380Y-44804761D01*
X350004761Y-44709523D01*
X349957142Y-44661904D01*
X349861904Y-44614285D01*
X349623809Y-44614285D01*
X349528571Y-44661904D01*
X349480952Y-44709523D01*
X349433333Y-44804761D01*
X349433333Y-44995238D01*
X349480952Y-45090476D01*
X349528571Y-45138095D01*
X349623809Y-45185714D01*
%TO.C,C5*%
X340957142Y-45566666D02*
X341004761Y-45614285D01*
X341052380Y-45757142D01*
X341052380Y-45852380D01*
X341004761Y-45995238D01*
X340909523Y-46090476D01*
X340814285Y-46138095D01*
X340623809Y-46185714D01*
X340480952Y-46185714D01*
X340290476Y-46138095D01*
X340195238Y-46090476D01*
X340100000Y-45995238D01*
X340052380Y-45852380D01*
X340052380Y-45757142D01*
X340100000Y-45614285D01*
X340147619Y-45566666D01*
X340052380Y-44661904D02*
X340052380Y-45138095D01*
X340528571Y-45185714D01*
X340480952Y-45138095D01*
X340433333Y-45042857D01*
X340433333Y-44804761D01*
X340480952Y-44709523D01*
X340528571Y-44661904D01*
X340623809Y-44614285D01*
X340861904Y-44614285D01*
X340957142Y-44661904D01*
X341004761Y-44709523D01*
X341052380Y-44804761D01*
X341052380Y-45042857D01*
X341004761Y-45138095D01*
X340957142Y-45185714D01*
%TO.C,J14*%
X177932380Y-31999523D02*
X178646666Y-31999523D01*
X178789523Y-32047142D01*
X178884761Y-32142380D01*
X178932380Y-32285238D01*
X178932380Y-32380476D01*
X178932380Y-30999523D02*
X178932380Y-31570952D01*
X178932380Y-31285238D02*
X177932380Y-31285238D01*
X178075238Y-31380476D01*
X178170476Y-31475714D01*
X178218095Y-31570952D01*
X178265714Y-30142380D02*
X178932380Y-30142380D01*
X177884761Y-30380476D02*
X178599047Y-30618571D01*
X178599047Y-29999523D01*
%TO.C,J13*%
X177932380Y-67559523D02*
X178646666Y-67559523D01*
X178789523Y-67607142D01*
X178884761Y-67702380D01*
X178932380Y-67845238D01*
X178932380Y-67940476D01*
X178932380Y-66559523D02*
X178932380Y-67130952D01*
X178932380Y-66845238D02*
X177932380Y-66845238D01*
X178075238Y-66940476D01*
X178170476Y-67035714D01*
X178218095Y-67130952D01*
X177932380Y-66226190D02*
X177932380Y-65607142D01*
X178313333Y-65940476D01*
X178313333Y-65797619D01*
X178360952Y-65702380D01*
X178408571Y-65654761D01*
X178503809Y-65607142D01*
X178741904Y-65607142D01*
X178837142Y-65654761D01*
X178884761Y-65702380D01*
X178932380Y-65797619D01*
X178932380Y-66083333D01*
X178884761Y-66178571D01*
X178837142Y-66226190D01*
%TO.C,J10*%
X132932380Y-31999523D02*
X133646666Y-31999523D01*
X133789523Y-32047142D01*
X133884761Y-32142380D01*
X133932380Y-32285238D01*
X133932380Y-32380476D01*
X133932380Y-30999523D02*
X133932380Y-31570952D01*
X133932380Y-31285238D02*
X132932380Y-31285238D01*
X133075238Y-31380476D01*
X133170476Y-31475714D01*
X133218095Y-31570952D01*
X132932380Y-30380476D02*
X132932380Y-30285238D01*
X132980000Y-30190000D01*
X133027619Y-30142380D01*
X133122857Y-30094761D01*
X133313333Y-30047142D01*
X133551428Y-30047142D01*
X133741904Y-30094761D01*
X133837142Y-30142380D01*
X133884761Y-30190000D01*
X133932380Y-30285238D01*
X133932380Y-30380476D01*
X133884761Y-30475714D01*
X133837142Y-30523333D01*
X133741904Y-30570952D01*
X133551428Y-30618571D01*
X133313333Y-30618571D01*
X133122857Y-30570952D01*
X133027619Y-30523333D01*
X132980000Y-30475714D01*
X132932380Y-30380476D01*
%TO.C,J8*%
X132932380Y-67083333D02*
X133646666Y-67083333D01*
X133789523Y-67130952D01*
X133884761Y-67226190D01*
X133932380Y-67369047D01*
X133932380Y-67464285D01*
X133360952Y-66464285D02*
X133313333Y-66559523D01*
X133265714Y-66607142D01*
X133170476Y-66654761D01*
X133122857Y-66654761D01*
X133027619Y-66607142D01*
X132980000Y-66559523D01*
X132932380Y-66464285D01*
X132932380Y-66273809D01*
X132980000Y-66178571D01*
X133027619Y-66130952D01*
X133122857Y-66083333D01*
X133170476Y-66083333D01*
X133265714Y-66130952D01*
X133313333Y-66178571D01*
X133360952Y-66273809D01*
X133360952Y-66464285D01*
X133408571Y-66559523D01*
X133456190Y-66607142D01*
X133551428Y-66654761D01*
X133741904Y-66654761D01*
X133837142Y-66607142D01*
X133884761Y-66559523D01*
X133932380Y-66464285D01*
X133932380Y-66273809D01*
X133884761Y-66178571D01*
X133837142Y-66130952D01*
X133741904Y-66083333D01*
X133551428Y-66083333D01*
X133456190Y-66130952D01*
X133408571Y-66178571D01*
X133360952Y-66273809D01*
%TO.C,MH4*%
X98666666Y-79152380D02*
X98666666Y-78152380D01*
X99000000Y-78866666D01*
X99333333Y-78152380D01*
X99333333Y-79152380D01*
X99809523Y-79152380D02*
X99809523Y-78152380D01*
X99809523Y-78628571D02*
X100380952Y-78628571D01*
X100380952Y-79152380D02*
X100380952Y-78152380D01*
X101285714Y-78485714D02*
X101285714Y-79152380D01*
X101047619Y-78104761D02*
X100809523Y-78819047D01*
X101428571Y-78819047D01*
%TO.C,MH3*%
X219416666Y-79152380D02*
X219416666Y-78152380D01*
X219750000Y-78866666D01*
X220083333Y-78152380D01*
X220083333Y-79152380D01*
X220559523Y-79152380D02*
X220559523Y-78152380D01*
X220559523Y-78628571D02*
X221130952Y-78628571D01*
X221130952Y-79152380D02*
X221130952Y-78152380D01*
X221511904Y-78152380D02*
X222130952Y-78152380D01*
X221797619Y-78533333D01*
X221940476Y-78533333D01*
X222035714Y-78580952D01*
X222083333Y-78628571D01*
X222130952Y-78723809D01*
X222130952Y-78961904D01*
X222083333Y-79057142D01*
X222035714Y-79104761D01*
X221940476Y-79152380D01*
X221654761Y-79152380D01*
X221559523Y-79104761D01*
X221511904Y-79057142D01*
%TO.C,MH2*%
X368666666Y-79152380D02*
X368666666Y-78152380D01*
X369000000Y-78866666D01*
X369333333Y-78152380D01*
X369333333Y-79152380D01*
X369809523Y-79152380D02*
X369809523Y-78152380D01*
X369809523Y-78628571D02*
X370380952Y-78628571D01*
X370380952Y-79152380D02*
X370380952Y-78152380D01*
X370809523Y-78247619D02*
X370857142Y-78200000D01*
X370952380Y-78152380D01*
X371190476Y-78152380D01*
X371285714Y-78200000D01*
X371333333Y-78247619D01*
X371380952Y-78342857D01*
X371380952Y-78438095D01*
X371333333Y-78580952D01*
X370761904Y-79152380D01*
X371380952Y-79152380D01*
%TO.C,MH1*%
X28916666Y-17852380D02*
X28916666Y-16852380D01*
X29250000Y-17566666D01*
X29583333Y-16852380D01*
X29583333Y-17852380D01*
X30059523Y-17852380D02*
X30059523Y-16852380D01*
X30059523Y-17328571D02*
X30630952Y-17328571D01*
X30630952Y-17852380D02*
X30630952Y-16852380D01*
X31630952Y-17852380D02*
X31059523Y-17852380D01*
X31345238Y-17852380D02*
X31345238Y-16852380D01*
X31250000Y-16995238D01*
X31154761Y-17090476D01*
X31059523Y-17138095D01*
%TO.C,U2*%
X344238095Y-49172380D02*
X344238095Y-49981904D01*
X344285714Y-50077142D01*
X344333333Y-50124761D01*
X344428571Y-50172380D01*
X344619047Y-50172380D01*
X344714285Y-50124761D01*
X344761904Y-50077142D01*
X344809523Y-49981904D01*
X344809523Y-49172380D01*
X345238095Y-49267619D02*
X345285714Y-49220000D01*
X345380952Y-49172380D01*
X345619047Y-49172380D01*
X345714285Y-49220000D01*
X345761904Y-49267619D01*
X345809523Y-49362857D01*
X345809523Y-49458095D01*
X345761904Y-49600952D01*
X345190476Y-50172380D01*
X345809523Y-50172380D01*
%TO.C,U3*%
X344238095Y-24172380D02*
X344238095Y-24981904D01*
X344285714Y-25077142D01*
X344333333Y-25124761D01*
X344428571Y-25172380D01*
X344619047Y-25172380D01*
X344714285Y-25124761D01*
X344761904Y-25077142D01*
X344809523Y-24981904D01*
X344809523Y-24172380D01*
X345190476Y-24172380D02*
X345809523Y-24172380D01*
X345476190Y-24553333D01*
X345619047Y-24553333D01*
X345714285Y-24600952D01*
X345761904Y-24648571D01*
X345809523Y-24743809D01*
X345809523Y-24981904D01*
X345761904Y-25077142D01*
X345714285Y-25124761D01*
X345619047Y-25172380D01*
X345333333Y-25172380D01*
X345238095Y-25124761D01*
X345190476Y-25077142D01*
%TO.C,D1*%
X239438214Y-46159380D02*
X239438214Y-45159380D01*
X239676309Y-45159380D01*
X239819166Y-45207000D01*
X239914404Y-45302238D01*
X239962023Y-45397476D01*
X240009642Y-45587952D01*
X240009642Y-45730809D01*
X239962023Y-45921285D01*
X239914404Y-46016523D01*
X239819166Y-46111761D01*
X239676309Y-46159380D01*
X239438214Y-46159380D01*
X240962023Y-46159380D02*
X240390595Y-46159380D01*
X240676309Y-46159380D02*
X240676309Y-45159380D01*
X240581071Y-45302238D01*
X240485833Y-45397476D01*
X240390595Y-45445095D01*
%TO.C,U1*%
X81335595Y-37452380D02*
X81335595Y-38261904D01*
X81383214Y-38357142D01*
X81430833Y-38404761D01*
X81526071Y-38452380D01*
X81716547Y-38452380D01*
X81811785Y-38404761D01*
X81859404Y-38357142D01*
X81907023Y-38261904D01*
X81907023Y-37452380D01*
X82907023Y-38452380D02*
X82335595Y-38452380D01*
X82621309Y-38452380D02*
X82621309Y-37452380D01*
X82526071Y-37595238D01*
X82430833Y-37690476D01*
X82335595Y-37738095D01*
%TO.C,R2*%
X295952380Y-54666666D02*
X295476190Y-55000000D01*
X295952380Y-55238095D02*
X294952380Y-55238095D01*
X294952380Y-54857142D01*
X295000000Y-54761904D01*
X295047619Y-54714285D01*
X295142857Y-54666666D01*
X295285714Y-54666666D01*
X295380952Y-54714285D01*
X295428571Y-54761904D01*
X295476190Y-54857142D01*
X295476190Y-55238095D01*
X295047619Y-54285714D02*
X295000000Y-54238095D01*
X294952380Y-54142857D01*
X294952380Y-53904761D01*
X295000000Y-53809523D01*
X295047619Y-53761904D01*
X295142857Y-53714285D01*
X295238095Y-53714285D01*
X295380952Y-53761904D01*
X295952380Y-54333333D01*
X295952380Y-53714285D01*
%TO.C,R1*%
X300502380Y-51766666D02*
X300026190Y-52100000D01*
X300502380Y-52338095D02*
X299502380Y-52338095D01*
X299502380Y-51957142D01*
X299550000Y-51861904D01*
X299597619Y-51814285D01*
X299692857Y-51766666D01*
X299835714Y-51766666D01*
X299930952Y-51814285D01*
X299978571Y-51861904D01*
X300026190Y-51957142D01*
X300026190Y-52338095D01*
X300502380Y-50814285D02*
X300502380Y-51385714D01*
X300502380Y-51100000D02*
X299502380Y-51100000D01*
X299645238Y-51195238D01*
X299740476Y-51290476D01*
X299788095Y-51385714D01*
%TO.C,PS2*%
X178735833Y-21452380D02*
X178735833Y-20452380D01*
X179116785Y-20452380D01*
X179212023Y-20500000D01*
X179259642Y-20547619D01*
X179307261Y-20642857D01*
X179307261Y-20785714D01*
X179259642Y-20880952D01*
X179212023Y-20928571D01*
X179116785Y-20976190D01*
X178735833Y-20976190D01*
X179688214Y-21404761D02*
X179831071Y-21452380D01*
X180069166Y-21452380D01*
X180164404Y-21404761D01*
X180212023Y-21357142D01*
X180259642Y-21261904D01*
X180259642Y-21166666D01*
X180212023Y-21071428D01*
X180164404Y-21023809D01*
X180069166Y-20976190D01*
X179878690Y-20928571D01*
X179783452Y-20880952D01*
X179735833Y-20833333D01*
X179688214Y-20738095D01*
X179688214Y-20642857D01*
X179735833Y-20547619D01*
X179783452Y-20500000D01*
X179878690Y-20452380D01*
X180116785Y-20452380D01*
X180259642Y-20500000D01*
X180640595Y-20547619D02*
X180688214Y-20500000D01*
X180783452Y-20452380D01*
X181021547Y-20452380D01*
X181116785Y-20500000D01*
X181164404Y-20547619D01*
X181212023Y-20642857D01*
X181212023Y-20738095D01*
X181164404Y-20880952D01*
X180592976Y-21452380D01*
X181212023Y-21452380D01*
%TO.C,PS1*%
X138485833Y-20952380D02*
X138485833Y-19952380D01*
X138866785Y-19952380D01*
X138962023Y-20000000D01*
X139009642Y-20047619D01*
X139057261Y-20142857D01*
X139057261Y-20285714D01*
X139009642Y-20380952D01*
X138962023Y-20428571D01*
X138866785Y-20476190D01*
X138485833Y-20476190D01*
X139438214Y-20904761D02*
X139581071Y-20952380D01*
X139819166Y-20952380D01*
X139914404Y-20904761D01*
X139962023Y-20857142D01*
X140009642Y-20761904D01*
X140009642Y-20666666D01*
X139962023Y-20571428D01*
X139914404Y-20523809D01*
X139819166Y-20476190D01*
X139628690Y-20428571D01*
X139533452Y-20380952D01*
X139485833Y-20333333D01*
X139438214Y-20238095D01*
X139438214Y-20142857D01*
X139485833Y-20047619D01*
X139533452Y-20000000D01*
X139628690Y-19952380D01*
X139866785Y-19952380D01*
X140009642Y-20000000D01*
X140962023Y-20952380D02*
X140390595Y-20952380D01*
X140676309Y-20952380D02*
X140676309Y-19952380D01*
X140581071Y-20095238D01*
X140485833Y-20190476D01*
X140390595Y-20238095D01*
%TO.C,J12*%
X300032380Y-38559523D02*
X300746666Y-38559523D01*
X300889523Y-38607142D01*
X300984761Y-38702380D01*
X301032380Y-38845238D01*
X301032380Y-38940476D01*
X301032380Y-37559523D02*
X301032380Y-38130952D01*
X301032380Y-37845238D02*
X300032380Y-37845238D01*
X300175238Y-37940476D01*
X300270476Y-38035714D01*
X300318095Y-38130952D01*
X300127619Y-37178571D02*
X300080000Y-37130952D01*
X300032380Y-37035714D01*
X300032380Y-36797619D01*
X300080000Y-36702380D01*
X300127619Y-36654761D01*
X300222857Y-36607142D01*
X300318095Y-36607142D01*
X300460952Y-36654761D01*
X301032380Y-37226190D01*
X301032380Y-36607142D01*
%TO.C,J6*%
X360512023Y-10359380D02*
X360512023Y-11073666D01*
X360464404Y-11216523D01*
X360369166Y-11311761D01*
X360226309Y-11359380D01*
X360131071Y-11359380D01*
X361416785Y-10359380D02*
X361226309Y-10359380D01*
X361131071Y-10407000D01*
X361083452Y-10454619D01*
X360988214Y-10597476D01*
X360940595Y-10787952D01*
X360940595Y-11168904D01*
X360988214Y-11264142D01*
X361035833Y-11311761D01*
X361131071Y-11359380D01*
X361321547Y-11359380D01*
X361416785Y-11311761D01*
X361464404Y-11264142D01*
X361512023Y-11168904D01*
X361512023Y-10930809D01*
X361464404Y-10835571D01*
X361416785Y-10787952D01*
X361321547Y-10740333D01*
X361131071Y-10740333D01*
X361035833Y-10787952D01*
X360988214Y-10835571D01*
X360940595Y-10930809D01*
%TO.C,J5*%
X340512023Y-11702380D02*
X340512023Y-12416666D01*
X340464404Y-12559523D01*
X340369166Y-12654761D01*
X340226309Y-12702380D01*
X340131071Y-12702380D01*
X341464404Y-11702380D02*
X340988214Y-11702380D01*
X340940595Y-12178571D01*
X340988214Y-12130952D01*
X341083452Y-12083333D01*
X341321547Y-12083333D01*
X341416785Y-12130952D01*
X341464404Y-12178571D01*
X341512023Y-12273809D01*
X341512023Y-12511904D01*
X341464404Y-12607142D01*
X341416785Y-12654761D01*
X341321547Y-12702380D01*
X341083452Y-12702380D01*
X340988214Y-12654761D01*
X340940595Y-12607142D01*
%TO.C,J4*%
X246682380Y-47553333D02*
X247396666Y-47553333D01*
X247539523Y-47600952D01*
X247634761Y-47696190D01*
X247682380Y-47839047D01*
X247682380Y-47934285D01*
X247015714Y-46648571D02*
X247682380Y-46648571D01*
X246634761Y-46886666D02*
X247349047Y-47124761D01*
X247349047Y-46505714D01*
%TO.C,J3*%
X246682380Y-65333333D02*
X247396666Y-65333333D01*
X247539523Y-65380952D01*
X247634761Y-65476190D01*
X247682380Y-65619047D01*
X247682380Y-65714285D01*
X246682380Y-64952380D02*
X246682380Y-64333333D01*
X247063333Y-64666666D01*
X247063333Y-64523809D01*
X247110952Y-64428571D01*
X247158571Y-64380952D01*
X247253809Y-64333333D01*
X247491904Y-64333333D01*
X247587142Y-64380952D01*
X247634761Y-64428571D01*
X247682380Y-64523809D01*
X247682380Y-64809523D01*
X247634761Y-64904761D01*
X247587142Y-64952380D01*
%TO.C,J2*%
X320462023Y-12702380D02*
X320462023Y-13416666D01*
X320414404Y-13559523D01*
X320319166Y-13654761D01*
X320176309Y-13702380D01*
X320081071Y-13702380D01*
X320890595Y-12797619D02*
X320938214Y-12750000D01*
X321033452Y-12702380D01*
X321271547Y-12702380D01*
X321366785Y-12750000D01*
X321414404Y-12797619D01*
X321462023Y-12892857D01*
X321462023Y-12988095D01*
X321414404Y-13130952D01*
X320842976Y-13702380D01*
X321462023Y-13702380D01*
%TO.C,J1*%
X300962023Y-12202380D02*
X300962023Y-12916666D01*
X300914404Y-13059523D01*
X300819166Y-13154761D01*
X300676309Y-13202380D01*
X300581071Y-13202380D01*
X301962023Y-13202380D02*
X301390595Y-13202380D01*
X301676309Y-13202380D02*
X301676309Y-12202380D01*
X301581071Y-12345238D01*
X301485833Y-12440476D01*
X301390595Y-12488095D01*
%TO.C,F1*%
X114428571Y-36835595D02*
X114428571Y-37168928D01*
X114952380Y-37168928D02*
X113952380Y-37168928D01*
X113952380Y-36692738D01*
X114952380Y-35787976D02*
X114952380Y-36359404D01*
X114952380Y-36073690D02*
X113952380Y-36073690D01*
X114095238Y-36168928D01*
X114190476Y-36264166D01*
X114238095Y-36359404D01*
%TO.C,DC1*%
X111188214Y-13952380D02*
X111188214Y-12952380D01*
X111426309Y-12952380D01*
X111569166Y-13000000D01*
X111664404Y-13095238D01*
X111712023Y-13190476D01*
X111759642Y-13380952D01*
X111759642Y-13523809D01*
X111712023Y-13714285D01*
X111664404Y-13809523D01*
X111569166Y-13904761D01*
X111426309Y-13952380D01*
X111188214Y-13952380D01*
X112759642Y-13857142D02*
X112712023Y-13904761D01*
X112569166Y-13952380D01*
X112473928Y-13952380D01*
X112331071Y-13904761D01*
X112235833Y-13809523D01*
X112188214Y-13714285D01*
X112140595Y-13523809D01*
X112140595Y-13380952D01*
X112188214Y-13190476D01*
X112235833Y-13095238D01*
X112331071Y-13000000D01*
X112473928Y-12952380D01*
X112569166Y-12952380D01*
X112712023Y-13000000D01*
X112759642Y-13047619D01*
X113712023Y-13952380D02*
X113140595Y-13952380D01*
X113426309Y-13952380D02*
X113426309Y-12952380D01*
X113331071Y-13095238D01*
X113235833Y-13190476D01*
X113140595Y-13238095D01*
%TO.C,C2*%
X78177142Y-16166666D02*
X78224761Y-16214285D01*
X78272380Y-16357142D01*
X78272380Y-16452380D01*
X78224761Y-16595238D01*
X78129523Y-16690476D01*
X78034285Y-16738095D01*
X77843809Y-16785714D01*
X77700952Y-16785714D01*
X77510476Y-16738095D01*
X77415238Y-16690476D01*
X77320000Y-16595238D01*
X77272380Y-16452380D01*
X77272380Y-16357142D01*
X77320000Y-16214285D01*
X77367619Y-16166666D01*
X77367619Y-15785714D02*
X77320000Y-15738095D01*
X77272380Y-15642857D01*
X77272380Y-15404761D01*
X77320000Y-15309523D01*
X77367619Y-15261904D01*
X77462857Y-15214285D01*
X77558095Y-15214285D01*
X77700952Y-15261904D01*
X78272380Y-15833333D01*
X78272380Y-15214285D01*
%TO.C,C1*%
X83207142Y-16266666D02*
X83254761Y-16314285D01*
X83302380Y-16457142D01*
X83302380Y-16552380D01*
X83254761Y-16695238D01*
X83159523Y-16790476D01*
X83064285Y-16838095D01*
X82873809Y-16885714D01*
X82730952Y-16885714D01*
X82540476Y-16838095D01*
X82445238Y-16790476D01*
X82350000Y-16695238D01*
X82302380Y-16552380D01*
X82302380Y-16457142D01*
X82350000Y-16314285D01*
X82397619Y-16266666D01*
X83302380Y-15314285D02*
X83302380Y-15885714D01*
X83302380Y-15600000D02*
X82302380Y-15600000D01*
X82445238Y-15695238D01*
X82540476Y-15790476D01*
X82588095Y-15885714D01*
%TD*%
M02*
