M48
; DRILL file {KiCad (5.1.10)-1} date 05/27/22 13:17:48
; FORMAT={-:-/ absolute / inch / decimal}
; #@! TF.CreationDate,2022-05-27T13:17:48-06:00
; #@! TF.GenerationSoftware,Kicad,Pcbnew,(5.1.10)-1
; #@! TF.FileFunction,Plated,1,2,PTH
FMAT,2
INCH
T1C0.0157
T2C0.0236
T3C0.0315
T4C0.0394
T5C0.0512
T6C0.0551
T7C0.0709
T8C0.0945
T9C0.2087
%
G90
G05
T1
X7.6228Y-2.4409
X7.6358Y-2.4823
X8.0413Y-2.747
X9.7539Y-2.8642
X9.8425Y-2.7776
X11.752Y-2.1358
X11.8701Y-3.373
X12.9763Y-1.4901
X13.0588Y-1.4939
X13.1004Y-2.0965
X13.1201Y-1.8602
X13.1398Y-1.2106
X13.1398Y-1.939
X13.1398Y-2.1752
X13.1398Y-2.3031
X13.1594Y-0.9055
X13.2776Y-2.2146
X13.2776Y-2.4705
X13.3465Y-2.4311
X13.5148Y-0.8671
X13.6811Y-1.7815
X13.878Y-2.2343
X14.0157Y-1.9291
X14.0231Y-2.1777
X14.172Y-2.3771
T3
X11.6929Y-3.2677
X11.752Y-3.2677
X11.811Y-3.2677
X11.8701Y-3.2677
X11.9291Y-3.2677
X11.9882Y-3.2677
X12.0472Y-3.2677
X12.1063Y-3.2677
X12.1654Y-3.2677
X12.2244Y-3.2677
X12.2835Y-3.2677
T4
X5.3642Y-1.228
X5.3642Y-2.628
X5.4642Y-1.228
X5.4642Y-2.628
X5.5642Y-1.228
X5.5642Y-2.628
X5.6642Y-1.228
X5.6642Y-2.628
X5.7642Y-1.228
X5.7642Y-2.628
X5.8642Y-1.228
X5.8642Y-2.628
X5.9642Y-1.228
X5.9642Y-2.628
X6.0642Y-1.228
X6.0642Y-2.628
X6.1642Y-1.228
X6.1642Y-2.628
X6.2642Y-1.228
X6.2642Y-2.628
X6.3642Y-1.228
X6.3642Y-2.628
X7.1358Y-1.228
X7.1358Y-2.628
X7.2358Y-1.228
X7.2358Y-2.628
X7.3358Y-1.228
X7.3358Y-2.628
X7.4358Y-1.228
X7.4358Y-2.628
X7.5358Y-1.228
X7.5358Y-2.628
X7.6358Y-1.228
X7.6358Y-2.628
X7.7358Y-1.228
X7.7358Y-2.628
X7.8358Y-1.228
X7.8358Y-2.628
X7.9358Y-1.228
X7.9358Y-2.628
X8.0358Y-1.228
X8.0358Y-2.628
X8.1358Y-1.228
X8.1358Y-2.628
X9.8421Y-1.4862
X9.8425Y-1.8591
X9.8425Y-2.5591
X9.9421Y-1.4862
X9.9425Y-1.8591
X9.9425Y-2.5591
X10.0421Y-1.4862
X10.0425Y-1.8591
X10.0425Y-2.5591
X10.1421Y-1.4862
X10.1425Y-1.8591
X10.1425Y-2.5591
X10.2421Y-1.4862
X10.2425Y-1.8591
X10.2425Y-2.5591
X10.3421Y-1.4862
X10.3425Y-1.8591
X10.3425Y-2.5591
X10.4421Y-1.4862
X10.4425Y-1.8591
X10.4425Y-2.5591
X10.5421Y-1.4862
X10.5425Y-1.8591
X10.5425Y-2.5591
X10.6421Y-1.4862
X10.6425Y-1.8591
X10.6425Y-2.5591
X10.7421Y-1.4862
X10.7425Y-1.8591
X10.7425Y-2.5591
X10.8421Y-1.4862
X10.8425Y-1.8591
X10.8425Y-2.5591
X10.9421Y-1.4862
X10.9425Y-1.8591
X10.9425Y-2.5591
X11.0421Y-1.4862
X11.0425Y-1.8591
X11.0425Y-2.5591
X11.1421Y-1.4862
X11.1425Y-1.8591
X11.1425Y-2.5591
X11.2421Y-1.4862
X11.2425Y-1.8591
X11.2425Y-2.5591
X11.3421Y-1.4862
X11.3425Y-1.8591
X11.3425Y-2.5591
X11.4421Y-1.4862
X11.4425Y-1.8591
X11.4425Y-2.5591
X11.5421Y-1.4862
X11.5425Y-1.8591
X11.5425Y-2.5591
X11.6421Y-1.4862
X11.6425Y-1.8591
X11.6425Y-2.5591
X11.7421Y-1.4862
X11.7425Y-1.8591
X11.7425Y-2.5591
X11.7815Y-0.3531
X11.8217Y-0.2531
X11.8618Y-0.3531
X11.902Y-0.2531
X11.9421Y-0.3531
X11.9823Y-0.2531
X12.5689Y-0.3531
X12.6091Y-0.2531
X12.6492Y-0.3531
X12.6894Y-0.2531
X12.7295Y-0.3531
X12.7697Y-0.2531
X13.3563Y-0.3531
X13.3965Y-0.2531
X13.4366Y-0.3531
X13.4768Y-0.2531
X13.5169Y-0.3531
X13.5571Y-0.2531
X14.1437Y-0.3531
X14.1839Y-0.2531
X14.224Y-0.3531
X14.2642Y-0.2531
X14.3043Y-0.3531
X14.3445Y-0.2531
T5
X4.2232Y-0.497
T6
X5.6051Y-0.2644
X5.7799Y-0.6648
X6.0799Y-0.6648
X7.1799Y-0.2644
X7.3547Y-0.6648
X7.6547Y-0.6648
T7
X5.7799Y-0.5146
X6.0799Y-0.5146
X7.3547Y-0.5146
X7.6547Y-0.5146
T8
X11.6457Y-0.1626
X12.1181Y-0.1626
X12.4331Y-0.1626
X12.9055Y-0.1626
X13.2205Y-0.1626
X13.6929Y-0.1626
X14.0079Y-0.1626
X14.4803Y-0.1626
T9
X1.1909Y-0.9055
T2
G00X4.0768Y-0.0384
M15
G01X4.0768Y-0.1329
M16
G05
G00X4.2339Y-0.9522
M15
G01X4.1913Y-0.9522
M16
G05
G00X4.2339Y-1.843
M15
G01X4.1913Y-1.843
M16
G05
G00X4.2232Y-0.3415
M15
G01X4.2232Y-0.3967
M16
G05
G00X4.428Y-0.3415
M15
G01X4.428Y-0.3967
M16
G05
G00X4.4646Y-0.0384
M15
G01X4.4646Y-0.1329
M16
G05
T0
M30
