%TF.GenerationSoftware,KiCad,Pcbnew,(5.1.10)-1*%
%TF.CreationDate,2022-05-27T13:17:46-06:00*%
%TF.ProjectId,Lift_02,4c696674-5f30-4322-9e6b-696361645f70,rev?*%
%TF.SameCoordinates,Original*%
%TF.FileFunction,Legend,Bot*%
%TF.FilePolarity,Positive*%
%FSLAX46Y46*%
G04 Gerber Fmt 4.6, Leading zero omitted, Abs format (unit mm)*
G04 Created by KiCad (PCBNEW (5.1.10)-1) date 2022-05-27 13:17:46*
%MOMM*%
%LPD*%
G01*
G04 APERTURE LIST*
%ADD10C,0.150000*%
G04 APERTURE END LIST*
D10*
X48433333Y-74602380D02*
X48909523Y-74602380D01*
X48909523Y-73602380D01*
X48100000Y-74602380D02*
X48100000Y-73935714D01*
X48100000Y-73602380D02*
X48147619Y-73650000D01*
X48100000Y-73697619D01*
X48052380Y-73650000D01*
X48100000Y-73602380D01*
X48100000Y-73697619D01*
X47766666Y-73935714D02*
X47385714Y-73935714D01*
X47623809Y-74602380D02*
X47623809Y-73745238D01*
X47576190Y-73650000D01*
X47480952Y-73602380D01*
X47385714Y-73602380D01*
X47195238Y-73935714D02*
X46814285Y-73935714D01*
X47052380Y-73602380D02*
X47052380Y-74459523D01*
X47004761Y-74554761D01*
X46909523Y-74602380D01*
X46814285Y-74602380D01*
X46719047Y-74697619D02*
X45957142Y-74697619D01*
X45528571Y-73602380D02*
X45433333Y-73602380D01*
X45338095Y-73650000D01*
X45290476Y-73697619D01*
X45242857Y-73792857D01*
X45195238Y-73983333D01*
X45195238Y-74221428D01*
X45242857Y-74411904D01*
X45290476Y-74507142D01*
X45338095Y-74554761D01*
X45433333Y-74602380D01*
X45528571Y-74602380D01*
X45623809Y-74554761D01*
X45671428Y-74507142D01*
X45719047Y-74411904D01*
X45766666Y-74221428D01*
X45766666Y-73983333D01*
X45719047Y-73792857D01*
X45671428Y-73697619D01*
X45623809Y-73650000D01*
X45528571Y-73602380D01*
X44814285Y-73697619D02*
X44766666Y-73650000D01*
X44671428Y-73602380D01*
X44433333Y-73602380D01*
X44338095Y-73650000D01*
X44290476Y-73697619D01*
X44242857Y-73792857D01*
X44242857Y-73888095D01*
X44290476Y-74030952D01*
X44861904Y-74602380D01*
X44242857Y-74602380D01*
X52504761Y-76252380D02*
X52838095Y-75776190D01*
X53076190Y-76252380D02*
X53076190Y-75252380D01*
X52695238Y-75252380D01*
X52600000Y-75300000D01*
X52552380Y-75347619D01*
X52504761Y-75442857D01*
X52504761Y-75585714D01*
X52552380Y-75680952D01*
X52600000Y-75728571D01*
X52695238Y-75776190D01*
X53076190Y-75776190D01*
X52171428Y-75585714D02*
X51933333Y-76252380D01*
X51695238Y-75585714D02*
X51933333Y-76252380D01*
X52028571Y-76490476D01*
X52076190Y-76538095D01*
X52171428Y-76585714D01*
X50885714Y-76252380D02*
X50885714Y-75728571D01*
X50933333Y-75633333D01*
X51028571Y-75585714D01*
X51219047Y-75585714D01*
X51314285Y-75633333D01*
X50885714Y-76204761D02*
X50980952Y-76252380D01*
X51219047Y-76252380D01*
X51314285Y-76204761D01*
X51361904Y-76109523D01*
X51361904Y-76014285D01*
X51314285Y-75919047D01*
X51219047Y-75871428D01*
X50980952Y-75871428D01*
X50885714Y-75823809D01*
X50409523Y-75585714D02*
X50409523Y-76252380D01*
X50409523Y-75680952D02*
X50361904Y-75633333D01*
X50266666Y-75585714D01*
X50123809Y-75585714D01*
X50028571Y-75633333D01*
X49980952Y-75728571D01*
X49980952Y-76252380D01*
X48742857Y-76252380D02*
X48742857Y-75252380D01*
X48409523Y-75966666D01*
X48076190Y-75252380D01*
X48076190Y-76252380D01*
X47457142Y-76252380D02*
X47552380Y-76204761D01*
X47600000Y-76157142D01*
X47647619Y-76061904D01*
X47647619Y-75776190D01*
X47600000Y-75680952D01*
X47552380Y-75633333D01*
X47457142Y-75585714D01*
X47314285Y-75585714D01*
X47219047Y-75633333D01*
X47171428Y-75680952D01*
X47123809Y-75776190D01*
X47123809Y-76061904D01*
X47171428Y-76157142D01*
X47219047Y-76204761D01*
X47314285Y-76252380D01*
X47457142Y-76252380D01*
X46695238Y-76252380D02*
X46695238Y-75585714D01*
X46695238Y-75776190D02*
X46647619Y-75680952D01*
X46600000Y-75633333D01*
X46504761Y-75585714D01*
X46409523Y-75585714D01*
X45647619Y-75585714D02*
X45647619Y-76395238D01*
X45695238Y-76490476D01*
X45742857Y-76538095D01*
X45838095Y-76585714D01*
X45980952Y-76585714D01*
X46076190Y-76538095D01*
X45647619Y-76204761D02*
X45742857Y-76252380D01*
X45933333Y-76252380D01*
X46028571Y-76204761D01*
X46076190Y-76157142D01*
X46123809Y-76061904D01*
X46123809Y-75776190D01*
X46076190Y-75680952D01*
X46028571Y-75633333D01*
X45933333Y-75585714D01*
X45742857Y-75585714D01*
X45647619Y-75633333D01*
X44790476Y-76204761D02*
X44885714Y-76252380D01*
X45076190Y-76252380D01*
X45171428Y-76204761D01*
X45219047Y-76109523D01*
X45219047Y-75728571D01*
X45171428Y-75633333D01*
X45076190Y-75585714D01*
X44885714Y-75585714D01*
X44790476Y-75633333D01*
X44742857Y-75728571D01*
X44742857Y-75823809D01*
X45219047Y-75919047D01*
X44314285Y-75585714D02*
X44314285Y-76252380D01*
X44314285Y-75680952D02*
X44266666Y-75633333D01*
X44171428Y-75585714D01*
X44028571Y-75585714D01*
X43933333Y-75633333D01*
X43885714Y-75728571D01*
X43885714Y-76252380D01*
X43457142Y-76204761D02*
X43361904Y-76252380D01*
X43171428Y-76252380D01*
X43076190Y-76204761D01*
X43028571Y-76109523D01*
X43028571Y-76061904D01*
X43076190Y-75966666D01*
X43171428Y-75919047D01*
X43314285Y-75919047D01*
X43409523Y-75871428D01*
X43457142Y-75776190D01*
X43457142Y-75728571D01*
X43409523Y-75633333D01*
X43314285Y-75585714D01*
X43171428Y-75585714D01*
X43076190Y-75633333D01*
X42742857Y-75585714D02*
X42361904Y-75585714D01*
X42600000Y-75252380D02*
X42600000Y-76109523D01*
X42552380Y-76204761D01*
X42457142Y-76252380D01*
X42361904Y-76252380D01*
X41647619Y-76204761D02*
X41742857Y-76252380D01*
X41933333Y-76252380D01*
X42028571Y-76204761D01*
X42076190Y-76109523D01*
X42076190Y-75728571D01*
X42028571Y-75633333D01*
X41933333Y-75585714D01*
X41742857Y-75585714D01*
X41647619Y-75633333D01*
X41600000Y-75728571D01*
X41600000Y-75823809D01*
X42076190Y-75919047D01*
X41171428Y-76252380D02*
X41171428Y-75585714D01*
X41171428Y-75776190D02*
X41123809Y-75680952D01*
X41076190Y-75633333D01*
X40980952Y-75585714D01*
X40885714Y-75585714D01*
X40552380Y-75585714D02*
X40552380Y-76252380D01*
X40552380Y-75680952D02*
X40504761Y-75633333D01*
X40409523Y-75585714D01*
X40266666Y-75585714D01*
X40171428Y-75633333D01*
X40123809Y-75728571D01*
X40123809Y-76252380D01*
X50266666Y-76902380D02*
X50742857Y-76902380D01*
X50790476Y-77378571D01*
X50742857Y-77330952D01*
X50647619Y-77283333D01*
X50409523Y-77283333D01*
X50314285Y-77330952D01*
X50266666Y-77378571D01*
X50219047Y-77473809D01*
X50219047Y-77711904D01*
X50266666Y-77807142D01*
X50314285Y-77854761D01*
X50409523Y-77902380D01*
X50647619Y-77902380D01*
X50742857Y-77854761D01*
X50790476Y-77807142D01*
X49076190Y-76854761D02*
X49933333Y-78140476D01*
X48790476Y-76997619D02*
X48742857Y-76950000D01*
X48647619Y-76902380D01*
X48409523Y-76902380D01*
X48314285Y-76950000D01*
X48266666Y-76997619D01*
X48219047Y-77092857D01*
X48219047Y-77188095D01*
X48266666Y-77330952D01*
X48838095Y-77902380D01*
X48219047Y-77902380D01*
X47361904Y-76902380D02*
X47552380Y-76902380D01*
X47647619Y-76950000D01*
X47695238Y-76997619D01*
X47790476Y-77140476D01*
X47838095Y-77330952D01*
X47838095Y-77711904D01*
X47790476Y-77807142D01*
X47742857Y-77854761D01*
X47647619Y-77902380D01*
X47457142Y-77902380D01*
X47361904Y-77854761D01*
X47314285Y-77807142D01*
X47266666Y-77711904D01*
X47266666Y-77473809D01*
X47314285Y-77378571D01*
X47361904Y-77330952D01*
X47457142Y-77283333D01*
X47647619Y-77283333D01*
X47742857Y-77330952D01*
X47790476Y-77378571D01*
X47838095Y-77473809D01*
X46123809Y-76854761D02*
X46980952Y-78140476D01*
X45838095Y-76997619D02*
X45790476Y-76950000D01*
X45695238Y-76902380D01*
X45457142Y-76902380D01*
X45361904Y-76950000D01*
X45314285Y-76997619D01*
X45266666Y-77092857D01*
X45266666Y-77188095D01*
X45314285Y-77330952D01*
X45885714Y-77902380D01*
X45266666Y-77902380D01*
X44647619Y-76902380D02*
X44552380Y-76902380D01*
X44457142Y-76950000D01*
X44409523Y-76997619D01*
X44361904Y-77092857D01*
X44314285Y-77283333D01*
X44314285Y-77521428D01*
X44361904Y-77711904D01*
X44409523Y-77807142D01*
X44457142Y-77854761D01*
X44552380Y-77902380D01*
X44647619Y-77902380D01*
X44742857Y-77854761D01*
X44790476Y-77807142D01*
X44838095Y-77711904D01*
X44885714Y-77521428D01*
X44885714Y-77283333D01*
X44838095Y-77092857D01*
X44790476Y-76997619D01*
X44742857Y-76950000D01*
X44647619Y-76902380D01*
X43933333Y-76997619D02*
X43885714Y-76950000D01*
X43790476Y-76902380D01*
X43552380Y-76902380D01*
X43457142Y-76950000D01*
X43409523Y-76997619D01*
X43361904Y-77092857D01*
X43361904Y-77188095D01*
X43409523Y-77330952D01*
X43980952Y-77902380D01*
X43361904Y-77902380D01*
X42980952Y-76997619D02*
X42933333Y-76950000D01*
X42838095Y-76902380D01*
X42600000Y-76902380D01*
X42504761Y-76950000D01*
X42457142Y-76997619D01*
X42409523Y-77092857D01*
X42409523Y-77188095D01*
X42457142Y-77330952D01*
X43028571Y-77902380D01*
X42409523Y-77902380D01*
M02*
