%TF.GenerationSoftware,KiCad,Pcbnew,(5.1.10)-1*%
%TF.CreationDate,2022-05-26T11:10:37-06:00*%
%TF.ProjectId,Front_Panel,46726f6e-745f-4506-916e-656c2e6b6963,rev?*%
%TF.SameCoordinates,Original*%
%TF.FileFunction,Legend,Bot*%
%TF.FilePolarity,Positive*%
%FSLAX46Y46*%
G04 Gerber Fmt 4.6, Leading zero omitted, Abs format (unit mm)*
G04 Created by KiCad (PCBNEW (5.1.10)-1) date 2022-05-26 11:10:37*
%MOMM*%
%LPD*%
G01*
G04 APERTURE LIST*
%ADD10C,0.300000*%
G04 APERTURE END LIST*
D10*
X309257142Y47571428D02*
X309757142Y48285714D01*
X310114285Y47571428D02*
X310114285Y49071428D01*
X309542857Y49071428D01*
X309400000Y49000000D01*
X309328571Y48928571D01*
X309257142Y48785714D01*
X309257142Y48571428D01*
X309328571Y48428571D01*
X309400000Y48357142D01*
X309542857Y48285714D01*
X310114285Y48285714D01*
X308757142Y48571428D02*
X308400000Y47571428D01*
X308042857Y48571428D02*
X308400000Y47571428D01*
X308542857Y47214285D01*
X308614285Y47142857D01*
X308757142Y47071428D01*
X306828571Y47571428D02*
X306828571Y48357142D01*
X306900000Y48500000D01*
X307042857Y48571428D01*
X307328571Y48571428D01*
X307471428Y48500000D01*
X306828571Y47642857D02*
X306971428Y47571428D01*
X307328571Y47571428D01*
X307471428Y47642857D01*
X307542857Y47785714D01*
X307542857Y47928571D01*
X307471428Y48071428D01*
X307328571Y48142857D01*
X306971428Y48142857D01*
X306828571Y48214285D01*
X306114285Y48571428D02*
X306114285Y47571428D01*
X306114285Y48428571D02*
X306042857Y48500000D01*
X305900000Y48571428D01*
X305685714Y48571428D01*
X305542857Y48500000D01*
X305471428Y48357142D01*
X305471428Y47571428D01*
X303614285Y47571428D02*
X303614285Y49071428D01*
X303114285Y48000000D01*
X302614285Y49071428D01*
X302614285Y47571428D01*
X301685714Y47571428D02*
X301828571Y47642857D01*
X301900000Y47714285D01*
X301971428Y47857142D01*
X301971428Y48285714D01*
X301900000Y48428571D01*
X301828571Y48500000D01*
X301685714Y48571428D01*
X301471428Y48571428D01*
X301328571Y48500000D01*
X301257142Y48428571D01*
X301185714Y48285714D01*
X301185714Y47857142D01*
X301257142Y47714285D01*
X301328571Y47642857D01*
X301471428Y47571428D01*
X301685714Y47571428D01*
X300542857Y47571428D02*
X300542857Y48571428D01*
X300542857Y48285714D02*
X300471428Y48428571D01*
X300400000Y48500000D01*
X300257142Y48571428D01*
X300114285Y48571428D01*
X298971428Y48571428D02*
X298971428Y47357142D01*
X299042857Y47214285D01*
X299114285Y47142857D01*
X299257142Y47071428D01*
X299471428Y47071428D01*
X299614285Y47142857D01*
X298971428Y47642857D02*
X299114285Y47571428D01*
X299400000Y47571428D01*
X299542857Y47642857D01*
X299614285Y47714285D01*
X299685714Y47857142D01*
X299685714Y48285714D01*
X299614285Y48428571D01*
X299542857Y48500000D01*
X299400000Y48571428D01*
X299114285Y48571428D01*
X298971428Y48500000D01*
X297685714Y47642857D02*
X297828571Y47571428D01*
X298114285Y47571428D01*
X298257142Y47642857D01*
X298328571Y47785714D01*
X298328571Y48357142D01*
X298257142Y48500000D01*
X298114285Y48571428D01*
X297828571Y48571428D01*
X297685714Y48500000D01*
X297614285Y48357142D01*
X297614285Y48214285D01*
X298328571Y48071428D01*
X296971428Y48571428D02*
X296971428Y47571428D01*
X296971428Y48428571D02*
X296900000Y48500000D01*
X296757142Y48571428D01*
X296542857Y48571428D01*
X296400000Y48500000D01*
X296328571Y48357142D01*
X296328571Y47571428D01*
X295685714Y47642857D02*
X295542857Y47571428D01*
X295257142Y47571428D01*
X295114285Y47642857D01*
X295042857Y47785714D01*
X295042857Y47857142D01*
X295114285Y48000000D01*
X295257142Y48071428D01*
X295471428Y48071428D01*
X295614285Y48142857D01*
X295685714Y48285714D01*
X295685714Y48357142D01*
X295614285Y48500000D01*
X295471428Y48571428D01*
X295257142Y48571428D01*
X295114285Y48500000D01*
X294614285Y48571428D02*
X294042857Y48571428D01*
X294400000Y49071428D02*
X294400000Y47785714D01*
X294328571Y47642857D01*
X294185714Y47571428D01*
X294042857Y47571428D01*
X292971428Y47642857D02*
X293114285Y47571428D01*
X293400000Y47571428D01*
X293542857Y47642857D01*
X293614285Y47785714D01*
X293614285Y48357142D01*
X293542857Y48500000D01*
X293400000Y48571428D01*
X293114285Y48571428D01*
X292971428Y48500000D01*
X292900000Y48357142D01*
X292900000Y48214285D01*
X293614285Y48071428D01*
X292257142Y47571428D02*
X292257142Y48571428D01*
X292257142Y48285714D02*
X292185714Y48428571D01*
X292114285Y48500000D01*
X291971428Y48571428D01*
X291828571Y48571428D01*
X291328571Y48571428D02*
X291328571Y47571428D01*
X291328571Y48428571D02*
X291257142Y48500000D01*
X291114285Y48571428D01*
X290900000Y48571428D01*
X290757142Y48500000D01*
X290685714Y48357142D01*
X290685714Y47571428D01*
X307007142Y45807142D02*
X307507142Y45807142D01*
X307507142Y45021428D02*
X307507142Y46521428D01*
X306792857Y46521428D01*
X306221428Y45021428D02*
X306221428Y46021428D01*
X306221428Y45735714D02*
X306150000Y45878571D01*
X306078571Y45950000D01*
X305935714Y46021428D01*
X305792857Y46021428D01*
X305078571Y45021428D02*
X305221428Y45092857D01*
X305292857Y45164285D01*
X305364285Y45307142D01*
X305364285Y45735714D01*
X305292857Y45878571D01*
X305221428Y45950000D01*
X305078571Y46021428D01*
X304864285Y46021428D01*
X304721428Y45950000D01*
X304650000Y45878571D01*
X304578571Y45735714D01*
X304578571Y45307142D01*
X304650000Y45164285D01*
X304721428Y45092857D01*
X304864285Y45021428D01*
X305078571Y45021428D01*
X303935714Y46021428D02*
X303935714Y45021428D01*
X303935714Y45878571D02*
X303864285Y45950000D01*
X303721428Y46021428D01*
X303507142Y46021428D01*
X303364285Y45950000D01*
X303292857Y45807142D01*
X303292857Y45021428D01*
X302792857Y46021428D02*
X302221428Y46021428D01*
X302578571Y46521428D02*
X302578571Y45235714D01*
X302507142Y45092857D01*
X302364285Y45021428D01*
X302221428Y45021428D01*
X301721428Y45021428D02*
X301721428Y46521428D01*
X301150000Y46521428D01*
X301007142Y46450000D01*
X300935714Y46378571D01*
X300864285Y46235714D01*
X300864285Y46021428D01*
X300935714Y45878571D01*
X301007142Y45807142D01*
X301150000Y45735714D01*
X301721428Y45735714D01*
X299578571Y45021428D02*
X299578571Y45807142D01*
X299650000Y45950000D01*
X299792857Y46021428D01*
X300078571Y46021428D01*
X300221428Y45950000D01*
X299578571Y45092857D02*
X299721428Y45021428D01*
X300078571Y45021428D01*
X300221428Y45092857D01*
X300292857Y45235714D01*
X300292857Y45378571D01*
X300221428Y45521428D01*
X300078571Y45592857D01*
X299721428Y45592857D01*
X299578571Y45664285D01*
X298864285Y46021428D02*
X298864285Y45021428D01*
X298864285Y45878571D02*
X298792857Y45950000D01*
X298650000Y46021428D01*
X298435714Y46021428D01*
X298292857Y45950000D01*
X298221428Y45807142D01*
X298221428Y45021428D01*
X296935714Y45092857D02*
X297078571Y45021428D01*
X297364285Y45021428D01*
X297507142Y45092857D01*
X297578571Y45235714D01*
X297578571Y45807142D01*
X297507142Y45950000D01*
X297364285Y46021428D01*
X297078571Y46021428D01*
X296935714Y45950000D01*
X296864285Y45807142D01*
X296864285Y45664285D01*
X297578571Y45521428D01*
X296007142Y45021428D02*
X296150000Y45092857D01*
X296221428Y45235714D01*
X296221428Y46521428D01*
X295150000Y46521428D02*
X295007142Y46521428D01*
X294864285Y46450000D01*
X294792857Y46378571D01*
X294721428Y46235714D01*
X294650000Y45950000D01*
X294650000Y45592857D01*
X294721428Y45307142D01*
X294792857Y45164285D01*
X294864285Y45092857D01*
X295007142Y45021428D01*
X295150000Y45021428D01*
X295292857Y45092857D01*
X295364285Y45164285D01*
X295435714Y45307142D01*
X295507142Y45592857D01*
X295507142Y45950000D01*
X295435714Y46235714D01*
X295364285Y46378571D01*
X295292857Y46450000D01*
X295150000Y46521428D01*
X293221428Y45021428D02*
X294078571Y45021428D01*
X293650000Y45021428D02*
X293650000Y46521428D01*
X293792857Y46307142D01*
X293935714Y46164285D01*
X294078571Y46092857D01*
X305578571Y42471428D02*
X305578571Y43971428D01*
X305078571Y42900000D01*
X304578571Y43971428D01*
X304578571Y42471428D01*
X303221428Y42471428D02*
X303221428Y43257142D01*
X303292857Y43400000D01*
X303435714Y43471428D01*
X303721428Y43471428D01*
X303864285Y43400000D01*
X303221428Y42542857D02*
X303364285Y42471428D01*
X303721428Y42471428D01*
X303864285Y42542857D01*
X303935714Y42685714D01*
X303935714Y42828571D01*
X303864285Y42971428D01*
X303721428Y43042857D01*
X303364285Y43042857D01*
X303221428Y43114285D01*
X302650000Y43471428D02*
X302292857Y42471428D01*
X301935714Y43471428D02*
X302292857Y42471428D01*
X302435714Y42114285D01*
X302507142Y42042857D01*
X302650000Y41971428D01*
X300292857Y43828571D02*
X300221428Y43900000D01*
X300078571Y43971428D01*
X299721428Y43971428D01*
X299578571Y43900000D01*
X299507142Y43828571D01*
X299435714Y43685714D01*
X299435714Y43542857D01*
X299507142Y43328571D01*
X300364285Y42471428D01*
X299435714Y42471428D01*
X298507142Y43971428D02*
X298364285Y43971428D01*
X298221428Y43900000D01*
X298150000Y43828571D01*
X298078571Y43685714D01*
X298007142Y43400000D01*
X298007142Y43042857D01*
X298078571Y42757142D01*
X298150000Y42614285D01*
X298221428Y42542857D01*
X298364285Y42471428D01*
X298507142Y42471428D01*
X298650000Y42542857D01*
X298721428Y42614285D01*
X298792857Y42757142D01*
X298864285Y43042857D01*
X298864285Y43400000D01*
X298792857Y43685714D01*
X298721428Y43828571D01*
X298650000Y43900000D01*
X298507142Y43971428D01*
X297435714Y43828571D02*
X297364285Y43900000D01*
X297221428Y43971428D01*
X296864285Y43971428D01*
X296721428Y43900000D01*
X296650000Y43828571D01*
X296578571Y43685714D01*
X296578571Y43542857D01*
X296650000Y43328571D01*
X297507142Y42471428D01*
X296578571Y42471428D01*
X296007142Y43828571D02*
X295935714Y43900000D01*
X295792857Y43971428D01*
X295435714Y43971428D01*
X295292857Y43900000D01*
X295221428Y43828571D01*
X295150000Y43685714D01*
X295150000Y43542857D01*
X295221428Y43328571D01*
X296078571Y42471428D01*
X295150000Y42471428D01*
M02*
