%TF.GenerationSoftware,KiCad,Pcbnew,(5.1.10)-1*%
%TF.CreationDate,2022-05-26T11:10:37-06:00*%
%TF.ProjectId,Front_Panel,46726f6e-745f-4506-916e-656c2e6b6963,rev?*%
%TF.SameCoordinates,Original*%
%TF.FileFunction,Copper,L1,Top*%
%TF.FilePolarity,Positive*%
%FSLAX46Y46*%
G04 Gerber Fmt 4.6, Leading zero omitted, Abs format (unit mm)*
G04 Created by KiCad (PCBNEW (5.1.10)-1) date 2022-05-26 11:10:37*
%MOMM*%
%LPD*%
G01*
G04 APERTURE LIST*
%TA.AperFunction,NonConductor*%
%ADD10C,0.254000*%
%TD*%
%TA.AperFunction,NonConductor*%
%ADD11C,0.100000*%
%TD*%
G04 APERTURE END LIST*
D10*
X402265000Y735000D02*
X735000Y735000D01*
X735000Y54330000D01*
X49261444Y54330000D01*
X49265000Y54293895D01*
X49265001Y35036115D01*
X49261444Y35000000D01*
X49275635Y34855915D01*
X49317663Y34717367D01*
X49385913Y34589680D01*
X49477762Y34477762D01*
X49589680Y34385913D01*
X49717367Y34317663D01*
X49855915Y34275635D01*
X49963895Y34265000D01*
X50000000Y34261444D01*
X50036105Y34265000D01*
X62863895Y34265000D01*
X62900000Y34261444D01*
X62936105Y34265000D01*
X63044085Y34275635D01*
X63182633Y34317663D01*
X63310320Y34385913D01*
X63422238Y34477762D01*
X63514087Y34589680D01*
X63582337Y34717367D01*
X63624365Y34855915D01*
X63638556Y35000000D01*
X63635000Y35036105D01*
X63635000Y45445262D01*
X121278039Y45445262D01*
X121293560Y44315336D01*
X121296968Y44275070D01*
X121299107Y44234751D01*
X121302315Y44211885D01*
X121476889Y43095419D01*
X121485930Y43056063D01*
X121493734Y43016418D01*
X121500132Y42994232D01*
X121830276Y41913502D01*
X121844780Y41875791D01*
X121858085Y41837664D01*
X121867545Y41816601D01*
X122346671Y40793171D01*
X122366337Y40757893D01*
X122384888Y40722007D01*
X122397222Y40702487D01*
X123015771Y39756776D01*
X123040208Y39724625D01*
X123063634Y39691706D01*
X123078595Y39674119D01*
X123824225Y38824998D01*
X123852962Y38796597D01*
X123880779Y38767322D01*
X123898068Y38752018D01*
X124755902Y38016428D01*
X124788348Y37992364D01*
X124820019Y37967295D01*
X124839292Y37954580D01*
X125792213Y37347198D01*
X125827718Y37327950D01*
X125862612Y37307590D01*
X125883485Y37297718D01*
X126890771Y36840517D01*
X126933630Y36817608D01*
X127072178Y36775580D01*
X127180158Y36764945D01*
X132819841Y36764945D01*
X132927821Y36775580D01*
X133066369Y36817608D01*
X133090704Y36830615D01*
X133253887Y36893746D01*
X133271536Y36902051D01*
X133289832Y36908760D01*
X133310744Y36918549D01*
X134326523Y37413692D01*
X134361511Y37433923D01*
X134397078Y37453023D01*
X134416401Y37465661D01*
X135352279Y38098988D01*
X135384054Y38123936D01*
X135416588Y38147867D01*
X135433939Y38163102D01*
X136271244Y38921977D01*
X136299179Y38951145D01*
X136328026Y38979431D01*
X136343056Y38996958D01*
X137065081Y39866241D01*
X137088627Y39899053D01*
X137113200Y39931120D01*
X137125611Y39950591D01*
X137717951Y40912935D01*
X137736645Y40948750D01*
X137756448Y40983948D01*
X137765991Y41004973D01*
X138216826Y42041177D01*
X138230283Y42079258D01*
X138244934Y42116906D01*
X138251420Y42139066D01*
X138551754Y43228456D01*
X138559717Y43268079D01*
X138568910Y43307390D01*
X138572209Y43330243D01*
X138716051Y44451082D01*
X138718350Y44491409D01*
X138721915Y44531645D01*
X138721961Y44554735D01*
X138709730Y45445262D01*
X191278039Y45445262D01*
X191293560Y44315336D01*
X191296968Y44275070D01*
X191299107Y44234751D01*
X191302315Y44211885D01*
X191476889Y43095419D01*
X191485930Y43056063D01*
X191493734Y43016418D01*
X191500132Y42994232D01*
X191830276Y41913502D01*
X191844780Y41875791D01*
X191858085Y41837664D01*
X191867545Y41816601D01*
X192346671Y40793171D01*
X192366337Y40757893D01*
X192384888Y40722007D01*
X192397222Y40702487D01*
X193015771Y39756776D01*
X193040208Y39724625D01*
X193063634Y39691706D01*
X193078595Y39674119D01*
X193824225Y38824998D01*
X193852962Y38796597D01*
X193880779Y38767322D01*
X193898068Y38752018D01*
X194755902Y38016428D01*
X194788348Y37992364D01*
X194820019Y37967295D01*
X194839292Y37954580D01*
X195792213Y37347198D01*
X195827718Y37327950D01*
X195862612Y37307590D01*
X195883485Y37297718D01*
X196890771Y36840517D01*
X196933630Y36817608D01*
X197072178Y36775580D01*
X197180158Y36764945D01*
X202819841Y36764945D01*
X202927821Y36775580D01*
X203066369Y36817608D01*
X203090704Y36830615D01*
X203253887Y36893746D01*
X203271536Y36902051D01*
X203289832Y36908760D01*
X203310744Y36918549D01*
X204326523Y37413692D01*
X204361511Y37433923D01*
X204397078Y37453023D01*
X204416401Y37465661D01*
X205352279Y38098988D01*
X205384054Y38123936D01*
X205416588Y38147867D01*
X205433939Y38163102D01*
X206271244Y38921977D01*
X206299179Y38951145D01*
X206328026Y38979431D01*
X206343056Y38996958D01*
X207065081Y39866241D01*
X207088627Y39899053D01*
X207113200Y39931120D01*
X207125611Y39950591D01*
X207717951Y40912935D01*
X207736645Y40948750D01*
X207756448Y40983948D01*
X207765991Y41004973D01*
X208216826Y42041177D01*
X208230283Y42079258D01*
X208244934Y42116906D01*
X208251420Y42139066D01*
X208551754Y43228456D01*
X208559717Y43268079D01*
X208568910Y43307390D01*
X208572209Y43330243D01*
X208716051Y44451082D01*
X208718350Y44491409D01*
X208721915Y44531645D01*
X208721961Y44554735D01*
X208706441Y45684661D01*
X208703033Y45724925D01*
X208700894Y45765247D01*
X208697686Y45788113D01*
X208523112Y46904579D01*
X208514071Y46943935D01*
X208506267Y46983580D01*
X208499869Y47005766D01*
X208169725Y48086496D01*
X208155220Y48124211D01*
X208141916Y48162334D01*
X208132456Y48183397D01*
X207653330Y49206828D01*
X207633664Y49242106D01*
X207615113Y49277992D01*
X207602779Y49297512D01*
X206984232Y50243223D01*
X206959774Y50275401D01*
X206936368Y50308292D01*
X206921407Y50325880D01*
X206175777Y51175002D01*
X206147040Y51203403D01*
X206119223Y51232678D01*
X206101934Y51247982D01*
X205244100Y51983572D01*
X205211648Y52007640D01*
X205179984Y52032704D01*
X205160710Y52045419D01*
X204207789Y52652802D01*
X204172270Y52672058D01*
X204137389Y52692410D01*
X204116517Y52702283D01*
X203109199Y53159498D01*
X203066369Y53182391D01*
X202927821Y53224419D01*
X202819841Y53235054D01*
X197180158Y53235054D01*
X197072178Y53224419D01*
X196933630Y53182391D01*
X196909294Y53169383D01*
X196746109Y53106251D01*
X196728468Y53097949D01*
X196710167Y53091239D01*
X196689256Y53081449D01*
X195673477Y52586307D01*
X195638502Y52566084D01*
X195602921Y52546976D01*
X195583597Y52534338D01*
X194647720Y51901011D01*
X194615947Y51876064D01*
X194583410Y51852131D01*
X194566060Y51836896D01*
X193728755Y51078020D01*
X193700815Y51048847D01*
X193671975Y51020568D01*
X193656944Y51003040D01*
X192934918Y50133758D01*
X192911367Y50100938D01*
X192886799Y50068878D01*
X192874388Y50049407D01*
X192282049Y49087063D01*
X192263355Y49051248D01*
X192243552Y49016050D01*
X192234008Y48995025D01*
X191783174Y47958821D01*
X191769714Y47920733D01*
X191755066Y47883091D01*
X191748580Y47860931D01*
X191448246Y46771542D01*
X191440284Y46731921D01*
X191431090Y46692608D01*
X191427791Y46669755D01*
X191283949Y45548915D01*
X191281650Y45508588D01*
X191278085Y45468352D01*
X191278039Y45445262D01*
X138709730Y45445262D01*
X138706441Y45684661D01*
X138703033Y45724925D01*
X138700894Y45765247D01*
X138697686Y45788113D01*
X138523112Y46904579D01*
X138514071Y46943935D01*
X138506267Y46983580D01*
X138499869Y47005766D01*
X138169725Y48086496D01*
X138155220Y48124211D01*
X138141916Y48162334D01*
X138132456Y48183397D01*
X137653330Y49206828D01*
X137633664Y49242106D01*
X137615113Y49277992D01*
X137602779Y49297512D01*
X136984232Y50243223D01*
X136959774Y50275401D01*
X136936368Y50308292D01*
X136921407Y50325880D01*
X136175777Y51175002D01*
X136147040Y51203403D01*
X136119223Y51232678D01*
X136101934Y51247982D01*
X135244100Y51983572D01*
X135211648Y52007640D01*
X135179984Y52032704D01*
X135160710Y52045419D01*
X134207789Y52652802D01*
X134172270Y52672058D01*
X134137389Y52692410D01*
X134116517Y52702283D01*
X133109199Y53159498D01*
X133066369Y53182391D01*
X132927821Y53224419D01*
X132819841Y53235054D01*
X127180158Y53235054D01*
X127072178Y53224419D01*
X126933630Y53182391D01*
X126909294Y53169383D01*
X126746109Y53106251D01*
X126728468Y53097949D01*
X126710167Y53091239D01*
X126689256Y53081449D01*
X125673477Y52586307D01*
X125638502Y52566084D01*
X125602921Y52546976D01*
X125583597Y52534338D01*
X124647720Y51901011D01*
X124615947Y51876064D01*
X124583410Y51852131D01*
X124566060Y51836896D01*
X123728755Y51078020D01*
X123700815Y51048847D01*
X123671975Y51020568D01*
X123656944Y51003040D01*
X122934918Y50133758D01*
X122911367Y50100938D01*
X122886799Y50068878D01*
X122874388Y50049407D01*
X122282049Y49087063D01*
X122263355Y49051248D01*
X122243552Y49016050D01*
X122234008Y48995025D01*
X121783174Y47958821D01*
X121769714Y47920733D01*
X121755066Y47883091D01*
X121748580Y47860931D01*
X121448246Y46771542D01*
X121440284Y46731921D01*
X121431090Y46692608D01*
X121427791Y46669755D01*
X121283949Y45548915D01*
X121281650Y45508588D01*
X121278085Y45468352D01*
X121278039Y45445262D01*
X63635000Y45445262D01*
X63635000Y54293895D01*
X63638556Y54330000D01*
X63624365Y54474085D01*
X63582337Y54612633D01*
X63514087Y54740320D01*
X63422238Y54852238D01*
X63310320Y54944087D01*
X63182633Y55012337D01*
X63044085Y55054365D01*
X62936105Y55065000D01*
X62900000Y55068556D01*
X62863895Y55065000D01*
X50036105Y55065000D01*
X50000000Y55068556D01*
X49963895Y55065000D01*
X49855915Y55054365D01*
X49717367Y55012337D01*
X49589680Y54944087D01*
X49477762Y54852238D01*
X49385913Y54740320D01*
X49317663Y54612633D01*
X49275635Y54474085D01*
X49261444Y54330000D01*
X735000Y54330000D01*
X735000Y77265000D01*
X402265001Y77265000D01*
X402265000Y735000D01*
%TA.AperFunction,NonConductor*%
D11*
G36*
X402265000Y735000D02*
G01*
X735000Y735000D01*
X735000Y54330000D01*
X49261444Y54330000D01*
X49265000Y54293895D01*
X49265001Y35036115D01*
X49261444Y35000000D01*
X49275635Y34855915D01*
X49317663Y34717367D01*
X49385913Y34589680D01*
X49477762Y34477762D01*
X49589680Y34385913D01*
X49717367Y34317663D01*
X49855915Y34275635D01*
X49963895Y34265000D01*
X50000000Y34261444D01*
X50036105Y34265000D01*
X62863895Y34265000D01*
X62900000Y34261444D01*
X62936105Y34265000D01*
X63044085Y34275635D01*
X63182633Y34317663D01*
X63310320Y34385913D01*
X63422238Y34477762D01*
X63514087Y34589680D01*
X63582337Y34717367D01*
X63624365Y34855915D01*
X63638556Y35000000D01*
X63635000Y35036105D01*
X63635000Y45445262D01*
X121278039Y45445262D01*
X121293560Y44315336D01*
X121296968Y44275070D01*
X121299107Y44234751D01*
X121302315Y44211885D01*
X121476889Y43095419D01*
X121485930Y43056063D01*
X121493734Y43016418D01*
X121500132Y42994232D01*
X121830276Y41913502D01*
X121844780Y41875791D01*
X121858085Y41837664D01*
X121867545Y41816601D01*
X122346671Y40793171D01*
X122366337Y40757893D01*
X122384888Y40722007D01*
X122397222Y40702487D01*
X123015771Y39756776D01*
X123040208Y39724625D01*
X123063634Y39691706D01*
X123078595Y39674119D01*
X123824225Y38824998D01*
X123852962Y38796597D01*
X123880779Y38767322D01*
X123898068Y38752018D01*
X124755902Y38016428D01*
X124788348Y37992364D01*
X124820019Y37967295D01*
X124839292Y37954580D01*
X125792213Y37347198D01*
X125827718Y37327950D01*
X125862612Y37307590D01*
X125883485Y37297718D01*
X126890771Y36840517D01*
X126933630Y36817608D01*
X127072178Y36775580D01*
X127180158Y36764945D01*
X132819841Y36764945D01*
X132927821Y36775580D01*
X133066369Y36817608D01*
X133090704Y36830615D01*
X133253887Y36893746D01*
X133271536Y36902051D01*
X133289832Y36908760D01*
X133310744Y36918549D01*
X134326523Y37413692D01*
X134361511Y37433923D01*
X134397078Y37453023D01*
X134416401Y37465661D01*
X135352279Y38098988D01*
X135384054Y38123936D01*
X135416588Y38147867D01*
X135433939Y38163102D01*
X136271244Y38921977D01*
X136299179Y38951145D01*
X136328026Y38979431D01*
X136343056Y38996958D01*
X137065081Y39866241D01*
X137088627Y39899053D01*
X137113200Y39931120D01*
X137125611Y39950591D01*
X137717951Y40912935D01*
X137736645Y40948750D01*
X137756448Y40983948D01*
X137765991Y41004973D01*
X138216826Y42041177D01*
X138230283Y42079258D01*
X138244934Y42116906D01*
X138251420Y42139066D01*
X138551754Y43228456D01*
X138559717Y43268079D01*
X138568910Y43307390D01*
X138572209Y43330243D01*
X138716051Y44451082D01*
X138718350Y44491409D01*
X138721915Y44531645D01*
X138721961Y44554735D01*
X138709730Y45445262D01*
X191278039Y45445262D01*
X191293560Y44315336D01*
X191296968Y44275070D01*
X191299107Y44234751D01*
X191302315Y44211885D01*
X191476889Y43095419D01*
X191485930Y43056063D01*
X191493734Y43016418D01*
X191500132Y42994232D01*
X191830276Y41913502D01*
X191844780Y41875791D01*
X191858085Y41837664D01*
X191867545Y41816601D01*
X192346671Y40793171D01*
X192366337Y40757893D01*
X192384888Y40722007D01*
X192397222Y40702487D01*
X193015771Y39756776D01*
X193040208Y39724625D01*
X193063634Y39691706D01*
X193078595Y39674119D01*
X193824225Y38824998D01*
X193852962Y38796597D01*
X193880779Y38767322D01*
X193898068Y38752018D01*
X194755902Y38016428D01*
X194788348Y37992364D01*
X194820019Y37967295D01*
X194839292Y37954580D01*
X195792213Y37347198D01*
X195827718Y37327950D01*
X195862612Y37307590D01*
X195883485Y37297718D01*
X196890771Y36840517D01*
X196933630Y36817608D01*
X197072178Y36775580D01*
X197180158Y36764945D01*
X202819841Y36764945D01*
X202927821Y36775580D01*
X203066369Y36817608D01*
X203090704Y36830615D01*
X203253887Y36893746D01*
X203271536Y36902051D01*
X203289832Y36908760D01*
X203310744Y36918549D01*
X204326523Y37413692D01*
X204361511Y37433923D01*
X204397078Y37453023D01*
X204416401Y37465661D01*
X205352279Y38098988D01*
X205384054Y38123936D01*
X205416588Y38147867D01*
X205433939Y38163102D01*
X206271244Y38921977D01*
X206299179Y38951145D01*
X206328026Y38979431D01*
X206343056Y38996958D01*
X207065081Y39866241D01*
X207088627Y39899053D01*
X207113200Y39931120D01*
X207125611Y39950591D01*
X207717951Y40912935D01*
X207736645Y40948750D01*
X207756448Y40983948D01*
X207765991Y41004973D01*
X208216826Y42041177D01*
X208230283Y42079258D01*
X208244934Y42116906D01*
X208251420Y42139066D01*
X208551754Y43228456D01*
X208559717Y43268079D01*
X208568910Y43307390D01*
X208572209Y43330243D01*
X208716051Y44451082D01*
X208718350Y44491409D01*
X208721915Y44531645D01*
X208721961Y44554735D01*
X208706441Y45684661D01*
X208703033Y45724925D01*
X208700894Y45765247D01*
X208697686Y45788113D01*
X208523112Y46904579D01*
X208514071Y46943935D01*
X208506267Y46983580D01*
X208499869Y47005766D01*
X208169725Y48086496D01*
X208155220Y48124211D01*
X208141916Y48162334D01*
X208132456Y48183397D01*
X207653330Y49206828D01*
X207633664Y49242106D01*
X207615113Y49277992D01*
X207602779Y49297512D01*
X206984232Y50243223D01*
X206959774Y50275401D01*
X206936368Y50308292D01*
X206921407Y50325880D01*
X206175777Y51175002D01*
X206147040Y51203403D01*
X206119223Y51232678D01*
X206101934Y51247982D01*
X205244100Y51983572D01*
X205211648Y52007640D01*
X205179984Y52032704D01*
X205160710Y52045419D01*
X204207789Y52652802D01*
X204172270Y52672058D01*
X204137389Y52692410D01*
X204116517Y52702283D01*
X203109199Y53159498D01*
X203066369Y53182391D01*
X202927821Y53224419D01*
X202819841Y53235054D01*
X197180158Y53235054D01*
X197072178Y53224419D01*
X196933630Y53182391D01*
X196909294Y53169383D01*
X196746109Y53106251D01*
X196728468Y53097949D01*
X196710167Y53091239D01*
X196689256Y53081449D01*
X195673477Y52586307D01*
X195638502Y52566084D01*
X195602921Y52546976D01*
X195583597Y52534338D01*
X194647720Y51901011D01*
X194615947Y51876064D01*
X194583410Y51852131D01*
X194566060Y51836896D01*
X193728755Y51078020D01*
X193700815Y51048847D01*
X193671975Y51020568D01*
X193656944Y51003040D01*
X192934918Y50133758D01*
X192911367Y50100938D01*
X192886799Y50068878D01*
X192874388Y50049407D01*
X192282049Y49087063D01*
X192263355Y49051248D01*
X192243552Y49016050D01*
X192234008Y48995025D01*
X191783174Y47958821D01*
X191769714Y47920733D01*
X191755066Y47883091D01*
X191748580Y47860931D01*
X191448246Y46771542D01*
X191440284Y46731921D01*
X191431090Y46692608D01*
X191427791Y46669755D01*
X191283949Y45548915D01*
X191281650Y45508588D01*
X191278085Y45468352D01*
X191278039Y45445262D01*
X138709730Y45445262D01*
X138706441Y45684661D01*
X138703033Y45724925D01*
X138700894Y45765247D01*
X138697686Y45788113D01*
X138523112Y46904579D01*
X138514071Y46943935D01*
X138506267Y46983580D01*
X138499869Y47005766D01*
X138169725Y48086496D01*
X138155220Y48124211D01*
X138141916Y48162334D01*
X138132456Y48183397D01*
X137653330Y49206828D01*
X137633664Y49242106D01*
X137615113Y49277992D01*
X137602779Y49297512D01*
X136984232Y50243223D01*
X136959774Y50275401D01*
X136936368Y50308292D01*
X136921407Y50325880D01*
X136175777Y51175002D01*
X136147040Y51203403D01*
X136119223Y51232678D01*
X136101934Y51247982D01*
X135244100Y51983572D01*
X135211648Y52007640D01*
X135179984Y52032704D01*
X135160710Y52045419D01*
X134207789Y52652802D01*
X134172270Y52672058D01*
X134137389Y52692410D01*
X134116517Y52702283D01*
X133109199Y53159498D01*
X133066369Y53182391D01*
X132927821Y53224419D01*
X132819841Y53235054D01*
X127180158Y53235054D01*
X127072178Y53224419D01*
X126933630Y53182391D01*
X126909294Y53169383D01*
X126746109Y53106251D01*
X126728468Y53097949D01*
X126710167Y53091239D01*
X126689256Y53081449D01*
X125673477Y52586307D01*
X125638502Y52566084D01*
X125602921Y52546976D01*
X125583597Y52534338D01*
X124647720Y51901011D01*
X124615947Y51876064D01*
X124583410Y51852131D01*
X124566060Y51836896D01*
X123728755Y51078020D01*
X123700815Y51048847D01*
X123671975Y51020568D01*
X123656944Y51003040D01*
X122934918Y50133758D01*
X122911367Y50100938D01*
X122886799Y50068878D01*
X122874388Y50049407D01*
X122282049Y49087063D01*
X122263355Y49051248D01*
X122243552Y49016050D01*
X122234008Y48995025D01*
X121783174Y47958821D01*
X121769714Y47920733D01*
X121755066Y47883091D01*
X121748580Y47860931D01*
X121448246Y46771542D01*
X121440284Y46731921D01*
X121431090Y46692608D01*
X121427791Y46669755D01*
X121283949Y45548915D01*
X121281650Y45508588D01*
X121278085Y45468352D01*
X121278039Y45445262D01*
X63635000Y45445262D01*
X63635000Y54293895D01*
X63638556Y54330000D01*
X63624365Y54474085D01*
X63582337Y54612633D01*
X63514087Y54740320D01*
X63422238Y54852238D01*
X63310320Y54944087D01*
X63182633Y55012337D01*
X63044085Y55054365D01*
X62936105Y55065000D01*
X62900000Y55068556D01*
X62863895Y55065000D01*
X50036105Y55065000D01*
X50000000Y55068556D01*
X49963895Y55065000D01*
X49855915Y55054365D01*
X49717367Y55012337D01*
X49589680Y54944087D01*
X49477762Y54852238D01*
X49385913Y54740320D01*
X49317663Y54612633D01*
X49275635Y54474085D01*
X49261444Y54330000D01*
X735000Y54330000D01*
X735000Y77265000D01*
X402265001Y77265000D01*
X402265000Y735000D01*
G37*
%TD.AperFunction*%
M02*
