%TF.GenerationSoftware,KiCad,Pcbnew,(5.1.9)-1*%
%TF.CreationDate,2022-02-10T16:59:52-07:00*%
%TF.ProjectId,Stepper_to_XLR4,53746570-7065-4725-9f74-6f5f584c5234,rev?*%
%TF.SameCoordinates,Original*%
%TF.FileFunction,Copper,L1,Top*%
%TF.FilePolarity,Positive*%
%FSLAX46Y46*%
G04 Gerber Fmt 4.6, Leading zero omitted, Abs format (unit mm)*
G04 Created by KiCad (PCBNEW (5.1.9)-1) date 2022-02-10 16:59:52*
%MOMM*%
%LPD*%
G01*
G04 APERTURE LIST*
%TA.AperFunction,ComponentPad*%
%ADD10C,2.000000*%
%TD*%
%TA.AperFunction,ComponentPad*%
%ADD11C,2.500000*%
%TD*%
%TA.AperFunction,Conductor*%
%ADD12C,4.000000*%
%TD*%
%TA.AperFunction,Conductor*%
%ADD13C,0.254000*%
%TD*%
%TA.AperFunction,Conductor*%
%ADD14C,0.100000*%
%TD*%
G04 APERTURE END LIST*
D10*
%TO.P,J1,4*%
%TO.N,Net-(J1-Pad4)*%
X47000000Y-41000000D03*
%TO.P,J1,3*%
%TO.N,Net-(J1-Pad3)*%
X41000000Y-41000000D03*
%TO.P,J1,2*%
%TO.N,Net-(J1-Pad2)*%
X35000000Y-41000000D03*
%TO.P,J1,1*%
%TO.N,Net-(J1-Pad1)*%
X29000000Y-41000000D03*
%TD*%
%TO.P,PS1,5*%
%TO.N,GND*%
X30070000Y-6815000D03*
%TO.P,PS1,4*%
%TO.N,Net-(J1-Pad4)*%
X42130000Y-16985000D03*
D11*
%TO.P,PS1,3*%
%TO.N,Net-(J1-Pad3)*%
X42130000Y-13170000D03*
%TO.P,PS1,2*%
%TO.N,Net-(J1-Pad2)*%
X34510000Y-13170000D03*
D10*
%TO.P,PS1,1*%
%TO.N,Net-(J1-Pad1)*%
X34510000Y-16985000D03*
%TD*%
D12*
%TO.N,Net-(J1-Pad4)*%
X47000000Y-21855000D02*
X42130000Y-16985000D01*
X47000000Y-41000000D02*
X47000000Y-21855000D01*
%TO.N,Net-(J1-Pad3)*%
X43869701Y-12784991D02*
X42130000Y-12784991D01*
X48739701Y-45200010D02*
X51200010Y-42739701D01*
X45200010Y-45200010D02*
X48739701Y-45200010D01*
X51200010Y-20115299D02*
X43869701Y-12784991D01*
X51200010Y-42739701D02*
X51200010Y-20115299D01*
X41000000Y-41000000D02*
X45200010Y-45200010D01*
%TO.N,Net-(J1-Pad2)*%
X32770299Y-12784991D02*
X34510000Y-12784991D01*
X24799990Y-20755299D02*
X32770299Y-12784991D01*
X24799990Y-42739701D02*
X24799990Y-20755299D01*
X27260299Y-45200010D02*
X24799990Y-42739701D01*
X30799990Y-45200010D02*
X27260299Y-45200010D01*
X35000000Y-41000000D02*
X30799990Y-45200010D01*
%TO.N,Net-(J1-Pad1)*%
X29000000Y-22495000D02*
X34510000Y-16985000D01*
X29000000Y-41000000D02*
X29000000Y-22495000D01*
%TD*%
D13*
%TO.N,GND*%
X75590000Y-75590000D02*
X660000Y-75590000D01*
X660000Y-72812845D01*
X3616761Y-72812845D01*
X3784802Y-73138643D01*
X4176607Y-73339426D01*
X4600055Y-73459914D01*
X5038873Y-73495476D01*
X5476197Y-73444746D01*
X5895221Y-73309674D01*
X6215198Y-73138643D01*
X6383239Y-72812845D01*
X69866761Y-72812845D01*
X70034802Y-73138643D01*
X70426607Y-73339426D01*
X70850055Y-73459914D01*
X71288873Y-73495476D01*
X71726197Y-73444746D01*
X72145221Y-73309674D01*
X72465198Y-73138643D01*
X72633239Y-72812845D01*
X71250000Y-71429605D01*
X69866761Y-72812845D01*
X6383239Y-72812845D01*
X5000000Y-71429605D01*
X3616761Y-72812845D01*
X660000Y-72812845D01*
X660000Y-71288873D01*
X2754524Y-71288873D01*
X2805254Y-71726197D01*
X2940326Y-72145221D01*
X3111357Y-72465198D01*
X3437155Y-72633239D01*
X4820395Y-71250000D01*
X5179605Y-71250000D01*
X6562845Y-72633239D01*
X6888643Y-72465198D01*
X7089426Y-72073393D01*
X7209914Y-71649945D01*
X7239175Y-71288873D01*
X69004524Y-71288873D01*
X69055254Y-71726197D01*
X69190326Y-72145221D01*
X69361357Y-72465198D01*
X69687155Y-72633239D01*
X71070395Y-71250000D01*
X71429605Y-71250000D01*
X72812845Y-72633239D01*
X73138643Y-72465198D01*
X73339426Y-72073393D01*
X73459914Y-71649945D01*
X73495476Y-71211127D01*
X73444746Y-70773803D01*
X73309674Y-70354779D01*
X73138643Y-70034802D01*
X72812845Y-69866761D01*
X71429605Y-71250000D01*
X71070395Y-71250000D01*
X69687155Y-69866761D01*
X69361357Y-70034802D01*
X69160574Y-70426607D01*
X69040086Y-70850055D01*
X69004524Y-71288873D01*
X7239175Y-71288873D01*
X7245476Y-71211127D01*
X7194746Y-70773803D01*
X7059674Y-70354779D01*
X6888643Y-70034802D01*
X6562845Y-69866761D01*
X5179605Y-71250000D01*
X4820395Y-71250000D01*
X3437155Y-69866761D01*
X3111357Y-70034802D01*
X2910574Y-70426607D01*
X2790086Y-70850055D01*
X2754524Y-71288873D01*
X660000Y-71288873D01*
X660000Y-69687155D01*
X3616761Y-69687155D01*
X5000000Y-71070395D01*
X6383239Y-69687155D01*
X69866761Y-69687155D01*
X71250000Y-71070395D01*
X72633239Y-69687155D01*
X72465198Y-69361357D01*
X72073393Y-69160574D01*
X71649945Y-69040086D01*
X71211127Y-69004524D01*
X70773803Y-69055254D01*
X70354779Y-69190326D01*
X70034802Y-69361357D01*
X69866761Y-69687155D01*
X6383239Y-69687155D01*
X6215198Y-69361357D01*
X5823393Y-69160574D01*
X5399945Y-69040086D01*
X4961127Y-69004524D01*
X4523803Y-69055254D01*
X4104779Y-69190326D01*
X3784802Y-69361357D01*
X3616761Y-69687155D01*
X660000Y-69687155D01*
X660000Y-20755299D01*
X22152242Y-20755299D01*
X22164991Y-20884743D01*
X22164990Y-42610267D01*
X22152242Y-42739701D01*
X22164990Y-42869135D01*
X22164990Y-42869142D01*
X22203117Y-43256250D01*
X22353789Y-43752950D01*
X22598467Y-44210711D01*
X22927749Y-44611942D01*
X23028296Y-44694459D01*
X25305545Y-46971709D01*
X25388058Y-47072251D01*
X25789288Y-47401533D01*
X26247049Y-47646211D01*
X26743748Y-47796883D01*
X26795257Y-47801956D01*
X27130857Y-47835010D01*
X27130864Y-47835010D01*
X27260298Y-47847758D01*
X27389732Y-47835010D01*
X30670556Y-47835010D01*
X30799990Y-47847758D01*
X30929424Y-47835010D01*
X30929432Y-47835010D01*
X31316540Y-47796883D01*
X31813240Y-47646211D01*
X32271001Y-47401533D01*
X32672231Y-47072251D01*
X32754748Y-46971704D01*
X36954755Y-42771698D01*
X37201522Y-42471011D01*
X37446201Y-42013250D01*
X37596873Y-41516551D01*
X37647748Y-41000001D01*
X37647748Y-41000000D01*
X38352252Y-41000000D01*
X38403127Y-41516549D01*
X38553799Y-42013249D01*
X38798478Y-42471010D01*
X39045245Y-42771697D01*
X43245256Y-46971709D01*
X43327769Y-47072251D01*
X43728999Y-47401533D01*
X44186760Y-47646211D01*
X44683459Y-47796883D01*
X44734968Y-47801956D01*
X45070568Y-47835010D01*
X45070575Y-47835010D01*
X45200009Y-47847758D01*
X45329443Y-47835010D01*
X48610267Y-47835010D01*
X48739701Y-47847758D01*
X48869135Y-47835010D01*
X48869143Y-47835010D01*
X49256251Y-47796883D01*
X49752951Y-47646211D01*
X50210712Y-47401533D01*
X50611942Y-47072251D01*
X50694459Y-46971704D01*
X52971710Y-44694454D01*
X53072251Y-44611942D01*
X53401533Y-44210712D01*
X53646211Y-43752951D01*
X53693557Y-43596873D01*
X53796883Y-43256252D01*
X53802273Y-43201523D01*
X53835010Y-42869143D01*
X53835010Y-42869136D01*
X53847758Y-42739702D01*
X53835010Y-42610268D01*
X53835010Y-20244733D01*
X53847758Y-20115299D01*
X53835010Y-19985865D01*
X53835010Y-19985857D01*
X53796883Y-19598749D01*
X53646211Y-19102049D01*
X53401533Y-18644288D01*
X53072251Y-18243058D01*
X52971703Y-18160540D01*
X45824464Y-11013303D01*
X45741942Y-10912750D01*
X45340712Y-10583468D01*
X44882951Y-10338790D01*
X44386251Y-10188118D01*
X43999143Y-10149991D01*
X43999135Y-10149991D01*
X43869701Y-10137243D01*
X43740267Y-10149991D01*
X42700916Y-10149991D01*
X42857095Y-10085299D01*
X43108505Y-9917312D01*
X43322312Y-9703505D01*
X43490299Y-9452095D01*
X43606011Y-9172743D01*
X43665000Y-8876184D01*
X43665000Y-8573816D01*
X43606011Y-8277257D01*
X43490299Y-7997905D01*
X43322312Y-7746495D01*
X43108505Y-7532688D01*
X42857095Y-7364701D01*
X42577743Y-7248989D01*
X42281184Y-7190000D01*
X41978816Y-7190000D01*
X41682257Y-7248989D01*
X41402905Y-7364701D01*
X41151495Y-7532688D01*
X40937688Y-7746495D01*
X40769701Y-7997905D01*
X40653989Y-8277257D01*
X40595000Y-8573816D01*
X40595000Y-8876184D01*
X40653989Y-9172743D01*
X40769701Y-9452095D01*
X40937688Y-9703505D01*
X41151495Y-9917312D01*
X41402905Y-10085299D01*
X41643892Y-10185120D01*
X41613450Y-10188118D01*
X41116750Y-10338790D01*
X40658989Y-10583468D01*
X40257759Y-10912750D01*
X39928477Y-11313980D01*
X39683799Y-11771741D01*
X39533127Y-12268441D01*
X39482251Y-12784991D01*
X39533127Y-13301541D01*
X39683799Y-13798241D01*
X39928477Y-14256002D01*
X40257759Y-14657232D01*
X40535290Y-14884996D01*
X40257759Y-15112759D01*
X39928478Y-15513990D01*
X39683799Y-15971751D01*
X39533127Y-16468451D01*
X39482252Y-16985000D01*
X39533127Y-17501549D01*
X39683799Y-17998249D01*
X39928478Y-18456010D01*
X40175245Y-18756697D01*
X44365001Y-22946454D01*
X44365000Y-40638548D01*
X42771697Y-39045245D01*
X42471010Y-38798478D01*
X42013249Y-38553799D01*
X41516549Y-38403127D01*
X41000000Y-38352252D01*
X40483451Y-38403127D01*
X39986751Y-38553799D01*
X39528990Y-38798478D01*
X39127759Y-39127759D01*
X38798478Y-39528990D01*
X38553799Y-39986751D01*
X38403127Y-40483451D01*
X38352252Y-41000000D01*
X37647748Y-41000000D01*
X37596873Y-40483451D01*
X37446201Y-39986751D01*
X37201522Y-39528990D01*
X36872241Y-39127759D01*
X36471010Y-38798478D01*
X36013249Y-38553799D01*
X35516549Y-38403127D01*
X34999999Y-38352252D01*
X34483449Y-38403127D01*
X33986750Y-38553799D01*
X33528989Y-38798478D01*
X33228302Y-39045245D01*
X31635000Y-40638547D01*
X31635000Y-23586452D01*
X36464755Y-18756697D01*
X36711522Y-18456011D01*
X36956201Y-17998250D01*
X37106873Y-17501550D01*
X37157748Y-16985000D01*
X37106873Y-16468450D01*
X36956201Y-15971751D01*
X36711522Y-15513990D01*
X36382241Y-15112759D01*
X36104710Y-14884996D01*
X36382241Y-14657232D01*
X36711523Y-14256002D01*
X36956201Y-13798241D01*
X37106873Y-13301541D01*
X37157749Y-12784991D01*
X37106873Y-12268441D01*
X36956201Y-11771741D01*
X36711523Y-11313980D01*
X36382241Y-10912750D01*
X35981011Y-10583468D01*
X35523250Y-10338790D01*
X35026550Y-10188118D01*
X34639442Y-10149991D01*
X32899732Y-10149991D01*
X32770298Y-10137243D01*
X32640864Y-10149991D01*
X32640857Y-10149991D01*
X32305257Y-10183045D01*
X32253748Y-10188118D01*
X32016785Y-10260000D01*
X31757049Y-10338790D01*
X31299288Y-10583468D01*
X30898058Y-10912750D01*
X30815545Y-11013292D01*
X23028292Y-18800545D01*
X22927750Y-18883058D01*
X22598468Y-19284288D01*
X22531916Y-19408799D01*
X22353789Y-19742050D01*
X22203117Y-20238749D01*
X22152242Y-20755299D01*
X660000Y-20755299D01*
X660000Y-7950413D01*
X29114192Y-7950413D01*
X29209956Y-8214814D01*
X29499571Y-8355704D01*
X29811108Y-8437384D01*
X30132595Y-8456718D01*
X30451675Y-8412961D01*
X30756088Y-8307795D01*
X30930044Y-8214814D01*
X31025808Y-7950413D01*
X30070000Y-6994605D01*
X29114192Y-7950413D01*
X660000Y-7950413D01*
X660000Y-6562845D01*
X3616761Y-6562845D01*
X3784802Y-6888643D01*
X4176607Y-7089426D01*
X4600055Y-7209914D01*
X5038873Y-7245476D01*
X5476197Y-7194746D01*
X5895221Y-7059674D01*
X6215198Y-6888643D01*
X6220896Y-6877595D01*
X28428282Y-6877595D01*
X28472039Y-7196675D01*
X28577205Y-7501088D01*
X28670186Y-7675044D01*
X28934587Y-7770808D01*
X29890395Y-6815000D01*
X30249605Y-6815000D01*
X31205413Y-7770808D01*
X31469814Y-7675044D01*
X31610704Y-7385429D01*
X31692384Y-7073892D01*
X31711718Y-6752405D01*
X31685723Y-6562845D01*
X69866761Y-6562845D01*
X70034802Y-6888643D01*
X70426607Y-7089426D01*
X70850055Y-7209914D01*
X71288873Y-7245476D01*
X71726197Y-7194746D01*
X72145221Y-7059674D01*
X72465198Y-6888643D01*
X72633239Y-6562845D01*
X71250000Y-5179605D01*
X69866761Y-6562845D01*
X31685723Y-6562845D01*
X31667961Y-6433325D01*
X31562795Y-6128912D01*
X31469814Y-5954956D01*
X31205413Y-5859192D01*
X30249605Y-6815000D01*
X29890395Y-6815000D01*
X28934587Y-5859192D01*
X28670186Y-5954956D01*
X28529296Y-6244571D01*
X28447616Y-6556108D01*
X28428282Y-6877595D01*
X6220896Y-6877595D01*
X6383239Y-6562845D01*
X5000000Y-5179605D01*
X3616761Y-6562845D01*
X660000Y-6562845D01*
X660000Y-5038873D01*
X2754524Y-5038873D01*
X2805254Y-5476197D01*
X2940326Y-5895221D01*
X3111357Y-6215198D01*
X3437155Y-6383239D01*
X4820395Y-5000000D01*
X5179605Y-5000000D01*
X6562845Y-6383239D01*
X6888643Y-6215198D01*
X7089426Y-5823393D01*
X7130344Y-5679587D01*
X29114192Y-5679587D01*
X30070000Y-6635395D01*
X31025808Y-5679587D01*
X30930044Y-5415186D01*
X30640429Y-5274296D01*
X30328892Y-5192616D01*
X30007405Y-5173282D01*
X29688325Y-5217039D01*
X29383912Y-5322205D01*
X29209956Y-5415186D01*
X29114192Y-5679587D01*
X7130344Y-5679587D01*
X7209914Y-5399945D01*
X7245476Y-4961127D01*
X7194746Y-4523803D01*
X7059674Y-4104779D01*
X6888643Y-3784802D01*
X6562845Y-3616761D01*
X5179605Y-5000000D01*
X4820395Y-5000000D01*
X3437155Y-3616761D01*
X3111357Y-3784802D01*
X2910574Y-4176607D01*
X2790086Y-4600055D01*
X2754524Y-5038873D01*
X660000Y-5038873D01*
X660000Y-3437155D01*
X3616761Y-3437155D01*
X5000000Y-4820395D01*
X6326578Y-3493816D01*
X32975000Y-3493816D01*
X32975000Y-3796184D01*
X33033989Y-4092743D01*
X33149701Y-4372095D01*
X33317688Y-4623505D01*
X33531495Y-4837312D01*
X33782905Y-5005299D01*
X34062257Y-5121011D01*
X34358816Y-5180000D01*
X34661184Y-5180000D01*
X34957743Y-5121011D01*
X35156040Y-5038873D01*
X69004524Y-5038873D01*
X69055254Y-5476197D01*
X69190326Y-5895221D01*
X69361357Y-6215198D01*
X69687155Y-6383239D01*
X71070395Y-5000000D01*
X71429605Y-5000000D01*
X72812845Y-6383239D01*
X73138643Y-6215198D01*
X73339426Y-5823393D01*
X73459914Y-5399945D01*
X73495476Y-4961127D01*
X73444746Y-4523803D01*
X73309674Y-4104779D01*
X73138643Y-3784802D01*
X72812845Y-3616761D01*
X71429605Y-5000000D01*
X71070395Y-5000000D01*
X69687155Y-3616761D01*
X69361357Y-3784802D01*
X69160574Y-4176607D01*
X69040086Y-4600055D01*
X69004524Y-5038873D01*
X35156040Y-5038873D01*
X35237095Y-5005299D01*
X35488505Y-4837312D01*
X35702312Y-4623505D01*
X35870299Y-4372095D01*
X35986011Y-4092743D01*
X36045000Y-3796184D01*
X36045000Y-3493816D01*
X36033730Y-3437155D01*
X69866761Y-3437155D01*
X71250000Y-4820395D01*
X72633239Y-3437155D01*
X72465198Y-3111357D01*
X72073393Y-2910574D01*
X71649945Y-2790086D01*
X71211127Y-2754524D01*
X70773803Y-2805254D01*
X70354779Y-2940326D01*
X70034802Y-3111357D01*
X69866761Y-3437155D01*
X36033730Y-3437155D01*
X35986011Y-3197257D01*
X35870299Y-2917905D01*
X35702312Y-2666495D01*
X35488505Y-2452688D01*
X35237095Y-2284701D01*
X34957743Y-2168989D01*
X34661184Y-2110000D01*
X34358816Y-2110000D01*
X34062257Y-2168989D01*
X33782905Y-2284701D01*
X33531495Y-2452688D01*
X33317688Y-2666495D01*
X33149701Y-2917905D01*
X33033989Y-3197257D01*
X32975000Y-3493816D01*
X6326578Y-3493816D01*
X6383239Y-3437155D01*
X6215198Y-3111357D01*
X5823393Y-2910574D01*
X5399945Y-2790086D01*
X4961127Y-2754524D01*
X4523803Y-2805254D01*
X4104779Y-2940326D01*
X3784802Y-3111357D01*
X3616761Y-3437155D01*
X660000Y-3437155D01*
X660000Y-760000D01*
X75590001Y-760000D01*
X75590000Y-75590000D01*
%TA.AperFunction,Conductor*%
D14*
G36*
X75590000Y-75590000D02*
G01*
X660000Y-75590000D01*
X660000Y-72812845D01*
X3616761Y-72812845D01*
X3784802Y-73138643D01*
X4176607Y-73339426D01*
X4600055Y-73459914D01*
X5038873Y-73495476D01*
X5476197Y-73444746D01*
X5895221Y-73309674D01*
X6215198Y-73138643D01*
X6383239Y-72812845D01*
X69866761Y-72812845D01*
X70034802Y-73138643D01*
X70426607Y-73339426D01*
X70850055Y-73459914D01*
X71288873Y-73495476D01*
X71726197Y-73444746D01*
X72145221Y-73309674D01*
X72465198Y-73138643D01*
X72633239Y-72812845D01*
X71250000Y-71429605D01*
X69866761Y-72812845D01*
X6383239Y-72812845D01*
X5000000Y-71429605D01*
X3616761Y-72812845D01*
X660000Y-72812845D01*
X660000Y-71288873D01*
X2754524Y-71288873D01*
X2805254Y-71726197D01*
X2940326Y-72145221D01*
X3111357Y-72465198D01*
X3437155Y-72633239D01*
X4820395Y-71250000D01*
X5179605Y-71250000D01*
X6562845Y-72633239D01*
X6888643Y-72465198D01*
X7089426Y-72073393D01*
X7209914Y-71649945D01*
X7239175Y-71288873D01*
X69004524Y-71288873D01*
X69055254Y-71726197D01*
X69190326Y-72145221D01*
X69361357Y-72465198D01*
X69687155Y-72633239D01*
X71070395Y-71250000D01*
X71429605Y-71250000D01*
X72812845Y-72633239D01*
X73138643Y-72465198D01*
X73339426Y-72073393D01*
X73459914Y-71649945D01*
X73495476Y-71211127D01*
X73444746Y-70773803D01*
X73309674Y-70354779D01*
X73138643Y-70034802D01*
X72812845Y-69866761D01*
X71429605Y-71250000D01*
X71070395Y-71250000D01*
X69687155Y-69866761D01*
X69361357Y-70034802D01*
X69160574Y-70426607D01*
X69040086Y-70850055D01*
X69004524Y-71288873D01*
X7239175Y-71288873D01*
X7245476Y-71211127D01*
X7194746Y-70773803D01*
X7059674Y-70354779D01*
X6888643Y-70034802D01*
X6562845Y-69866761D01*
X5179605Y-71250000D01*
X4820395Y-71250000D01*
X3437155Y-69866761D01*
X3111357Y-70034802D01*
X2910574Y-70426607D01*
X2790086Y-70850055D01*
X2754524Y-71288873D01*
X660000Y-71288873D01*
X660000Y-69687155D01*
X3616761Y-69687155D01*
X5000000Y-71070395D01*
X6383239Y-69687155D01*
X69866761Y-69687155D01*
X71250000Y-71070395D01*
X72633239Y-69687155D01*
X72465198Y-69361357D01*
X72073393Y-69160574D01*
X71649945Y-69040086D01*
X71211127Y-69004524D01*
X70773803Y-69055254D01*
X70354779Y-69190326D01*
X70034802Y-69361357D01*
X69866761Y-69687155D01*
X6383239Y-69687155D01*
X6215198Y-69361357D01*
X5823393Y-69160574D01*
X5399945Y-69040086D01*
X4961127Y-69004524D01*
X4523803Y-69055254D01*
X4104779Y-69190326D01*
X3784802Y-69361357D01*
X3616761Y-69687155D01*
X660000Y-69687155D01*
X660000Y-20755299D01*
X22152242Y-20755299D01*
X22164991Y-20884743D01*
X22164990Y-42610267D01*
X22152242Y-42739701D01*
X22164990Y-42869135D01*
X22164990Y-42869142D01*
X22203117Y-43256250D01*
X22353789Y-43752950D01*
X22598467Y-44210711D01*
X22927749Y-44611942D01*
X23028296Y-44694459D01*
X25305545Y-46971709D01*
X25388058Y-47072251D01*
X25789288Y-47401533D01*
X26247049Y-47646211D01*
X26743748Y-47796883D01*
X26795257Y-47801956D01*
X27130857Y-47835010D01*
X27130864Y-47835010D01*
X27260298Y-47847758D01*
X27389732Y-47835010D01*
X30670556Y-47835010D01*
X30799990Y-47847758D01*
X30929424Y-47835010D01*
X30929432Y-47835010D01*
X31316540Y-47796883D01*
X31813240Y-47646211D01*
X32271001Y-47401533D01*
X32672231Y-47072251D01*
X32754748Y-46971704D01*
X36954755Y-42771698D01*
X37201522Y-42471011D01*
X37446201Y-42013250D01*
X37596873Y-41516551D01*
X37647748Y-41000001D01*
X37647748Y-41000000D01*
X38352252Y-41000000D01*
X38403127Y-41516549D01*
X38553799Y-42013249D01*
X38798478Y-42471010D01*
X39045245Y-42771697D01*
X43245256Y-46971709D01*
X43327769Y-47072251D01*
X43728999Y-47401533D01*
X44186760Y-47646211D01*
X44683459Y-47796883D01*
X44734968Y-47801956D01*
X45070568Y-47835010D01*
X45070575Y-47835010D01*
X45200009Y-47847758D01*
X45329443Y-47835010D01*
X48610267Y-47835010D01*
X48739701Y-47847758D01*
X48869135Y-47835010D01*
X48869143Y-47835010D01*
X49256251Y-47796883D01*
X49752951Y-47646211D01*
X50210712Y-47401533D01*
X50611942Y-47072251D01*
X50694459Y-46971704D01*
X52971710Y-44694454D01*
X53072251Y-44611942D01*
X53401533Y-44210712D01*
X53646211Y-43752951D01*
X53693557Y-43596873D01*
X53796883Y-43256252D01*
X53802273Y-43201523D01*
X53835010Y-42869143D01*
X53835010Y-42869136D01*
X53847758Y-42739702D01*
X53835010Y-42610268D01*
X53835010Y-20244733D01*
X53847758Y-20115299D01*
X53835010Y-19985865D01*
X53835010Y-19985857D01*
X53796883Y-19598749D01*
X53646211Y-19102049D01*
X53401533Y-18644288D01*
X53072251Y-18243058D01*
X52971703Y-18160540D01*
X45824464Y-11013303D01*
X45741942Y-10912750D01*
X45340712Y-10583468D01*
X44882951Y-10338790D01*
X44386251Y-10188118D01*
X43999143Y-10149991D01*
X43999135Y-10149991D01*
X43869701Y-10137243D01*
X43740267Y-10149991D01*
X42700916Y-10149991D01*
X42857095Y-10085299D01*
X43108505Y-9917312D01*
X43322312Y-9703505D01*
X43490299Y-9452095D01*
X43606011Y-9172743D01*
X43665000Y-8876184D01*
X43665000Y-8573816D01*
X43606011Y-8277257D01*
X43490299Y-7997905D01*
X43322312Y-7746495D01*
X43108505Y-7532688D01*
X42857095Y-7364701D01*
X42577743Y-7248989D01*
X42281184Y-7190000D01*
X41978816Y-7190000D01*
X41682257Y-7248989D01*
X41402905Y-7364701D01*
X41151495Y-7532688D01*
X40937688Y-7746495D01*
X40769701Y-7997905D01*
X40653989Y-8277257D01*
X40595000Y-8573816D01*
X40595000Y-8876184D01*
X40653989Y-9172743D01*
X40769701Y-9452095D01*
X40937688Y-9703505D01*
X41151495Y-9917312D01*
X41402905Y-10085299D01*
X41643892Y-10185120D01*
X41613450Y-10188118D01*
X41116750Y-10338790D01*
X40658989Y-10583468D01*
X40257759Y-10912750D01*
X39928477Y-11313980D01*
X39683799Y-11771741D01*
X39533127Y-12268441D01*
X39482251Y-12784991D01*
X39533127Y-13301541D01*
X39683799Y-13798241D01*
X39928477Y-14256002D01*
X40257759Y-14657232D01*
X40535290Y-14884996D01*
X40257759Y-15112759D01*
X39928478Y-15513990D01*
X39683799Y-15971751D01*
X39533127Y-16468451D01*
X39482252Y-16985000D01*
X39533127Y-17501549D01*
X39683799Y-17998249D01*
X39928478Y-18456010D01*
X40175245Y-18756697D01*
X44365001Y-22946454D01*
X44365000Y-40638548D01*
X42771697Y-39045245D01*
X42471010Y-38798478D01*
X42013249Y-38553799D01*
X41516549Y-38403127D01*
X41000000Y-38352252D01*
X40483451Y-38403127D01*
X39986751Y-38553799D01*
X39528990Y-38798478D01*
X39127759Y-39127759D01*
X38798478Y-39528990D01*
X38553799Y-39986751D01*
X38403127Y-40483451D01*
X38352252Y-41000000D01*
X37647748Y-41000000D01*
X37596873Y-40483451D01*
X37446201Y-39986751D01*
X37201522Y-39528990D01*
X36872241Y-39127759D01*
X36471010Y-38798478D01*
X36013249Y-38553799D01*
X35516549Y-38403127D01*
X34999999Y-38352252D01*
X34483449Y-38403127D01*
X33986750Y-38553799D01*
X33528989Y-38798478D01*
X33228302Y-39045245D01*
X31635000Y-40638547D01*
X31635000Y-23586452D01*
X36464755Y-18756697D01*
X36711522Y-18456011D01*
X36956201Y-17998250D01*
X37106873Y-17501550D01*
X37157748Y-16985000D01*
X37106873Y-16468450D01*
X36956201Y-15971751D01*
X36711522Y-15513990D01*
X36382241Y-15112759D01*
X36104710Y-14884996D01*
X36382241Y-14657232D01*
X36711523Y-14256002D01*
X36956201Y-13798241D01*
X37106873Y-13301541D01*
X37157749Y-12784991D01*
X37106873Y-12268441D01*
X36956201Y-11771741D01*
X36711523Y-11313980D01*
X36382241Y-10912750D01*
X35981011Y-10583468D01*
X35523250Y-10338790D01*
X35026550Y-10188118D01*
X34639442Y-10149991D01*
X32899732Y-10149991D01*
X32770298Y-10137243D01*
X32640864Y-10149991D01*
X32640857Y-10149991D01*
X32305257Y-10183045D01*
X32253748Y-10188118D01*
X32016785Y-10260000D01*
X31757049Y-10338790D01*
X31299288Y-10583468D01*
X30898058Y-10912750D01*
X30815545Y-11013292D01*
X23028292Y-18800545D01*
X22927750Y-18883058D01*
X22598468Y-19284288D01*
X22531916Y-19408799D01*
X22353789Y-19742050D01*
X22203117Y-20238749D01*
X22152242Y-20755299D01*
X660000Y-20755299D01*
X660000Y-7950413D01*
X29114192Y-7950413D01*
X29209956Y-8214814D01*
X29499571Y-8355704D01*
X29811108Y-8437384D01*
X30132595Y-8456718D01*
X30451675Y-8412961D01*
X30756088Y-8307795D01*
X30930044Y-8214814D01*
X31025808Y-7950413D01*
X30070000Y-6994605D01*
X29114192Y-7950413D01*
X660000Y-7950413D01*
X660000Y-6562845D01*
X3616761Y-6562845D01*
X3784802Y-6888643D01*
X4176607Y-7089426D01*
X4600055Y-7209914D01*
X5038873Y-7245476D01*
X5476197Y-7194746D01*
X5895221Y-7059674D01*
X6215198Y-6888643D01*
X6220896Y-6877595D01*
X28428282Y-6877595D01*
X28472039Y-7196675D01*
X28577205Y-7501088D01*
X28670186Y-7675044D01*
X28934587Y-7770808D01*
X29890395Y-6815000D01*
X30249605Y-6815000D01*
X31205413Y-7770808D01*
X31469814Y-7675044D01*
X31610704Y-7385429D01*
X31692384Y-7073892D01*
X31711718Y-6752405D01*
X31685723Y-6562845D01*
X69866761Y-6562845D01*
X70034802Y-6888643D01*
X70426607Y-7089426D01*
X70850055Y-7209914D01*
X71288873Y-7245476D01*
X71726197Y-7194746D01*
X72145221Y-7059674D01*
X72465198Y-6888643D01*
X72633239Y-6562845D01*
X71250000Y-5179605D01*
X69866761Y-6562845D01*
X31685723Y-6562845D01*
X31667961Y-6433325D01*
X31562795Y-6128912D01*
X31469814Y-5954956D01*
X31205413Y-5859192D01*
X30249605Y-6815000D01*
X29890395Y-6815000D01*
X28934587Y-5859192D01*
X28670186Y-5954956D01*
X28529296Y-6244571D01*
X28447616Y-6556108D01*
X28428282Y-6877595D01*
X6220896Y-6877595D01*
X6383239Y-6562845D01*
X5000000Y-5179605D01*
X3616761Y-6562845D01*
X660000Y-6562845D01*
X660000Y-5038873D01*
X2754524Y-5038873D01*
X2805254Y-5476197D01*
X2940326Y-5895221D01*
X3111357Y-6215198D01*
X3437155Y-6383239D01*
X4820395Y-5000000D01*
X5179605Y-5000000D01*
X6562845Y-6383239D01*
X6888643Y-6215198D01*
X7089426Y-5823393D01*
X7130344Y-5679587D01*
X29114192Y-5679587D01*
X30070000Y-6635395D01*
X31025808Y-5679587D01*
X30930044Y-5415186D01*
X30640429Y-5274296D01*
X30328892Y-5192616D01*
X30007405Y-5173282D01*
X29688325Y-5217039D01*
X29383912Y-5322205D01*
X29209956Y-5415186D01*
X29114192Y-5679587D01*
X7130344Y-5679587D01*
X7209914Y-5399945D01*
X7245476Y-4961127D01*
X7194746Y-4523803D01*
X7059674Y-4104779D01*
X6888643Y-3784802D01*
X6562845Y-3616761D01*
X5179605Y-5000000D01*
X4820395Y-5000000D01*
X3437155Y-3616761D01*
X3111357Y-3784802D01*
X2910574Y-4176607D01*
X2790086Y-4600055D01*
X2754524Y-5038873D01*
X660000Y-5038873D01*
X660000Y-3437155D01*
X3616761Y-3437155D01*
X5000000Y-4820395D01*
X6326578Y-3493816D01*
X32975000Y-3493816D01*
X32975000Y-3796184D01*
X33033989Y-4092743D01*
X33149701Y-4372095D01*
X33317688Y-4623505D01*
X33531495Y-4837312D01*
X33782905Y-5005299D01*
X34062257Y-5121011D01*
X34358816Y-5180000D01*
X34661184Y-5180000D01*
X34957743Y-5121011D01*
X35156040Y-5038873D01*
X69004524Y-5038873D01*
X69055254Y-5476197D01*
X69190326Y-5895221D01*
X69361357Y-6215198D01*
X69687155Y-6383239D01*
X71070395Y-5000000D01*
X71429605Y-5000000D01*
X72812845Y-6383239D01*
X73138643Y-6215198D01*
X73339426Y-5823393D01*
X73459914Y-5399945D01*
X73495476Y-4961127D01*
X73444746Y-4523803D01*
X73309674Y-4104779D01*
X73138643Y-3784802D01*
X72812845Y-3616761D01*
X71429605Y-5000000D01*
X71070395Y-5000000D01*
X69687155Y-3616761D01*
X69361357Y-3784802D01*
X69160574Y-4176607D01*
X69040086Y-4600055D01*
X69004524Y-5038873D01*
X35156040Y-5038873D01*
X35237095Y-5005299D01*
X35488505Y-4837312D01*
X35702312Y-4623505D01*
X35870299Y-4372095D01*
X35986011Y-4092743D01*
X36045000Y-3796184D01*
X36045000Y-3493816D01*
X36033730Y-3437155D01*
X69866761Y-3437155D01*
X71250000Y-4820395D01*
X72633239Y-3437155D01*
X72465198Y-3111357D01*
X72073393Y-2910574D01*
X71649945Y-2790086D01*
X71211127Y-2754524D01*
X70773803Y-2805254D01*
X70354779Y-2940326D01*
X70034802Y-3111357D01*
X69866761Y-3437155D01*
X36033730Y-3437155D01*
X35986011Y-3197257D01*
X35870299Y-2917905D01*
X35702312Y-2666495D01*
X35488505Y-2452688D01*
X35237095Y-2284701D01*
X34957743Y-2168989D01*
X34661184Y-2110000D01*
X34358816Y-2110000D01*
X34062257Y-2168989D01*
X33782905Y-2284701D01*
X33531495Y-2452688D01*
X33317688Y-2666495D01*
X33149701Y-2917905D01*
X33033989Y-3197257D01*
X32975000Y-3493816D01*
X6326578Y-3493816D01*
X6383239Y-3437155D01*
X6215198Y-3111357D01*
X5823393Y-2910574D01*
X5399945Y-2790086D01*
X4961127Y-2754524D01*
X4523803Y-2805254D01*
X4104779Y-2940326D01*
X3784802Y-3111357D01*
X3616761Y-3437155D01*
X660000Y-3437155D01*
X660000Y-760000D01*
X75590001Y-760000D01*
X75590000Y-75590000D01*
G37*
%TD.AperFunction*%
%TD*%
M02*
