%TF.GenerationSoftware,KiCad,Pcbnew,(5.1.9)-1*%
%TF.CreationDate,2022-02-10T16:59:52-07:00*%
%TF.ProjectId,Stepper_to_XLR4,53746570-7065-4725-9f74-6f5f584c5234,rev?*%
%TF.SameCoordinates,Original*%
%TF.FileFunction,Legend,Top*%
%TF.FilePolarity,Positive*%
%FSLAX46Y46*%
G04 Gerber Fmt 4.6, Leading zero omitted, Abs format (unit mm)*
G04 Created by KiCad (PCBNEW (5.1.9)-1) date 2022-02-10 16:59:52*
%MOMM*%
%LPD*%
G01*
G04 APERTURE LIST*
%ADD10C,0.254000*%
%ADD11C,0.150000*%
G04 APERTURE END LIST*
D10*
%TO.C,PS1*%
X49193000Y2832000D02*
X49193000Y165000D01*
X27193000Y2832000D02*
X27193000Y165000D01*
X25693000Y165000D02*
X25693000Y-19393000D01*
X25693000Y-19393000D02*
X50766000Y-19393000D01*
X50766000Y-19393000D02*
X50766000Y165000D01*
X25693000Y165000D02*
X50693000Y165000D01*
X27193000Y2832000D02*
X49193000Y2832000D01*
%TO.C,J1*%
D11*
X28666666Y-34552380D02*
X28666666Y-35266666D01*
X28619047Y-35409523D01*
X28523809Y-35504761D01*
X28380952Y-35552380D01*
X28285714Y-35552380D01*
X29666666Y-35552380D02*
X29095238Y-35552380D01*
X29380952Y-35552380D02*
X29380952Y-34552380D01*
X29285714Y-34695238D01*
X29190476Y-34790476D01*
X29095238Y-34838095D01*
%TO.C,PS1*%
X33335833Y-15559380D02*
X33335833Y-14559380D01*
X33716785Y-14559380D01*
X33812023Y-14607000D01*
X33859642Y-14654619D01*
X33907261Y-14749857D01*
X33907261Y-14892714D01*
X33859642Y-14987952D01*
X33812023Y-15035571D01*
X33716785Y-15083190D01*
X33335833Y-15083190D01*
X34288214Y-15511761D02*
X34431071Y-15559380D01*
X34669166Y-15559380D01*
X34764404Y-15511761D01*
X34812023Y-15464142D01*
X34859642Y-15368904D01*
X34859642Y-15273666D01*
X34812023Y-15178428D01*
X34764404Y-15130809D01*
X34669166Y-15083190D01*
X34478690Y-15035571D01*
X34383452Y-14987952D01*
X34335833Y-14940333D01*
X34288214Y-14845095D01*
X34288214Y-14749857D01*
X34335833Y-14654619D01*
X34383452Y-14607000D01*
X34478690Y-14559380D01*
X34716785Y-14559380D01*
X34859642Y-14607000D01*
X35812023Y-15559380D02*
X35240595Y-15559380D01*
X35526309Y-15559380D02*
X35526309Y-14559380D01*
X35431071Y-14702238D01*
X35335833Y-14797476D01*
X35240595Y-14845095D01*
%TO.C,MH4*%
X69916666Y-1252380D02*
X69916666Y-252380D01*
X70250000Y-966666D01*
X70583333Y-252380D01*
X70583333Y-1252380D01*
X71059523Y-1252380D02*
X71059523Y-252380D01*
X71059523Y-728571D02*
X71630952Y-728571D01*
X71630952Y-1252380D02*
X71630952Y-252380D01*
X72535714Y-585714D02*
X72535714Y-1252380D01*
X72297619Y-204761D02*
X72059523Y-919047D01*
X72678571Y-919047D01*
%TO.C,MH3*%
X69916666Y-67502380D02*
X69916666Y-66502380D01*
X70250000Y-67216666D01*
X70583333Y-66502380D01*
X70583333Y-67502380D01*
X71059523Y-67502380D02*
X71059523Y-66502380D01*
X71059523Y-66978571D02*
X71630952Y-66978571D01*
X71630952Y-67502380D02*
X71630952Y-66502380D01*
X72011904Y-66502380D02*
X72630952Y-66502380D01*
X72297619Y-66883333D01*
X72440476Y-66883333D01*
X72535714Y-66930952D01*
X72583333Y-66978571D01*
X72630952Y-67073809D01*
X72630952Y-67311904D01*
X72583333Y-67407142D01*
X72535714Y-67454761D01*
X72440476Y-67502380D01*
X72154761Y-67502380D01*
X72059523Y-67454761D01*
X72011904Y-67407142D01*
%TO.C,MH2*%
X3666666Y-67502380D02*
X3666666Y-66502380D01*
X4000000Y-67216666D01*
X4333333Y-66502380D01*
X4333333Y-67502380D01*
X4809523Y-67502380D02*
X4809523Y-66502380D01*
X4809523Y-66978571D02*
X5380952Y-66978571D01*
X5380952Y-67502380D02*
X5380952Y-66502380D01*
X5809523Y-66597619D02*
X5857142Y-66550000D01*
X5952380Y-66502380D01*
X6190476Y-66502380D01*
X6285714Y-66550000D01*
X6333333Y-66597619D01*
X6380952Y-66692857D01*
X6380952Y-66788095D01*
X6333333Y-66930952D01*
X5761904Y-67502380D01*
X6380952Y-67502380D01*
%TO.C,MH1*%
X3666666Y-1252380D02*
X3666666Y-252380D01*
X4000000Y-966666D01*
X4333333Y-252380D01*
X4333333Y-1252380D01*
X4809523Y-1252380D02*
X4809523Y-252380D01*
X4809523Y-728571D02*
X5380952Y-728571D01*
X5380952Y-1252380D02*
X5380952Y-252380D01*
X6380952Y-1252380D02*
X5809523Y-1252380D01*
X6095238Y-1252380D02*
X6095238Y-252380D01*
X6000000Y-395238D01*
X5904761Y-490476D01*
X5809523Y-538095D01*
%TD*%
M02*
