%TF.GenerationSoftware,KiCad,Pcbnew,(5.1.10)-1*%
%TF.CreationDate,2022-11-15T17:45:26-07:00*%
%TF.ProjectId,Stepper_to_XLR4,53746570-7065-4725-9f74-6f5f584c5234,rev?*%
%TF.SameCoordinates,Original*%
%TF.FileFunction,Legend,Top*%
%TF.FilePolarity,Positive*%
%FSLAX46Y46*%
G04 Gerber Fmt 4.6, Leading zero omitted, Abs format (unit mm)*
G04 Created by KiCad (PCBNEW (5.1.10)-1) date 2022-11-15 17:45:26*
%MOMM*%
%LPD*%
G01*
G04 APERTURE LIST*
%ADD10C,0.150000*%
%ADD11C,0.254000*%
G04 APERTURE END LIST*
D10*
X60428571Y-35821428D02*
X60476190Y-35678571D01*
X60523809Y-35630952D01*
X60619047Y-35583333D01*
X60761904Y-35583333D01*
X60857142Y-35630952D01*
X60904761Y-35678571D01*
X60952380Y-35773809D01*
X60952380Y-36154761D01*
X59952380Y-36154761D01*
X59952380Y-35821428D01*
X60000000Y-35726190D01*
X60047619Y-35678571D01*
X60142857Y-35630952D01*
X60238095Y-35630952D01*
X60333333Y-35678571D01*
X60380952Y-35726190D01*
X60428571Y-35821428D01*
X60428571Y-36154761D01*
X60047619Y-35202380D02*
X60000000Y-35154761D01*
X59952380Y-35059523D01*
X59952380Y-34821428D01*
X60000000Y-34726190D01*
X60047619Y-34678571D01*
X60142857Y-34630952D01*
X60238095Y-34630952D01*
X60380952Y-34678571D01*
X60952380Y-35250000D01*
X60952380Y-34630952D01*
X59904761Y-33488095D02*
X61190476Y-34345238D01*
X60428571Y-32821428D02*
X60476190Y-32678571D01*
X60523809Y-32630952D01*
X60619047Y-32583333D01*
X60761904Y-32583333D01*
X60857142Y-32630952D01*
X60904761Y-32678571D01*
X60952380Y-32773809D01*
X60952380Y-33154761D01*
X59952380Y-33154761D01*
X59952380Y-32821428D01*
X60000000Y-32726190D01*
X60047619Y-32678571D01*
X60142857Y-32630952D01*
X60238095Y-32630952D01*
X60333333Y-32678571D01*
X60380952Y-32726190D01*
X60428571Y-32821428D01*
X60428571Y-33154761D01*
X60571428Y-32154761D02*
X60571428Y-31392857D01*
X60428571Y-29821428D02*
X60476190Y-29678571D01*
X60523809Y-29630952D01*
X60619047Y-29583333D01*
X60761904Y-29583333D01*
X60857142Y-29630952D01*
X60904761Y-29678571D01*
X60952380Y-29773809D01*
X60952380Y-30154761D01*
X59952380Y-30154761D01*
X59952380Y-29821428D01*
X60000000Y-29726190D01*
X60047619Y-29678571D01*
X60142857Y-29630952D01*
X60238095Y-29630952D01*
X60333333Y-29678571D01*
X60380952Y-29726190D01*
X60428571Y-29821428D01*
X60428571Y-30154761D01*
X60952380Y-29011904D02*
X60904761Y-29107142D01*
X60809523Y-29154761D01*
X59952380Y-29154761D01*
X60285714Y-28202380D02*
X60952380Y-28202380D01*
X60285714Y-28630952D02*
X60809523Y-28630952D01*
X60904761Y-28583333D01*
X60952380Y-28488095D01*
X60952380Y-28345238D01*
X60904761Y-28250000D01*
X60857142Y-28202380D01*
X60904761Y-27345238D02*
X60952380Y-27440476D01*
X60952380Y-27630952D01*
X60904761Y-27726190D01*
X60809523Y-27773809D01*
X60428571Y-27773809D01*
X60333333Y-27726190D01*
X60285714Y-27630952D01*
X60285714Y-27440476D01*
X60333333Y-27345238D01*
X60428571Y-27297619D01*
X60523809Y-27297619D01*
X60619047Y-27773809D01*
X64678571Y-36309523D02*
X64726190Y-36166666D01*
X64773809Y-36119047D01*
X64869047Y-36071428D01*
X65011904Y-36071428D01*
X65107142Y-36119047D01*
X65154761Y-36166666D01*
X65202380Y-36261904D01*
X65202380Y-36642857D01*
X64202380Y-36642857D01*
X64202380Y-36309523D01*
X64250000Y-36214285D01*
X64297619Y-36166666D01*
X64392857Y-36119047D01*
X64488095Y-36119047D01*
X64583333Y-36166666D01*
X64630952Y-36214285D01*
X64678571Y-36309523D01*
X64678571Y-36642857D01*
X65202380Y-35119047D02*
X65202380Y-35690476D01*
X65202380Y-35404761D02*
X64202380Y-35404761D01*
X64345238Y-35500000D01*
X64440476Y-35595238D01*
X64488095Y-35690476D01*
X64154761Y-33976190D02*
X65440476Y-34833333D01*
X64678571Y-33309523D02*
X64726190Y-33166666D01*
X64773809Y-33119047D01*
X64869047Y-33071428D01*
X65011904Y-33071428D01*
X65107142Y-33119047D01*
X65154761Y-33166666D01*
X65202380Y-33261904D01*
X65202380Y-33642857D01*
X64202380Y-33642857D01*
X64202380Y-33309523D01*
X64250000Y-33214285D01*
X64297619Y-33166666D01*
X64392857Y-33119047D01*
X64488095Y-33119047D01*
X64583333Y-33166666D01*
X64630952Y-33214285D01*
X64678571Y-33309523D01*
X64678571Y-33642857D01*
X64821428Y-32642857D02*
X64821428Y-31880952D01*
X65202380Y-32261904D02*
X64440476Y-32261904D01*
X65202380Y-30071428D02*
X64726190Y-30404761D01*
X65202380Y-30642857D02*
X64202380Y-30642857D01*
X64202380Y-30261904D01*
X64250000Y-30166666D01*
X64297619Y-30119047D01*
X64392857Y-30071428D01*
X64535714Y-30071428D01*
X64630952Y-30119047D01*
X64678571Y-30166666D01*
X64726190Y-30261904D01*
X64726190Y-30642857D01*
X65154761Y-29261904D02*
X65202380Y-29357142D01*
X65202380Y-29547619D01*
X65154761Y-29642857D01*
X65059523Y-29690476D01*
X64678571Y-29690476D01*
X64583333Y-29642857D01*
X64535714Y-29547619D01*
X64535714Y-29357142D01*
X64583333Y-29261904D01*
X64678571Y-29214285D01*
X64773809Y-29214285D01*
X64869047Y-29690476D01*
X65202380Y-28357142D02*
X64202380Y-28357142D01*
X65154761Y-28357142D02*
X65202380Y-28452380D01*
X65202380Y-28642857D01*
X65154761Y-28738095D01*
X65107142Y-28785714D01*
X65011904Y-28833333D01*
X64726190Y-28833333D01*
X64630952Y-28785714D01*
X64583333Y-28738095D01*
X64535714Y-28642857D01*
X64535714Y-28452380D01*
X64583333Y-28357142D01*
X38416666Y-36535714D02*
X38416666Y-36059523D01*
X38702380Y-36630952D02*
X37702380Y-36297619D01*
X38702380Y-35964285D01*
X37797619Y-35678571D02*
X37750000Y-35630952D01*
X37702380Y-35535714D01*
X37702380Y-35297619D01*
X37750000Y-35202380D01*
X37797619Y-35154761D01*
X37892857Y-35107142D01*
X37988095Y-35107142D01*
X38130952Y-35154761D01*
X38702380Y-35726190D01*
X38702380Y-35107142D01*
X37654761Y-33964285D02*
X38940476Y-34821428D01*
X38416666Y-33678571D02*
X38416666Y-33202380D01*
X38702380Y-33773809D02*
X37702380Y-33440476D01*
X38702380Y-33107142D01*
X38321428Y-32773809D02*
X38321428Y-32011904D01*
X37750000Y-30250000D02*
X37702380Y-30345238D01*
X37702380Y-30488095D01*
X37750000Y-30630952D01*
X37845238Y-30726190D01*
X37940476Y-30773809D01*
X38130952Y-30821428D01*
X38273809Y-30821428D01*
X38464285Y-30773809D01*
X38559523Y-30726190D01*
X38654761Y-30630952D01*
X38702380Y-30488095D01*
X38702380Y-30392857D01*
X38654761Y-30250000D01*
X38607142Y-30202380D01*
X38273809Y-30202380D01*
X38273809Y-30392857D01*
X38702380Y-29773809D02*
X38035714Y-29773809D01*
X38226190Y-29773809D02*
X38130952Y-29726190D01*
X38083333Y-29678571D01*
X38035714Y-29583333D01*
X38035714Y-29488095D01*
X38654761Y-28773809D02*
X38702380Y-28869047D01*
X38702380Y-29059523D01*
X38654761Y-29154761D01*
X38559523Y-29202380D01*
X38178571Y-29202380D01*
X38083333Y-29154761D01*
X38035714Y-29059523D01*
X38035714Y-28869047D01*
X38083333Y-28773809D01*
X38178571Y-28726190D01*
X38273809Y-28726190D01*
X38369047Y-29202380D01*
X38654761Y-27916666D02*
X38702380Y-28011904D01*
X38702380Y-28202380D01*
X38654761Y-28297619D01*
X38559523Y-28345238D01*
X38178571Y-28345238D01*
X38083333Y-28297619D01*
X38035714Y-28202380D01*
X38035714Y-28011904D01*
X38083333Y-27916666D01*
X38178571Y-27869047D01*
X38273809Y-27869047D01*
X38369047Y-28345238D01*
X38035714Y-27440476D02*
X38702380Y-27440476D01*
X38130952Y-27440476D02*
X38083333Y-27392857D01*
X38035714Y-27297619D01*
X38035714Y-27154761D01*
X38083333Y-27059523D01*
X38178571Y-27011904D01*
X38702380Y-27011904D01*
X42666666Y-33464285D02*
X42666666Y-32988095D01*
X42952380Y-33559523D02*
X41952380Y-33226190D01*
X42952380Y-32892857D01*
X42952380Y-32035714D02*
X42952380Y-32607142D01*
X42952380Y-32321428D02*
X41952380Y-32321428D01*
X42095238Y-32416666D01*
X42190476Y-32511904D01*
X42238095Y-32607142D01*
X41904761Y-30892857D02*
X43190476Y-31750000D01*
X42666666Y-30607142D02*
X42666666Y-30130952D01*
X42952380Y-30702380D02*
X41952380Y-30369047D01*
X42952380Y-30035714D01*
X42571428Y-29702380D02*
X42571428Y-28940476D01*
X42952380Y-29321428D02*
X42190476Y-29321428D01*
X42428571Y-27369047D02*
X42476190Y-27226190D01*
X42523809Y-27178571D01*
X42619047Y-27130952D01*
X42761904Y-27130952D01*
X42857142Y-27178571D01*
X42904761Y-27226190D01*
X42952380Y-27321428D01*
X42952380Y-27702380D01*
X41952380Y-27702380D01*
X41952380Y-27369047D01*
X42000000Y-27273809D01*
X42047619Y-27226190D01*
X42142857Y-27178571D01*
X42238095Y-27178571D01*
X42333333Y-27226190D01*
X42380952Y-27273809D01*
X42428571Y-27369047D01*
X42428571Y-27702380D01*
X42952380Y-26559523D02*
X42904761Y-26654761D01*
X42809523Y-26702380D01*
X41952380Y-26702380D01*
X42952380Y-25750000D02*
X42428571Y-25750000D01*
X42333333Y-25797619D01*
X42285714Y-25892857D01*
X42285714Y-26083333D01*
X42333333Y-26178571D01*
X42904761Y-25750000D02*
X42952380Y-25845238D01*
X42952380Y-26083333D01*
X42904761Y-26178571D01*
X42809523Y-26226190D01*
X42714285Y-26226190D01*
X42619047Y-26178571D01*
X42571428Y-26083333D01*
X42571428Y-25845238D01*
X42523809Y-25750000D01*
X42904761Y-24845238D02*
X42952380Y-24940476D01*
X42952380Y-25130952D01*
X42904761Y-25226190D01*
X42857142Y-25273809D01*
X42761904Y-25321428D01*
X42476190Y-25321428D01*
X42380952Y-25273809D01*
X42333333Y-25226190D01*
X42285714Y-25130952D01*
X42285714Y-24940476D01*
X42333333Y-24845238D01*
X42952380Y-24416666D02*
X41952380Y-24416666D01*
X42571428Y-24321428D02*
X42952380Y-24035714D01*
X42285714Y-24035714D02*
X42666666Y-24416666D01*
D11*
%TO.C,PS1*%
X40693000Y2832000D02*
X62693000Y2832000D01*
X39193000Y165000D02*
X64193000Y165000D01*
X64266000Y-19393000D02*
X64266000Y165000D01*
X39193000Y-19393000D02*
X64266000Y-19393000D01*
X39193000Y165000D02*
X39193000Y-19393000D01*
X40693000Y2832000D02*
X40693000Y165000D01*
X62693000Y2832000D02*
X62693000Y165000D01*
%TO.C,MH4*%
D10*
X17716666Y-40252380D02*
X17716666Y-39252380D01*
X18050000Y-39966666D01*
X18383333Y-39252380D01*
X18383333Y-40252380D01*
X18859523Y-40252380D02*
X18859523Y-39252380D01*
X18859523Y-39728571D02*
X19430952Y-39728571D01*
X19430952Y-40252380D02*
X19430952Y-39252380D01*
X20335714Y-39585714D02*
X20335714Y-40252380D01*
X20097619Y-39204761D02*
X19859523Y-39919047D01*
X20478571Y-39919047D01*
%TO.C,MH1*%
X17716666Y-1252380D02*
X17716666Y-252380D01*
X18050000Y-966666D01*
X18383333Y-252380D01*
X18383333Y-1252380D01*
X18859523Y-1252380D02*
X18859523Y-252380D01*
X18859523Y-728571D02*
X19430952Y-728571D01*
X19430952Y-1252380D02*
X19430952Y-252380D01*
X20430952Y-1252380D02*
X19859523Y-1252380D01*
X20145238Y-1252380D02*
X20145238Y-252380D01*
X20050000Y-395238D01*
X19954761Y-490476D01*
X19859523Y-538095D01*
%TO.C,J1*%
X42166666Y-34552380D02*
X42166666Y-35266666D01*
X42119047Y-35409523D01*
X42023809Y-35504761D01*
X41880952Y-35552380D01*
X41785714Y-35552380D01*
X43166666Y-35552380D02*
X42595238Y-35552380D01*
X42880952Y-35552380D02*
X42880952Y-34552380D01*
X42785714Y-34695238D01*
X42690476Y-34790476D01*
X42595238Y-34838095D01*
%TO.C,PS1*%
X46835833Y-15559380D02*
X46835833Y-14559380D01*
X47216785Y-14559380D01*
X47312023Y-14607000D01*
X47359642Y-14654619D01*
X47407261Y-14749857D01*
X47407261Y-14892714D01*
X47359642Y-14987952D01*
X47312023Y-15035571D01*
X47216785Y-15083190D01*
X46835833Y-15083190D01*
X47788214Y-15511761D02*
X47931071Y-15559380D01*
X48169166Y-15559380D01*
X48264404Y-15511761D01*
X48312023Y-15464142D01*
X48359642Y-15368904D01*
X48359642Y-15273666D01*
X48312023Y-15178428D01*
X48264404Y-15130809D01*
X48169166Y-15083190D01*
X47978690Y-15035571D01*
X47883452Y-14987952D01*
X47835833Y-14940333D01*
X47788214Y-14845095D01*
X47788214Y-14749857D01*
X47835833Y-14654619D01*
X47883452Y-14607000D01*
X47978690Y-14559380D01*
X48216785Y-14559380D01*
X48359642Y-14607000D01*
X49312023Y-15559380D02*
X48740595Y-15559380D01*
X49026309Y-15559380D02*
X49026309Y-14559380D01*
X48931071Y-14702238D01*
X48835833Y-14797476D01*
X48740595Y-14845095D01*
%TD*%
M02*
