%TF.GenerationSoftware,KiCad,Pcbnew,(5.1.10)-1*%
%TF.CreationDate,2022-11-15T17:45:26-07:00*%
%TF.ProjectId,Stepper_to_XLR4,53746570-7065-4725-9f74-6f5f584c5234,rev?*%
%TF.SameCoordinates,Original*%
%TF.FileFunction,Copper,L2,Bot*%
%TF.FilePolarity,Positive*%
%FSLAX46Y46*%
G04 Gerber Fmt 4.6, Leading zero omitted, Abs format (unit mm)*
G04 Created by KiCad (PCBNEW (5.1.10)-1) date 2022-11-15 17:45:26*
%MOMM*%
%LPD*%
G01*
G04 APERTURE LIST*
%TA.AperFunction,WasherPad*%
%ADD10C,5.000000*%
%TD*%
%TA.AperFunction,ComponentPad*%
%ADD11C,2.000000*%
%TD*%
%TA.AperFunction,ComponentPad*%
%ADD12C,2.500000*%
%TD*%
%TA.AperFunction,Conductor*%
%ADD13C,0.254000*%
%TD*%
%TA.AperFunction,Conductor*%
%ADD14C,0.100000*%
%TD*%
G04 APERTURE END LIST*
D10*
%TO.P,MH4,*%
%TO.N,*%
X19050000Y-44000000D03*
%TD*%
%TO.P,MH1,*%
%TO.N,*%
X19050000Y-5000000D03*
%TD*%
D11*
%TO.P,J1,4*%
%TO.N,Net-(J1-Pad4)*%
X60500000Y-41000000D03*
%TO.P,J1,3*%
%TO.N,Net-(J1-Pad3)*%
X54500000Y-41000000D03*
%TO.P,J1,2*%
%TO.N,Net-(J1-Pad2)*%
X48500000Y-41000000D03*
%TO.P,J1,1*%
%TO.N,Net-(J1-Pad1)*%
X42500000Y-41000000D03*
%TD*%
%TO.P,PS1,5*%
%TO.N,GND*%
X43570000Y-6815000D03*
%TO.P,PS1,4*%
%TO.N,Net-(J1-Pad4)*%
X55630000Y-16985000D03*
D12*
%TO.P,PS1,3*%
%TO.N,Net-(J1-Pad3)*%
X55630000Y-13170000D03*
%TO.P,PS1,2*%
%TO.N,Net-(J1-Pad2)*%
X48010000Y-13170000D03*
D11*
%TO.P,PS1,1*%
%TO.N,Net-(J1-Pad1)*%
X48010000Y-16985000D03*
%TD*%
D13*
%TO.N,GND*%
X71840000Y-50140000D02*
X660000Y-50140000D01*
X660000Y-43691229D01*
X15915000Y-43691229D01*
X15915000Y-44308771D01*
X16035476Y-44914446D01*
X16271799Y-45484979D01*
X16614886Y-45998446D01*
X17051554Y-46435114D01*
X17565021Y-46778201D01*
X18135554Y-47014524D01*
X18741229Y-47135000D01*
X19358771Y-47135000D01*
X19964446Y-47014524D01*
X20534979Y-46778201D01*
X21048446Y-46435114D01*
X21485114Y-45998446D01*
X21828201Y-45484979D01*
X22064524Y-44914446D01*
X22185000Y-44308771D01*
X22185000Y-43691229D01*
X22064524Y-43085554D01*
X21828201Y-42515021D01*
X21485114Y-42001554D01*
X21048446Y-41564886D01*
X20534979Y-41221799D01*
X19964446Y-40985476D01*
X19358771Y-40865000D01*
X18741229Y-40865000D01*
X18135554Y-40985476D01*
X17565021Y-41221799D01*
X17051554Y-41564886D01*
X16614886Y-42001554D01*
X16271799Y-42515021D01*
X16035476Y-43085554D01*
X15915000Y-43691229D01*
X660000Y-43691229D01*
X660000Y-40838967D01*
X40865000Y-40838967D01*
X40865000Y-41161033D01*
X40927832Y-41476912D01*
X41051082Y-41774463D01*
X41230013Y-42042252D01*
X41457748Y-42269987D01*
X41725537Y-42448918D01*
X42023088Y-42572168D01*
X42338967Y-42635000D01*
X42661033Y-42635000D01*
X42976912Y-42572168D01*
X43274463Y-42448918D01*
X43542252Y-42269987D01*
X43769987Y-42042252D01*
X43948918Y-41774463D01*
X44072168Y-41476912D01*
X44135000Y-41161033D01*
X44135000Y-40838967D01*
X46865000Y-40838967D01*
X46865000Y-41161033D01*
X46927832Y-41476912D01*
X47051082Y-41774463D01*
X47230013Y-42042252D01*
X47457748Y-42269987D01*
X47725537Y-42448918D01*
X48023088Y-42572168D01*
X48338967Y-42635000D01*
X48661033Y-42635000D01*
X48976912Y-42572168D01*
X49274463Y-42448918D01*
X49542252Y-42269987D01*
X49769987Y-42042252D01*
X49948918Y-41774463D01*
X50072168Y-41476912D01*
X50135000Y-41161033D01*
X50135000Y-40838967D01*
X52865000Y-40838967D01*
X52865000Y-41161033D01*
X52927832Y-41476912D01*
X53051082Y-41774463D01*
X53230013Y-42042252D01*
X53457748Y-42269987D01*
X53725537Y-42448918D01*
X54023088Y-42572168D01*
X54338967Y-42635000D01*
X54661033Y-42635000D01*
X54976912Y-42572168D01*
X55274463Y-42448918D01*
X55542252Y-42269987D01*
X55769987Y-42042252D01*
X55948918Y-41774463D01*
X56072168Y-41476912D01*
X56135000Y-41161033D01*
X56135000Y-40838967D01*
X58865000Y-40838967D01*
X58865000Y-41161033D01*
X58927832Y-41476912D01*
X59051082Y-41774463D01*
X59230013Y-42042252D01*
X59457748Y-42269987D01*
X59725537Y-42448918D01*
X60023088Y-42572168D01*
X60338967Y-42635000D01*
X60661033Y-42635000D01*
X60976912Y-42572168D01*
X61274463Y-42448918D01*
X61542252Y-42269987D01*
X61769987Y-42042252D01*
X61948918Y-41774463D01*
X62072168Y-41476912D01*
X62135000Y-41161033D01*
X62135000Y-40838967D01*
X62072168Y-40523088D01*
X61948918Y-40225537D01*
X61769987Y-39957748D01*
X61542252Y-39730013D01*
X61274463Y-39551082D01*
X60976912Y-39427832D01*
X60661033Y-39365000D01*
X60338967Y-39365000D01*
X60023088Y-39427832D01*
X59725537Y-39551082D01*
X59457748Y-39730013D01*
X59230013Y-39957748D01*
X59051082Y-40225537D01*
X58927832Y-40523088D01*
X58865000Y-40838967D01*
X56135000Y-40838967D01*
X56072168Y-40523088D01*
X55948918Y-40225537D01*
X55769987Y-39957748D01*
X55542252Y-39730013D01*
X55274463Y-39551082D01*
X54976912Y-39427832D01*
X54661033Y-39365000D01*
X54338967Y-39365000D01*
X54023088Y-39427832D01*
X53725537Y-39551082D01*
X53457748Y-39730013D01*
X53230013Y-39957748D01*
X53051082Y-40225537D01*
X52927832Y-40523088D01*
X52865000Y-40838967D01*
X50135000Y-40838967D01*
X50072168Y-40523088D01*
X49948918Y-40225537D01*
X49769987Y-39957748D01*
X49542252Y-39730013D01*
X49274463Y-39551082D01*
X48976912Y-39427832D01*
X48661033Y-39365000D01*
X48338967Y-39365000D01*
X48023088Y-39427832D01*
X47725537Y-39551082D01*
X47457748Y-39730013D01*
X47230013Y-39957748D01*
X47051082Y-40225537D01*
X46927832Y-40523088D01*
X46865000Y-40838967D01*
X44135000Y-40838967D01*
X44072168Y-40523088D01*
X43948918Y-40225537D01*
X43769987Y-39957748D01*
X43542252Y-39730013D01*
X43274463Y-39551082D01*
X42976912Y-39427832D01*
X42661033Y-39365000D01*
X42338967Y-39365000D01*
X42023088Y-39427832D01*
X41725537Y-39551082D01*
X41457748Y-39730013D01*
X41230013Y-39957748D01*
X41051082Y-40225537D01*
X40927832Y-40523088D01*
X40865000Y-40838967D01*
X660000Y-40838967D01*
X660000Y-16823967D01*
X46375000Y-16823967D01*
X46375000Y-17146033D01*
X46437832Y-17461912D01*
X46561082Y-17759463D01*
X46740013Y-18027252D01*
X46967748Y-18254987D01*
X47235537Y-18433918D01*
X47533088Y-18557168D01*
X47848967Y-18620000D01*
X48171033Y-18620000D01*
X48486912Y-18557168D01*
X48784463Y-18433918D01*
X49052252Y-18254987D01*
X49279987Y-18027252D01*
X49458918Y-17759463D01*
X49582168Y-17461912D01*
X49645000Y-17146033D01*
X49645000Y-16823967D01*
X53995000Y-16823967D01*
X53995000Y-17146033D01*
X54057832Y-17461912D01*
X54181082Y-17759463D01*
X54360013Y-18027252D01*
X54587748Y-18254987D01*
X54855537Y-18433918D01*
X55153088Y-18557168D01*
X55468967Y-18620000D01*
X55791033Y-18620000D01*
X56106912Y-18557168D01*
X56404463Y-18433918D01*
X56672252Y-18254987D01*
X56899987Y-18027252D01*
X57078918Y-17759463D01*
X57202168Y-17461912D01*
X57265000Y-17146033D01*
X57265000Y-16823967D01*
X57202168Y-16508088D01*
X57078918Y-16210537D01*
X56899987Y-15942748D01*
X56672252Y-15715013D01*
X56404463Y-15536082D01*
X56106912Y-15412832D01*
X55791033Y-15350000D01*
X55468967Y-15350000D01*
X55153088Y-15412832D01*
X54855537Y-15536082D01*
X54587748Y-15715013D01*
X54360013Y-15942748D01*
X54181082Y-16210537D01*
X54057832Y-16508088D01*
X53995000Y-16823967D01*
X49645000Y-16823967D01*
X49582168Y-16508088D01*
X49458918Y-16210537D01*
X49279987Y-15942748D01*
X49052252Y-15715013D01*
X48784463Y-15536082D01*
X48486912Y-15412832D01*
X48171033Y-15350000D01*
X47848967Y-15350000D01*
X47533088Y-15412832D01*
X47235537Y-15536082D01*
X46967748Y-15715013D01*
X46740013Y-15942748D01*
X46561082Y-16210537D01*
X46437832Y-16508088D01*
X46375000Y-16823967D01*
X660000Y-16823967D01*
X660000Y-12984344D01*
X46125000Y-12984344D01*
X46125000Y-13355656D01*
X46197439Y-13719834D01*
X46339534Y-14062882D01*
X46545825Y-14371618D01*
X46808382Y-14634175D01*
X47117118Y-14840466D01*
X47460166Y-14982561D01*
X47824344Y-15055000D01*
X48195656Y-15055000D01*
X48559834Y-14982561D01*
X48902882Y-14840466D01*
X49211618Y-14634175D01*
X49474175Y-14371618D01*
X49680466Y-14062882D01*
X49822561Y-13719834D01*
X49895000Y-13355656D01*
X49895000Y-12984344D01*
X53745000Y-12984344D01*
X53745000Y-13355656D01*
X53817439Y-13719834D01*
X53959534Y-14062882D01*
X54165825Y-14371618D01*
X54428382Y-14634175D01*
X54737118Y-14840466D01*
X55080166Y-14982561D01*
X55444344Y-15055000D01*
X55815656Y-15055000D01*
X56179834Y-14982561D01*
X56522882Y-14840466D01*
X56831618Y-14634175D01*
X57094175Y-14371618D01*
X57300466Y-14062882D01*
X57442561Y-13719834D01*
X57515000Y-13355656D01*
X57515000Y-12984344D01*
X57442561Y-12620166D01*
X57300466Y-12277118D01*
X57094175Y-11968382D01*
X56831618Y-11705825D01*
X56522882Y-11499534D01*
X56179834Y-11357439D01*
X55815656Y-11285000D01*
X55444344Y-11285000D01*
X55080166Y-11357439D01*
X54737118Y-11499534D01*
X54428382Y-11705825D01*
X54165825Y-11968382D01*
X53959534Y-12277118D01*
X53817439Y-12620166D01*
X53745000Y-12984344D01*
X49895000Y-12984344D01*
X49822561Y-12620166D01*
X49680466Y-12277118D01*
X49474175Y-11968382D01*
X49211618Y-11705825D01*
X48902882Y-11499534D01*
X48559834Y-11357439D01*
X48195656Y-11285000D01*
X47824344Y-11285000D01*
X47460166Y-11357439D01*
X47117118Y-11499534D01*
X46808382Y-11705825D01*
X46545825Y-11968382D01*
X46339534Y-12277118D01*
X46197439Y-12620166D01*
X46125000Y-12984344D01*
X660000Y-12984344D01*
X660000Y-8573816D01*
X54095000Y-8573816D01*
X54095000Y-8876184D01*
X54153989Y-9172743D01*
X54269701Y-9452095D01*
X54437688Y-9703505D01*
X54651495Y-9917312D01*
X54902905Y-10085299D01*
X55182257Y-10201011D01*
X55478816Y-10260000D01*
X55781184Y-10260000D01*
X56077743Y-10201011D01*
X56357095Y-10085299D01*
X56608505Y-9917312D01*
X56822312Y-9703505D01*
X56990299Y-9452095D01*
X57106011Y-9172743D01*
X57165000Y-8876184D01*
X57165000Y-8573816D01*
X57106011Y-8277257D01*
X56990299Y-7997905D01*
X56822312Y-7746495D01*
X56608505Y-7532688D01*
X56357095Y-7364701D01*
X56077743Y-7248989D01*
X55781184Y-7190000D01*
X55478816Y-7190000D01*
X55182257Y-7248989D01*
X54902905Y-7364701D01*
X54651495Y-7532688D01*
X54437688Y-7746495D01*
X54269701Y-7997905D01*
X54153989Y-8277257D01*
X54095000Y-8573816D01*
X660000Y-8573816D01*
X660000Y-4691229D01*
X15915000Y-4691229D01*
X15915000Y-5308771D01*
X16035476Y-5914446D01*
X16271799Y-6484979D01*
X16614886Y-6998446D01*
X17051554Y-7435114D01*
X17565021Y-7778201D01*
X18135554Y-8014524D01*
X18741229Y-8135000D01*
X19358771Y-8135000D01*
X19964446Y-8014524D01*
X20119223Y-7950413D01*
X42614192Y-7950413D01*
X42709956Y-8214814D01*
X42999571Y-8355704D01*
X43311108Y-8437384D01*
X43632595Y-8456718D01*
X43951675Y-8412961D01*
X44256088Y-8307795D01*
X44430044Y-8214814D01*
X44525808Y-7950413D01*
X43570000Y-6994605D01*
X42614192Y-7950413D01*
X20119223Y-7950413D01*
X20534979Y-7778201D01*
X21048446Y-7435114D01*
X21485114Y-6998446D01*
X21565863Y-6877595D01*
X41928282Y-6877595D01*
X41972039Y-7196675D01*
X42077205Y-7501088D01*
X42170186Y-7675044D01*
X42434587Y-7770808D01*
X43390395Y-6815000D01*
X43749605Y-6815000D01*
X44705413Y-7770808D01*
X44969814Y-7675044D01*
X45110704Y-7385429D01*
X45192384Y-7073892D01*
X45211718Y-6752405D01*
X45167961Y-6433325D01*
X45062795Y-6128912D01*
X44969814Y-5954956D01*
X44705413Y-5859192D01*
X43749605Y-6815000D01*
X43390395Y-6815000D01*
X42434587Y-5859192D01*
X42170186Y-5954956D01*
X42029296Y-6244571D01*
X41947616Y-6556108D01*
X41928282Y-6877595D01*
X21565863Y-6877595D01*
X21828201Y-6484979D01*
X22064524Y-5914446D01*
X22111240Y-5679587D01*
X42614192Y-5679587D01*
X43570000Y-6635395D01*
X44525808Y-5679587D01*
X44430044Y-5415186D01*
X44140429Y-5274296D01*
X43828892Y-5192616D01*
X43507405Y-5173282D01*
X43188325Y-5217039D01*
X42883912Y-5322205D01*
X42709956Y-5415186D01*
X42614192Y-5679587D01*
X22111240Y-5679587D01*
X22185000Y-5308771D01*
X22185000Y-4691229D01*
X22064524Y-4085554D01*
X21828201Y-3515021D01*
X21814033Y-3493816D01*
X46475000Y-3493816D01*
X46475000Y-3796184D01*
X46533989Y-4092743D01*
X46649701Y-4372095D01*
X46817688Y-4623505D01*
X47031495Y-4837312D01*
X47282905Y-5005299D01*
X47562257Y-5121011D01*
X47858816Y-5180000D01*
X48161184Y-5180000D01*
X48457743Y-5121011D01*
X48737095Y-5005299D01*
X48988505Y-4837312D01*
X49202312Y-4623505D01*
X49370299Y-4372095D01*
X49486011Y-4092743D01*
X49545000Y-3796184D01*
X49545000Y-3493816D01*
X49486011Y-3197257D01*
X49370299Y-2917905D01*
X49202312Y-2666495D01*
X48988505Y-2452688D01*
X48737095Y-2284701D01*
X48457743Y-2168989D01*
X48161184Y-2110000D01*
X47858816Y-2110000D01*
X47562257Y-2168989D01*
X47282905Y-2284701D01*
X47031495Y-2452688D01*
X46817688Y-2666495D01*
X46649701Y-2917905D01*
X46533989Y-3197257D01*
X46475000Y-3493816D01*
X21814033Y-3493816D01*
X21485114Y-3001554D01*
X21048446Y-2564886D01*
X20534979Y-2221799D01*
X19964446Y-1985476D01*
X19358771Y-1865000D01*
X18741229Y-1865000D01*
X18135554Y-1985476D01*
X17565021Y-2221799D01*
X17051554Y-2564886D01*
X16614886Y-3001554D01*
X16271799Y-3515021D01*
X16035476Y-4085554D01*
X15915000Y-4691229D01*
X660000Y-4691229D01*
X660000Y-760000D01*
X38137333Y-760000D01*
X38248986Y-749003D01*
X38392247Y-705546D01*
X38477456Y-660000D01*
X71840001Y-660000D01*
X71840000Y-50140000D01*
%TA.AperFunction,Conductor*%
D14*
G36*
X71840000Y-50140000D02*
G01*
X660000Y-50140000D01*
X660000Y-43691229D01*
X15915000Y-43691229D01*
X15915000Y-44308771D01*
X16035476Y-44914446D01*
X16271799Y-45484979D01*
X16614886Y-45998446D01*
X17051554Y-46435114D01*
X17565021Y-46778201D01*
X18135554Y-47014524D01*
X18741229Y-47135000D01*
X19358771Y-47135000D01*
X19964446Y-47014524D01*
X20534979Y-46778201D01*
X21048446Y-46435114D01*
X21485114Y-45998446D01*
X21828201Y-45484979D01*
X22064524Y-44914446D01*
X22185000Y-44308771D01*
X22185000Y-43691229D01*
X22064524Y-43085554D01*
X21828201Y-42515021D01*
X21485114Y-42001554D01*
X21048446Y-41564886D01*
X20534979Y-41221799D01*
X19964446Y-40985476D01*
X19358771Y-40865000D01*
X18741229Y-40865000D01*
X18135554Y-40985476D01*
X17565021Y-41221799D01*
X17051554Y-41564886D01*
X16614886Y-42001554D01*
X16271799Y-42515021D01*
X16035476Y-43085554D01*
X15915000Y-43691229D01*
X660000Y-43691229D01*
X660000Y-40838967D01*
X40865000Y-40838967D01*
X40865000Y-41161033D01*
X40927832Y-41476912D01*
X41051082Y-41774463D01*
X41230013Y-42042252D01*
X41457748Y-42269987D01*
X41725537Y-42448918D01*
X42023088Y-42572168D01*
X42338967Y-42635000D01*
X42661033Y-42635000D01*
X42976912Y-42572168D01*
X43274463Y-42448918D01*
X43542252Y-42269987D01*
X43769987Y-42042252D01*
X43948918Y-41774463D01*
X44072168Y-41476912D01*
X44135000Y-41161033D01*
X44135000Y-40838967D01*
X46865000Y-40838967D01*
X46865000Y-41161033D01*
X46927832Y-41476912D01*
X47051082Y-41774463D01*
X47230013Y-42042252D01*
X47457748Y-42269987D01*
X47725537Y-42448918D01*
X48023088Y-42572168D01*
X48338967Y-42635000D01*
X48661033Y-42635000D01*
X48976912Y-42572168D01*
X49274463Y-42448918D01*
X49542252Y-42269987D01*
X49769987Y-42042252D01*
X49948918Y-41774463D01*
X50072168Y-41476912D01*
X50135000Y-41161033D01*
X50135000Y-40838967D01*
X52865000Y-40838967D01*
X52865000Y-41161033D01*
X52927832Y-41476912D01*
X53051082Y-41774463D01*
X53230013Y-42042252D01*
X53457748Y-42269987D01*
X53725537Y-42448918D01*
X54023088Y-42572168D01*
X54338967Y-42635000D01*
X54661033Y-42635000D01*
X54976912Y-42572168D01*
X55274463Y-42448918D01*
X55542252Y-42269987D01*
X55769987Y-42042252D01*
X55948918Y-41774463D01*
X56072168Y-41476912D01*
X56135000Y-41161033D01*
X56135000Y-40838967D01*
X58865000Y-40838967D01*
X58865000Y-41161033D01*
X58927832Y-41476912D01*
X59051082Y-41774463D01*
X59230013Y-42042252D01*
X59457748Y-42269987D01*
X59725537Y-42448918D01*
X60023088Y-42572168D01*
X60338967Y-42635000D01*
X60661033Y-42635000D01*
X60976912Y-42572168D01*
X61274463Y-42448918D01*
X61542252Y-42269987D01*
X61769987Y-42042252D01*
X61948918Y-41774463D01*
X62072168Y-41476912D01*
X62135000Y-41161033D01*
X62135000Y-40838967D01*
X62072168Y-40523088D01*
X61948918Y-40225537D01*
X61769987Y-39957748D01*
X61542252Y-39730013D01*
X61274463Y-39551082D01*
X60976912Y-39427832D01*
X60661033Y-39365000D01*
X60338967Y-39365000D01*
X60023088Y-39427832D01*
X59725537Y-39551082D01*
X59457748Y-39730013D01*
X59230013Y-39957748D01*
X59051082Y-40225537D01*
X58927832Y-40523088D01*
X58865000Y-40838967D01*
X56135000Y-40838967D01*
X56072168Y-40523088D01*
X55948918Y-40225537D01*
X55769987Y-39957748D01*
X55542252Y-39730013D01*
X55274463Y-39551082D01*
X54976912Y-39427832D01*
X54661033Y-39365000D01*
X54338967Y-39365000D01*
X54023088Y-39427832D01*
X53725537Y-39551082D01*
X53457748Y-39730013D01*
X53230013Y-39957748D01*
X53051082Y-40225537D01*
X52927832Y-40523088D01*
X52865000Y-40838967D01*
X50135000Y-40838967D01*
X50072168Y-40523088D01*
X49948918Y-40225537D01*
X49769987Y-39957748D01*
X49542252Y-39730013D01*
X49274463Y-39551082D01*
X48976912Y-39427832D01*
X48661033Y-39365000D01*
X48338967Y-39365000D01*
X48023088Y-39427832D01*
X47725537Y-39551082D01*
X47457748Y-39730013D01*
X47230013Y-39957748D01*
X47051082Y-40225537D01*
X46927832Y-40523088D01*
X46865000Y-40838967D01*
X44135000Y-40838967D01*
X44072168Y-40523088D01*
X43948918Y-40225537D01*
X43769987Y-39957748D01*
X43542252Y-39730013D01*
X43274463Y-39551082D01*
X42976912Y-39427832D01*
X42661033Y-39365000D01*
X42338967Y-39365000D01*
X42023088Y-39427832D01*
X41725537Y-39551082D01*
X41457748Y-39730013D01*
X41230013Y-39957748D01*
X41051082Y-40225537D01*
X40927832Y-40523088D01*
X40865000Y-40838967D01*
X660000Y-40838967D01*
X660000Y-16823967D01*
X46375000Y-16823967D01*
X46375000Y-17146033D01*
X46437832Y-17461912D01*
X46561082Y-17759463D01*
X46740013Y-18027252D01*
X46967748Y-18254987D01*
X47235537Y-18433918D01*
X47533088Y-18557168D01*
X47848967Y-18620000D01*
X48171033Y-18620000D01*
X48486912Y-18557168D01*
X48784463Y-18433918D01*
X49052252Y-18254987D01*
X49279987Y-18027252D01*
X49458918Y-17759463D01*
X49582168Y-17461912D01*
X49645000Y-17146033D01*
X49645000Y-16823967D01*
X53995000Y-16823967D01*
X53995000Y-17146033D01*
X54057832Y-17461912D01*
X54181082Y-17759463D01*
X54360013Y-18027252D01*
X54587748Y-18254987D01*
X54855537Y-18433918D01*
X55153088Y-18557168D01*
X55468967Y-18620000D01*
X55791033Y-18620000D01*
X56106912Y-18557168D01*
X56404463Y-18433918D01*
X56672252Y-18254987D01*
X56899987Y-18027252D01*
X57078918Y-17759463D01*
X57202168Y-17461912D01*
X57265000Y-17146033D01*
X57265000Y-16823967D01*
X57202168Y-16508088D01*
X57078918Y-16210537D01*
X56899987Y-15942748D01*
X56672252Y-15715013D01*
X56404463Y-15536082D01*
X56106912Y-15412832D01*
X55791033Y-15350000D01*
X55468967Y-15350000D01*
X55153088Y-15412832D01*
X54855537Y-15536082D01*
X54587748Y-15715013D01*
X54360013Y-15942748D01*
X54181082Y-16210537D01*
X54057832Y-16508088D01*
X53995000Y-16823967D01*
X49645000Y-16823967D01*
X49582168Y-16508088D01*
X49458918Y-16210537D01*
X49279987Y-15942748D01*
X49052252Y-15715013D01*
X48784463Y-15536082D01*
X48486912Y-15412832D01*
X48171033Y-15350000D01*
X47848967Y-15350000D01*
X47533088Y-15412832D01*
X47235537Y-15536082D01*
X46967748Y-15715013D01*
X46740013Y-15942748D01*
X46561082Y-16210537D01*
X46437832Y-16508088D01*
X46375000Y-16823967D01*
X660000Y-16823967D01*
X660000Y-12984344D01*
X46125000Y-12984344D01*
X46125000Y-13355656D01*
X46197439Y-13719834D01*
X46339534Y-14062882D01*
X46545825Y-14371618D01*
X46808382Y-14634175D01*
X47117118Y-14840466D01*
X47460166Y-14982561D01*
X47824344Y-15055000D01*
X48195656Y-15055000D01*
X48559834Y-14982561D01*
X48902882Y-14840466D01*
X49211618Y-14634175D01*
X49474175Y-14371618D01*
X49680466Y-14062882D01*
X49822561Y-13719834D01*
X49895000Y-13355656D01*
X49895000Y-12984344D01*
X53745000Y-12984344D01*
X53745000Y-13355656D01*
X53817439Y-13719834D01*
X53959534Y-14062882D01*
X54165825Y-14371618D01*
X54428382Y-14634175D01*
X54737118Y-14840466D01*
X55080166Y-14982561D01*
X55444344Y-15055000D01*
X55815656Y-15055000D01*
X56179834Y-14982561D01*
X56522882Y-14840466D01*
X56831618Y-14634175D01*
X57094175Y-14371618D01*
X57300466Y-14062882D01*
X57442561Y-13719834D01*
X57515000Y-13355656D01*
X57515000Y-12984344D01*
X57442561Y-12620166D01*
X57300466Y-12277118D01*
X57094175Y-11968382D01*
X56831618Y-11705825D01*
X56522882Y-11499534D01*
X56179834Y-11357439D01*
X55815656Y-11285000D01*
X55444344Y-11285000D01*
X55080166Y-11357439D01*
X54737118Y-11499534D01*
X54428382Y-11705825D01*
X54165825Y-11968382D01*
X53959534Y-12277118D01*
X53817439Y-12620166D01*
X53745000Y-12984344D01*
X49895000Y-12984344D01*
X49822561Y-12620166D01*
X49680466Y-12277118D01*
X49474175Y-11968382D01*
X49211618Y-11705825D01*
X48902882Y-11499534D01*
X48559834Y-11357439D01*
X48195656Y-11285000D01*
X47824344Y-11285000D01*
X47460166Y-11357439D01*
X47117118Y-11499534D01*
X46808382Y-11705825D01*
X46545825Y-11968382D01*
X46339534Y-12277118D01*
X46197439Y-12620166D01*
X46125000Y-12984344D01*
X660000Y-12984344D01*
X660000Y-8573816D01*
X54095000Y-8573816D01*
X54095000Y-8876184D01*
X54153989Y-9172743D01*
X54269701Y-9452095D01*
X54437688Y-9703505D01*
X54651495Y-9917312D01*
X54902905Y-10085299D01*
X55182257Y-10201011D01*
X55478816Y-10260000D01*
X55781184Y-10260000D01*
X56077743Y-10201011D01*
X56357095Y-10085299D01*
X56608505Y-9917312D01*
X56822312Y-9703505D01*
X56990299Y-9452095D01*
X57106011Y-9172743D01*
X57165000Y-8876184D01*
X57165000Y-8573816D01*
X57106011Y-8277257D01*
X56990299Y-7997905D01*
X56822312Y-7746495D01*
X56608505Y-7532688D01*
X56357095Y-7364701D01*
X56077743Y-7248989D01*
X55781184Y-7190000D01*
X55478816Y-7190000D01*
X55182257Y-7248989D01*
X54902905Y-7364701D01*
X54651495Y-7532688D01*
X54437688Y-7746495D01*
X54269701Y-7997905D01*
X54153989Y-8277257D01*
X54095000Y-8573816D01*
X660000Y-8573816D01*
X660000Y-4691229D01*
X15915000Y-4691229D01*
X15915000Y-5308771D01*
X16035476Y-5914446D01*
X16271799Y-6484979D01*
X16614886Y-6998446D01*
X17051554Y-7435114D01*
X17565021Y-7778201D01*
X18135554Y-8014524D01*
X18741229Y-8135000D01*
X19358771Y-8135000D01*
X19964446Y-8014524D01*
X20119223Y-7950413D01*
X42614192Y-7950413D01*
X42709956Y-8214814D01*
X42999571Y-8355704D01*
X43311108Y-8437384D01*
X43632595Y-8456718D01*
X43951675Y-8412961D01*
X44256088Y-8307795D01*
X44430044Y-8214814D01*
X44525808Y-7950413D01*
X43570000Y-6994605D01*
X42614192Y-7950413D01*
X20119223Y-7950413D01*
X20534979Y-7778201D01*
X21048446Y-7435114D01*
X21485114Y-6998446D01*
X21565863Y-6877595D01*
X41928282Y-6877595D01*
X41972039Y-7196675D01*
X42077205Y-7501088D01*
X42170186Y-7675044D01*
X42434587Y-7770808D01*
X43390395Y-6815000D01*
X43749605Y-6815000D01*
X44705413Y-7770808D01*
X44969814Y-7675044D01*
X45110704Y-7385429D01*
X45192384Y-7073892D01*
X45211718Y-6752405D01*
X45167961Y-6433325D01*
X45062795Y-6128912D01*
X44969814Y-5954956D01*
X44705413Y-5859192D01*
X43749605Y-6815000D01*
X43390395Y-6815000D01*
X42434587Y-5859192D01*
X42170186Y-5954956D01*
X42029296Y-6244571D01*
X41947616Y-6556108D01*
X41928282Y-6877595D01*
X21565863Y-6877595D01*
X21828201Y-6484979D01*
X22064524Y-5914446D01*
X22111240Y-5679587D01*
X42614192Y-5679587D01*
X43570000Y-6635395D01*
X44525808Y-5679587D01*
X44430044Y-5415186D01*
X44140429Y-5274296D01*
X43828892Y-5192616D01*
X43507405Y-5173282D01*
X43188325Y-5217039D01*
X42883912Y-5322205D01*
X42709956Y-5415186D01*
X42614192Y-5679587D01*
X22111240Y-5679587D01*
X22185000Y-5308771D01*
X22185000Y-4691229D01*
X22064524Y-4085554D01*
X21828201Y-3515021D01*
X21814033Y-3493816D01*
X46475000Y-3493816D01*
X46475000Y-3796184D01*
X46533989Y-4092743D01*
X46649701Y-4372095D01*
X46817688Y-4623505D01*
X47031495Y-4837312D01*
X47282905Y-5005299D01*
X47562257Y-5121011D01*
X47858816Y-5180000D01*
X48161184Y-5180000D01*
X48457743Y-5121011D01*
X48737095Y-5005299D01*
X48988505Y-4837312D01*
X49202312Y-4623505D01*
X49370299Y-4372095D01*
X49486011Y-4092743D01*
X49545000Y-3796184D01*
X49545000Y-3493816D01*
X49486011Y-3197257D01*
X49370299Y-2917905D01*
X49202312Y-2666495D01*
X48988505Y-2452688D01*
X48737095Y-2284701D01*
X48457743Y-2168989D01*
X48161184Y-2110000D01*
X47858816Y-2110000D01*
X47562257Y-2168989D01*
X47282905Y-2284701D01*
X47031495Y-2452688D01*
X46817688Y-2666495D01*
X46649701Y-2917905D01*
X46533989Y-3197257D01*
X46475000Y-3493816D01*
X21814033Y-3493816D01*
X21485114Y-3001554D01*
X21048446Y-2564886D01*
X20534979Y-2221799D01*
X19964446Y-1985476D01*
X19358771Y-1865000D01*
X18741229Y-1865000D01*
X18135554Y-1985476D01*
X17565021Y-2221799D01*
X17051554Y-2564886D01*
X16614886Y-3001554D01*
X16271799Y-3515021D01*
X16035476Y-4085554D01*
X15915000Y-4691229D01*
X660000Y-4691229D01*
X660000Y-760000D01*
X38137333Y-760000D01*
X38248986Y-749003D01*
X38392247Y-705546D01*
X38477456Y-660000D01*
X71840001Y-660000D01*
X71840000Y-50140000D01*
G37*
%TD.AperFunction*%
%TD*%
M02*
