G04 #@! TF.GenerationSoftware,KiCad,Pcbnew,(5.1.10)-1*
G04 #@! TF.CreationDate,2022-11-18T11:00:14-07:00*
G04 #@! TF.ProjectId,Lift_02,4c696674-5f30-4322-9e6b-696361645f70,rev?*
G04 #@! TF.SameCoordinates,Original*
G04 #@! TF.FileFunction,Legend,Bot*
G04 #@! TF.FilePolarity,Positive*
%FSLAX46Y46*%
G04 Gerber Fmt 4.6, Leading zero omitted, Abs format (unit mm)*
G04 Created by KiCad (PCBNEW (5.1.10)-1) date 2022-11-18 11:00:14*
%MOMM*%
%LPD*%
G01*
G04 APERTURE LIST*
%ADD10C,0.150000*%
%ADD11C,2.500000*%
%ADD12C,2.400000*%
%ADD13C,2.000000*%
%ADD14R,1.200000X1.200000*%
%ADD15C,1.200000*%
%ADD16C,5.300000*%
%ADD17C,9.200000*%
%ADD18C,1.800000*%
%ADD19O,1.700000X1.700000*%
%ADD20R,1.700000X1.700000*%
%ADD21C,1.600000*%
%ADD22R,1.600000X1.600000*%
%ADD23O,2.400000X1.000000*%
%ADD24O,1.200000X3.800000*%
%ADD25O,1.200000X2.500000*%
G04 APERTURE END LIST*
D10*
X54033333Y-22702380D02*
X54509523Y-22702380D01*
X54509523Y-21702380D01*
X53700000Y-22702380D02*
X53700000Y-22035714D01*
X53700000Y-21702380D02*
X53747619Y-21750000D01*
X53700000Y-21797619D01*
X53652380Y-21750000D01*
X53700000Y-21702380D01*
X53700000Y-21797619D01*
X53366666Y-22035714D02*
X52985714Y-22035714D01*
X53223809Y-22702380D02*
X53223809Y-21845238D01*
X53176190Y-21750000D01*
X53080952Y-21702380D01*
X52985714Y-21702380D01*
X52795238Y-22035714D02*
X52414285Y-22035714D01*
X52652380Y-21702380D02*
X52652380Y-22559523D01*
X52604761Y-22654761D01*
X52509523Y-22702380D01*
X52414285Y-22702380D01*
X52319047Y-22797619D02*
X51557142Y-22797619D01*
X51128571Y-21702380D02*
X51033333Y-21702380D01*
X50938095Y-21750000D01*
X50890476Y-21797619D01*
X50842857Y-21892857D01*
X50795238Y-22083333D01*
X50795238Y-22321428D01*
X50842857Y-22511904D01*
X50890476Y-22607142D01*
X50938095Y-22654761D01*
X51033333Y-22702380D01*
X51128571Y-22702380D01*
X51223809Y-22654761D01*
X51271428Y-22607142D01*
X51319047Y-22511904D01*
X51366666Y-22321428D01*
X51366666Y-22083333D01*
X51319047Y-21892857D01*
X51271428Y-21797619D01*
X51223809Y-21750000D01*
X51128571Y-21702380D01*
X50461904Y-21702380D02*
X49842857Y-21702380D01*
X50176190Y-22083333D01*
X50033333Y-22083333D01*
X49938095Y-22130952D01*
X49890476Y-22178571D01*
X49842857Y-22273809D01*
X49842857Y-22511904D01*
X49890476Y-22607142D01*
X49938095Y-22654761D01*
X50033333Y-22702380D01*
X50319047Y-22702380D01*
X50414285Y-22654761D01*
X50461904Y-22607142D01*
X58104761Y-24352380D02*
X58438095Y-23876190D01*
X58676190Y-24352380D02*
X58676190Y-23352380D01*
X58295238Y-23352380D01*
X58200000Y-23400000D01*
X58152380Y-23447619D01*
X58104761Y-23542857D01*
X58104761Y-23685714D01*
X58152380Y-23780952D01*
X58200000Y-23828571D01*
X58295238Y-23876190D01*
X58676190Y-23876190D01*
X57771428Y-23685714D02*
X57533333Y-24352380D01*
X57295238Y-23685714D02*
X57533333Y-24352380D01*
X57628571Y-24590476D01*
X57676190Y-24638095D01*
X57771428Y-24685714D01*
X56485714Y-24352380D02*
X56485714Y-23828571D01*
X56533333Y-23733333D01*
X56628571Y-23685714D01*
X56819047Y-23685714D01*
X56914285Y-23733333D01*
X56485714Y-24304761D02*
X56580952Y-24352380D01*
X56819047Y-24352380D01*
X56914285Y-24304761D01*
X56961904Y-24209523D01*
X56961904Y-24114285D01*
X56914285Y-24019047D01*
X56819047Y-23971428D01*
X56580952Y-23971428D01*
X56485714Y-23923809D01*
X56009523Y-23685714D02*
X56009523Y-24352380D01*
X56009523Y-23780952D02*
X55961904Y-23733333D01*
X55866666Y-23685714D01*
X55723809Y-23685714D01*
X55628571Y-23733333D01*
X55580952Y-23828571D01*
X55580952Y-24352380D01*
X54342857Y-24352380D02*
X54342857Y-23352380D01*
X54009523Y-24066666D01*
X53676190Y-23352380D01*
X53676190Y-24352380D01*
X53057142Y-24352380D02*
X53152380Y-24304761D01*
X53200000Y-24257142D01*
X53247619Y-24161904D01*
X53247619Y-23876190D01*
X53200000Y-23780952D01*
X53152380Y-23733333D01*
X53057142Y-23685714D01*
X52914285Y-23685714D01*
X52819047Y-23733333D01*
X52771428Y-23780952D01*
X52723809Y-23876190D01*
X52723809Y-24161904D01*
X52771428Y-24257142D01*
X52819047Y-24304761D01*
X52914285Y-24352380D01*
X53057142Y-24352380D01*
X52295238Y-24352380D02*
X52295238Y-23685714D01*
X52295238Y-23876190D02*
X52247619Y-23780952D01*
X52200000Y-23733333D01*
X52104761Y-23685714D01*
X52009523Y-23685714D01*
X51247619Y-23685714D02*
X51247619Y-24495238D01*
X51295238Y-24590476D01*
X51342857Y-24638095D01*
X51438095Y-24685714D01*
X51580952Y-24685714D01*
X51676190Y-24638095D01*
X51247619Y-24304761D02*
X51342857Y-24352380D01*
X51533333Y-24352380D01*
X51628571Y-24304761D01*
X51676190Y-24257142D01*
X51723809Y-24161904D01*
X51723809Y-23876190D01*
X51676190Y-23780952D01*
X51628571Y-23733333D01*
X51533333Y-23685714D01*
X51342857Y-23685714D01*
X51247619Y-23733333D01*
X50390476Y-24304761D02*
X50485714Y-24352380D01*
X50676190Y-24352380D01*
X50771428Y-24304761D01*
X50819047Y-24209523D01*
X50819047Y-23828571D01*
X50771428Y-23733333D01*
X50676190Y-23685714D01*
X50485714Y-23685714D01*
X50390476Y-23733333D01*
X50342857Y-23828571D01*
X50342857Y-23923809D01*
X50819047Y-24019047D01*
X49914285Y-23685714D02*
X49914285Y-24352380D01*
X49914285Y-23780952D02*
X49866666Y-23733333D01*
X49771428Y-23685714D01*
X49628571Y-23685714D01*
X49533333Y-23733333D01*
X49485714Y-23828571D01*
X49485714Y-24352380D01*
X49057142Y-24304761D02*
X48961904Y-24352380D01*
X48771428Y-24352380D01*
X48676190Y-24304761D01*
X48628571Y-24209523D01*
X48628571Y-24161904D01*
X48676190Y-24066666D01*
X48771428Y-24019047D01*
X48914285Y-24019047D01*
X49009523Y-23971428D01*
X49057142Y-23876190D01*
X49057142Y-23828571D01*
X49009523Y-23733333D01*
X48914285Y-23685714D01*
X48771428Y-23685714D01*
X48676190Y-23733333D01*
X48342857Y-23685714D02*
X47961904Y-23685714D01*
X48200000Y-23352380D02*
X48200000Y-24209523D01*
X48152380Y-24304761D01*
X48057142Y-24352380D01*
X47961904Y-24352380D01*
X47247619Y-24304761D02*
X47342857Y-24352380D01*
X47533333Y-24352380D01*
X47628571Y-24304761D01*
X47676190Y-24209523D01*
X47676190Y-23828571D01*
X47628571Y-23733333D01*
X47533333Y-23685714D01*
X47342857Y-23685714D01*
X47247619Y-23733333D01*
X47200000Y-23828571D01*
X47200000Y-23923809D01*
X47676190Y-24019047D01*
X46771428Y-24352380D02*
X46771428Y-23685714D01*
X46771428Y-23876190D02*
X46723809Y-23780952D01*
X46676190Y-23733333D01*
X46580952Y-23685714D01*
X46485714Y-23685714D01*
X46152380Y-23685714D02*
X46152380Y-24352380D01*
X46152380Y-23780952D02*
X46104761Y-23733333D01*
X46009523Y-23685714D01*
X45866666Y-23685714D01*
X45771428Y-23733333D01*
X45723809Y-23828571D01*
X45723809Y-24352380D01*
X56295238Y-26002380D02*
X56866666Y-26002380D01*
X56580952Y-26002380D02*
X56580952Y-25002380D01*
X56676190Y-25145238D01*
X56771428Y-25240476D01*
X56866666Y-25288095D01*
X55342857Y-26002380D02*
X55914285Y-26002380D01*
X55628571Y-26002380D02*
X55628571Y-25002380D01*
X55723809Y-25145238D01*
X55819047Y-25240476D01*
X55914285Y-25288095D01*
X54200000Y-24954761D02*
X55057142Y-26240476D01*
X53342857Y-26002380D02*
X53914285Y-26002380D01*
X53628571Y-26002380D02*
X53628571Y-25002380D01*
X53723809Y-25145238D01*
X53819047Y-25240476D01*
X53914285Y-25288095D01*
X52438095Y-25002380D02*
X52914285Y-25002380D01*
X52961904Y-25478571D01*
X52914285Y-25430952D01*
X52819047Y-25383333D01*
X52580952Y-25383333D01*
X52485714Y-25430952D01*
X52438095Y-25478571D01*
X52390476Y-25573809D01*
X52390476Y-25811904D01*
X52438095Y-25907142D01*
X52485714Y-25954761D01*
X52580952Y-26002380D01*
X52819047Y-26002380D01*
X52914285Y-25954761D01*
X52961904Y-25907142D01*
X51247619Y-24954761D02*
X52104761Y-26240476D01*
X50961904Y-25097619D02*
X50914285Y-25050000D01*
X50819047Y-25002380D01*
X50580952Y-25002380D01*
X50485714Y-25050000D01*
X50438095Y-25097619D01*
X50390476Y-25192857D01*
X50390476Y-25288095D01*
X50438095Y-25430952D01*
X51009523Y-26002380D01*
X50390476Y-26002380D01*
X49771428Y-25002380D02*
X49676190Y-25002380D01*
X49580952Y-25050000D01*
X49533333Y-25097619D01*
X49485714Y-25192857D01*
X49438095Y-25383333D01*
X49438095Y-25621428D01*
X49485714Y-25811904D01*
X49533333Y-25907142D01*
X49580952Y-25954761D01*
X49676190Y-26002380D01*
X49771428Y-26002380D01*
X49866666Y-25954761D01*
X49914285Y-25907142D01*
X49961904Y-25811904D01*
X50009523Y-25621428D01*
X50009523Y-25383333D01*
X49961904Y-25192857D01*
X49914285Y-25097619D01*
X49866666Y-25050000D01*
X49771428Y-25002380D01*
X49057142Y-25097619D02*
X49009523Y-25050000D01*
X48914285Y-25002380D01*
X48676190Y-25002380D01*
X48580952Y-25050000D01*
X48533333Y-25097619D01*
X48485714Y-25192857D01*
X48485714Y-25288095D01*
X48533333Y-25430952D01*
X49104761Y-26002380D01*
X48485714Y-26002380D01*
X48104761Y-25097619D02*
X48057142Y-25050000D01*
X47961904Y-25002380D01*
X47723809Y-25002380D01*
X47628571Y-25050000D01*
X47580952Y-25097619D01*
X47533333Y-25192857D01*
X47533333Y-25288095D01*
X47580952Y-25430952D01*
X48152380Y-26002380D01*
X47533333Y-26002380D01*
%LPC*%
D11*
X81800000Y-87000000D03*
X76800000Y-87000000D03*
X71800000Y-87000000D03*
X66800000Y-87000000D03*
X61800000Y-87000000D03*
X56800000Y-87000000D03*
X202746000Y-86106000D03*
X197746000Y-86106000D03*
X192746000Y-86106000D03*
X187746000Y-86106000D03*
X182746000Y-86106000D03*
X177746000Y-86106000D03*
D12*
X264320000Y-87000000D03*
X259240000Y-87000000D03*
X254160000Y-87000000D03*
X249080000Y-87000000D03*
D13*
X241240000Y-87000000D03*
X236160000Y-87000000D03*
D12*
X143420000Y-87000000D03*
X138340000Y-87000000D03*
X133260000Y-87000000D03*
X128180000Y-87000000D03*
D13*
X120340000Y-87000000D03*
X115260000Y-87000000D03*
D14*
X297000000Y-83000000D03*
D15*
X298500000Y-83000000D03*
X300000000Y-83000000D03*
X301500000Y-83000000D03*
X303000000Y-83000000D03*
X304500000Y-83000000D03*
X306000000Y-83000000D03*
X307500000Y-83000000D03*
X309000000Y-83000000D03*
X310500000Y-83000000D03*
X312000000Y-83000000D03*
D16*
X100000000Y-85000000D03*
X220750000Y-85000000D03*
X370000000Y-85000000D03*
D17*
X30250000Y-23000000D03*
D18*
X194430000Y-8625000D03*
X186810000Y-3545000D03*
D13*
X182370000Y-6715000D03*
X194430000Y-16885000D03*
D11*
X194430000Y-13070000D03*
X186810000Y-13070000D03*
D13*
X186810000Y-16885000D03*
D18*
X154430000Y-8625000D03*
X146810000Y-3545000D03*
D13*
X142370000Y-6715000D03*
X154430000Y-16885000D03*
D11*
X154430000Y-13070000D03*
X146810000Y-13070000D03*
D13*
X146810000Y-16885000D03*
D19*
X249990000Y-37750000D03*
X252530000Y-37750000D03*
X255070000Y-37750000D03*
X257610000Y-37750000D03*
X260150000Y-37750000D03*
X262690000Y-37750000D03*
X265230000Y-37750000D03*
X267770000Y-37750000D03*
X270310000Y-37750000D03*
X272850000Y-37750000D03*
X275390000Y-37750000D03*
X277930000Y-37750000D03*
X280470000Y-37750000D03*
X283010000Y-37750000D03*
X285550000Y-37750000D03*
X288090000Y-37750000D03*
X290630000Y-37750000D03*
X293170000Y-37750000D03*
X295710000Y-37750000D03*
D20*
X298250000Y-37750000D03*
D12*
X367800000Y-4130000D03*
X355800000Y-4130000D03*
D21*
X362310000Y-6430000D03*
X361290000Y-8970000D03*
X360270000Y-6430000D03*
D22*
X359250000Y-8970000D03*
D21*
X364350000Y-6430000D03*
X363330000Y-8970000D03*
D12*
X347800000Y-4130000D03*
X335800000Y-4130000D03*
D21*
X342310000Y-6430000D03*
X341290000Y-8970000D03*
X340270000Y-6430000D03*
D22*
X339250000Y-8970000D03*
D21*
X344350000Y-6430000D03*
X343330000Y-8970000D03*
D19*
X298260000Y-47220000D03*
X295720000Y-47220000D03*
X293180000Y-47220000D03*
X290640000Y-47220000D03*
X288100000Y-47220000D03*
X285560000Y-47220000D03*
X283020000Y-47220000D03*
X280480000Y-47220000D03*
X277940000Y-47220000D03*
X275400000Y-47220000D03*
X272860000Y-47220000D03*
X270320000Y-47220000D03*
X267780000Y-47220000D03*
X265240000Y-47220000D03*
X262700000Y-47220000D03*
X260160000Y-47220000D03*
X257620000Y-47220000D03*
X255080000Y-47220000D03*
X252540000Y-47220000D03*
D20*
X250000000Y-47220000D03*
D19*
X298260000Y-65000000D03*
X295720000Y-65000000D03*
X293180000Y-65000000D03*
X290640000Y-65000000D03*
X288100000Y-65000000D03*
X285560000Y-65000000D03*
X283020000Y-65000000D03*
X280480000Y-65000000D03*
X277940000Y-65000000D03*
X275400000Y-65000000D03*
X272860000Y-65000000D03*
X270320000Y-65000000D03*
X267780000Y-65000000D03*
X265240000Y-65000000D03*
X262700000Y-65000000D03*
X260160000Y-65000000D03*
X257620000Y-65000000D03*
X255080000Y-65000000D03*
X252540000Y-65000000D03*
D20*
X250000000Y-65000000D03*
D12*
X327800000Y-4130000D03*
X315800000Y-4130000D03*
D21*
X322310000Y-6430000D03*
X321290000Y-8970000D03*
X320270000Y-6430000D03*
D22*
X319250000Y-8970000D03*
D21*
X324350000Y-6430000D03*
X323330000Y-8970000D03*
D12*
X307800000Y-4130000D03*
X295800000Y-4130000D03*
D21*
X302310000Y-6430000D03*
X301290000Y-8970000D03*
X300270000Y-6430000D03*
D22*
X299250000Y-8970000D03*
D21*
X304350000Y-6430000D03*
X303330000Y-8970000D03*
D23*
X107000000Y-24187000D03*
X107000000Y-46813000D03*
D11*
X107270000Y-3125000D03*
D24*
X113400000Y-2175000D03*
X103550000Y-2175000D03*
D13*
X107270000Y-12625000D03*
D25*
X112470000Y-9375000D03*
X107270000Y-9375000D03*
M02*
