G04 #@! TF.GenerationSoftware,KiCad,Pcbnew,(5.1.10)-1*
G04 #@! TF.CreationDate,2022-11-18T11:00:14-07:00*
G04 #@! TF.ProjectId,Lift_02,4c696674-5f30-4322-9e6b-696361645f70,rev?*
G04 #@! TF.SameCoordinates,Original*
G04 #@! TF.FileFunction,Legend,Top*
G04 #@! TF.FilePolarity,Positive*
%FSLAX46Y46*%
G04 Gerber Fmt 4.6, Leading zero omitted, Abs format (unit mm)*
G04 Created by KiCad (PCBNEW (5.1.10)-1) date 2022-11-18 11:00:14*
%MOMM*%
%LPD*%
G01*
G04 APERTURE LIST*
%ADD10C,0.150000*%
%ADD11C,0.100000*%
%ADD12C,0.125000*%
%ADD13C,0.120000*%
%ADD14C,0.254000*%
%ADD15C,0.127000*%
%ADD16C,0.399000*%
%ADD17C,2.500000*%
%ADD18R,0.400000X0.900000*%
%ADD19C,2.400000*%
%ADD20C,2.000000*%
%ADD21R,1.200000X1.200000*%
%ADD22C,1.200000*%
%ADD23C,5.300000*%
%ADD24C,9.200000*%
%ADD25R,1.800000X2.540000*%
%ADD26R,1.511000X3.300000*%
%ADD27R,10.122000X10.020000*%
%ADD28C,1.800000*%
%ADD29O,1.700000X1.700000*%
%ADD30R,1.700000X1.700000*%
%ADD31C,1.600000*%
%ADD32R,1.600000X1.600000*%
%ADD33O,2.400000X1.000000*%
%ADD34O,1.200000X3.800000*%
%ADD35O,1.200000X2.500000*%
G04 APERTURE END LIST*
D10*
X50166666Y-22702380D02*
X49690476Y-22702380D01*
X49690476Y-21702380D01*
X50500000Y-22702380D02*
X50500000Y-22035714D01*
X50500000Y-21702380D02*
X50452380Y-21750000D01*
X50500000Y-21797619D01*
X50547619Y-21750000D01*
X50500000Y-21702380D01*
X50500000Y-21797619D01*
X50833333Y-22035714D02*
X51214285Y-22035714D01*
X50976190Y-22702380D02*
X50976190Y-21845238D01*
X51023809Y-21750000D01*
X51119047Y-21702380D01*
X51214285Y-21702380D01*
X51404761Y-22035714D02*
X51785714Y-22035714D01*
X51547619Y-21702380D02*
X51547619Y-22559523D01*
X51595238Y-22654761D01*
X51690476Y-22702380D01*
X51785714Y-22702380D01*
X51880952Y-22797619D02*
X52642857Y-22797619D01*
X53071428Y-21702380D02*
X53166666Y-21702380D01*
X53261904Y-21750000D01*
X53309523Y-21797619D01*
X53357142Y-21892857D01*
X53404761Y-22083333D01*
X53404761Y-22321428D01*
X53357142Y-22511904D01*
X53309523Y-22607142D01*
X53261904Y-22654761D01*
X53166666Y-22702380D01*
X53071428Y-22702380D01*
X52976190Y-22654761D01*
X52928571Y-22607142D01*
X52880952Y-22511904D01*
X52833333Y-22321428D01*
X52833333Y-22083333D01*
X52880952Y-21892857D01*
X52928571Y-21797619D01*
X52976190Y-21750000D01*
X53071428Y-21702380D01*
X53738095Y-21702380D02*
X54357142Y-21702380D01*
X54023809Y-22083333D01*
X54166666Y-22083333D01*
X54261904Y-22130952D01*
X54309523Y-22178571D01*
X54357142Y-22273809D01*
X54357142Y-22511904D01*
X54309523Y-22607142D01*
X54261904Y-22654761D01*
X54166666Y-22702380D01*
X53880952Y-22702380D01*
X53785714Y-22654761D01*
X53738095Y-22607142D01*
X46095238Y-24352380D02*
X45761904Y-23876190D01*
X45523809Y-24352380D02*
X45523809Y-23352380D01*
X45904761Y-23352380D01*
X46000000Y-23400000D01*
X46047619Y-23447619D01*
X46095238Y-23542857D01*
X46095238Y-23685714D01*
X46047619Y-23780952D01*
X46000000Y-23828571D01*
X45904761Y-23876190D01*
X45523809Y-23876190D01*
X46428571Y-23685714D02*
X46666666Y-24352380D01*
X46904761Y-23685714D02*
X46666666Y-24352380D01*
X46571428Y-24590476D01*
X46523809Y-24638095D01*
X46428571Y-24685714D01*
X47714285Y-24352380D02*
X47714285Y-23828571D01*
X47666666Y-23733333D01*
X47571428Y-23685714D01*
X47380952Y-23685714D01*
X47285714Y-23733333D01*
X47714285Y-24304761D02*
X47619047Y-24352380D01*
X47380952Y-24352380D01*
X47285714Y-24304761D01*
X47238095Y-24209523D01*
X47238095Y-24114285D01*
X47285714Y-24019047D01*
X47380952Y-23971428D01*
X47619047Y-23971428D01*
X47714285Y-23923809D01*
X48190476Y-23685714D02*
X48190476Y-24352380D01*
X48190476Y-23780952D02*
X48238095Y-23733333D01*
X48333333Y-23685714D01*
X48476190Y-23685714D01*
X48571428Y-23733333D01*
X48619047Y-23828571D01*
X48619047Y-24352380D01*
X49857142Y-24352380D02*
X49857142Y-23352380D01*
X50190476Y-24066666D01*
X50523809Y-23352380D01*
X50523809Y-24352380D01*
X51142857Y-24352380D02*
X51047619Y-24304761D01*
X51000000Y-24257142D01*
X50952380Y-24161904D01*
X50952380Y-23876190D01*
X51000000Y-23780952D01*
X51047619Y-23733333D01*
X51142857Y-23685714D01*
X51285714Y-23685714D01*
X51380952Y-23733333D01*
X51428571Y-23780952D01*
X51476190Y-23876190D01*
X51476190Y-24161904D01*
X51428571Y-24257142D01*
X51380952Y-24304761D01*
X51285714Y-24352380D01*
X51142857Y-24352380D01*
X51904761Y-24352380D02*
X51904761Y-23685714D01*
X51904761Y-23876190D02*
X51952380Y-23780952D01*
X52000000Y-23733333D01*
X52095238Y-23685714D01*
X52190476Y-23685714D01*
X52952380Y-23685714D02*
X52952380Y-24495238D01*
X52904761Y-24590476D01*
X52857142Y-24638095D01*
X52761904Y-24685714D01*
X52619047Y-24685714D01*
X52523809Y-24638095D01*
X52952380Y-24304761D02*
X52857142Y-24352380D01*
X52666666Y-24352380D01*
X52571428Y-24304761D01*
X52523809Y-24257142D01*
X52476190Y-24161904D01*
X52476190Y-23876190D01*
X52523809Y-23780952D01*
X52571428Y-23733333D01*
X52666666Y-23685714D01*
X52857142Y-23685714D01*
X52952380Y-23733333D01*
X53809523Y-24304761D02*
X53714285Y-24352380D01*
X53523809Y-24352380D01*
X53428571Y-24304761D01*
X53380952Y-24209523D01*
X53380952Y-23828571D01*
X53428571Y-23733333D01*
X53523809Y-23685714D01*
X53714285Y-23685714D01*
X53809523Y-23733333D01*
X53857142Y-23828571D01*
X53857142Y-23923809D01*
X53380952Y-24019047D01*
X54285714Y-23685714D02*
X54285714Y-24352380D01*
X54285714Y-23780952D02*
X54333333Y-23733333D01*
X54428571Y-23685714D01*
X54571428Y-23685714D01*
X54666666Y-23733333D01*
X54714285Y-23828571D01*
X54714285Y-24352380D01*
X55142857Y-24304761D02*
X55238095Y-24352380D01*
X55428571Y-24352380D01*
X55523809Y-24304761D01*
X55571428Y-24209523D01*
X55571428Y-24161904D01*
X55523809Y-24066666D01*
X55428571Y-24019047D01*
X55285714Y-24019047D01*
X55190476Y-23971428D01*
X55142857Y-23876190D01*
X55142857Y-23828571D01*
X55190476Y-23733333D01*
X55285714Y-23685714D01*
X55428571Y-23685714D01*
X55523809Y-23733333D01*
X55857142Y-23685714D02*
X56238095Y-23685714D01*
X56000000Y-23352380D02*
X56000000Y-24209523D01*
X56047619Y-24304761D01*
X56142857Y-24352380D01*
X56238095Y-24352380D01*
X56952380Y-24304761D02*
X56857142Y-24352380D01*
X56666666Y-24352380D01*
X56571428Y-24304761D01*
X56523809Y-24209523D01*
X56523809Y-23828571D01*
X56571428Y-23733333D01*
X56666666Y-23685714D01*
X56857142Y-23685714D01*
X56952380Y-23733333D01*
X57000000Y-23828571D01*
X57000000Y-23923809D01*
X56523809Y-24019047D01*
X57428571Y-24352380D02*
X57428571Y-23685714D01*
X57428571Y-23876190D02*
X57476190Y-23780952D01*
X57523809Y-23733333D01*
X57619047Y-23685714D01*
X57714285Y-23685714D01*
X58047619Y-23685714D02*
X58047619Y-24352380D01*
X58047619Y-23780952D02*
X58095238Y-23733333D01*
X58190476Y-23685714D01*
X58333333Y-23685714D01*
X58428571Y-23733333D01*
X58476190Y-23828571D01*
X58476190Y-24352380D01*
X47904761Y-26002380D02*
X47333333Y-26002380D01*
X47619047Y-26002380D02*
X47619047Y-25002380D01*
X47523809Y-25145238D01*
X47428571Y-25240476D01*
X47333333Y-25288095D01*
X48857142Y-26002380D02*
X48285714Y-26002380D01*
X48571428Y-26002380D02*
X48571428Y-25002380D01*
X48476190Y-25145238D01*
X48380952Y-25240476D01*
X48285714Y-25288095D01*
X50000000Y-24954761D02*
X49142857Y-26240476D01*
X50857142Y-26002380D02*
X50285714Y-26002380D01*
X50571428Y-26002380D02*
X50571428Y-25002380D01*
X50476190Y-25145238D01*
X50380952Y-25240476D01*
X50285714Y-25288095D01*
X51761904Y-25002380D02*
X51285714Y-25002380D01*
X51238095Y-25478571D01*
X51285714Y-25430952D01*
X51380952Y-25383333D01*
X51619047Y-25383333D01*
X51714285Y-25430952D01*
X51761904Y-25478571D01*
X51809523Y-25573809D01*
X51809523Y-25811904D01*
X51761904Y-25907142D01*
X51714285Y-25954761D01*
X51619047Y-26002380D01*
X51380952Y-26002380D01*
X51285714Y-25954761D01*
X51238095Y-25907142D01*
X52952380Y-24954761D02*
X52095238Y-26240476D01*
X53238095Y-25097619D02*
X53285714Y-25050000D01*
X53380952Y-25002380D01*
X53619047Y-25002380D01*
X53714285Y-25050000D01*
X53761904Y-25097619D01*
X53809523Y-25192857D01*
X53809523Y-25288095D01*
X53761904Y-25430952D01*
X53190476Y-26002380D01*
X53809523Y-26002380D01*
X54428571Y-25002380D02*
X54523809Y-25002380D01*
X54619047Y-25050000D01*
X54666666Y-25097619D01*
X54714285Y-25192857D01*
X54761904Y-25383333D01*
X54761904Y-25621428D01*
X54714285Y-25811904D01*
X54666666Y-25907142D01*
X54619047Y-25954761D01*
X54523809Y-26002380D01*
X54428571Y-26002380D01*
X54333333Y-25954761D01*
X54285714Y-25907142D01*
X54238095Y-25811904D01*
X54190476Y-25621428D01*
X54190476Y-25383333D01*
X54238095Y-25192857D01*
X54285714Y-25097619D01*
X54333333Y-25050000D01*
X54428571Y-25002380D01*
X55142857Y-25097619D02*
X55190476Y-25050000D01*
X55285714Y-25002380D01*
X55523809Y-25002380D01*
X55619047Y-25050000D01*
X55666666Y-25097619D01*
X55714285Y-25192857D01*
X55714285Y-25288095D01*
X55666666Y-25430952D01*
X55095238Y-26002380D01*
X55714285Y-26002380D01*
X56095238Y-25097619D02*
X56142857Y-25050000D01*
X56238095Y-25002380D01*
X56476190Y-25002380D01*
X56571428Y-25050000D01*
X56619047Y-25097619D01*
X56666666Y-25192857D01*
X56666666Y-25288095D01*
X56619047Y-25430952D01*
X56047619Y-26002380D01*
X56666666Y-26002380D01*
D11*
X340607142Y-27273809D02*
X340630952Y-27250000D01*
X340678571Y-27226190D01*
X340797619Y-27226190D01*
X340845238Y-27250000D01*
X340869047Y-27273809D01*
X340892857Y-27321428D01*
X340892857Y-27369047D01*
X340869047Y-27440476D01*
X340583333Y-27726190D01*
X340892857Y-27726190D01*
X340595238Y-29892857D02*
X340595238Y-30226190D01*
X340476190Y-29702380D02*
X340357142Y-30059523D01*
X340666666Y-30059523D01*
X277476190Y-71345238D02*
X277880952Y-71345238D01*
X277928571Y-71321428D01*
X277952380Y-71297619D01*
X277976190Y-71250000D01*
X277976190Y-71154761D01*
X277952380Y-71107142D01*
X277928571Y-71083333D01*
X277880952Y-71059523D01*
X277476190Y-71059523D01*
X277476190Y-70869047D02*
X277476190Y-70559523D01*
X277666666Y-70726190D01*
X277666666Y-70654761D01*
X277690476Y-70607142D01*
X277714285Y-70583333D01*
X277761904Y-70559523D01*
X277880952Y-70559523D01*
X277928571Y-70583333D01*
X277952380Y-70607142D01*
X277976190Y-70654761D01*
X277976190Y-70797619D01*
X277952380Y-70845238D01*
X277928571Y-70869047D01*
X277785714Y-69964285D02*
X277785714Y-69583333D01*
X277976190Y-68964285D02*
X277476190Y-68964285D01*
X277476190Y-68773809D01*
X277500000Y-68726190D01*
X277523809Y-68702380D01*
X277571428Y-68678571D01*
X277642857Y-68678571D01*
X277690476Y-68702380D01*
X277714285Y-68726190D01*
X277738095Y-68773809D01*
X277738095Y-68964285D01*
X277976190Y-68464285D02*
X277642857Y-68464285D01*
X277476190Y-68464285D02*
X277500000Y-68488095D01*
X277523809Y-68464285D01*
X277500000Y-68440476D01*
X277476190Y-68464285D01*
X277523809Y-68464285D01*
X277642857Y-68226190D02*
X277976190Y-68226190D01*
X277690476Y-68226190D02*
X277666666Y-68202380D01*
X277642857Y-68154761D01*
X277642857Y-68083333D01*
X277666666Y-68035714D01*
X277714285Y-68011904D01*
X277976190Y-68011904D01*
X277642857Y-67178571D02*
X277976190Y-67178571D01*
X277452380Y-67297619D02*
X277809523Y-67416666D01*
X277809523Y-67107142D01*
X275824190Y-71183238D02*
X276228952Y-71183238D01*
X276276571Y-71159428D01*
X276300380Y-71135619D01*
X276324190Y-71088000D01*
X276324190Y-70992761D01*
X276300380Y-70945142D01*
X276276571Y-70921333D01*
X276228952Y-70897523D01*
X275824190Y-70897523D01*
X275824190Y-70707047D02*
X275824190Y-70397523D01*
X276014666Y-70564190D01*
X276014666Y-70492761D01*
X276038476Y-70445142D01*
X276062285Y-70421333D01*
X276109904Y-70397523D01*
X276228952Y-70397523D01*
X276276571Y-70421333D01*
X276300380Y-70445142D01*
X276324190Y-70492761D01*
X276324190Y-70635619D01*
X276300380Y-70683238D01*
X276276571Y-70707047D01*
X276133714Y-69802285D02*
X276133714Y-69421333D01*
X276324190Y-68802285D02*
X275824190Y-68802285D01*
X275824190Y-68611809D01*
X275848000Y-68564190D01*
X275871809Y-68540380D01*
X275919428Y-68516571D01*
X275990857Y-68516571D01*
X276038476Y-68540380D01*
X276062285Y-68564190D01*
X276086095Y-68611809D01*
X276086095Y-68802285D01*
X276324190Y-68302285D02*
X275990857Y-68302285D01*
X275824190Y-68302285D02*
X275848000Y-68326095D01*
X275871809Y-68302285D01*
X275848000Y-68278476D01*
X275824190Y-68302285D01*
X275871809Y-68302285D01*
X275990857Y-68064190D02*
X276324190Y-68064190D01*
X276038476Y-68064190D02*
X276014666Y-68040380D01*
X275990857Y-67992761D01*
X275990857Y-67921333D01*
X276014666Y-67873714D01*
X276062285Y-67849904D01*
X276324190Y-67849904D01*
X275871809Y-67254666D02*
X275848000Y-67230857D01*
X275824190Y-67183238D01*
X275824190Y-67064190D01*
X275848000Y-67016571D01*
X275871809Y-66992761D01*
X275919428Y-66968952D01*
X275967047Y-66968952D01*
X276038476Y-66992761D01*
X276324190Y-67278476D01*
X276324190Y-66968952D01*
X292726190Y-71833333D02*
X293130952Y-71833333D01*
X293178571Y-71809523D01*
X293202380Y-71785714D01*
X293226190Y-71738095D01*
X293226190Y-71642857D01*
X293202380Y-71595238D01*
X293178571Y-71571428D01*
X293130952Y-71547619D01*
X292726190Y-71547619D01*
X292773809Y-71333333D02*
X292750000Y-71309523D01*
X292726190Y-71261904D01*
X292726190Y-71142857D01*
X292750000Y-71095238D01*
X292773809Y-71071428D01*
X292821428Y-71047619D01*
X292869047Y-71047619D01*
X292940476Y-71071428D01*
X293226190Y-71357142D01*
X293226190Y-71047619D01*
X293035714Y-70452380D02*
X293035714Y-70071428D01*
X293226190Y-69452380D02*
X292726190Y-69452380D01*
X292726190Y-69261904D01*
X292750000Y-69214285D01*
X292773809Y-69190476D01*
X292821428Y-69166666D01*
X292892857Y-69166666D01*
X292940476Y-69190476D01*
X292964285Y-69214285D01*
X292988095Y-69261904D01*
X292988095Y-69452380D01*
X293226190Y-68952380D02*
X292892857Y-68952380D01*
X292726190Y-68952380D02*
X292750000Y-68976190D01*
X292773809Y-68952380D01*
X292750000Y-68928571D01*
X292726190Y-68952380D01*
X292773809Y-68952380D01*
X292892857Y-68714285D02*
X293226190Y-68714285D01*
X292940476Y-68714285D02*
X292916666Y-68690476D01*
X292892857Y-68642857D01*
X292892857Y-68571428D01*
X292916666Y-68523809D01*
X292964285Y-68500000D01*
X293226190Y-68500000D01*
X293226190Y-67619047D02*
X293226190Y-67904761D01*
X293226190Y-67761904D02*
X292726190Y-67761904D01*
X292797619Y-67809523D01*
X292845238Y-67857142D01*
X292869047Y-67904761D01*
X292773809Y-67428571D02*
X292750000Y-67404761D01*
X292726190Y-67357142D01*
X292726190Y-67238095D01*
X292750000Y-67190476D01*
X292773809Y-67166666D01*
X292821428Y-67142857D01*
X292869047Y-67142857D01*
X292940476Y-67166666D01*
X293226190Y-67452380D01*
X293226190Y-67142857D01*
D12*
X349404761Y-54226190D02*
X349119047Y-54226190D01*
X349261904Y-54226190D02*
X349261904Y-53726190D01*
X349214285Y-53797619D01*
X349166666Y-53845238D01*
X349119047Y-53869047D01*
X349595238Y-53773809D02*
X349619047Y-53750000D01*
X349666666Y-53726190D01*
X349785714Y-53726190D01*
X349833333Y-53750000D01*
X349857142Y-53773809D01*
X349880952Y-53821428D01*
X349880952Y-53869047D01*
X349857142Y-53940476D01*
X349571428Y-54226190D01*
X349880952Y-54226190D01*
D10*
X349357142Y-56839285D02*
X348928571Y-56839285D01*
X349142857Y-56839285D02*
X349142857Y-56089285D01*
X349071428Y-56196428D01*
X349000000Y-56267857D01*
X348928571Y-56303571D01*
X349821428Y-56089285D02*
X349892857Y-56089285D01*
X349964285Y-56125000D01*
X350000000Y-56160714D01*
X350035714Y-56232142D01*
X350071428Y-56375000D01*
X350071428Y-56553571D01*
X350035714Y-56696428D01*
X350000000Y-56767857D01*
X349964285Y-56803571D01*
X349892857Y-56839285D01*
X349821428Y-56839285D01*
X349750000Y-56803571D01*
X349714285Y-56767857D01*
X349678571Y-56696428D01*
X349642857Y-56553571D01*
X349642857Y-56375000D01*
X349678571Y-56232142D01*
X349714285Y-56160714D01*
X349750000Y-56125000D01*
X349821428Y-56089285D01*
X349178571Y-58910714D02*
X349107142Y-58875000D01*
X349071428Y-58839285D01*
X349035714Y-58767857D01*
X349035714Y-58732142D01*
X349071428Y-58660714D01*
X349107142Y-58625000D01*
X349178571Y-58589285D01*
X349321428Y-58589285D01*
X349392857Y-58625000D01*
X349428571Y-58660714D01*
X349464285Y-58732142D01*
X349464285Y-58767857D01*
X349428571Y-58839285D01*
X349392857Y-58875000D01*
X349321428Y-58910714D01*
X349178571Y-58910714D01*
X349107142Y-58946428D01*
X349071428Y-58982142D01*
X349035714Y-59053571D01*
X349035714Y-59196428D01*
X349071428Y-59267857D01*
X349107142Y-59303571D01*
X349178571Y-59339285D01*
X349321428Y-59339285D01*
X349392857Y-59303571D01*
X349428571Y-59267857D01*
X349464285Y-59196428D01*
X349464285Y-59053571D01*
X349428571Y-58982142D01*
X349392857Y-58946428D01*
X349321428Y-58910714D01*
D11*
X295476190Y-71833333D02*
X295880952Y-71833333D01*
X295928571Y-71809523D01*
X295952380Y-71785714D01*
X295976190Y-71738095D01*
X295976190Y-71642857D01*
X295952380Y-71595238D01*
X295928571Y-71571428D01*
X295880952Y-71547619D01*
X295476190Y-71547619D01*
X295523809Y-71333333D02*
X295500000Y-71309523D01*
X295476190Y-71261904D01*
X295476190Y-71142857D01*
X295500000Y-71095238D01*
X295523809Y-71071428D01*
X295571428Y-71047619D01*
X295619047Y-71047619D01*
X295690476Y-71071428D01*
X295976190Y-71357142D01*
X295976190Y-71047619D01*
X295785714Y-70452380D02*
X295785714Y-70071428D01*
X295976190Y-69452380D02*
X295476190Y-69452380D01*
X295476190Y-69261904D01*
X295500000Y-69214285D01*
X295523809Y-69190476D01*
X295571428Y-69166666D01*
X295642857Y-69166666D01*
X295690476Y-69190476D01*
X295714285Y-69214285D01*
X295738095Y-69261904D01*
X295738095Y-69452380D01*
X295976190Y-68952380D02*
X295642857Y-68952380D01*
X295476190Y-68952380D02*
X295500000Y-68976190D01*
X295523809Y-68952380D01*
X295500000Y-68928571D01*
X295476190Y-68952380D01*
X295523809Y-68952380D01*
X295642857Y-68714285D02*
X295976190Y-68714285D01*
X295690476Y-68714285D02*
X295666666Y-68690476D01*
X295642857Y-68642857D01*
X295642857Y-68571428D01*
X295666666Y-68523809D01*
X295714285Y-68500000D01*
X295976190Y-68500000D01*
X295976190Y-67619047D02*
X295976190Y-67904761D01*
X295976190Y-67761904D02*
X295476190Y-67761904D01*
X295547619Y-67809523D01*
X295595238Y-67857142D01*
X295619047Y-67904761D01*
X295476190Y-67309523D02*
X295476190Y-67261904D01*
X295500000Y-67214285D01*
X295523809Y-67190476D01*
X295571428Y-67166666D01*
X295666666Y-67142857D01*
X295785714Y-67142857D01*
X295880952Y-67166666D01*
X295928571Y-67190476D01*
X295952380Y-67214285D01*
X295976190Y-67261904D01*
X295976190Y-67309523D01*
X295952380Y-67357142D01*
X295928571Y-67380952D01*
X295880952Y-67404761D01*
X295785714Y-67428571D01*
X295666666Y-67428571D01*
X295571428Y-67404761D01*
X295523809Y-67380952D01*
X295500000Y-67357142D01*
X295476190Y-67309523D01*
X297976190Y-70714285D02*
X298380952Y-70714285D01*
X298428571Y-70690476D01*
X298452380Y-70666666D01*
X298476190Y-70619047D01*
X298476190Y-70523809D01*
X298452380Y-70476190D01*
X298428571Y-70452380D01*
X298380952Y-70428571D01*
X297976190Y-70428571D01*
X298023809Y-70214285D02*
X298000000Y-70190476D01*
X297976190Y-70142857D01*
X297976190Y-70023809D01*
X298000000Y-69976190D01*
X298023809Y-69952380D01*
X298071428Y-69928571D01*
X298119047Y-69928571D01*
X298190476Y-69952380D01*
X298476190Y-70238095D01*
X298476190Y-69928571D01*
X298285714Y-69714285D02*
X298285714Y-69333333D01*
X298476190Y-68714285D02*
X297976190Y-68714285D01*
X297976190Y-68523809D01*
X298000000Y-68476190D01*
X298023809Y-68452380D01*
X298071428Y-68428571D01*
X298142857Y-68428571D01*
X298190476Y-68452380D01*
X298214285Y-68476190D01*
X298238095Y-68523809D01*
X298238095Y-68714285D01*
X298476190Y-68214285D02*
X298142857Y-68214285D01*
X297976190Y-68214285D02*
X298000000Y-68238095D01*
X298023809Y-68214285D01*
X298000000Y-68190476D01*
X297976190Y-68214285D01*
X298023809Y-68214285D01*
X298142857Y-67976190D02*
X298476190Y-67976190D01*
X298190476Y-67976190D02*
X298166666Y-67952380D01*
X298142857Y-67904761D01*
X298142857Y-67833333D01*
X298166666Y-67785714D01*
X298214285Y-67761904D01*
X298476190Y-67761904D01*
X298190476Y-67452380D02*
X298166666Y-67500000D01*
X298142857Y-67523809D01*
X298095238Y-67547619D01*
X298071428Y-67547619D01*
X298023809Y-67523809D01*
X298000000Y-67500000D01*
X297976190Y-67452380D01*
X297976190Y-67357142D01*
X298000000Y-67309523D01*
X298023809Y-67285714D01*
X298071428Y-67261904D01*
X298095238Y-67261904D01*
X298142857Y-67285714D01*
X298166666Y-67309523D01*
X298190476Y-67357142D01*
X298190476Y-67452380D01*
X298214285Y-67500000D01*
X298238095Y-67523809D01*
X298285714Y-67547619D01*
X298380952Y-67547619D01*
X298428571Y-67523809D01*
X298452380Y-67500000D01*
X298476190Y-67452380D01*
X298476190Y-67357142D01*
X298452380Y-67309523D01*
X298428571Y-67285714D01*
X298380952Y-67261904D01*
X298285714Y-67261904D01*
X298238095Y-67285714D01*
X298214285Y-67309523D01*
X298190476Y-67357142D01*
D13*
X269956000Y-74806000D02*
G75*
G02*
X269256000Y-74106000I0J700000D01*
G01*
X271256000Y-74106000D02*
G75*
G02*
X270556000Y-74806000I-700000J0D01*
G01*
X270556000Y-72006000D02*
G75*
G02*
X271256000Y-72706000I0J-700000D01*
G01*
X269256000Y-72706000D02*
G75*
G02*
X269956000Y-72006000I700000J0D01*
G01*
X270556000Y-74806000D02*
X269956000Y-74806000D01*
X271256000Y-72706000D02*
X271256000Y-74106000D01*
X269956000Y-72006000D02*
X270556000Y-72006000D01*
X269256000Y-74106000D02*
X269256000Y-72706000D01*
X262082000Y-71758000D02*
G75*
G02*
X261382000Y-71058000I0J700000D01*
G01*
X263382000Y-71058000D02*
G75*
G02*
X262682000Y-71758000I-700000J0D01*
G01*
X262682000Y-68958000D02*
G75*
G02*
X263382000Y-69658000I0J-700000D01*
G01*
X261382000Y-69658000D02*
G75*
G02*
X262082000Y-68958000I700000J0D01*
G01*
X262682000Y-71758000D02*
X262082000Y-71758000D01*
X263382000Y-69658000D02*
X263382000Y-71058000D01*
X262082000Y-68958000D02*
X262682000Y-68958000D01*
X261382000Y-71058000D02*
X261382000Y-69658000D01*
X276560000Y-74806000D02*
G75*
G02*
X275860000Y-74106000I0J700000D01*
G01*
X277860000Y-74106000D02*
G75*
G02*
X277160000Y-74806000I-700000J0D01*
G01*
X277160000Y-72006000D02*
G75*
G02*
X277860000Y-72706000I0J-700000D01*
G01*
X275860000Y-72706000D02*
G75*
G02*
X276560000Y-72006000I700000J0D01*
G01*
X277160000Y-74806000D02*
X276560000Y-74806000D01*
X277860000Y-72706000D02*
X277860000Y-74106000D01*
X276560000Y-72006000D02*
X277160000Y-72006000D01*
X275860000Y-74106000D02*
X275860000Y-72706000D01*
D14*
X83645000Y-86990000D02*
G75*
G03*
X83645000Y-86990000I-1885000J0D01*
G01*
X78615000Y-87090000D02*
G75*
G03*
X78615000Y-87090000I-1885000J0D01*
G01*
X73675000Y-87040000D02*
G75*
G03*
X73675000Y-87040000I-1885000J0D01*
G01*
X68635000Y-86990000D02*
G75*
G03*
X68635000Y-86990000I-1885000J0D01*
G01*
X63655000Y-87040000D02*
G75*
G03*
X63655000Y-87040000I-1885000J0D01*
G01*
X58625000Y-87040000D02*
G75*
G03*
X58625000Y-87040000I-1885000J0D01*
G01*
X72591000Y-83520000D02*
X72591000Y-82050000D01*
X70380000Y-83520000D02*
X72591000Y-83520000D01*
X70380000Y-82050000D02*
X70380000Y-83520000D01*
X70380000Y-82763000D02*
X72591000Y-82763000D01*
X82931000Y-83520000D02*
X82931000Y-82050000D01*
X80720000Y-83520000D02*
X82931000Y-83520000D01*
X80720000Y-82050000D02*
X80720000Y-83520000D01*
X80720000Y-82763000D02*
X82931000Y-82763000D01*
X77851000Y-83480000D02*
X77851000Y-82010000D01*
X75640000Y-83480000D02*
X77851000Y-83480000D01*
X75640000Y-82010000D02*
X75640000Y-83480000D01*
X75640000Y-82723000D02*
X77851000Y-82723000D01*
X67981000Y-83480000D02*
X67981000Y-82010000D01*
X65770000Y-83480000D02*
X67981000Y-83480000D01*
X65770000Y-82010000D02*
X65770000Y-83480000D01*
X65770000Y-82723000D02*
X67981000Y-82723000D01*
X63081000Y-83480000D02*
X63081000Y-82010000D01*
X60870000Y-83480000D02*
X63081000Y-83480000D01*
X60870000Y-82010000D02*
X60870000Y-83480000D01*
X60870000Y-82723000D02*
X63081000Y-82723000D01*
X55559000Y-82713000D02*
X57770000Y-82713000D01*
X57770000Y-83470000D02*
X57770000Y-82000000D01*
X55559000Y-83470000D02*
X57770000Y-83470000D01*
X55559000Y-82000000D02*
X55559000Y-83470000D01*
X54300000Y-91415000D02*
X84300000Y-91415000D01*
X54480000Y-90000000D02*
X84300000Y-90000000D01*
X54300000Y-89534000D02*
X84300000Y-89534000D01*
X54300000Y-83983000D02*
X84300000Y-83983000D01*
X54300000Y-84407000D02*
X84300000Y-84407000D01*
X84300000Y-82000000D02*
X84300000Y-92400000D01*
X54300000Y-82000000D02*
X54300000Y-92400000D01*
X54300000Y-82000000D02*
X84300000Y-82000000D01*
X54300000Y-92400000D02*
X84300000Y-92400000D01*
X204591000Y-86096000D02*
G75*
G03*
X204591000Y-86096000I-1885000J0D01*
G01*
X199561000Y-86196000D02*
G75*
G03*
X199561000Y-86196000I-1885000J0D01*
G01*
X194621000Y-86146000D02*
G75*
G03*
X194621000Y-86146000I-1885000J0D01*
G01*
X189581000Y-86096000D02*
G75*
G03*
X189581000Y-86096000I-1885000J0D01*
G01*
X184601000Y-86146000D02*
G75*
G03*
X184601000Y-86146000I-1885000J0D01*
G01*
X179571000Y-86146000D02*
G75*
G03*
X179571000Y-86146000I-1885000J0D01*
G01*
X193537000Y-82626000D02*
X193537000Y-81156000D01*
X191326000Y-82626000D02*
X193537000Y-82626000D01*
X191326000Y-81156000D02*
X191326000Y-82626000D01*
X191326000Y-81869000D02*
X193537000Y-81869000D01*
X203877000Y-82626000D02*
X203877000Y-81156000D01*
X201666000Y-82626000D02*
X203877000Y-82626000D01*
X201666000Y-81156000D02*
X201666000Y-82626000D01*
X201666000Y-81869000D02*
X203877000Y-81869000D01*
X198797000Y-82586000D02*
X198797000Y-81116000D01*
X196586000Y-82586000D02*
X198797000Y-82586000D01*
X196586000Y-81116000D02*
X196586000Y-82586000D01*
X196586000Y-81829000D02*
X198797000Y-81829000D01*
X188927000Y-82586000D02*
X188927000Y-81116000D01*
X186716000Y-82586000D02*
X188927000Y-82586000D01*
X186716000Y-81116000D02*
X186716000Y-82586000D01*
X186716000Y-81829000D02*
X188927000Y-81829000D01*
X184027000Y-82586000D02*
X184027000Y-81116000D01*
X181816000Y-82586000D02*
X184027000Y-82586000D01*
X181816000Y-81116000D02*
X181816000Y-82586000D01*
X181816000Y-81829000D02*
X184027000Y-81829000D01*
X176505000Y-81819000D02*
X178716000Y-81819000D01*
X178716000Y-82576000D02*
X178716000Y-81106000D01*
X176505000Y-82576000D02*
X178716000Y-82576000D01*
X176505000Y-81106000D02*
X176505000Y-82576000D01*
X175246000Y-90521000D02*
X205246000Y-90521000D01*
X175426000Y-89106000D02*
X205246000Y-89106000D01*
X175246000Y-88640000D02*
X205246000Y-88640000D01*
X175246000Y-83089000D02*
X205246000Y-83089000D01*
X175246000Y-83513000D02*
X205246000Y-83513000D01*
X205246000Y-81106000D02*
X205246000Y-91506000D01*
X175246000Y-81106000D02*
X175246000Y-91506000D01*
X175246000Y-81106000D02*
X205246000Y-81106000D01*
X175246000Y-91506000D02*
X205246000Y-91506000D01*
D13*
X259288000Y-68958000D02*
X259888000Y-68958000D01*
X258588000Y-71058000D02*
X258588000Y-69658000D01*
X259888000Y-71758000D02*
X259288000Y-71758000D01*
X260588000Y-69658000D02*
X260588000Y-71058000D01*
X259888000Y-68958000D02*
G75*
G02*
X260588000Y-69658000I0J-700000D01*
G01*
X258588000Y-69658000D02*
G75*
G02*
X259288000Y-68958000I700000J0D01*
G01*
X259288000Y-71758000D02*
G75*
G02*
X258588000Y-71058000I0J700000D01*
G01*
X260588000Y-71058000D02*
G75*
G02*
X259888000Y-71758000I-700000J0D01*
G01*
X267162000Y-72006000D02*
X267762000Y-72006000D01*
X266462000Y-74106000D02*
X266462000Y-72706000D01*
X267762000Y-74806000D02*
X267162000Y-74806000D01*
X268462000Y-72706000D02*
X268462000Y-74106000D01*
X267762000Y-72006000D02*
G75*
G02*
X268462000Y-72706000I0J-700000D01*
G01*
X266462000Y-72706000D02*
G75*
G02*
X267162000Y-72006000I700000J0D01*
G01*
X267162000Y-74806000D02*
G75*
G02*
X266462000Y-74106000I0J700000D01*
G01*
X268462000Y-74106000D02*
G75*
G02*
X267762000Y-74806000I-700000J0D01*
G01*
X273766000Y-72006000D02*
X274366000Y-72006000D01*
X273066000Y-74106000D02*
X273066000Y-72706000D01*
X274366000Y-74806000D02*
X273766000Y-74806000D01*
X275066000Y-72706000D02*
X275066000Y-74106000D01*
X274366000Y-72006000D02*
G75*
G02*
X275066000Y-72706000I0J-700000D01*
G01*
X273066000Y-72706000D02*
G75*
G02*
X273766000Y-72006000I700000J0D01*
G01*
X273766000Y-74806000D02*
G75*
G02*
X273066000Y-74106000I0J700000D01*
G01*
X275066000Y-74106000D02*
G75*
G02*
X274366000Y-74806000I-700000J0D01*
G01*
D14*
X261414000Y-74740000D02*
X260930000Y-74740000D01*
X260114000Y-73340000D02*
X260022000Y-73340000D01*
X262322000Y-73340000D02*
X262230000Y-73340000D01*
X260114000Y-74740000D02*
X260022000Y-74740000D01*
X262322000Y-74740000D02*
X262230000Y-74740000D01*
X260022000Y-74740000D02*
X260022000Y-73340000D01*
X262322000Y-74740000D02*
X262322000Y-73340000D01*
X262569000Y-72897000D02*
G75*
G03*
X262569000Y-72897000I-127000J0D01*
G01*
X269306000Y-78634000D02*
X268822000Y-78634000D01*
X268006000Y-77234000D02*
X267914000Y-77234000D01*
X270214000Y-77234000D02*
X270122000Y-77234000D01*
X268006000Y-78634000D02*
X267914000Y-78634000D01*
X270214000Y-78634000D02*
X270122000Y-78634000D01*
X267914000Y-78634000D02*
X267914000Y-77234000D01*
X270214000Y-78634000D02*
X270214000Y-77234000D01*
X270461000Y-76791000D02*
G75*
G03*
X270461000Y-76791000I-127000J0D01*
G01*
X275974000Y-78484000D02*
X275490000Y-78484000D01*
X274674000Y-77084000D02*
X274582000Y-77084000D01*
X276882000Y-77084000D02*
X276790000Y-77084000D01*
X274674000Y-78484000D02*
X274582000Y-78484000D01*
X276882000Y-78484000D02*
X276790000Y-78484000D01*
X274582000Y-78484000D02*
X274582000Y-77084000D01*
X276882000Y-78484000D02*
X276882000Y-77084000D01*
X277129000Y-76641000D02*
G75*
G03*
X277129000Y-76641000I-127000J0D01*
G01*
D13*
X270714000Y-78130267D02*
X270714000Y-77837733D01*
X271734000Y-78130267D02*
X271734000Y-77837733D01*
X277874000Y-78124267D02*
X277874000Y-77831733D01*
X278894000Y-78124267D02*
X278894000Y-77831733D01*
X262888000Y-74822267D02*
X262888000Y-74529733D01*
X263908000Y-74822267D02*
X263908000Y-74529733D01*
D14*
X265434000Y-83761000D02*
X265434000Y-83063000D01*
X263177000Y-83761000D02*
X265434000Y-83761000D01*
X263177000Y-83063000D02*
X263177000Y-83761000D01*
X260354000Y-83761000D02*
X260354000Y-83063000D01*
X258097000Y-83761000D02*
X260354000Y-83761000D01*
X258097000Y-83063000D02*
X258097000Y-83761000D01*
X250223000Y-83698000D02*
X250223000Y-83000000D01*
X247966000Y-83698000D02*
X250223000Y-83698000D01*
X247966000Y-83000000D02*
X247966000Y-83698000D01*
X255274000Y-83761000D02*
X255274000Y-83063000D01*
X253017000Y-83761000D02*
X255274000Y-83761000D01*
X253017000Y-83063000D02*
X253017000Y-83761000D01*
X246440000Y-90960000D02*
X266960000Y-90960000D01*
X246440000Y-90960000D02*
X266960000Y-90960000D01*
X246440000Y-89286000D02*
X266960000Y-89286000D01*
X246440000Y-84714000D02*
X266960000Y-84714000D01*
X246440000Y-91500000D02*
X266960000Y-91500000D01*
X246440000Y-83000000D02*
X246440000Y-91500000D01*
X266960000Y-83000000D02*
X266960000Y-91500000D01*
X246440000Y-83000000D02*
X266960000Y-83000000D01*
X235800000Y-83442000D02*
X234840000Y-82482000D01*
X236990000Y-83442000D02*
X237950000Y-82482000D01*
X240780000Y-83460000D02*
X239820000Y-82500000D01*
X241710000Y-83460000D02*
X242670000Y-82500000D01*
X233620000Y-92243000D02*
X243765000Y-92243000D01*
X243780000Y-82480000D02*
X243780000Y-92640000D01*
X233620000Y-83469000D02*
X243736000Y-83469000D01*
X233620000Y-92638000D02*
X243754000Y-92638000D01*
X233620000Y-82478000D02*
X233620000Y-92638000D01*
X233620000Y-82478000D02*
X243754000Y-82478000D01*
X144534000Y-83761000D02*
X144534000Y-83063000D01*
X142277000Y-83761000D02*
X144534000Y-83761000D01*
X142277000Y-83063000D02*
X142277000Y-83761000D01*
X139454000Y-83761000D02*
X139454000Y-83063000D01*
X137197000Y-83761000D02*
X139454000Y-83761000D01*
X137197000Y-83063000D02*
X137197000Y-83761000D01*
X129323000Y-83698000D02*
X129323000Y-83000000D01*
X127066000Y-83698000D02*
X129323000Y-83698000D01*
X127066000Y-83000000D02*
X127066000Y-83698000D01*
X134374000Y-83761000D02*
X134374000Y-83063000D01*
X132117000Y-83761000D02*
X134374000Y-83761000D01*
X132117000Y-83063000D02*
X132117000Y-83761000D01*
X125540000Y-90960000D02*
X146060000Y-90960000D01*
X125540000Y-90960000D02*
X146060000Y-90960000D01*
X125540000Y-89286000D02*
X146060000Y-89286000D01*
X125540000Y-84714000D02*
X146060000Y-84714000D01*
X125540000Y-91500000D02*
X146060000Y-91500000D01*
X125540000Y-83000000D02*
X125540000Y-91500000D01*
X146060000Y-83000000D02*
X146060000Y-91500000D01*
X125540000Y-83000000D02*
X146060000Y-83000000D01*
X114900000Y-83442000D02*
X113940000Y-82482000D01*
X116090000Y-83442000D02*
X117050000Y-82482000D01*
X119880000Y-83460000D02*
X118920000Y-82500000D01*
X120810000Y-83460000D02*
X121770000Y-82500000D01*
X112720000Y-92243000D02*
X122865000Y-92243000D01*
X122880000Y-82480000D02*
X122880000Y-92640000D01*
X112720000Y-83469000D02*
X122836000Y-83469000D01*
X112720000Y-92638000D02*
X122854000Y-92638000D01*
X112720000Y-82478000D02*
X112720000Y-92638000D01*
X112720000Y-82478000D02*
X122854000Y-82478000D01*
X313500000Y-80800000D02*
X295500000Y-80800000D01*
X295500000Y-80800000D02*
X295500000Y-84300000D01*
X313500000Y-80800000D02*
X313500000Y-84300000D01*
X313500000Y-84300000D02*
X295500000Y-84300000D01*
D13*
X346453733Y-47690000D02*
X346746267Y-47690000D01*
X346453733Y-48710000D02*
X346746267Y-48710000D01*
X346453733Y-22690000D02*
X346746267Y-22690000D01*
X346453733Y-23710000D02*
X346746267Y-23710000D01*
X336877500Y-48454724D02*
X336877500Y-47945276D01*
X337922500Y-48454724D02*
X337922500Y-47945276D01*
X338477500Y-48454724D02*
X338477500Y-47945276D01*
X339522500Y-48454724D02*
X339522500Y-47945276D01*
X353097500Y-58995276D02*
X353097500Y-59504724D01*
X352052500Y-58995276D02*
X352052500Y-59504724D01*
X337922500Y-58957776D02*
X337922500Y-59467224D01*
X336877500Y-58957776D02*
X336877500Y-59467224D01*
X354772500Y-58995276D02*
X354772500Y-59504724D01*
X353727500Y-58995276D02*
X353727500Y-59504724D01*
X337922500Y-29545276D02*
X337922500Y-30054724D01*
X336877500Y-29545276D02*
X336877500Y-30054724D01*
X336322500Y-58945276D02*
X336322500Y-59454724D01*
X335277500Y-58945276D02*
X335277500Y-59454724D01*
X350477500Y-54654724D02*
X350477500Y-54145276D01*
X351522500Y-54654724D02*
X351522500Y-54145276D01*
X338477500Y-54504724D02*
X338477500Y-53995276D01*
X339522500Y-54504724D02*
X339522500Y-53995276D01*
X336322500Y-29545276D02*
X336322500Y-30054724D01*
X335277500Y-29545276D02*
X335277500Y-30054724D01*
X353677500Y-54654724D02*
X353677500Y-54145276D01*
X354722500Y-54654724D02*
X354722500Y-54145276D01*
X334977500Y-54504724D02*
X334977500Y-53995276D01*
X336022500Y-54504724D02*
X336022500Y-53995276D01*
X338277500Y-24054724D02*
X338277500Y-23545276D01*
X339322500Y-24054724D02*
X339322500Y-23545276D01*
X350677500Y-48454724D02*
X350677500Y-47945276D01*
X351722500Y-48454724D02*
X351722500Y-47945276D01*
X336677500Y-24054724D02*
X336677500Y-23545276D01*
X337722500Y-24054724D02*
X337722500Y-23545276D01*
X352277500Y-48454724D02*
X352277500Y-47945276D01*
X353322500Y-48454724D02*
X353322500Y-47945276D01*
X351510000Y-59103733D02*
X351510000Y-59396267D01*
X350490000Y-59103733D02*
X350490000Y-59396267D01*
X339510000Y-59053733D02*
X339510000Y-59346267D01*
X338490000Y-59053733D02*
X338490000Y-59346267D01*
X339510000Y-29653733D02*
X339510000Y-29946267D01*
X338490000Y-29653733D02*
X338490000Y-29946267D01*
X353110000Y-54253733D02*
X353110000Y-54546267D01*
X352090000Y-54253733D02*
X352090000Y-54546267D01*
X337760000Y-54103733D02*
X337760000Y-54396267D01*
X336740000Y-54103733D02*
X336740000Y-54396267D01*
X339890000Y-23946267D02*
X339890000Y-23653733D01*
X340910000Y-23946267D02*
X340910000Y-23653733D01*
X349090000Y-48346267D02*
X349090000Y-48053733D01*
X350110000Y-48346267D02*
X350110000Y-48053733D01*
X340090000Y-48346267D02*
X340090000Y-48053733D01*
X341110000Y-48346267D02*
X341110000Y-48053733D01*
X345000000Y-50565000D02*
X341550000Y-50565000D01*
X345000000Y-50565000D02*
X346950000Y-50565000D01*
X345000000Y-59435000D02*
X343050000Y-59435000D01*
X345000000Y-59435000D02*
X346950000Y-59435000D01*
X345000000Y-25565000D02*
X341550000Y-25565000D01*
X345000000Y-25565000D02*
X346950000Y-25565000D01*
X345000000Y-34435000D02*
X343050000Y-34435000D01*
X345000000Y-34435000D02*
X346950000Y-34435000D01*
D15*
X241798000Y-42490000D02*
X240579000Y-42490000D01*
D14*
X238900000Y-40909000D02*
X238900000Y-40500000D01*
X238900000Y-44500000D02*
X238900000Y-44091000D01*
X243600000Y-40909000D02*
X243600000Y-40500000D01*
X243600000Y-44500000D02*
X243600000Y-44091000D01*
X243600000Y-40500000D02*
X238900000Y-40500000D01*
D15*
X241600000Y-42460000D02*
X240817000Y-41980000D01*
X241639000Y-42970000D02*
X241639000Y-41954000D01*
X240817000Y-41970000D02*
X240817000Y-42986000D01*
X240817000Y-43000000D02*
X241600000Y-42460000D01*
D14*
X243600000Y-44500000D02*
X238900000Y-44500000D01*
X85100000Y-25343000D02*
X85100000Y-23443000D01*
X84201000Y-25343000D02*
X84201000Y-23443000D01*
X84201000Y-23443000D02*
X85100000Y-23443000D01*
X81661000Y-25343000D02*
X81661000Y-23845000D01*
X81661000Y-23845000D02*
X82560000Y-23845000D01*
X82560000Y-23845000D02*
X82560000Y-25343000D01*
X79121000Y-25343000D02*
X79121000Y-23443000D01*
X79121000Y-23443000D02*
X80020000Y-23443000D01*
X80020000Y-23443000D02*
X80020000Y-25343000D01*
X77099000Y-26044000D02*
X77099000Y-25343000D01*
X77099000Y-25343000D02*
X87101000Y-25343000D01*
X87101000Y-25343000D02*
X87101000Y-26044000D01*
D16*
X86301009Y-24444468D02*
G75*
G03*
X86301000Y-24447000I-200009J-532D01*
G01*
D13*
X296335000Y-51372936D02*
X296335000Y-51827064D01*
X294865000Y-51372936D02*
X294865000Y-51827064D01*
X299135000Y-51372936D02*
X299135000Y-51827064D01*
X297665000Y-51372936D02*
X297665000Y-51827064D01*
D14*
X201493000Y2932000D02*
X201493000Y265000D01*
X179493000Y2932000D02*
X179493000Y265000D01*
X177993000Y265000D02*
X177993000Y-19293000D01*
X177993000Y-19293000D02*
X203066000Y-19293000D01*
X203066000Y-19293000D02*
X203066000Y265000D01*
X177993000Y265000D02*
X202993000Y265000D01*
X179493000Y2932000D02*
X201493000Y2932000D01*
X161493000Y2932000D02*
X161493000Y265000D01*
X139493000Y2932000D02*
X139493000Y265000D01*
X137993000Y265000D02*
X137993000Y-19293000D01*
X137993000Y-19293000D02*
X163066000Y-19293000D01*
X163066000Y-19293000D02*
X163066000Y265000D01*
X137993000Y265000D02*
X162993000Y265000D01*
X139493000Y2932000D02*
X161493000Y2932000D01*
D13*
X248660000Y-36420000D02*
X248660000Y-39080000D01*
X296980000Y-36420000D02*
X248660000Y-36420000D01*
X296980000Y-39080000D02*
X248660000Y-39080000D01*
X296980000Y-36420000D02*
X296980000Y-39080000D01*
X298250000Y-36420000D02*
X299580000Y-36420000D01*
X299580000Y-36420000D02*
X299580000Y-37750000D01*
D14*
X355700000Y-11130000D02*
X355700000Y-5530000D01*
X367900000Y-5530000D02*
X367900000Y-11130000D01*
X367900000Y1870000D02*
X355700000Y1870000D01*
X367900000Y-11130000D02*
X355700000Y-11130000D01*
X367900000Y1870000D02*
X367900000Y-2730000D01*
X355700000Y-2730000D02*
X355700000Y1870000D01*
X335700000Y-11130000D02*
X335700000Y-5530000D01*
X347900000Y-5530000D02*
X347900000Y-11130000D01*
X347900000Y1870000D02*
X335700000Y1870000D01*
X347900000Y-11130000D02*
X335700000Y-11130000D01*
X347900000Y1870000D02*
X347900000Y-2730000D01*
X335700000Y-2730000D02*
X335700000Y1870000D01*
D13*
X251270000Y-48550000D02*
X251270000Y-45890000D01*
X251270000Y-48550000D02*
X299590000Y-48550000D01*
X299590000Y-48550000D02*
X299590000Y-45890000D01*
X251270000Y-45890000D02*
X299590000Y-45890000D01*
X248670000Y-45890000D02*
X250000000Y-45890000D01*
X248670000Y-47220000D02*
X248670000Y-45890000D01*
X251270000Y-66330000D02*
X251270000Y-63670000D01*
X251270000Y-66330000D02*
X299590000Y-66330000D01*
X299590000Y-66330000D02*
X299590000Y-63670000D01*
X251270000Y-63670000D02*
X299590000Y-63670000D01*
X248670000Y-63670000D02*
X250000000Y-63670000D01*
X248670000Y-65000000D02*
X248670000Y-63670000D01*
D14*
X315700000Y-11130000D02*
X315700000Y-5530000D01*
X327900000Y-5530000D02*
X327900000Y-11130000D01*
X327900000Y1870000D02*
X315700000Y1870000D01*
X327900000Y-11130000D02*
X315700000Y-11130000D01*
X327900000Y1870000D02*
X327900000Y-2730000D01*
X315700000Y-2730000D02*
X315700000Y1870000D01*
X295700000Y-11130000D02*
X295700000Y-5530000D01*
X307900000Y-5530000D02*
X307900000Y-11130000D01*
X307900000Y1870000D02*
X295700000Y1870000D01*
X307900000Y-11130000D02*
X295700000Y-11130000D01*
X307900000Y1870000D02*
X307900000Y-2730000D01*
X295700000Y-2730000D02*
X295700000Y1870000D01*
X102551000Y-46757000D02*
X102551000Y-24157000D01*
X110751000Y-24957000D02*
X110751000Y-46057000D01*
X110751000Y-46057000D02*
X103351000Y-46057000D01*
X103351000Y-46057000D02*
X103351000Y-24957000D01*
X103351000Y-24957000D02*
X110751000Y-24957000D01*
X110651000Y-45957000D02*
X103451000Y-25057000D01*
X111551000Y-24157000D02*
X108431000Y-24157000D01*
X105569000Y-24157000D02*
X102551000Y-24157000D01*
X102551000Y-46757000D02*
X105571000Y-46757000D01*
X108429000Y-46757000D02*
X111551000Y-46757000D01*
X111551000Y-24157000D02*
X111551000Y-46757000D01*
X103544000Y-4306000D02*
X103544000Y-10745000D01*
X107360000Y875000D02*
X103544000Y875000D01*
X103544000Y875000D02*
X103544000Y-44000D01*
X106682000Y-10745000D02*
X103544000Y-10745000D01*
X111882000Y-10745000D02*
X107518000Y-10745000D01*
X113323000Y-4303000D02*
X113323000Y-10745000D01*
X113323000Y-10745000D02*
X112718000Y-10745000D01*
X110535000Y875000D02*
X113323000Y875000D01*
X113323000Y875000D02*
X113323000Y-47000D01*
X110535000Y875000D02*
X107360000Y875000D01*
D13*
X78765000Y-16261252D02*
X78765000Y-15738748D01*
X80235000Y-16261252D02*
X80235000Y-15738748D01*
X83790000Y-16811252D02*
X83790000Y-15388748D01*
X85610000Y-16811252D02*
X85610000Y-15388748D01*
D10*
X269708380Y-70937333D02*
X270422666Y-70937333D01*
X270565523Y-70984952D01*
X270660761Y-71080190D01*
X270708380Y-71223047D01*
X270708380Y-71318285D01*
X270708380Y-70461142D02*
X269708380Y-70461142D01*
X269708380Y-70080190D01*
X269756000Y-69984952D01*
X269803619Y-69937333D01*
X269898857Y-69889714D01*
X270041714Y-69889714D01*
X270136952Y-69937333D01*
X270184571Y-69984952D01*
X270232190Y-70080190D01*
X270232190Y-70461142D01*
X269708380Y-69032571D02*
X269708380Y-69223047D01*
X269756000Y-69318285D01*
X269803619Y-69365904D01*
X269946476Y-69461142D01*
X270136952Y-69508761D01*
X270517904Y-69508761D01*
X270613142Y-69461142D01*
X270660761Y-69413523D01*
X270708380Y-69318285D01*
X270708380Y-69127809D01*
X270660761Y-69032571D01*
X270613142Y-68984952D01*
X270517904Y-68937333D01*
X270279809Y-68937333D01*
X270184571Y-68984952D01*
X270136952Y-69032571D01*
X270089333Y-69127809D01*
X270089333Y-69318285D01*
X270136952Y-69413523D01*
X270184571Y-69461142D01*
X270279809Y-69508761D01*
X263866380Y-70937333D02*
X264580666Y-70937333D01*
X264723523Y-70984952D01*
X264818761Y-71080190D01*
X264866380Y-71223047D01*
X264866380Y-71318285D01*
X264866380Y-70461142D02*
X263866380Y-70461142D01*
X263866380Y-70080190D01*
X263914000Y-69984952D01*
X263961619Y-69937333D01*
X264056857Y-69889714D01*
X264199714Y-69889714D01*
X264294952Y-69937333D01*
X264342571Y-69984952D01*
X264390190Y-70080190D01*
X264390190Y-70461142D01*
X263866380Y-68984952D02*
X263866380Y-69461142D01*
X264342571Y-69508761D01*
X264294952Y-69461142D01*
X264247333Y-69365904D01*
X264247333Y-69127809D01*
X264294952Y-69032571D01*
X264342571Y-68984952D01*
X264437809Y-68937333D01*
X264675904Y-68937333D01*
X264771142Y-68984952D01*
X264818761Y-69032571D01*
X264866380Y-69127809D01*
X264866380Y-69365904D01*
X264818761Y-69461142D01*
X264771142Y-69508761D01*
X278344380Y-74239333D02*
X279058666Y-74239333D01*
X279201523Y-74286952D01*
X279296761Y-74382190D01*
X279344380Y-74525047D01*
X279344380Y-74620285D01*
X279344380Y-73763142D02*
X278344380Y-73763142D01*
X278344380Y-73382190D01*
X278392000Y-73286952D01*
X278439619Y-73239333D01*
X278534857Y-73191714D01*
X278677714Y-73191714D01*
X278772952Y-73239333D01*
X278820571Y-73286952D01*
X278868190Y-73382190D01*
X278868190Y-73763142D01*
X278677714Y-72334571D02*
X279344380Y-72334571D01*
X278296761Y-72572666D02*
X279011047Y-72810761D01*
X279011047Y-72191714D01*
X69921309Y-83245380D02*
X69921309Y-83959666D01*
X69873690Y-84102523D01*
X69778452Y-84197761D01*
X69635595Y-84245380D01*
X69540357Y-84245380D01*
X70921309Y-84245380D02*
X70349880Y-84245380D01*
X70635595Y-84245380D02*
X70635595Y-83245380D01*
X70540357Y-83388238D01*
X70445119Y-83483476D01*
X70349880Y-83531095D01*
X71873690Y-84245380D02*
X71302261Y-84245380D01*
X71587976Y-84245380D02*
X71587976Y-83245380D01*
X71492738Y-83388238D01*
X71397500Y-83483476D01*
X71302261Y-83531095D01*
X190867309Y-82351380D02*
X190867309Y-83065666D01*
X190819690Y-83208523D01*
X190724452Y-83303761D01*
X190581595Y-83351380D01*
X190486357Y-83351380D01*
X191486357Y-82779952D02*
X191391119Y-82732333D01*
X191343500Y-82684714D01*
X191295880Y-82589476D01*
X191295880Y-82541857D01*
X191343500Y-82446619D01*
X191391119Y-82399000D01*
X191486357Y-82351380D01*
X191676833Y-82351380D01*
X191772071Y-82399000D01*
X191819690Y-82446619D01*
X191867309Y-82541857D01*
X191867309Y-82589476D01*
X191819690Y-82684714D01*
X191772071Y-82732333D01*
X191676833Y-82779952D01*
X191486357Y-82779952D01*
X191391119Y-82827571D01*
X191343500Y-82875190D01*
X191295880Y-82970428D01*
X191295880Y-83160904D01*
X191343500Y-83256142D01*
X191391119Y-83303761D01*
X191486357Y-83351380D01*
X191676833Y-83351380D01*
X191772071Y-83303761D01*
X191819690Y-83256142D01*
X191867309Y-83160904D01*
X191867309Y-82970428D01*
X191819690Y-82875190D01*
X191772071Y-82827571D01*
X191676833Y-82779952D01*
X257008380Y-71191333D02*
X257722666Y-71191333D01*
X257865523Y-71238952D01*
X257960761Y-71334190D01*
X258008380Y-71477047D01*
X258008380Y-71572285D01*
X258008380Y-70715142D02*
X257008380Y-70715142D01*
X257008380Y-70334190D01*
X257056000Y-70238952D01*
X257103619Y-70191333D01*
X257198857Y-70143714D01*
X257341714Y-70143714D01*
X257436952Y-70191333D01*
X257484571Y-70238952D01*
X257532190Y-70334190D01*
X257532190Y-70715142D01*
X257008380Y-69810380D02*
X257008380Y-69191333D01*
X257389333Y-69524666D01*
X257389333Y-69381809D01*
X257436952Y-69286571D01*
X257484571Y-69238952D01*
X257579809Y-69191333D01*
X257817904Y-69191333D01*
X257913142Y-69238952D01*
X257960761Y-69286571D01*
X258008380Y-69381809D01*
X258008380Y-69667523D01*
X257960761Y-69762761D01*
X257913142Y-69810380D01*
X266914380Y-71191333D02*
X267628666Y-71191333D01*
X267771523Y-71238952D01*
X267866761Y-71334190D01*
X267914380Y-71477047D01*
X267914380Y-71572285D01*
X267914380Y-70715142D02*
X266914380Y-70715142D01*
X266914380Y-70334190D01*
X266962000Y-70238952D01*
X267009619Y-70191333D01*
X267104857Y-70143714D01*
X267247714Y-70143714D01*
X267342952Y-70191333D01*
X267390571Y-70238952D01*
X267438190Y-70334190D01*
X267438190Y-70715142D01*
X267009619Y-69762761D02*
X266962000Y-69715142D01*
X266914380Y-69619904D01*
X266914380Y-69381809D01*
X266962000Y-69286571D01*
X267009619Y-69238952D01*
X267104857Y-69191333D01*
X267200095Y-69191333D01*
X267342952Y-69238952D01*
X267914380Y-69810380D01*
X267914380Y-69191333D01*
X273518380Y-71303333D02*
X274232666Y-71303333D01*
X274375523Y-71350952D01*
X274470761Y-71446190D01*
X274518380Y-71589047D01*
X274518380Y-71684285D01*
X274518380Y-70827142D02*
X273518380Y-70827142D01*
X273518380Y-70446190D01*
X273566000Y-70350952D01*
X273613619Y-70303333D01*
X273708857Y-70255714D01*
X273851714Y-70255714D01*
X273946952Y-70303333D01*
X273994571Y-70350952D01*
X274042190Y-70446190D01*
X274042190Y-70827142D01*
X274518380Y-69303333D02*
X274518380Y-69874761D01*
X274518380Y-69589047D02*
X273518380Y-69589047D01*
X273661238Y-69684285D01*
X273756476Y-69779523D01*
X273804095Y-69874761D01*
X260464380Y-77814404D02*
X261273904Y-77814404D01*
X261369142Y-77766785D01*
X261416761Y-77719166D01*
X261464380Y-77623928D01*
X261464380Y-77433452D01*
X261416761Y-77338214D01*
X261369142Y-77290595D01*
X261273904Y-77242976D01*
X260464380Y-77242976D01*
X260464380Y-76338214D02*
X260464380Y-76528690D01*
X260512000Y-76623928D01*
X260559619Y-76671547D01*
X260702476Y-76766785D01*
X260892952Y-76814404D01*
X261273904Y-76814404D01*
X261369142Y-76766785D01*
X261416761Y-76719166D01*
X261464380Y-76623928D01*
X261464380Y-76433452D01*
X261416761Y-76338214D01*
X261369142Y-76290595D01*
X261273904Y-76242976D01*
X261035809Y-76242976D01*
X260940571Y-76290595D01*
X260892952Y-76338214D01*
X260845333Y-76433452D01*
X260845333Y-76623928D01*
X260892952Y-76719166D01*
X260940571Y-76766785D01*
X261035809Y-76814404D01*
X268486380Y-81728404D02*
X269295904Y-81728404D01*
X269391142Y-81680785D01*
X269438761Y-81633166D01*
X269486380Y-81537928D01*
X269486380Y-81347452D01*
X269438761Y-81252214D01*
X269391142Y-81204595D01*
X269295904Y-81156976D01*
X268486380Y-81156976D01*
X268486380Y-80204595D02*
X268486380Y-80680785D01*
X268962571Y-80728404D01*
X268914952Y-80680785D01*
X268867333Y-80585547D01*
X268867333Y-80347452D01*
X268914952Y-80252214D01*
X268962571Y-80204595D01*
X269057809Y-80156976D01*
X269295904Y-80156976D01*
X269391142Y-80204595D01*
X269438761Y-80252214D01*
X269486380Y-80347452D01*
X269486380Y-80585547D01*
X269438761Y-80680785D01*
X269391142Y-80728404D01*
X275114380Y-81598404D02*
X275923904Y-81598404D01*
X276019142Y-81550785D01*
X276066761Y-81503166D01*
X276114380Y-81407928D01*
X276114380Y-81217452D01*
X276066761Y-81122214D01*
X276019142Y-81074595D01*
X275923904Y-81026976D01*
X275114380Y-81026976D01*
X275447714Y-80122214D02*
X276114380Y-80122214D01*
X275066761Y-80360309D02*
X275781047Y-80598404D01*
X275781047Y-79979357D01*
X273041142Y-78556857D02*
X273088761Y-78604476D01*
X273136380Y-78747333D01*
X273136380Y-78842571D01*
X273088761Y-78985428D01*
X272993523Y-79080666D01*
X272898285Y-79128285D01*
X272707809Y-79175904D01*
X272564952Y-79175904D01*
X272374476Y-79128285D01*
X272279238Y-79080666D01*
X272184000Y-78985428D01*
X272136380Y-78842571D01*
X272136380Y-78747333D01*
X272184000Y-78604476D01*
X272231619Y-78556857D01*
X273136380Y-77604476D02*
X273136380Y-78175904D01*
X273136380Y-77890190D02*
X272136380Y-77890190D01*
X272279238Y-77985428D01*
X272374476Y-78080666D01*
X272422095Y-78175904D01*
X272136380Y-76699714D02*
X272136380Y-77175904D01*
X272612571Y-77223523D01*
X272564952Y-77175904D01*
X272517333Y-77080666D01*
X272517333Y-76842571D01*
X272564952Y-76747333D01*
X272612571Y-76699714D01*
X272707809Y-76652095D01*
X272945904Y-76652095D01*
X273041142Y-76699714D01*
X273088761Y-76747333D01*
X273136380Y-76842571D01*
X273136380Y-77080666D01*
X273088761Y-77175904D01*
X273041142Y-77223523D01*
X277311142Y-78620857D02*
X277358761Y-78668476D01*
X277406380Y-78811333D01*
X277406380Y-78906571D01*
X277358761Y-79049428D01*
X277263523Y-79144666D01*
X277168285Y-79192285D01*
X276977809Y-79239904D01*
X276834952Y-79239904D01*
X276644476Y-79192285D01*
X276549238Y-79144666D01*
X276454000Y-79049428D01*
X276406380Y-78906571D01*
X276406380Y-78811333D01*
X276454000Y-78668476D01*
X276501619Y-78620857D01*
X277406380Y-77668476D02*
X277406380Y-78239904D01*
X277406380Y-77954190D02*
X276406380Y-77954190D01*
X276549238Y-78049428D01*
X276644476Y-78144666D01*
X276692095Y-78239904D01*
X276739714Y-76811333D02*
X277406380Y-76811333D01*
X276358761Y-77049428D02*
X277073047Y-77287523D01*
X277073047Y-76668476D01*
X265219142Y-75345357D02*
X265266761Y-75392976D01*
X265314380Y-75535833D01*
X265314380Y-75631071D01*
X265266761Y-75773928D01*
X265171523Y-75869166D01*
X265076285Y-75916785D01*
X264885809Y-75964404D01*
X264742952Y-75964404D01*
X264552476Y-75916785D01*
X264457238Y-75869166D01*
X264362000Y-75773928D01*
X264314380Y-75631071D01*
X264314380Y-75535833D01*
X264362000Y-75392976D01*
X264409619Y-75345357D01*
X265314380Y-74392976D02*
X265314380Y-74964404D01*
X265314380Y-74678690D02*
X264314380Y-74678690D01*
X264457238Y-74773928D01*
X264552476Y-74869166D01*
X264600095Y-74964404D01*
X264314380Y-74059642D02*
X264314380Y-73440595D01*
X264695333Y-73773928D01*
X264695333Y-73631071D01*
X264742952Y-73535833D01*
X264790571Y-73488214D01*
X264885809Y-73440595D01*
X265123904Y-73440595D01*
X265219142Y-73488214D01*
X265266761Y-73535833D01*
X265314380Y-73631071D01*
X265314380Y-73916785D01*
X265266761Y-74012023D01*
X265219142Y-74059642D01*
X257321309Y-83245380D02*
X257321309Y-83959666D01*
X257273690Y-84102523D01*
X257178452Y-84197761D01*
X257035595Y-84245380D01*
X256940357Y-84245380D01*
X258321309Y-84245380D02*
X257749880Y-84245380D01*
X258035595Y-84245380D02*
X258035595Y-83245380D01*
X257940357Y-83388238D01*
X257845119Y-83483476D01*
X257749880Y-83531095D01*
X259178452Y-83578714D02*
X259178452Y-84245380D01*
X258940357Y-83197761D02*
X258702261Y-83912047D01*
X259321309Y-83912047D01*
X236459642Y-89659380D02*
X236459642Y-90373666D01*
X236412023Y-90516523D01*
X236316785Y-90611761D01*
X236173928Y-90659380D01*
X236078690Y-90659380D01*
X237459642Y-90659380D02*
X236888214Y-90659380D01*
X237173928Y-90659380D02*
X237173928Y-89659380D01*
X237078690Y-89802238D01*
X236983452Y-89897476D01*
X236888214Y-89945095D01*
X237792976Y-89659380D02*
X238412023Y-89659380D01*
X238078690Y-90040333D01*
X238221547Y-90040333D01*
X238316785Y-90087952D01*
X238364404Y-90135571D01*
X238412023Y-90230809D01*
X238412023Y-90468904D01*
X238364404Y-90564142D01*
X238316785Y-90611761D01*
X238221547Y-90659380D01*
X237935833Y-90659380D01*
X237840595Y-90611761D01*
X237792976Y-90564142D01*
X136421309Y-83245380D02*
X136421309Y-83959666D01*
X136373690Y-84102523D01*
X136278452Y-84197761D01*
X136135595Y-84245380D01*
X136040357Y-84245380D01*
X137421309Y-84245380D02*
X136849880Y-84245380D01*
X137135595Y-84245380D02*
X137135595Y-83245380D01*
X137040357Y-83388238D01*
X136945119Y-83483476D01*
X136849880Y-83531095D01*
X138040357Y-83245380D02*
X138135595Y-83245380D01*
X138230833Y-83293000D01*
X138278452Y-83340619D01*
X138326071Y-83435857D01*
X138373690Y-83626333D01*
X138373690Y-83864428D01*
X138326071Y-84054904D01*
X138278452Y-84150142D01*
X138230833Y-84197761D01*
X138135595Y-84245380D01*
X138040357Y-84245380D01*
X137945119Y-84197761D01*
X137897500Y-84150142D01*
X137849880Y-84054904D01*
X137802261Y-83864428D01*
X137802261Y-83626333D01*
X137849880Y-83435857D01*
X137897500Y-83340619D01*
X137945119Y-83293000D01*
X138040357Y-83245380D01*
X116512023Y-89659380D02*
X116512023Y-90373666D01*
X116464404Y-90516523D01*
X116369166Y-90611761D01*
X116226309Y-90659380D01*
X116131071Y-90659380D01*
X117035833Y-90659380D02*
X117226309Y-90659380D01*
X117321547Y-90611761D01*
X117369166Y-90564142D01*
X117464404Y-90421285D01*
X117512023Y-90230809D01*
X117512023Y-89849857D01*
X117464404Y-89754619D01*
X117416785Y-89707000D01*
X117321547Y-89659380D01*
X117131071Y-89659380D01*
X117035833Y-89707000D01*
X116988214Y-89754619D01*
X116940595Y-89849857D01*
X116940595Y-90087952D01*
X116988214Y-90183190D01*
X117035833Y-90230809D01*
X117131071Y-90278428D01*
X117321547Y-90278428D01*
X117416785Y-90230809D01*
X117464404Y-90183190D01*
X117512023Y-90087952D01*
X303212023Y-85659380D02*
X303212023Y-86373666D01*
X303164404Y-86516523D01*
X303069166Y-86611761D01*
X302926309Y-86659380D01*
X302831071Y-86659380D01*
X303592976Y-85659380D02*
X304259642Y-85659380D01*
X303831071Y-86659380D01*
X346433333Y-47127142D02*
X346385714Y-47174761D01*
X346242857Y-47222380D01*
X346147619Y-47222380D01*
X346004761Y-47174761D01*
X345909523Y-47079523D01*
X345861904Y-46984285D01*
X345814285Y-46793809D01*
X345814285Y-46650952D01*
X345861904Y-46460476D01*
X345909523Y-46365238D01*
X346004761Y-46270000D01*
X346147619Y-46222380D01*
X346242857Y-46222380D01*
X346385714Y-46270000D01*
X346433333Y-46317619D01*
X347290476Y-46555714D02*
X347290476Y-47222380D01*
X347052380Y-46174761D02*
X346814285Y-46889047D01*
X347433333Y-46889047D01*
X346433333Y-22127142D02*
X346385714Y-22174761D01*
X346242857Y-22222380D01*
X346147619Y-22222380D01*
X346004761Y-22174761D01*
X345909523Y-22079523D01*
X345861904Y-21984285D01*
X345814285Y-21793809D01*
X345814285Y-21650952D01*
X345861904Y-21460476D01*
X345909523Y-21365238D01*
X346004761Y-21270000D01*
X346147619Y-21222380D01*
X346242857Y-21222380D01*
X346385714Y-21270000D01*
X346433333Y-21317619D01*
X346766666Y-21222380D02*
X347385714Y-21222380D01*
X347052380Y-21603333D01*
X347195238Y-21603333D01*
X347290476Y-21650952D01*
X347338095Y-21698571D01*
X347385714Y-21793809D01*
X347385714Y-22031904D01*
X347338095Y-22127142D01*
X347290476Y-22174761D01*
X347195238Y-22222380D01*
X346909523Y-22222380D01*
X346814285Y-22174761D01*
X346766666Y-22127142D01*
X337852380Y-45566666D02*
X337376190Y-45900000D01*
X337852380Y-46138095D02*
X336852380Y-46138095D01*
X336852380Y-45757142D01*
X336900000Y-45661904D01*
X336947619Y-45614285D01*
X337042857Y-45566666D01*
X337185714Y-45566666D01*
X337280952Y-45614285D01*
X337328571Y-45661904D01*
X337376190Y-45757142D01*
X337376190Y-46138095D01*
X337280952Y-44995238D02*
X337233333Y-45090476D01*
X337185714Y-45138095D01*
X337090476Y-45185714D01*
X337042857Y-45185714D01*
X336947619Y-45138095D01*
X336900000Y-45090476D01*
X336852380Y-44995238D01*
X336852380Y-44804761D01*
X336900000Y-44709523D01*
X336947619Y-44661904D01*
X337042857Y-44614285D01*
X337090476Y-44614285D01*
X337185714Y-44661904D01*
X337233333Y-44709523D01*
X337280952Y-44804761D01*
X337280952Y-44995238D01*
X337328571Y-45090476D01*
X337376190Y-45138095D01*
X337471428Y-45185714D01*
X337661904Y-45185714D01*
X337757142Y-45138095D01*
X337804761Y-45090476D01*
X337852380Y-44995238D01*
X337852380Y-44804761D01*
X337804761Y-44709523D01*
X337757142Y-44661904D01*
X337661904Y-44614285D01*
X337471428Y-44614285D01*
X337376190Y-44661904D01*
X337328571Y-44709523D01*
X337280952Y-44804761D01*
X339452380Y-45566666D02*
X338976190Y-45900000D01*
X339452380Y-46138095D02*
X338452380Y-46138095D01*
X338452380Y-45757142D01*
X338500000Y-45661904D01*
X338547619Y-45614285D01*
X338642857Y-45566666D01*
X338785714Y-45566666D01*
X338880952Y-45614285D01*
X338928571Y-45661904D01*
X338976190Y-45757142D01*
X338976190Y-46138095D01*
X338452380Y-44661904D02*
X338452380Y-45138095D01*
X338928571Y-45185714D01*
X338880952Y-45138095D01*
X338833333Y-45042857D01*
X338833333Y-44804761D01*
X338880952Y-44709523D01*
X338928571Y-44661904D01*
X339023809Y-44614285D01*
X339261904Y-44614285D01*
X339357142Y-44661904D01*
X339404761Y-44709523D01*
X339452380Y-44804761D01*
X339452380Y-45042857D01*
X339404761Y-45138095D01*
X339357142Y-45185714D01*
X352952380Y-62892857D02*
X352476190Y-63226190D01*
X352952380Y-63464285D02*
X351952380Y-63464285D01*
X351952380Y-63083333D01*
X352000000Y-62988095D01*
X352047619Y-62940476D01*
X352142857Y-62892857D01*
X352285714Y-62892857D01*
X352380952Y-62940476D01*
X352428571Y-62988095D01*
X352476190Y-63083333D01*
X352476190Y-63464285D01*
X352952380Y-61940476D02*
X352952380Y-62511904D01*
X352952380Y-62226190D02*
X351952380Y-62226190D01*
X352095238Y-62321428D01*
X352190476Y-62416666D01*
X352238095Y-62511904D01*
X352380952Y-61369047D02*
X352333333Y-61464285D01*
X352285714Y-61511904D01*
X352190476Y-61559523D01*
X352142857Y-61559523D01*
X352047619Y-61511904D01*
X352000000Y-61464285D01*
X351952380Y-61369047D01*
X351952380Y-61178571D01*
X352000000Y-61083333D01*
X352047619Y-61035714D01*
X352142857Y-60988095D01*
X352190476Y-60988095D01*
X352285714Y-61035714D01*
X352333333Y-61083333D01*
X352380952Y-61178571D01*
X352380952Y-61369047D01*
X352428571Y-61464285D01*
X352476190Y-61511904D01*
X352571428Y-61559523D01*
X352761904Y-61559523D01*
X352857142Y-61511904D01*
X352904761Y-61464285D01*
X352952380Y-61369047D01*
X352952380Y-61178571D01*
X352904761Y-61083333D01*
X352857142Y-61035714D01*
X352761904Y-60988095D01*
X352571428Y-60988095D01*
X352476190Y-61035714D01*
X352428571Y-61083333D01*
X352380952Y-61178571D01*
X337852380Y-63142857D02*
X337376190Y-63476190D01*
X337852380Y-63714285D02*
X336852380Y-63714285D01*
X336852380Y-63333333D01*
X336900000Y-63238095D01*
X336947619Y-63190476D01*
X337042857Y-63142857D01*
X337185714Y-63142857D01*
X337280952Y-63190476D01*
X337328571Y-63238095D01*
X337376190Y-63333333D01*
X337376190Y-63714285D01*
X337852380Y-62190476D02*
X337852380Y-62761904D01*
X337852380Y-62476190D02*
X336852380Y-62476190D01*
X336995238Y-62571428D01*
X337090476Y-62666666D01*
X337138095Y-62761904D01*
X336852380Y-61857142D02*
X336852380Y-61190476D01*
X337852380Y-61619047D01*
X354702380Y-62892857D02*
X354226190Y-63226190D01*
X354702380Y-63464285D02*
X353702380Y-63464285D01*
X353702380Y-63083333D01*
X353750000Y-62988095D01*
X353797619Y-62940476D01*
X353892857Y-62892857D01*
X354035714Y-62892857D01*
X354130952Y-62940476D01*
X354178571Y-62988095D01*
X354226190Y-63083333D01*
X354226190Y-63464285D01*
X354702380Y-61940476D02*
X354702380Y-62511904D01*
X354702380Y-62226190D02*
X353702380Y-62226190D01*
X353845238Y-62321428D01*
X353940476Y-62416666D01*
X353988095Y-62511904D01*
X353702380Y-61083333D02*
X353702380Y-61273809D01*
X353750000Y-61369047D01*
X353797619Y-61416666D01*
X353940476Y-61511904D01*
X354130952Y-61559523D01*
X354511904Y-61559523D01*
X354607142Y-61511904D01*
X354654761Y-61464285D01*
X354702380Y-61369047D01*
X354702380Y-61178571D01*
X354654761Y-61083333D01*
X354607142Y-61035714D01*
X354511904Y-60988095D01*
X354273809Y-60988095D01*
X354178571Y-61035714D01*
X354130952Y-61083333D01*
X354083333Y-61178571D01*
X354083333Y-61369047D01*
X354130952Y-61464285D01*
X354178571Y-61511904D01*
X354273809Y-61559523D01*
X337852380Y-27442857D02*
X337376190Y-27776190D01*
X337852380Y-28014285D02*
X336852380Y-28014285D01*
X336852380Y-27633333D01*
X336900000Y-27538095D01*
X336947619Y-27490476D01*
X337042857Y-27442857D01*
X337185714Y-27442857D01*
X337280952Y-27490476D01*
X337328571Y-27538095D01*
X337376190Y-27633333D01*
X337376190Y-28014285D01*
X337852380Y-26490476D02*
X337852380Y-27061904D01*
X337852380Y-26776190D02*
X336852380Y-26776190D01*
X336995238Y-26871428D01*
X337090476Y-26966666D01*
X337138095Y-27061904D01*
X336852380Y-25585714D02*
X336852380Y-26061904D01*
X337328571Y-26109523D01*
X337280952Y-26061904D01*
X337233333Y-25966666D01*
X337233333Y-25728571D01*
X337280952Y-25633333D01*
X337328571Y-25585714D01*
X337423809Y-25538095D01*
X337661904Y-25538095D01*
X337757142Y-25585714D01*
X337804761Y-25633333D01*
X337852380Y-25728571D01*
X337852380Y-25966666D01*
X337804761Y-26061904D01*
X337757142Y-26109523D01*
X336252380Y-63142857D02*
X335776190Y-63476190D01*
X336252380Y-63714285D02*
X335252380Y-63714285D01*
X335252380Y-63333333D01*
X335300000Y-63238095D01*
X335347619Y-63190476D01*
X335442857Y-63142857D01*
X335585714Y-63142857D01*
X335680952Y-63190476D01*
X335728571Y-63238095D01*
X335776190Y-63333333D01*
X335776190Y-63714285D01*
X336252380Y-62190476D02*
X336252380Y-62761904D01*
X336252380Y-62476190D02*
X335252380Y-62476190D01*
X335395238Y-62571428D01*
X335490476Y-62666666D01*
X335538095Y-62761904D01*
X335585714Y-61333333D02*
X336252380Y-61333333D01*
X335204761Y-61571428D02*
X335919047Y-61809523D01*
X335919047Y-61190476D01*
X351452380Y-52042857D02*
X350976190Y-52376190D01*
X351452380Y-52614285D02*
X350452380Y-52614285D01*
X350452380Y-52233333D01*
X350500000Y-52138095D01*
X350547619Y-52090476D01*
X350642857Y-52042857D01*
X350785714Y-52042857D01*
X350880952Y-52090476D01*
X350928571Y-52138095D01*
X350976190Y-52233333D01*
X350976190Y-52614285D01*
X351452380Y-51090476D02*
X351452380Y-51661904D01*
X351452380Y-51376190D02*
X350452380Y-51376190D01*
X350595238Y-51471428D01*
X350690476Y-51566666D01*
X350738095Y-51661904D01*
X350452380Y-50757142D02*
X350452380Y-50138095D01*
X350833333Y-50471428D01*
X350833333Y-50328571D01*
X350880952Y-50233333D01*
X350928571Y-50185714D01*
X351023809Y-50138095D01*
X351261904Y-50138095D01*
X351357142Y-50185714D01*
X351404761Y-50233333D01*
X351452380Y-50328571D01*
X351452380Y-50614285D01*
X351404761Y-50709523D01*
X351357142Y-50757142D01*
X339452380Y-51892857D02*
X338976190Y-52226190D01*
X339452380Y-52464285D02*
X338452380Y-52464285D01*
X338452380Y-52083333D01*
X338500000Y-51988095D01*
X338547619Y-51940476D01*
X338642857Y-51892857D01*
X338785714Y-51892857D01*
X338880952Y-51940476D01*
X338928571Y-51988095D01*
X338976190Y-52083333D01*
X338976190Y-52464285D01*
X339452380Y-50940476D02*
X339452380Y-51511904D01*
X339452380Y-51226190D02*
X338452380Y-51226190D01*
X338595238Y-51321428D01*
X338690476Y-51416666D01*
X338738095Y-51511904D01*
X338547619Y-50559523D02*
X338500000Y-50511904D01*
X338452380Y-50416666D01*
X338452380Y-50178571D01*
X338500000Y-50083333D01*
X338547619Y-50035714D01*
X338642857Y-49988095D01*
X338738095Y-49988095D01*
X338880952Y-50035714D01*
X339452380Y-50607142D01*
X339452380Y-49988095D01*
X336252380Y-27442857D02*
X335776190Y-27776190D01*
X336252380Y-28014285D02*
X335252380Y-28014285D01*
X335252380Y-27633333D01*
X335300000Y-27538095D01*
X335347619Y-27490476D01*
X335442857Y-27442857D01*
X335585714Y-27442857D01*
X335680952Y-27490476D01*
X335728571Y-27538095D01*
X335776190Y-27633333D01*
X335776190Y-28014285D01*
X336252380Y-26490476D02*
X336252380Y-27061904D01*
X336252380Y-26776190D02*
X335252380Y-26776190D01*
X335395238Y-26871428D01*
X335490476Y-26966666D01*
X335538095Y-27061904D01*
X336252380Y-25538095D02*
X336252380Y-26109523D01*
X336252380Y-25823809D02*
X335252380Y-25823809D01*
X335395238Y-25919047D01*
X335490476Y-26014285D01*
X335538095Y-26109523D01*
X354652380Y-52042857D02*
X354176190Y-52376190D01*
X354652380Y-52614285D02*
X353652380Y-52614285D01*
X353652380Y-52233333D01*
X353700000Y-52138095D01*
X353747619Y-52090476D01*
X353842857Y-52042857D01*
X353985714Y-52042857D01*
X354080952Y-52090476D01*
X354128571Y-52138095D01*
X354176190Y-52233333D01*
X354176190Y-52614285D01*
X354652380Y-51090476D02*
X354652380Y-51661904D01*
X354652380Y-51376190D02*
X353652380Y-51376190D01*
X353795238Y-51471428D01*
X353890476Y-51566666D01*
X353938095Y-51661904D01*
X353652380Y-50471428D02*
X353652380Y-50376190D01*
X353700000Y-50280952D01*
X353747619Y-50233333D01*
X353842857Y-50185714D01*
X354033333Y-50138095D01*
X354271428Y-50138095D01*
X354461904Y-50185714D01*
X354557142Y-50233333D01*
X354604761Y-50280952D01*
X354652380Y-50376190D01*
X354652380Y-50471428D01*
X354604761Y-50566666D01*
X354557142Y-50614285D01*
X354461904Y-50661904D01*
X354271428Y-50709523D01*
X354033333Y-50709523D01*
X353842857Y-50661904D01*
X353747619Y-50614285D01*
X353700000Y-50566666D01*
X353652380Y-50471428D01*
X335952380Y-51816666D02*
X335476190Y-52150000D01*
X335952380Y-52388095D02*
X334952380Y-52388095D01*
X334952380Y-52007142D01*
X335000000Y-51911904D01*
X335047619Y-51864285D01*
X335142857Y-51816666D01*
X335285714Y-51816666D01*
X335380952Y-51864285D01*
X335428571Y-51911904D01*
X335476190Y-52007142D01*
X335476190Y-52388095D01*
X335952380Y-51340476D02*
X335952380Y-51150000D01*
X335904761Y-51054761D01*
X335857142Y-51007142D01*
X335714285Y-50911904D01*
X335523809Y-50864285D01*
X335142857Y-50864285D01*
X335047619Y-50911904D01*
X335000000Y-50959523D01*
X334952380Y-51054761D01*
X334952380Y-51245238D01*
X335000000Y-51340476D01*
X335047619Y-51388095D01*
X335142857Y-51435714D01*
X335380952Y-51435714D01*
X335476190Y-51388095D01*
X335523809Y-51340476D01*
X335571428Y-51245238D01*
X335571428Y-51054761D01*
X335523809Y-50959523D01*
X335476190Y-50911904D01*
X335380952Y-50864285D01*
X339202380Y-21166666D02*
X338726190Y-21500000D01*
X339202380Y-21738095D02*
X338202380Y-21738095D01*
X338202380Y-21357142D01*
X338250000Y-21261904D01*
X338297619Y-21214285D01*
X338392857Y-21166666D01*
X338535714Y-21166666D01*
X338630952Y-21214285D01*
X338678571Y-21261904D01*
X338726190Y-21357142D01*
X338726190Y-21738095D01*
X338202380Y-20833333D02*
X338202380Y-20166666D01*
X339202380Y-20595238D01*
X351652380Y-45566666D02*
X351176190Y-45900000D01*
X351652380Y-46138095D02*
X350652380Y-46138095D01*
X350652380Y-45757142D01*
X350700000Y-45661904D01*
X350747619Y-45614285D01*
X350842857Y-45566666D01*
X350985714Y-45566666D01*
X351080952Y-45614285D01*
X351128571Y-45661904D01*
X351176190Y-45757142D01*
X351176190Y-46138095D01*
X350652380Y-44709523D02*
X350652380Y-44900000D01*
X350700000Y-44995238D01*
X350747619Y-45042857D01*
X350890476Y-45138095D01*
X351080952Y-45185714D01*
X351461904Y-45185714D01*
X351557142Y-45138095D01*
X351604761Y-45090476D01*
X351652380Y-44995238D01*
X351652380Y-44804761D01*
X351604761Y-44709523D01*
X351557142Y-44661904D01*
X351461904Y-44614285D01*
X351223809Y-44614285D01*
X351128571Y-44661904D01*
X351080952Y-44709523D01*
X351033333Y-44804761D01*
X351033333Y-44995238D01*
X351080952Y-45090476D01*
X351128571Y-45138095D01*
X351223809Y-45185714D01*
X337702380Y-21166666D02*
X337226190Y-21500000D01*
X337702380Y-21738095D02*
X336702380Y-21738095D01*
X336702380Y-21357142D01*
X336750000Y-21261904D01*
X336797619Y-21214285D01*
X336892857Y-21166666D01*
X337035714Y-21166666D01*
X337130952Y-21214285D01*
X337178571Y-21261904D01*
X337226190Y-21357142D01*
X337226190Y-21738095D01*
X337035714Y-20309523D02*
X337702380Y-20309523D01*
X336654761Y-20547619D02*
X337369047Y-20785714D01*
X337369047Y-20166666D01*
X353252380Y-45566666D02*
X352776190Y-45900000D01*
X353252380Y-46138095D02*
X352252380Y-46138095D01*
X352252380Y-45757142D01*
X352300000Y-45661904D01*
X352347619Y-45614285D01*
X352442857Y-45566666D01*
X352585714Y-45566666D01*
X352680952Y-45614285D01*
X352728571Y-45661904D01*
X352776190Y-45757142D01*
X352776190Y-46138095D01*
X352252380Y-45233333D02*
X352252380Y-44614285D01*
X352633333Y-44947619D01*
X352633333Y-44804761D01*
X352680952Y-44709523D01*
X352728571Y-44661904D01*
X352823809Y-44614285D01*
X353061904Y-44614285D01*
X353157142Y-44661904D01*
X353204761Y-44709523D01*
X353252380Y-44804761D01*
X353252380Y-45090476D01*
X353204761Y-45185714D01*
X353157142Y-45233333D01*
X351357142Y-62892857D02*
X351404761Y-62940476D01*
X351452380Y-63083333D01*
X351452380Y-63178571D01*
X351404761Y-63321428D01*
X351309523Y-63416666D01*
X351214285Y-63464285D01*
X351023809Y-63511904D01*
X350880952Y-63511904D01*
X350690476Y-63464285D01*
X350595238Y-63416666D01*
X350500000Y-63321428D01*
X350452380Y-63178571D01*
X350452380Y-63083333D01*
X350500000Y-62940476D01*
X350547619Y-62892857D01*
X351452380Y-61940476D02*
X351452380Y-62511904D01*
X351452380Y-62226190D02*
X350452380Y-62226190D01*
X350595238Y-62321428D01*
X350690476Y-62416666D01*
X350738095Y-62511904D01*
X350547619Y-61559523D02*
X350500000Y-61511904D01*
X350452380Y-61416666D01*
X350452380Y-61178571D01*
X350500000Y-61083333D01*
X350547619Y-61035714D01*
X350642857Y-60988095D01*
X350738095Y-60988095D01*
X350880952Y-61035714D01*
X351452380Y-61607142D01*
X351452380Y-60988095D01*
X339357142Y-62842857D02*
X339404761Y-62890476D01*
X339452380Y-63033333D01*
X339452380Y-63128571D01*
X339404761Y-63271428D01*
X339309523Y-63366666D01*
X339214285Y-63414285D01*
X339023809Y-63461904D01*
X338880952Y-63461904D01*
X338690476Y-63414285D01*
X338595238Y-63366666D01*
X338500000Y-63271428D01*
X338452380Y-63128571D01*
X338452380Y-63033333D01*
X338500000Y-62890476D01*
X338547619Y-62842857D01*
X339452380Y-61890476D02*
X339452380Y-62461904D01*
X339452380Y-62176190D02*
X338452380Y-62176190D01*
X338595238Y-62271428D01*
X338690476Y-62366666D01*
X338738095Y-62461904D01*
X339452380Y-60938095D02*
X339452380Y-61509523D01*
X339452380Y-61223809D02*
X338452380Y-61223809D01*
X338595238Y-61319047D01*
X338690476Y-61414285D01*
X338738095Y-61509523D01*
X339357142Y-27442857D02*
X339404761Y-27490476D01*
X339452380Y-27633333D01*
X339452380Y-27728571D01*
X339404761Y-27871428D01*
X339309523Y-27966666D01*
X339214285Y-28014285D01*
X339023809Y-28061904D01*
X338880952Y-28061904D01*
X338690476Y-28014285D01*
X338595238Y-27966666D01*
X338500000Y-27871428D01*
X338452380Y-27728571D01*
X338452380Y-27633333D01*
X338500000Y-27490476D01*
X338547619Y-27442857D01*
X339452380Y-26490476D02*
X339452380Y-27061904D01*
X339452380Y-26776190D02*
X338452380Y-26776190D01*
X338595238Y-26871428D01*
X338690476Y-26966666D01*
X338738095Y-27061904D01*
X338452380Y-25871428D02*
X338452380Y-25776190D01*
X338500000Y-25680952D01*
X338547619Y-25633333D01*
X338642857Y-25585714D01*
X338833333Y-25538095D01*
X339071428Y-25538095D01*
X339261904Y-25585714D01*
X339357142Y-25633333D01*
X339404761Y-25680952D01*
X339452380Y-25776190D01*
X339452380Y-25871428D01*
X339404761Y-25966666D01*
X339357142Y-26014285D01*
X339261904Y-26061904D01*
X339071428Y-26109523D01*
X338833333Y-26109523D01*
X338642857Y-26061904D01*
X338547619Y-26014285D01*
X338500000Y-25966666D01*
X338452380Y-25871428D01*
X353107142Y-51666666D02*
X353154761Y-51714285D01*
X353202380Y-51857142D01*
X353202380Y-51952380D01*
X353154761Y-52095238D01*
X353059523Y-52190476D01*
X352964285Y-52238095D01*
X352773809Y-52285714D01*
X352630952Y-52285714D01*
X352440476Y-52238095D01*
X352345238Y-52190476D01*
X352250000Y-52095238D01*
X352202380Y-51952380D01*
X352202380Y-51857142D01*
X352250000Y-51714285D01*
X352297619Y-51666666D01*
X353202380Y-51190476D02*
X353202380Y-51000000D01*
X353154761Y-50904761D01*
X353107142Y-50857142D01*
X352964285Y-50761904D01*
X352773809Y-50714285D01*
X352392857Y-50714285D01*
X352297619Y-50761904D01*
X352250000Y-50809523D01*
X352202380Y-50904761D01*
X352202380Y-51095238D01*
X352250000Y-51190476D01*
X352297619Y-51238095D01*
X352392857Y-51285714D01*
X352630952Y-51285714D01*
X352726190Y-51238095D01*
X352773809Y-51190476D01*
X352821428Y-51095238D01*
X352821428Y-50904761D01*
X352773809Y-50809523D01*
X352726190Y-50761904D01*
X352630952Y-50714285D01*
X337607142Y-51666666D02*
X337654761Y-51714285D01*
X337702380Y-51857142D01*
X337702380Y-51952380D01*
X337654761Y-52095238D01*
X337559523Y-52190476D01*
X337464285Y-52238095D01*
X337273809Y-52285714D01*
X337130952Y-52285714D01*
X336940476Y-52238095D01*
X336845238Y-52190476D01*
X336750000Y-52095238D01*
X336702380Y-51952380D01*
X336702380Y-51857142D01*
X336750000Y-51714285D01*
X336797619Y-51666666D01*
X337130952Y-51095238D02*
X337083333Y-51190476D01*
X337035714Y-51238095D01*
X336940476Y-51285714D01*
X336892857Y-51285714D01*
X336797619Y-51238095D01*
X336750000Y-51190476D01*
X336702380Y-51095238D01*
X336702380Y-50904761D01*
X336750000Y-50809523D01*
X336797619Y-50761904D01*
X336892857Y-50714285D01*
X336940476Y-50714285D01*
X337035714Y-50761904D01*
X337083333Y-50809523D01*
X337130952Y-50904761D01*
X337130952Y-51095238D01*
X337178571Y-51190476D01*
X337226190Y-51238095D01*
X337321428Y-51285714D01*
X337511904Y-51285714D01*
X337607142Y-51238095D01*
X337654761Y-51190476D01*
X337702380Y-51095238D01*
X337702380Y-50904761D01*
X337654761Y-50809523D01*
X337607142Y-50761904D01*
X337511904Y-50714285D01*
X337321428Y-50714285D01*
X337226190Y-50761904D01*
X337178571Y-50809523D01*
X337130952Y-50904761D01*
X340857142Y-21166666D02*
X340904761Y-21214285D01*
X340952380Y-21357142D01*
X340952380Y-21452380D01*
X340904761Y-21595238D01*
X340809523Y-21690476D01*
X340714285Y-21738095D01*
X340523809Y-21785714D01*
X340380952Y-21785714D01*
X340190476Y-21738095D01*
X340095238Y-21690476D01*
X340000000Y-21595238D01*
X339952380Y-21452380D01*
X339952380Y-21357142D01*
X340000000Y-21214285D01*
X340047619Y-21166666D01*
X339952380Y-20833333D02*
X339952380Y-20166666D01*
X340952380Y-20595238D01*
X349957142Y-45566666D02*
X350004761Y-45614285D01*
X350052380Y-45757142D01*
X350052380Y-45852380D01*
X350004761Y-45995238D01*
X349909523Y-46090476D01*
X349814285Y-46138095D01*
X349623809Y-46185714D01*
X349480952Y-46185714D01*
X349290476Y-46138095D01*
X349195238Y-46090476D01*
X349100000Y-45995238D01*
X349052380Y-45852380D01*
X349052380Y-45757142D01*
X349100000Y-45614285D01*
X349147619Y-45566666D01*
X349052380Y-44709523D02*
X349052380Y-44900000D01*
X349100000Y-44995238D01*
X349147619Y-45042857D01*
X349290476Y-45138095D01*
X349480952Y-45185714D01*
X349861904Y-45185714D01*
X349957142Y-45138095D01*
X350004761Y-45090476D01*
X350052380Y-44995238D01*
X350052380Y-44804761D01*
X350004761Y-44709523D01*
X349957142Y-44661904D01*
X349861904Y-44614285D01*
X349623809Y-44614285D01*
X349528571Y-44661904D01*
X349480952Y-44709523D01*
X349433333Y-44804761D01*
X349433333Y-44995238D01*
X349480952Y-45090476D01*
X349528571Y-45138095D01*
X349623809Y-45185714D01*
X340957142Y-45566666D02*
X341004761Y-45614285D01*
X341052380Y-45757142D01*
X341052380Y-45852380D01*
X341004761Y-45995238D01*
X340909523Y-46090476D01*
X340814285Y-46138095D01*
X340623809Y-46185714D01*
X340480952Y-46185714D01*
X340290476Y-46138095D01*
X340195238Y-46090476D01*
X340100000Y-45995238D01*
X340052380Y-45852380D01*
X340052380Y-45757142D01*
X340100000Y-45614285D01*
X340147619Y-45566666D01*
X340052380Y-44661904D02*
X340052380Y-45138095D01*
X340528571Y-45185714D01*
X340480952Y-45138095D01*
X340433333Y-45042857D01*
X340433333Y-44804761D01*
X340480952Y-44709523D01*
X340528571Y-44661904D01*
X340623809Y-44614285D01*
X340861904Y-44614285D01*
X340957142Y-44661904D01*
X341004761Y-44709523D01*
X341052380Y-44804761D01*
X341052380Y-45042857D01*
X341004761Y-45138095D01*
X340957142Y-45185714D01*
X98666666Y-79152380D02*
X98666666Y-78152380D01*
X99000000Y-78866666D01*
X99333333Y-78152380D01*
X99333333Y-79152380D01*
X99809523Y-79152380D02*
X99809523Y-78152380D01*
X99809523Y-78628571D02*
X100380952Y-78628571D01*
X100380952Y-79152380D02*
X100380952Y-78152380D01*
X101285714Y-78485714D02*
X101285714Y-79152380D01*
X101047619Y-78104761D02*
X100809523Y-78819047D01*
X101428571Y-78819047D01*
X219416666Y-79152380D02*
X219416666Y-78152380D01*
X219750000Y-78866666D01*
X220083333Y-78152380D01*
X220083333Y-79152380D01*
X220559523Y-79152380D02*
X220559523Y-78152380D01*
X220559523Y-78628571D02*
X221130952Y-78628571D01*
X221130952Y-79152380D02*
X221130952Y-78152380D01*
X221511904Y-78152380D02*
X222130952Y-78152380D01*
X221797619Y-78533333D01*
X221940476Y-78533333D01*
X222035714Y-78580952D01*
X222083333Y-78628571D01*
X222130952Y-78723809D01*
X222130952Y-78961904D01*
X222083333Y-79057142D01*
X222035714Y-79104761D01*
X221940476Y-79152380D01*
X221654761Y-79152380D01*
X221559523Y-79104761D01*
X221511904Y-79057142D01*
X368666666Y-79152380D02*
X368666666Y-78152380D01*
X369000000Y-78866666D01*
X369333333Y-78152380D01*
X369333333Y-79152380D01*
X369809523Y-79152380D02*
X369809523Y-78152380D01*
X369809523Y-78628571D02*
X370380952Y-78628571D01*
X370380952Y-79152380D02*
X370380952Y-78152380D01*
X370809523Y-78247619D02*
X370857142Y-78200000D01*
X370952380Y-78152380D01*
X371190476Y-78152380D01*
X371285714Y-78200000D01*
X371333333Y-78247619D01*
X371380952Y-78342857D01*
X371380952Y-78438095D01*
X371333333Y-78580952D01*
X370761904Y-79152380D01*
X371380952Y-79152380D01*
X28916666Y-17852380D02*
X28916666Y-16852380D01*
X29250000Y-17566666D01*
X29583333Y-16852380D01*
X29583333Y-17852380D01*
X30059523Y-17852380D02*
X30059523Y-16852380D01*
X30059523Y-17328571D02*
X30630952Y-17328571D01*
X30630952Y-17852380D02*
X30630952Y-16852380D01*
X31630952Y-17852380D02*
X31059523Y-17852380D01*
X31345238Y-17852380D02*
X31345238Y-16852380D01*
X31250000Y-16995238D01*
X31154761Y-17090476D01*
X31059523Y-17138095D01*
X344238095Y-49172380D02*
X344238095Y-49981904D01*
X344285714Y-50077142D01*
X344333333Y-50124761D01*
X344428571Y-50172380D01*
X344619047Y-50172380D01*
X344714285Y-50124761D01*
X344761904Y-50077142D01*
X344809523Y-49981904D01*
X344809523Y-49172380D01*
X345238095Y-49267619D02*
X345285714Y-49220000D01*
X345380952Y-49172380D01*
X345619047Y-49172380D01*
X345714285Y-49220000D01*
X345761904Y-49267619D01*
X345809523Y-49362857D01*
X345809523Y-49458095D01*
X345761904Y-49600952D01*
X345190476Y-50172380D01*
X345809523Y-50172380D01*
X344238095Y-24172380D02*
X344238095Y-24981904D01*
X344285714Y-25077142D01*
X344333333Y-25124761D01*
X344428571Y-25172380D01*
X344619047Y-25172380D01*
X344714285Y-25124761D01*
X344761904Y-25077142D01*
X344809523Y-24981904D01*
X344809523Y-24172380D01*
X345190476Y-24172380D02*
X345809523Y-24172380D01*
X345476190Y-24553333D01*
X345619047Y-24553333D01*
X345714285Y-24600952D01*
X345761904Y-24648571D01*
X345809523Y-24743809D01*
X345809523Y-24981904D01*
X345761904Y-25077142D01*
X345714285Y-25124761D01*
X345619047Y-25172380D01*
X345333333Y-25172380D01*
X345238095Y-25124761D01*
X345190476Y-25077142D01*
X239438214Y-46159380D02*
X239438214Y-45159380D01*
X239676309Y-45159380D01*
X239819166Y-45207000D01*
X239914404Y-45302238D01*
X239962023Y-45397476D01*
X240009642Y-45587952D01*
X240009642Y-45730809D01*
X239962023Y-45921285D01*
X239914404Y-46016523D01*
X239819166Y-46111761D01*
X239676309Y-46159380D01*
X239438214Y-46159380D01*
X240962023Y-46159380D02*
X240390595Y-46159380D01*
X240676309Y-46159380D02*
X240676309Y-45159380D01*
X240581071Y-45302238D01*
X240485833Y-45397476D01*
X240390595Y-45445095D01*
X81335595Y-37452380D02*
X81335595Y-38261904D01*
X81383214Y-38357142D01*
X81430833Y-38404761D01*
X81526071Y-38452380D01*
X81716547Y-38452380D01*
X81811785Y-38404761D01*
X81859404Y-38357142D01*
X81907023Y-38261904D01*
X81907023Y-37452380D01*
X82907023Y-38452380D02*
X82335595Y-38452380D01*
X82621309Y-38452380D02*
X82621309Y-37452380D01*
X82526071Y-37595238D01*
X82430833Y-37690476D01*
X82335595Y-37738095D01*
X295952380Y-54666666D02*
X295476190Y-55000000D01*
X295952380Y-55238095D02*
X294952380Y-55238095D01*
X294952380Y-54857142D01*
X295000000Y-54761904D01*
X295047619Y-54714285D01*
X295142857Y-54666666D01*
X295285714Y-54666666D01*
X295380952Y-54714285D01*
X295428571Y-54761904D01*
X295476190Y-54857142D01*
X295476190Y-55238095D01*
X295047619Y-54285714D02*
X295000000Y-54238095D01*
X294952380Y-54142857D01*
X294952380Y-53904761D01*
X295000000Y-53809523D01*
X295047619Y-53761904D01*
X295142857Y-53714285D01*
X295238095Y-53714285D01*
X295380952Y-53761904D01*
X295952380Y-54333333D01*
X295952380Y-53714285D01*
X300502380Y-51766666D02*
X300026190Y-52100000D01*
X300502380Y-52338095D02*
X299502380Y-52338095D01*
X299502380Y-51957142D01*
X299550000Y-51861904D01*
X299597619Y-51814285D01*
X299692857Y-51766666D01*
X299835714Y-51766666D01*
X299930952Y-51814285D01*
X299978571Y-51861904D01*
X300026190Y-51957142D01*
X300026190Y-52338095D01*
X300502380Y-50814285D02*
X300502380Y-51385714D01*
X300502380Y-51100000D02*
X299502380Y-51100000D01*
X299645238Y-51195238D01*
X299740476Y-51290476D01*
X299788095Y-51385714D01*
X178735833Y-21452380D02*
X178735833Y-20452380D01*
X179116785Y-20452380D01*
X179212023Y-20500000D01*
X179259642Y-20547619D01*
X179307261Y-20642857D01*
X179307261Y-20785714D01*
X179259642Y-20880952D01*
X179212023Y-20928571D01*
X179116785Y-20976190D01*
X178735833Y-20976190D01*
X179688214Y-21404761D02*
X179831071Y-21452380D01*
X180069166Y-21452380D01*
X180164404Y-21404761D01*
X180212023Y-21357142D01*
X180259642Y-21261904D01*
X180259642Y-21166666D01*
X180212023Y-21071428D01*
X180164404Y-21023809D01*
X180069166Y-20976190D01*
X179878690Y-20928571D01*
X179783452Y-20880952D01*
X179735833Y-20833333D01*
X179688214Y-20738095D01*
X179688214Y-20642857D01*
X179735833Y-20547619D01*
X179783452Y-20500000D01*
X179878690Y-20452380D01*
X180116785Y-20452380D01*
X180259642Y-20500000D01*
X180640595Y-20547619D02*
X180688214Y-20500000D01*
X180783452Y-20452380D01*
X181021547Y-20452380D01*
X181116785Y-20500000D01*
X181164404Y-20547619D01*
X181212023Y-20642857D01*
X181212023Y-20738095D01*
X181164404Y-20880952D01*
X180592976Y-21452380D01*
X181212023Y-21452380D01*
X138485833Y-20952380D02*
X138485833Y-19952380D01*
X138866785Y-19952380D01*
X138962023Y-20000000D01*
X139009642Y-20047619D01*
X139057261Y-20142857D01*
X139057261Y-20285714D01*
X139009642Y-20380952D01*
X138962023Y-20428571D01*
X138866785Y-20476190D01*
X138485833Y-20476190D01*
X139438214Y-20904761D02*
X139581071Y-20952380D01*
X139819166Y-20952380D01*
X139914404Y-20904761D01*
X139962023Y-20857142D01*
X140009642Y-20761904D01*
X140009642Y-20666666D01*
X139962023Y-20571428D01*
X139914404Y-20523809D01*
X139819166Y-20476190D01*
X139628690Y-20428571D01*
X139533452Y-20380952D01*
X139485833Y-20333333D01*
X139438214Y-20238095D01*
X139438214Y-20142857D01*
X139485833Y-20047619D01*
X139533452Y-20000000D01*
X139628690Y-19952380D01*
X139866785Y-19952380D01*
X140009642Y-20000000D01*
X140962023Y-20952380D02*
X140390595Y-20952380D01*
X140676309Y-20952380D02*
X140676309Y-19952380D01*
X140581071Y-20095238D01*
X140485833Y-20190476D01*
X140390595Y-20238095D01*
X300032380Y-38559523D02*
X300746666Y-38559523D01*
X300889523Y-38607142D01*
X300984761Y-38702380D01*
X301032380Y-38845238D01*
X301032380Y-38940476D01*
X301032380Y-37559523D02*
X301032380Y-38130952D01*
X301032380Y-37845238D02*
X300032380Y-37845238D01*
X300175238Y-37940476D01*
X300270476Y-38035714D01*
X300318095Y-38130952D01*
X300127619Y-37178571D02*
X300080000Y-37130952D01*
X300032380Y-37035714D01*
X300032380Y-36797619D01*
X300080000Y-36702380D01*
X300127619Y-36654761D01*
X300222857Y-36607142D01*
X300318095Y-36607142D01*
X300460952Y-36654761D01*
X301032380Y-37226190D01*
X301032380Y-36607142D01*
X360512023Y-10359380D02*
X360512023Y-11073666D01*
X360464404Y-11216523D01*
X360369166Y-11311761D01*
X360226309Y-11359380D01*
X360131071Y-11359380D01*
X361416785Y-10359380D02*
X361226309Y-10359380D01*
X361131071Y-10407000D01*
X361083452Y-10454619D01*
X360988214Y-10597476D01*
X360940595Y-10787952D01*
X360940595Y-11168904D01*
X360988214Y-11264142D01*
X361035833Y-11311761D01*
X361131071Y-11359380D01*
X361321547Y-11359380D01*
X361416785Y-11311761D01*
X361464404Y-11264142D01*
X361512023Y-11168904D01*
X361512023Y-10930809D01*
X361464404Y-10835571D01*
X361416785Y-10787952D01*
X361321547Y-10740333D01*
X361131071Y-10740333D01*
X361035833Y-10787952D01*
X360988214Y-10835571D01*
X360940595Y-10930809D01*
X340512023Y-11702380D02*
X340512023Y-12416666D01*
X340464404Y-12559523D01*
X340369166Y-12654761D01*
X340226309Y-12702380D01*
X340131071Y-12702380D01*
X341464404Y-11702380D02*
X340988214Y-11702380D01*
X340940595Y-12178571D01*
X340988214Y-12130952D01*
X341083452Y-12083333D01*
X341321547Y-12083333D01*
X341416785Y-12130952D01*
X341464404Y-12178571D01*
X341512023Y-12273809D01*
X341512023Y-12511904D01*
X341464404Y-12607142D01*
X341416785Y-12654761D01*
X341321547Y-12702380D01*
X341083452Y-12702380D01*
X340988214Y-12654761D01*
X340940595Y-12607142D01*
X246682380Y-47553333D02*
X247396666Y-47553333D01*
X247539523Y-47600952D01*
X247634761Y-47696190D01*
X247682380Y-47839047D01*
X247682380Y-47934285D01*
X247015714Y-46648571D02*
X247682380Y-46648571D01*
X246634761Y-46886666D02*
X247349047Y-47124761D01*
X247349047Y-46505714D01*
X246682380Y-65333333D02*
X247396666Y-65333333D01*
X247539523Y-65380952D01*
X247634761Y-65476190D01*
X247682380Y-65619047D01*
X247682380Y-65714285D01*
X246682380Y-64952380D02*
X246682380Y-64333333D01*
X247063333Y-64666666D01*
X247063333Y-64523809D01*
X247110952Y-64428571D01*
X247158571Y-64380952D01*
X247253809Y-64333333D01*
X247491904Y-64333333D01*
X247587142Y-64380952D01*
X247634761Y-64428571D01*
X247682380Y-64523809D01*
X247682380Y-64809523D01*
X247634761Y-64904761D01*
X247587142Y-64952380D01*
X320462023Y-12702380D02*
X320462023Y-13416666D01*
X320414404Y-13559523D01*
X320319166Y-13654761D01*
X320176309Y-13702380D01*
X320081071Y-13702380D01*
X320890595Y-12797619D02*
X320938214Y-12750000D01*
X321033452Y-12702380D01*
X321271547Y-12702380D01*
X321366785Y-12750000D01*
X321414404Y-12797619D01*
X321462023Y-12892857D01*
X321462023Y-12988095D01*
X321414404Y-13130952D01*
X320842976Y-13702380D01*
X321462023Y-13702380D01*
X300962023Y-12202380D02*
X300962023Y-12916666D01*
X300914404Y-13059523D01*
X300819166Y-13154761D01*
X300676309Y-13202380D01*
X300581071Y-13202380D01*
X301962023Y-13202380D02*
X301390595Y-13202380D01*
X301676309Y-13202380D02*
X301676309Y-12202380D01*
X301581071Y-12345238D01*
X301485833Y-12440476D01*
X301390595Y-12488095D01*
X114428571Y-36835595D02*
X114428571Y-37168928D01*
X114952380Y-37168928D02*
X113952380Y-37168928D01*
X113952380Y-36692738D01*
X114952380Y-35787976D02*
X114952380Y-36359404D01*
X114952380Y-36073690D02*
X113952380Y-36073690D01*
X114095238Y-36168928D01*
X114190476Y-36264166D01*
X114238095Y-36359404D01*
X111188214Y-13952380D02*
X111188214Y-12952380D01*
X111426309Y-12952380D01*
X111569166Y-13000000D01*
X111664404Y-13095238D01*
X111712023Y-13190476D01*
X111759642Y-13380952D01*
X111759642Y-13523809D01*
X111712023Y-13714285D01*
X111664404Y-13809523D01*
X111569166Y-13904761D01*
X111426309Y-13952380D01*
X111188214Y-13952380D01*
X112759642Y-13857142D02*
X112712023Y-13904761D01*
X112569166Y-13952380D01*
X112473928Y-13952380D01*
X112331071Y-13904761D01*
X112235833Y-13809523D01*
X112188214Y-13714285D01*
X112140595Y-13523809D01*
X112140595Y-13380952D01*
X112188214Y-13190476D01*
X112235833Y-13095238D01*
X112331071Y-13000000D01*
X112473928Y-12952380D01*
X112569166Y-12952380D01*
X112712023Y-13000000D01*
X112759642Y-13047619D01*
X113712023Y-13952380D02*
X113140595Y-13952380D01*
X113426309Y-13952380D02*
X113426309Y-12952380D01*
X113331071Y-13095238D01*
X113235833Y-13190476D01*
X113140595Y-13238095D01*
X78177142Y-16166666D02*
X78224761Y-16214285D01*
X78272380Y-16357142D01*
X78272380Y-16452380D01*
X78224761Y-16595238D01*
X78129523Y-16690476D01*
X78034285Y-16738095D01*
X77843809Y-16785714D01*
X77700952Y-16785714D01*
X77510476Y-16738095D01*
X77415238Y-16690476D01*
X77320000Y-16595238D01*
X77272380Y-16452380D01*
X77272380Y-16357142D01*
X77320000Y-16214285D01*
X77367619Y-16166666D01*
X77367619Y-15785714D02*
X77320000Y-15738095D01*
X77272380Y-15642857D01*
X77272380Y-15404761D01*
X77320000Y-15309523D01*
X77367619Y-15261904D01*
X77462857Y-15214285D01*
X77558095Y-15214285D01*
X77700952Y-15261904D01*
X78272380Y-15833333D01*
X78272380Y-15214285D01*
X83207142Y-16266666D02*
X83254761Y-16314285D01*
X83302380Y-16457142D01*
X83302380Y-16552380D01*
X83254761Y-16695238D01*
X83159523Y-16790476D01*
X83064285Y-16838095D01*
X82873809Y-16885714D01*
X82730952Y-16885714D01*
X82540476Y-16838095D01*
X82445238Y-16790476D01*
X82350000Y-16695238D01*
X82302380Y-16552380D01*
X82302380Y-16457142D01*
X82350000Y-16314285D01*
X82397619Y-16266666D01*
X83302380Y-15314285D02*
X83302380Y-15885714D01*
X83302380Y-15600000D02*
X82302380Y-15600000D01*
X82445238Y-15695238D01*
X82540476Y-15790476D01*
X82588095Y-15885714D01*
%LPC*%
D11*
G36*
X269506602Y-72756000D02*
G01*
X269506602Y-72731466D01*
X269511412Y-72682635D01*
X269520984Y-72634510D01*
X269535228Y-72587555D01*
X269554005Y-72542222D01*
X269577136Y-72498949D01*
X269604396Y-72458150D01*
X269635524Y-72420221D01*
X269670221Y-72385524D01*
X269708150Y-72354396D01*
X269748949Y-72327136D01*
X269792222Y-72304005D01*
X269837555Y-72285228D01*
X269884510Y-72270984D01*
X269932635Y-72261412D01*
X269981466Y-72256602D01*
X270006000Y-72256602D01*
X270006000Y-72256000D01*
X270506000Y-72256000D01*
X270506000Y-72256602D01*
X270530534Y-72256602D01*
X270579365Y-72261412D01*
X270627490Y-72270984D01*
X270674445Y-72285228D01*
X270719778Y-72304005D01*
X270763051Y-72327136D01*
X270803850Y-72354396D01*
X270841779Y-72385524D01*
X270876476Y-72420221D01*
X270907604Y-72458150D01*
X270934864Y-72498949D01*
X270957995Y-72542222D01*
X270976772Y-72587555D01*
X270991016Y-72634510D01*
X271000588Y-72682635D01*
X271005398Y-72731466D01*
X271005398Y-72756000D01*
X271006000Y-72756000D01*
X271006000Y-73256000D01*
X269506000Y-73256000D01*
X269506000Y-72756000D01*
X269506602Y-72756000D01*
G37*
G36*
X271006000Y-73556000D02*
G01*
X271006000Y-74056000D01*
X271005398Y-74056000D01*
X271005398Y-74080534D01*
X271000588Y-74129365D01*
X270991016Y-74177490D01*
X270976772Y-74224445D01*
X270957995Y-74269778D01*
X270934864Y-74313051D01*
X270907604Y-74353850D01*
X270876476Y-74391779D01*
X270841779Y-74426476D01*
X270803850Y-74457604D01*
X270763051Y-74484864D01*
X270719778Y-74507995D01*
X270674445Y-74526772D01*
X270627490Y-74541016D01*
X270579365Y-74550588D01*
X270530534Y-74555398D01*
X270506000Y-74555398D01*
X270506000Y-74556000D01*
X270006000Y-74556000D01*
X270006000Y-74555398D01*
X269981466Y-74555398D01*
X269932635Y-74550588D01*
X269884510Y-74541016D01*
X269837555Y-74526772D01*
X269792222Y-74507995D01*
X269748949Y-74484864D01*
X269708150Y-74457604D01*
X269670221Y-74426476D01*
X269635524Y-74391779D01*
X269604396Y-74353850D01*
X269577136Y-74313051D01*
X269554005Y-74269778D01*
X269535228Y-74224445D01*
X269520984Y-74177490D01*
X269511412Y-74129365D01*
X269506602Y-74080534D01*
X269506602Y-74056000D01*
X269506000Y-74056000D01*
X269506000Y-73556000D01*
X271006000Y-73556000D01*
G37*
G36*
X261632602Y-69708000D02*
G01*
X261632602Y-69683466D01*
X261637412Y-69634635D01*
X261646984Y-69586510D01*
X261661228Y-69539555D01*
X261680005Y-69494222D01*
X261703136Y-69450949D01*
X261730396Y-69410150D01*
X261761524Y-69372221D01*
X261796221Y-69337524D01*
X261834150Y-69306396D01*
X261874949Y-69279136D01*
X261918222Y-69256005D01*
X261963555Y-69237228D01*
X262010510Y-69222984D01*
X262058635Y-69213412D01*
X262107466Y-69208602D01*
X262132000Y-69208602D01*
X262132000Y-69208000D01*
X262632000Y-69208000D01*
X262632000Y-69208602D01*
X262656534Y-69208602D01*
X262705365Y-69213412D01*
X262753490Y-69222984D01*
X262800445Y-69237228D01*
X262845778Y-69256005D01*
X262889051Y-69279136D01*
X262929850Y-69306396D01*
X262967779Y-69337524D01*
X263002476Y-69372221D01*
X263033604Y-69410150D01*
X263060864Y-69450949D01*
X263083995Y-69494222D01*
X263102772Y-69539555D01*
X263117016Y-69586510D01*
X263126588Y-69634635D01*
X263131398Y-69683466D01*
X263131398Y-69708000D01*
X263132000Y-69708000D01*
X263132000Y-70208000D01*
X261632000Y-70208000D01*
X261632000Y-69708000D01*
X261632602Y-69708000D01*
G37*
G36*
X263132000Y-70508000D02*
G01*
X263132000Y-71008000D01*
X263131398Y-71008000D01*
X263131398Y-71032534D01*
X263126588Y-71081365D01*
X263117016Y-71129490D01*
X263102772Y-71176445D01*
X263083995Y-71221778D01*
X263060864Y-71265051D01*
X263033604Y-71305850D01*
X263002476Y-71343779D01*
X262967779Y-71378476D01*
X262929850Y-71409604D01*
X262889051Y-71436864D01*
X262845778Y-71459995D01*
X262800445Y-71478772D01*
X262753490Y-71493016D01*
X262705365Y-71502588D01*
X262656534Y-71507398D01*
X262632000Y-71507398D01*
X262632000Y-71508000D01*
X262132000Y-71508000D01*
X262132000Y-71507398D01*
X262107466Y-71507398D01*
X262058635Y-71502588D01*
X262010510Y-71493016D01*
X261963555Y-71478772D01*
X261918222Y-71459995D01*
X261874949Y-71436864D01*
X261834150Y-71409604D01*
X261796221Y-71378476D01*
X261761524Y-71343779D01*
X261730396Y-71305850D01*
X261703136Y-71265051D01*
X261680005Y-71221778D01*
X261661228Y-71176445D01*
X261646984Y-71129490D01*
X261637412Y-71081365D01*
X261632602Y-71032534D01*
X261632602Y-71008000D01*
X261632000Y-71008000D01*
X261632000Y-70508000D01*
X263132000Y-70508000D01*
G37*
G36*
X276110602Y-72756000D02*
G01*
X276110602Y-72731466D01*
X276115412Y-72682635D01*
X276124984Y-72634510D01*
X276139228Y-72587555D01*
X276158005Y-72542222D01*
X276181136Y-72498949D01*
X276208396Y-72458150D01*
X276239524Y-72420221D01*
X276274221Y-72385524D01*
X276312150Y-72354396D01*
X276352949Y-72327136D01*
X276396222Y-72304005D01*
X276441555Y-72285228D01*
X276488510Y-72270984D01*
X276536635Y-72261412D01*
X276585466Y-72256602D01*
X276610000Y-72256602D01*
X276610000Y-72256000D01*
X277110000Y-72256000D01*
X277110000Y-72256602D01*
X277134534Y-72256602D01*
X277183365Y-72261412D01*
X277231490Y-72270984D01*
X277278445Y-72285228D01*
X277323778Y-72304005D01*
X277367051Y-72327136D01*
X277407850Y-72354396D01*
X277445779Y-72385524D01*
X277480476Y-72420221D01*
X277511604Y-72458150D01*
X277538864Y-72498949D01*
X277561995Y-72542222D01*
X277580772Y-72587555D01*
X277595016Y-72634510D01*
X277604588Y-72682635D01*
X277609398Y-72731466D01*
X277609398Y-72756000D01*
X277610000Y-72756000D01*
X277610000Y-73256000D01*
X276110000Y-73256000D01*
X276110000Y-72756000D01*
X276110602Y-72756000D01*
G37*
G36*
X277610000Y-73556000D02*
G01*
X277610000Y-74056000D01*
X277609398Y-74056000D01*
X277609398Y-74080534D01*
X277604588Y-74129365D01*
X277595016Y-74177490D01*
X277580772Y-74224445D01*
X277561995Y-74269778D01*
X277538864Y-74313051D01*
X277511604Y-74353850D01*
X277480476Y-74391779D01*
X277445779Y-74426476D01*
X277407850Y-74457604D01*
X277367051Y-74484864D01*
X277323778Y-74507995D01*
X277278445Y-74526772D01*
X277231490Y-74541016D01*
X277183365Y-74550588D01*
X277134534Y-74555398D01*
X277110000Y-74555398D01*
X277110000Y-74556000D01*
X276610000Y-74556000D01*
X276610000Y-74555398D01*
X276585466Y-74555398D01*
X276536635Y-74550588D01*
X276488510Y-74541016D01*
X276441555Y-74526772D01*
X276396222Y-74507995D01*
X276352949Y-74484864D01*
X276312150Y-74457604D01*
X276274221Y-74426476D01*
X276239524Y-74391779D01*
X276208396Y-74353850D01*
X276181136Y-74313051D01*
X276158005Y-74269778D01*
X276139228Y-74224445D01*
X276124984Y-74177490D01*
X276115412Y-74129365D01*
X276110602Y-74080534D01*
X276110602Y-74056000D01*
X276110000Y-74056000D01*
X276110000Y-73556000D01*
X277610000Y-73556000D01*
G37*
D17*
X81800000Y-87000000D03*
X76800000Y-87000000D03*
X71800000Y-87000000D03*
X66800000Y-87000000D03*
X61800000Y-87000000D03*
X56800000Y-87000000D03*
X202746000Y-86106000D03*
X197746000Y-86106000D03*
X192746000Y-86106000D03*
X187746000Y-86106000D03*
X182746000Y-86106000D03*
X177746000Y-86106000D03*
D11*
G36*
X260337398Y-71008000D02*
G01*
X260337398Y-71032534D01*
X260332588Y-71081365D01*
X260323016Y-71129490D01*
X260308772Y-71176445D01*
X260289995Y-71221778D01*
X260266864Y-71265051D01*
X260239604Y-71305850D01*
X260208476Y-71343779D01*
X260173779Y-71378476D01*
X260135850Y-71409604D01*
X260095051Y-71436864D01*
X260051778Y-71459995D01*
X260006445Y-71478772D01*
X259959490Y-71493016D01*
X259911365Y-71502588D01*
X259862534Y-71507398D01*
X259838000Y-71507398D01*
X259838000Y-71508000D01*
X259338000Y-71508000D01*
X259338000Y-71507398D01*
X259313466Y-71507398D01*
X259264635Y-71502588D01*
X259216510Y-71493016D01*
X259169555Y-71478772D01*
X259124222Y-71459995D01*
X259080949Y-71436864D01*
X259040150Y-71409604D01*
X259002221Y-71378476D01*
X258967524Y-71343779D01*
X258936396Y-71305850D01*
X258909136Y-71265051D01*
X258886005Y-71221778D01*
X258867228Y-71176445D01*
X258852984Y-71129490D01*
X258843412Y-71081365D01*
X258838602Y-71032534D01*
X258838602Y-71008000D01*
X258838000Y-71008000D01*
X258838000Y-70508000D01*
X260338000Y-70508000D01*
X260338000Y-71008000D01*
X260337398Y-71008000D01*
G37*
G36*
X258838000Y-70208000D02*
G01*
X258838000Y-69708000D01*
X258838602Y-69708000D01*
X258838602Y-69683466D01*
X258843412Y-69634635D01*
X258852984Y-69586510D01*
X258867228Y-69539555D01*
X258886005Y-69494222D01*
X258909136Y-69450949D01*
X258936396Y-69410150D01*
X258967524Y-69372221D01*
X259002221Y-69337524D01*
X259040150Y-69306396D01*
X259080949Y-69279136D01*
X259124222Y-69256005D01*
X259169555Y-69237228D01*
X259216510Y-69222984D01*
X259264635Y-69213412D01*
X259313466Y-69208602D01*
X259338000Y-69208602D01*
X259338000Y-69208000D01*
X259838000Y-69208000D01*
X259838000Y-69208602D01*
X259862534Y-69208602D01*
X259911365Y-69213412D01*
X259959490Y-69222984D01*
X260006445Y-69237228D01*
X260051778Y-69256005D01*
X260095051Y-69279136D01*
X260135850Y-69306396D01*
X260173779Y-69337524D01*
X260208476Y-69372221D01*
X260239604Y-69410150D01*
X260266864Y-69450949D01*
X260289995Y-69494222D01*
X260308772Y-69539555D01*
X260323016Y-69586510D01*
X260332588Y-69634635D01*
X260337398Y-69683466D01*
X260337398Y-69708000D01*
X260338000Y-69708000D01*
X260338000Y-70208000D01*
X258838000Y-70208000D01*
G37*
G36*
X268211398Y-74056000D02*
G01*
X268211398Y-74080534D01*
X268206588Y-74129365D01*
X268197016Y-74177490D01*
X268182772Y-74224445D01*
X268163995Y-74269778D01*
X268140864Y-74313051D01*
X268113604Y-74353850D01*
X268082476Y-74391779D01*
X268047779Y-74426476D01*
X268009850Y-74457604D01*
X267969051Y-74484864D01*
X267925778Y-74507995D01*
X267880445Y-74526772D01*
X267833490Y-74541016D01*
X267785365Y-74550588D01*
X267736534Y-74555398D01*
X267712000Y-74555398D01*
X267712000Y-74556000D01*
X267212000Y-74556000D01*
X267212000Y-74555398D01*
X267187466Y-74555398D01*
X267138635Y-74550588D01*
X267090510Y-74541016D01*
X267043555Y-74526772D01*
X266998222Y-74507995D01*
X266954949Y-74484864D01*
X266914150Y-74457604D01*
X266876221Y-74426476D01*
X266841524Y-74391779D01*
X266810396Y-74353850D01*
X266783136Y-74313051D01*
X266760005Y-74269778D01*
X266741228Y-74224445D01*
X266726984Y-74177490D01*
X266717412Y-74129365D01*
X266712602Y-74080534D01*
X266712602Y-74056000D01*
X266712000Y-74056000D01*
X266712000Y-73556000D01*
X268212000Y-73556000D01*
X268212000Y-74056000D01*
X268211398Y-74056000D01*
G37*
G36*
X266712000Y-73256000D02*
G01*
X266712000Y-72756000D01*
X266712602Y-72756000D01*
X266712602Y-72731466D01*
X266717412Y-72682635D01*
X266726984Y-72634510D01*
X266741228Y-72587555D01*
X266760005Y-72542222D01*
X266783136Y-72498949D01*
X266810396Y-72458150D01*
X266841524Y-72420221D01*
X266876221Y-72385524D01*
X266914150Y-72354396D01*
X266954949Y-72327136D01*
X266998222Y-72304005D01*
X267043555Y-72285228D01*
X267090510Y-72270984D01*
X267138635Y-72261412D01*
X267187466Y-72256602D01*
X267212000Y-72256602D01*
X267212000Y-72256000D01*
X267712000Y-72256000D01*
X267712000Y-72256602D01*
X267736534Y-72256602D01*
X267785365Y-72261412D01*
X267833490Y-72270984D01*
X267880445Y-72285228D01*
X267925778Y-72304005D01*
X267969051Y-72327136D01*
X268009850Y-72354396D01*
X268047779Y-72385524D01*
X268082476Y-72420221D01*
X268113604Y-72458150D01*
X268140864Y-72498949D01*
X268163995Y-72542222D01*
X268182772Y-72587555D01*
X268197016Y-72634510D01*
X268206588Y-72682635D01*
X268211398Y-72731466D01*
X268211398Y-72756000D01*
X268212000Y-72756000D01*
X268212000Y-73256000D01*
X266712000Y-73256000D01*
G37*
G36*
X274815398Y-74056000D02*
G01*
X274815398Y-74080534D01*
X274810588Y-74129365D01*
X274801016Y-74177490D01*
X274786772Y-74224445D01*
X274767995Y-74269778D01*
X274744864Y-74313051D01*
X274717604Y-74353850D01*
X274686476Y-74391779D01*
X274651779Y-74426476D01*
X274613850Y-74457604D01*
X274573051Y-74484864D01*
X274529778Y-74507995D01*
X274484445Y-74526772D01*
X274437490Y-74541016D01*
X274389365Y-74550588D01*
X274340534Y-74555398D01*
X274316000Y-74555398D01*
X274316000Y-74556000D01*
X273816000Y-74556000D01*
X273816000Y-74555398D01*
X273791466Y-74555398D01*
X273742635Y-74550588D01*
X273694510Y-74541016D01*
X273647555Y-74526772D01*
X273602222Y-74507995D01*
X273558949Y-74484864D01*
X273518150Y-74457604D01*
X273480221Y-74426476D01*
X273445524Y-74391779D01*
X273414396Y-74353850D01*
X273387136Y-74313051D01*
X273364005Y-74269778D01*
X273345228Y-74224445D01*
X273330984Y-74177490D01*
X273321412Y-74129365D01*
X273316602Y-74080534D01*
X273316602Y-74056000D01*
X273316000Y-74056000D01*
X273316000Y-73556000D01*
X274816000Y-73556000D01*
X274816000Y-74056000D01*
X274815398Y-74056000D01*
G37*
G36*
X273316000Y-73256000D02*
G01*
X273316000Y-72756000D01*
X273316602Y-72756000D01*
X273316602Y-72731466D01*
X273321412Y-72682635D01*
X273330984Y-72634510D01*
X273345228Y-72587555D01*
X273364005Y-72542222D01*
X273387136Y-72498949D01*
X273414396Y-72458150D01*
X273445524Y-72420221D01*
X273480221Y-72385524D01*
X273518150Y-72354396D01*
X273558949Y-72327136D01*
X273602222Y-72304005D01*
X273647555Y-72285228D01*
X273694510Y-72270984D01*
X273742635Y-72261412D01*
X273791466Y-72256602D01*
X273816000Y-72256602D01*
X273816000Y-72256000D01*
X274316000Y-72256000D01*
X274316000Y-72256602D01*
X274340534Y-72256602D01*
X274389365Y-72261412D01*
X274437490Y-72270984D01*
X274484445Y-72285228D01*
X274529778Y-72304005D01*
X274573051Y-72327136D01*
X274613850Y-72354396D01*
X274651779Y-72385524D01*
X274686476Y-72420221D01*
X274717604Y-72458150D01*
X274744864Y-72498949D01*
X274767995Y-72542222D01*
X274786772Y-72587555D01*
X274801016Y-72634510D01*
X274810588Y-72682635D01*
X274815398Y-72731466D01*
X274815398Y-72756000D01*
X274816000Y-72756000D01*
X274816000Y-73256000D01*
X273316000Y-73256000D01*
G37*
D18*
X261822000Y-72940000D03*
X261172000Y-72940000D03*
X260522000Y-72940000D03*
X260522000Y-75140000D03*
X261822000Y-75140000D03*
X269714000Y-76834000D03*
X269064000Y-76834000D03*
X268414000Y-76834000D03*
X268414000Y-79034000D03*
X269714000Y-79034000D03*
X276382000Y-76684000D03*
X275732000Y-76684000D03*
X275082000Y-76684000D03*
X275082000Y-78884000D03*
X276382000Y-78884000D03*
G36*
G01*
X271461500Y-77659000D02*
X270986500Y-77659000D01*
G75*
G02*
X270749000Y-77421500I0J237500D01*
G01*
X270749000Y-76821500D01*
G75*
G02*
X270986500Y-76584000I237500J0D01*
G01*
X271461500Y-76584000D01*
G75*
G02*
X271699000Y-76821500I0J-237500D01*
G01*
X271699000Y-77421500D01*
G75*
G02*
X271461500Y-77659000I-237500J0D01*
G01*
G37*
G36*
G01*
X271461500Y-79384000D02*
X270986500Y-79384000D01*
G75*
G02*
X270749000Y-79146500I0J237500D01*
G01*
X270749000Y-78546500D01*
G75*
G02*
X270986500Y-78309000I237500J0D01*
G01*
X271461500Y-78309000D01*
G75*
G02*
X271699000Y-78546500I0J-237500D01*
G01*
X271699000Y-79146500D01*
G75*
G02*
X271461500Y-79384000I-237500J0D01*
G01*
G37*
G36*
G01*
X278621500Y-77653000D02*
X278146500Y-77653000D01*
G75*
G02*
X277909000Y-77415500I0J237500D01*
G01*
X277909000Y-76815500D01*
G75*
G02*
X278146500Y-76578000I237500J0D01*
G01*
X278621500Y-76578000D01*
G75*
G02*
X278859000Y-76815500I0J-237500D01*
G01*
X278859000Y-77415500D01*
G75*
G02*
X278621500Y-77653000I-237500J0D01*
G01*
G37*
G36*
G01*
X278621500Y-79378000D02*
X278146500Y-79378000D01*
G75*
G02*
X277909000Y-79140500I0J237500D01*
G01*
X277909000Y-78540500D01*
G75*
G02*
X278146500Y-78303000I237500J0D01*
G01*
X278621500Y-78303000D01*
G75*
G02*
X278859000Y-78540500I0J-237500D01*
G01*
X278859000Y-79140500D01*
G75*
G02*
X278621500Y-79378000I-237500J0D01*
G01*
G37*
G36*
G01*
X263635500Y-74351000D02*
X263160500Y-74351000D01*
G75*
G02*
X262923000Y-74113500I0J237500D01*
G01*
X262923000Y-73513500D01*
G75*
G02*
X263160500Y-73276000I237500J0D01*
G01*
X263635500Y-73276000D01*
G75*
G02*
X263873000Y-73513500I0J-237500D01*
G01*
X263873000Y-74113500D01*
G75*
G02*
X263635500Y-74351000I-237500J0D01*
G01*
G37*
G36*
G01*
X263635500Y-76076000D02*
X263160500Y-76076000D01*
G75*
G02*
X262923000Y-75838500I0J237500D01*
G01*
X262923000Y-75238500D01*
G75*
G02*
X263160500Y-75001000I237500J0D01*
G01*
X263635500Y-75001000D01*
G75*
G02*
X263873000Y-75238500I0J-237500D01*
G01*
X263873000Y-75838500D01*
G75*
G02*
X263635500Y-76076000I-237500J0D01*
G01*
G37*
D19*
X264320000Y-87000000D03*
X259240000Y-87000000D03*
X254160000Y-87000000D03*
X249080000Y-87000000D03*
D20*
X241240000Y-87000000D03*
X236160000Y-87000000D03*
D19*
X143420000Y-87000000D03*
X138340000Y-87000000D03*
X133260000Y-87000000D03*
X128180000Y-87000000D03*
D20*
X120340000Y-87000000D03*
X115260000Y-87000000D03*
D21*
X297000000Y-83000000D03*
D22*
X298500000Y-83000000D03*
X300000000Y-83000000D03*
X301500000Y-83000000D03*
X303000000Y-83000000D03*
X304500000Y-83000000D03*
X306000000Y-83000000D03*
X307500000Y-83000000D03*
X309000000Y-83000000D03*
X310500000Y-83000000D03*
X312000000Y-83000000D03*
G36*
G01*
X346925000Y-48437500D02*
X346925000Y-47962500D01*
G75*
G02*
X347162500Y-47725000I237500J0D01*
G01*
X347762500Y-47725000D01*
G75*
G02*
X348000000Y-47962500I0J-237500D01*
G01*
X348000000Y-48437500D01*
G75*
G02*
X347762500Y-48675000I-237500J0D01*
G01*
X347162500Y-48675000D01*
G75*
G02*
X346925000Y-48437500I0J237500D01*
G01*
G37*
G36*
G01*
X345200000Y-48437500D02*
X345200000Y-47962500D01*
G75*
G02*
X345437500Y-47725000I237500J0D01*
G01*
X346037500Y-47725000D01*
G75*
G02*
X346275000Y-47962500I0J-237500D01*
G01*
X346275000Y-48437500D01*
G75*
G02*
X346037500Y-48675000I-237500J0D01*
G01*
X345437500Y-48675000D01*
G75*
G02*
X345200000Y-48437500I0J237500D01*
G01*
G37*
G36*
G01*
X346925000Y-23437500D02*
X346925000Y-22962500D01*
G75*
G02*
X347162500Y-22725000I237500J0D01*
G01*
X347762500Y-22725000D01*
G75*
G02*
X348000000Y-22962500I0J-237500D01*
G01*
X348000000Y-23437500D01*
G75*
G02*
X347762500Y-23675000I-237500J0D01*
G01*
X347162500Y-23675000D01*
G75*
G02*
X346925000Y-23437500I0J237500D01*
G01*
G37*
G36*
G01*
X345200000Y-23437500D02*
X345200000Y-22962500D01*
G75*
G02*
X345437500Y-22725000I237500J0D01*
G01*
X346037500Y-22725000D01*
G75*
G02*
X346275000Y-22962500I0J-237500D01*
G01*
X346275000Y-23437500D01*
G75*
G02*
X346037500Y-23675000I-237500J0D01*
G01*
X345437500Y-23675000D01*
G75*
G02*
X345200000Y-23437500I0J237500D01*
G01*
G37*
G36*
G01*
X337637500Y-47775000D02*
X337162500Y-47775000D01*
G75*
G02*
X336925000Y-47537500I0J237500D01*
G01*
X336925000Y-47037500D01*
G75*
G02*
X337162500Y-46800000I237500J0D01*
G01*
X337637500Y-46800000D01*
G75*
G02*
X337875000Y-47037500I0J-237500D01*
G01*
X337875000Y-47537500D01*
G75*
G02*
X337637500Y-47775000I-237500J0D01*
G01*
G37*
G36*
G01*
X337637500Y-49600000D02*
X337162500Y-49600000D01*
G75*
G02*
X336925000Y-49362500I0J237500D01*
G01*
X336925000Y-48862500D01*
G75*
G02*
X337162500Y-48625000I237500J0D01*
G01*
X337637500Y-48625000D01*
G75*
G02*
X337875000Y-48862500I0J-237500D01*
G01*
X337875000Y-49362500D01*
G75*
G02*
X337637500Y-49600000I-237500J0D01*
G01*
G37*
G36*
G01*
X339237500Y-47775000D02*
X338762500Y-47775000D01*
G75*
G02*
X338525000Y-47537500I0J237500D01*
G01*
X338525000Y-47037500D01*
G75*
G02*
X338762500Y-46800000I237500J0D01*
G01*
X339237500Y-46800000D01*
G75*
G02*
X339475000Y-47037500I0J-237500D01*
G01*
X339475000Y-47537500D01*
G75*
G02*
X339237500Y-47775000I-237500J0D01*
G01*
G37*
G36*
G01*
X339237500Y-49600000D02*
X338762500Y-49600000D01*
G75*
G02*
X338525000Y-49362500I0J237500D01*
G01*
X338525000Y-48862500D01*
G75*
G02*
X338762500Y-48625000I237500J0D01*
G01*
X339237500Y-48625000D01*
G75*
G02*
X339475000Y-48862500I0J-237500D01*
G01*
X339475000Y-49362500D01*
G75*
G02*
X339237500Y-49600000I-237500J0D01*
G01*
G37*
G36*
G01*
X352337500Y-59675000D02*
X352812500Y-59675000D01*
G75*
G02*
X353050000Y-59912500I0J-237500D01*
G01*
X353050000Y-60412500D01*
G75*
G02*
X352812500Y-60650000I-237500J0D01*
G01*
X352337500Y-60650000D01*
G75*
G02*
X352100000Y-60412500I0J237500D01*
G01*
X352100000Y-59912500D01*
G75*
G02*
X352337500Y-59675000I237500J0D01*
G01*
G37*
G36*
G01*
X352337500Y-57850000D02*
X352812500Y-57850000D01*
G75*
G02*
X353050000Y-58087500I0J-237500D01*
G01*
X353050000Y-58587500D01*
G75*
G02*
X352812500Y-58825000I-237500J0D01*
G01*
X352337500Y-58825000D01*
G75*
G02*
X352100000Y-58587500I0J237500D01*
G01*
X352100000Y-58087500D01*
G75*
G02*
X352337500Y-57850000I237500J0D01*
G01*
G37*
G36*
G01*
X337162500Y-59637500D02*
X337637500Y-59637500D01*
G75*
G02*
X337875000Y-59875000I0J-237500D01*
G01*
X337875000Y-60375000D01*
G75*
G02*
X337637500Y-60612500I-237500J0D01*
G01*
X337162500Y-60612500D01*
G75*
G02*
X336925000Y-60375000I0J237500D01*
G01*
X336925000Y-59875000D01*
G75*
G02*
X337162500Y-59637500I237500J0D01*
G01*
G37*
G36*
G01*
X337162500Y-57812500D02*
X337637500Y-57812500D01*
G75*
G02*
X337875000Y-58050000I0J-237500D01*
G01*
X337875000Y-58550000D01*
G75*
G02*
X337637500Y-58787500I-237500J0D01*
G01*
X337162500Y-58787500D01*
G75*
G02*
X336925000Y-58550000I0J237500D01*
G01*
X336925000Y-58050000D01*
G75*
G02*
X337162500Y-57812500I237500J0D01*
G01*
G37*
G36*
G01*
X354012500Y-59675000D02*
X354487500Y-59675000D01*
G75*
G02*
X354725000Y-59912500I0J-237500D01*
G01*
X354725000Y-60412500D01*
G75*
G02*
X354487500Y-60650000I-237500J0D01*
G01*
X354012500Y-60650000D01*
G75*
G02*
X353775000Y-60412500I0J237500D01*
G01*
X353775000Y-59912500D01*
G75*
G02*
X354012500Y-59675000I237500J0D01*
G01*
G37*
G36*
G01*
X354012500Y-57850000D02*
X354487500Y-57850000D01*
G75*
G02*
X354725000Y-58087500I0J-237500D01*
G01*
X354725000Y-58587500D01*
G75*
G02*
X354487500Y-58825000I-237500J0D01*
G01*
X354012500Y-58825000D01*
G75*
G02*
X353775000Y-58587500I0J237500D01*
G01*
X353775000Y-58087500D01*
G75*
G02*
X354012500Y-57850000I237500J0D01*
G01*
G37*
G36*
G01*
X337162500Y-30225000D02*
X337637500Y-30225000D01*
G75*
G02*
X337875000Y-30462500I0J-237500D01*
G01*
X337875000Y-30962500D01*
G75*
G02*
X337637500Y-31200000I-237500J0D01*
G01*
X337162500Y-31200000D01*
G75*
G02*
X336925000Y-30962500I0J237500D01*
G01*
X336925000Y-30462500D01*
G75*
G02*
X337162500Y-30225000I237500J0D01*
G01*
G37*
G36*
G01*
X337162500Y-28400000D02*
X337637500Y-28400000D01*
G75*
G02*
X337875000Y-28637500I0J-237500D01*
G01*
X337875000Y-29137500D01*
G75*
G02*
X337637500Y-29375000I-237500J0D01*
G01*
X337162500Y-29375000D01*
G75*
G02*
X336925000Y-29137500I0J237500D01*
G01*
X336925000Y-28637500D01*
G75*
G02*
X337162500Y-28400000I237500J0D01*
G01*
G37*
G36*
G01*
X335562500Y-59625000D02*
X336037500Y-59625000D01*
G75*
G02*
X336275000Y-59862500I0J-237500D01*
G01*
X336275000Y-60362500D01*
G75*
G02*
X336037500Y-60600000I-237500J0D01*
G01*
X335562500Y-60600000D01*
G75*
G02*
X335325000Y-60362500I0J237500D01*
G01*
X335325000Y-59862500D01*
G75*
G02*
X335562500Y-59625000I237500J0D01*
G01*
G37*
G36*
G01*
X335562500Y-57800000D02*
X336037500Y-57800000D01*
G75*
G02*
X336275000Y-58037500I0J-237500D01*
G01*
X336275000Y-58537500D01*
G75*
G02*
X336037500Y-58775000I-237500J0D01*
G01*
X335562500Y-58775000D01*
G75*
G02*
X335325000Y-58537500I0J237500D01*
G01*
X335325000Y-58037500D01*
G75*
G02*
X335562500Y-57800000I237500J0D01*
G01*
G37*
G36*
G01*
X351237500Y-53975000D02*
X350762500Y-53975000D01*
G75*
G02*
X350525000Y-53737500I0J237500D01*
G01*
X350525000Y-53237500D01*
G75*
G02*
X350762500Y-53000000I237500J0D01*
G01*
X351237500Y-53000000D01*
G75*
G02*
X351475000Y-53237500I0J-237500D01*
G01*
X351475000Y-53737500D01*
G75*
G02*
X351237500Y-53975000I-237500J0D01*
G01*
G37*
G36*
G01*
X351237500Y-55800000D02*
X350762500Y-55800000D01*
G75*
G02*
X350525000Y-55562500I0J237500D01*
G01*
X350525000Y-55062500D01*
G75*
G02*
X350762500Y-54825000I237500J0D01*
G01*
X351237500Y-54825000D01*
G75*
G02*
X351475000Y-55062500I0J-237500D01*
G01*
X351475000Y-55562500D01*
G75*
G02*
X351237500Y-55800000I-237500J0D01*
G01*
G37*
G36*
G01*
X339237500Y-53825000D02*
X338762500Y-53825000D01*
G75*
G02*
X338525000Y-53587500I0J237500D01*
G01*
X338525000Y-53087500D01*
G75*
G02*
X338762500Y-52850000I237500J0D01*
G01*
X339237500Y-52850000D01*
G75*
G02*
X339475000Y-53087500I0J-237500D01*
G01*
X339475000Y-53587500D01*
G75*
G02*
X339237500Y-53825000I-237500J0D01*
G01*
G37*
G36*
G01*
X339237500Y-55650000D02*
X338762500Y-55650000D01*
G75*
G02*
X338525000Y-55412500I0J237500D01*
G01*
X338525000Y-54912500D01*
G75*
G02*
X338762500Y-54675000I237500J0D01*
G01*
X339237500Y-54675000D01*
G75*
G02*
X339475000Y-54912500I0J-237500D01*
G01*
X339475000Y-55412500D01*
G75*
G02*
X339237500Y-55650000I-237500J0D01*
G01*
G37*
G36*
G01*
X335562500Y-30225000D02*
X336037500Y-30225000D01*
G75*
G02*
X336275000Y-30462500I0J-237500D01*
G01*
X336275000Y-30962500D01*
G75*
G02*
X336037500Y-31200000I-237500J0D01*
G01*
X335562500Y-31200000D01*
G75*
G02*
X335325000Y-30962500I0J237500D01*
G01*
X335325000Y-30462500D01*
G75*
G02*
X335562500Y-30225000I237500J0D01*
G01*
G37*
G36*
G01*
X335562500Y-28400000D02*
X336037500Y-28400000D01*
G75*
G02*
X336275000Y-28637500I0J-237500D01*
G01*
X336275000Y-29137500D01*
G75*
G02*
X336037500Y-29375000I-237500J0D01*
G01*
X335562500Y-29375000D01*
G75*
G02*
X335325000Y-29137500I0J237500D01*
G01*
X335325000Y-28637500D01*
G75*
G02*
X335562500Y-28400000I237500J0D01*
G01*
G37*
G36*
G01*
X354437500Y-53975000D02*
X353962500Y-53975000D01*
G75*
G02*
X353725000Y-53737500I0J237500D01*
G01*
X353725000Y-53237500D01*
G75*
G02*
X353962500Y-53000000I237500J0D01*
G01*
X354437500Y-53000000D01*
G75*
G02*
X354675000Y-53237500I0J-237500D01*
G01*
X354675000Y-53737500D01*
G75*
G02*
X354437500Y-53975000I-237500J0D01*
G01*
G37*
G36*
G01*
X354437500Y-55800000D02*
X353962500Y-55800000D01*
G75*
G02*
X353725000Y-55562500I0J237500D01*
G01*
X353725000Y-55062500D01*
G75*
G02*
X353962500Y-54825000I237500J0D01*
G01*
X354437500Y-54825000D01*
G75*
G02*
X354675000Y-55062500I0J-237500D01*
G01*
X354675000Y-55562500D01*
G75*
G02*
X354437500Y-55800000I-237500J0D01*
G01*
G37*
G36*
G01*
X335737500Y-53825000D02*
X335262500Y-53825000D01*
G75*
G02*
X335025000Y-53587500I0J237500D01*
G01*
X335025000Y-53087500D01*
G75*
G02*
X335262500Y-52850000I237500J0D01*
G01*
X335737500Y-52850000D01*
G75*
G02*
X335975000Y-53087500I0J-237500D01*
G01*
X335975000Y-53587500D01*
G75*
G02*
X335737500Y-53825000I-237500J0D01*
G01*
G37*
G36*
G01*
X335737500Y-55650000D02*
X335262500Y-55650000D01*
G75*
G02*
X335025000Y-55412500I0J237500D01*
G01*
X335025000Y-54912500D01*
G75*
G02*
X335262500Y-54675000I237500J0D01*
G01*
X335737500Y-54675000D01*
G75*
G02*
X335975000Y-54912500I0J-237500D01*
G01*
X335975000Y-55412500D01*
G75*
G02*
X335737500Y-55650000I-237500J0D01*
G01*
G37*
G36*
G01*
X339037500Y-23375000D02*
X338562500Y-23375000D01*
G75*
G02*
X338325000Y-23137500I0J237500D01*
G01*
X338325000Y-22637500D01*
G75*
G02*
X338562500Y-22400000I237500J0D01*
G01*
X339037500Y-22400000D01*
G75*
G02*
X339275000Y-22637500I0J-237500D01*
G01*
X339275000Y-23137500D01*
G75*
G02*
X339037500Y-23375000I-237500J0D01*
G01*
G37*
G36*
G01*
X339037500Y-25200000D02*
X338562500Y-25200000D01*
G75*
G02*
X338325000Y-24962500I0J237500D01*
G01*
X338325000Y-24462500D01*
G75*
G02*
X338562500Y-24225000I237500J0D01*
G01*
X339037500Y-24225000D01*
G75*
G02*
X339275000Y-24462500I0J-237500D01*
G01*
X339275000Y-24962500D01*
G75*
G02*
X339037500Y-25200000I-237500J0D01*
G01*
G37*
G36*
G01*
X351437500Y-47775000D02*
X350962500Y-47775000D01*
G75*
G02*
X350725000Y-47537500I0J237500D01*
G01*
X350725000Y-47037500D01*
G75*
G02*
X350962500Y-46800000I237500J0D01*
G01*
X351437500Y-46800000D01*
G75*
G02*
X351675000Y-47037500I0J-237500D01*
G01*
X351675000Y-47537500D01*
G75*
G02*
X351437500Y-47775000I-237500J0D01*
G01*
G37*
G36*
G01*
X351437500Y-49600000D02*
X350962500Y-49600000D01*
G75*
G02*
X350725000Y-49362500I0J237500D01*
G01*
X350725000Y-48862500D01*
G75*
G02*
X350962500Y-48625000I237500J0D01*
G01*
X351437500Y-48625000D01*
G75*
G02*
X351675000Y-48862500I0J-237500D01*
G01*
X351675000Y-49362500D01*
G75*
G02*
X351437500Y-49600000I-237500J0D01*
G01*
G37*
G36*
G01*
X337437500Y-23375000D02*
X336962500Y-23375000D01*
G75*
G02*
X336725000Y-23137500I0J237500D01*
G01*
X336725000Y-22637500D01*
G75*
G02*
X336962500Y-22400000I237500J0D01*
G01*
X337437500Y-22400000D01*
G75*
G02*
X337675000Y-22637500I0J-237500D01*
G01*
X337675000Y-23137500D01*
G75*
G02*
X337437500Y-23375000I-237500J0D01*
G01*
G37*
G36*
G01*
X337437500Y-25200000D02*
X336962500Y-25200000D01*
G75*
G02*
X336725000Y-24962500I0J237500D01*
G01*
X336725000Y-24462500D01*
G75*
G02*
X336962500Y-24225000I237500J0D01*
G01*
X337437500Y-24225000D01*
G75*
G02*
X337675000Y-24462500I0J-237500D01*
G01*
X337675000Y-24962500D01*
G75*
G02*
X337437500Y-25200000I-237500J0D01*
G01*
G37*
G36*
G01*
X353037500Y-47775000D02*
X352562500Y-47775000D01*
G75*
G02*
X352325000Y-47537500I0J237500D01*
G01*
X352325000Y-47037500D01*
G75*
G02*
X352562500Y-46800000I237500J0D01*
G01*
X353037500Y-46800000D01*
G75*
G02*
X353275000Y-47037500I0J-237500D01*
G01*
X353275000Y-47537500D01*
G75*
G02*
X353037500Y-47775000I-237500J0D01*
G01*
G37*
G36*
G01*
X353037500Y-49600000D02*
X352562500Y-49600000D01*
G75*
G02*
X352325000Y-49362500I0J237500D01*
G01*
X352325000Y-48862500D01*
G75*
G02*
X352562500Y-48625000I237500J0D01*
G01*
X353037500Y-48625000D01*
G75*
G02*
X353275000Y-48862500I0J-237500D01*
G01*
X353275000Y-49362500D01*
G75*
G02*
X353037500Y-49600000I-237500J0D01*
G01*
G37*
G36*
G01*
X350762500Y-59575000D02*
X351237500Y-59575000D01*
G75*
G02*
X351475000Y-59812500I0J-237500D01*
G01*
X351475000Y-60412500D01*
G75*
G02*
X351237500Y-60650000I-237500J0D01*
G01*
X350762500Y-60650000D01*
G75*
G02*
X350525000Y-60412500I0J237500D01*
G01*
X350525000Y-59812500D01*
G75*
G02*
X350762500Y-59575000I237500J0D01*
G01*
G37*
G36*
G01*
X350762500Y-57850000D02*
X351237500Y-57850000D01*
G75*
G02*
X351475000Y-58087500I0J-237500D01*
G01*
X351475000Y-58687500D01*
G75*
G02*
X351237500Y-58925000I-237500J0D01*
G01*
X350762500Y-58925000D01*
G75*
G02*
X350525000Y-58687500I0J237500D01*
G01*
X350525000Y-58087500D01*
G75*
G02*
X350762500Y-57850000I237500J0D01*
G01*
G37*
G36*
G01*
X338762500Y-59525000D02*
X339237500Y-59525000D01*
G75*
G02*
X339475000Y-59762500I0J-237500D01*
G01*
X339475000Y-60362500D01*
G75*
G02*
X339237500Y-60600000I-237500J0D01*
G01*
X338762500Y-60600000D01*
G75*
G02*
X338525000Y-60362500I0J237500D01*
G01*
X338525000Y-59762500D01*
G75*
G02*
X338762500Y-59525000I237500J0D01*
G01*
G37*
G36*
G01*
X338762500Y-57800000D02*
X339237500Y-57800000D01*
G75*
G02*
X339475000Y-58037500I0J-237500D01*
G01*
X339475000Y-58637500D01*
G75*
G02*
X339237500Y-58875000I-237500J0D01*
G01*
X338762500Y-58875000D01*
G75*
G02*
X338525000Y-58637500I0J237500D01*
G01*
X338525000Y-58037500D01*
G75*
G02*
X338762500Y-57800000I237500J0D01*
G01*
G37*
G36*
G01*
X338762500Y-30125000D02*
X339237500Y-30125000D01*
G75*
G02*
X339475000Y-30362500I0J-237500D01*
G01*
X339475000Y-30962500D01*
G75*
G02*
X339237500Y-31200000I-237500J0D01*
G01*
X338762500Y-31200000D01*
G75*
G02*
X338525000Y-30962500I0J237500D01*
G01*
X338525000Y-30362500D01*
G75*
G02*
X338762500Y-30125000I237500J0D01*
G01*
G37*
G36*
G01*
X338762500Y-28400000D02*
X339237500Y-28400000D01*
G75*
G02*
X339475000Y-28637500I0J-237500D01*
G01*
X339475000Y-29237500D01*
G75*
G02*
X339237500Y-29475000I-237500J0D01*
G01*
X338762500Y-29475000D01*
G75*
G02*
X338525000Y-29237500I0J237500D01*
G01*
X338525000Y-28637500D01*
G75*
G02*
X338762500Y-28400000I237500J0D01*
G01*
G37*
G36*
G01*
X352362500Y-54725000D02*
X352837500Y-54725000D01*
G75*
G02*
X353075000Y-54962500I0J-237500D01*
G01*
X353075000Y-55562500D01*
G75*
G02*
X352837500Y-55800000I-237500J0D01*
G01*
X352362500Y-55800000D01*
G75*
G02*
X352125000Y-55562500I0J237500D01*
G01*
X352125000Y-54962500D01*
G75*
G02*
X352362500Y-54725000I237500J0D01*
G01*
G37*
G36*
G01*
X352362500Y-53000000D02*
X352837500Y-53000000D01*
G75*
G02*
X353075000Y-53237500I0J-237500D01*
G01*
X353075000Y-53837500D01*
G75*
G02*
X352837500Y-54075000I-237500J0D01*
G01*
X352362500Y-54075000D01*
G75*
G02*
X352125000Y-53837500I0J237500D01*
G01*
X352125000Y-53237500D01*
G75*
G02*
X352362500Y-53000000I237500J0D01*
G01*
G37*
G36*
G01*
X337012500Y-54575000D02*
X337487500Y-54575000D01*
G75*
G02*
X337725000Y-54812500I0J-237500D01*
G01*
X337725000Y-55412500D01*
G75*
G02*
X337487500Y-55650000I-237500J0D01*
G01*
X337012500Y-55650000D01*
G75*
G02*
X336775000Y-55412500I0J237500D01*
G01*
X336775000Y-54812500D01*
G75*
G02*
X337012500Y-54575000I237500J0D01*
G01*
G37*
G36*
G01*
X337012500Y-52850000D02*
X337487500Y-52850000D01*
G75*
G02*
X337725000Y-53087500I0J-237500D01*
G01*
X337725000Y-53687500D01*
G75*
G02*
X337487500Y-53925000I-237500J0D01*
G01*
X337012500Y-53925000D01*
G75*
G02*
X336775000Y-53687500I0J237500D01*
G01*
X336775000Y-53087500D01*
G75*
G02*
X337012500Y-52850000I237500J0D01*
G01*
G37*
G36*
G01*
X340637500Y-23475000D02*
X340162500Y-23475000D01*
G75*
G02*
X339925000Y-23237500I0J237500D01*
G01*
X339925000Y-22637500D01*
G75*
G02*
X340162500Y-22400000I237500J0D01*
G01*
X340637500Y-22400000D01*
G75*
G02*
X340875000Y-22637500I0J-237500D01*
G01*
X340875000Y-23237500D01*
G75*
G02*
X340637500Y-23475000I-237500J0D01*
G01*
G37*
G36*
G01*
X340637500Y-25200000D02*
X340162500Y-25200000D01*
G75*
G02*
X339925000Y-24962500I0J237500D01*
G01*
X339925000Y-24362500D01*
G75*
G02*
X340162500Y-24125000I237500J0D01*
G01*
X340637500Y-24125000D01*
G75*
G02*
X340875000Y-24362500I0J-237500D01*
G01*
X340875000Y-24962500D01*
G75*
G02*
X340637500Y-25200000I-237500J0D01*
G01*
G37*
G36*
G01*
X349837500Y-47875000D02*
X349362500Y-47875000D01*
G75*
G02*
X349125000Y-47637500I0J237500D01*
G01*
X349125000Y-47037500D01*
G75*
G02*
X349362500Y-46800000I237500J0D01*
G01*
X349837500Y-46800000D01*
G75*
G02*
X350075000Y-47037500I0J-237500D01*
G01*
X350075000Y-47637500D01*
G75*
G02*
X349837500Y-47875000I-237500J0D01*
G01*
G37*
G36*
G01*
X349837500Y-49600000D02*
X349362500Y-49600000D01*
G75*
G02*
X349125000Y-49362500I0J237500D01*
G01*
X349125000Y-48762500D01*
G75*
G02*
X349362500Y-48525000I237500J0D01*
G01*
X349837500Y-48525000D01*
G75*
G02*
X350075000Y-48762500I0J-237500D01*
G01*
X350075000Y-49362500D01*
G75*
G02*
X349837500Y-49600000I-237500J0D01*
G01*
G37*
G36*
G01*
X340837500Y-47875000D02*
X340362500Y-47875000D01*
G75*
G02*
X340125000Y-47637500I0J237500D01*
G01*
X340125000Y-47037500D01*
G75*
G02*
X340362500Y-46800000I237500J0D01*
G01*
X340837500Y-46800000D01*
G75*
G02*
X341075000Y-47037500I0J-237500D01*
G01*
X341075000Y-47637500D01*
G75*
G02*
X340837500Y-47875000I-237500J0D01*
G01*
G37*
G36*
G01*
X340837500Y-49600000D02*
X340362500Y-49600000D01*
G75*
G02*
X340125000Y-49362500I0J237500D01*
G01*
X340125000Y-48762500D01*
G75*
G02*
X340362500Y-48525000I237500J0D01*
G01*
X340837500Y-48525000D01*
G75*
G02*
X341075000Y-48762500I0J-237500D01*
G01*
X341075000Y-49362500D01*
G75*
G02*
X340837500Y-49600000I-237500J0D01*
G01*
G37*
D23*
X100000000Y-85000000D03*
X220750000Y-85000000D03*
X370000000Y-85000000D03*
D24*
X30250000Y-23000000D03*
G36*
G01*
X346500000Y-51340000D02*
X346500000Y-51040000D01*
G75*
G02*
X346650000Y-50890000I150000J0D01*
G01*
X348300000Y-50890000D01*
G75*
G02*
X348450000Y-51040000I0J-150000D01*
G01*
X348450000Y-51340000D01*
G75*
G02*
X348300000Y-51490000I-150000J0D01*
G01*
X346650000Y-51490000D01*
G75*
G02*
X346500000Y-51340000I0J150000D01*
G01*
G37*
G36*
G01*
X346500000Y-52610000D02*
X346500000Y-52310000D01*
G75*
G02*
X346650000Y-52160000I150000J0D01*
G01*
X348300000Y-52160000D01*
G75*
G02*
X348450000Y-52310000I0J-150000D01*
G01*
X348450000Y-52610000D01*
G75*
G02*
X348300000Y-52760000I-150000J0D01*
G01*
X346650000Y-52760000D01*
G75*
G02*
X346500000Y-52610000I0J150000D01*
G01*
G37*
G36*
G01*
X346500000Y-53880000D02*
X346500000Y-53580000D01*
G75*
G02*
X346650000Y-53430000I150000J0D01*
G01*
X348300000Y-53430000D01*
G75*
G02*
X348450000Y-53580000I0J-150000D01*
G01*
X348450000Y-53880000D01*
G75*
G02*
X348300000Y-54030000I-150000J0D01*
G01*
X346650000Y-54030000D01*
G75*
G02*
X346500000Y-53880000I0J150000D01*
G01*
G37*
G36*
G01*
X346500000Y-55150000D02*
X346500000Y-54850000D01*
G75*
G02*
X346650000Y-54700000I150000J0D01*
G01*
X348300000Y-54700000D01*
G75*
G02*
X348450000Y-54850000I0J-150000D01*
G01*
X348450000Y-55150000D01*
G75*
G02*
X348300000Y-55300000I-150000J0D01*
G01*
X346650000Y-55300000D01*
G75*
G02*
X346500000Y-55150000I0J150000D01*
G01*
G37*
G36*
G01*
X346500000Y-56420000D02*
X346500000Y-56120000D01*
G75*
G02*
X346650000Y-55970000I150000J0D01*
G01*
X348300000Y-55970000D01*
G75*
G02*
X348450000Y-56120000I0J-150000D01*
G01*
X348450000Y-56420000D01*
G75*
G02*
X348300000Y-56570000I-150000J0D01*
G01*
X346650000Y-56570000D01*
G75*
G02*
X346500000Y-56420000I0J150000D01*
G01*
G37*
G36*
G01*
X346500000Y-57690000D02*
X346500000Y-57390000D01*
G75*
G02*
X346650000Y-57240000I150000J0D01*
G01*
X348300000Y-57240000D01*
G75*
G02*
X348450000Y-57390000I0J-150000D01*
G01*
X348450000Y-57690000D01*
G75*
G02*
X348300000Y-57840000I-150000J0D01*
G01*
X346650000Y-57840000D01*
G75*
G02*
X346500000Y-57690000I0J150000D01*
G01*
G37*
G36*
G01*
X346500000Y-58960000D02*
X346500000Y-58660000D01*
G75*
G02*
X346650000Y-58510000I150000J0D01*
G01*
X348300000Y-58510000D01*
G75*
G02*
X348450000Y-58660000I0J-150000D01*
G01*
X348450000Y-58960000D01*
G75*
G02*
X348300000Y-59110000I-150000J0D01*
G01*
X346650000Y-59110000D01*
G75*
G02*
X346500000Y-58960000I0J150000D01*
G01*
G37*
G36*
G01*
X341550000Y-58960000D02*
X341550000Y-58660000D01*
G75*
G02*
X341700000Y-58510000I150000J0D01*
G01*
X343350000Y-58510000D01*
G75*
G02*
X343500000Y-58660000I0J-150000D01*
G01*
X343500000Y-58960000D01*
G75*
G02*
X343350000Y-59110000I-150000J0D01*
G01*
X341700000Y-59110000D01*
G75*
G02*
X341550000Y-58960000I0J150000D01*
G01*
G37*
G36*
G01*
X341550000Y-57690000D02*
X341550000Y-57390000D01*
G75*
G02*
X341700000Y-57240000I150000J0D01*
G01*
X343350000Y-57240000D01*
G75*
G02*
X343500000Y-57390000I0J-150000D01*
G01*
X343500000Y-57690000D01*
G75*
G02*
X343350000Y-57840000I-150000J0D01*
G01*
X341700000Y-57840000D01*
G75*
G02*
X341550000Y-57690000I0J150000D01*
G01*
G37*
G36*
G01*
X341550000Y-56420000D02*
X341550000Y-56120000D01*
G75*
G02*
X341700000Y-55970000I150000J0D01*
G01*
X343350000Y-55970000D01*
G75*
G02*
X343500000Y-56120000I0J-150000D01*
G01*
X343500000Y-56420000D01*
G75*
G02*
X343350000Y-56570000I-150000J0D01*
G01*
X341700000Y-56570000D01*
G75*
G02*
X341550000Y-56420000I0J150000D01*
G01*
G37*
G36*
G01*
X341550000Y-55150000D02*
X341550000Y-54850000D01*
G75*
G02*
X341700000Y-54700000I150000J0D01*
G01*
X343350000Y-54700000D01*
G75*
G02*
X343500000Y-54850000I0J-150000D01*
G01*
X343500000Y-55150000D01*
G75*
G02*
X343350000Y-55300000I-150000J0D01*
G01*
X341700000Y-55300000D01*
G75*
G02*
X341550000Y-55150000I0J150000D01*
G01*
G37*
G36*
G01*
X341550000Y-53880000D02*
X341550000Y-53580000D01*
G75*
G02*
X341700000Y-53430000I150000J0D01*
G01*
X343350000Y-53430000D01*
G75*
G02*
X343500000Y-53580000I0J-150000D01*
G01*
X343500000Y-53880000D01*
G75*
G02*
X343350000Y-54030000I-150000J0D01*
G01*
X341700000Y-54030000D01*
G75*
G02*
X341550000Y-53880000I0J150000D01*
G01*
G37*
G36*
G01*
X341550000Y-52610000D02*
X341550000Y-52310000D01*
G75*
G02*
X341700000Y-52160000I150000J0D01*
G01*
X343350000Y-52160000D01*
G75*
G02*
X343500000Y-52310000I0J-150000D01*
G01*
X343500000Y-52610000D01*
G75*
G02*
X343350000Y-52760000I-150000J0D01*
G01*
X341700000Y-52760000D01*
G75*
G02*
X341550000Y-52610000I0J150000D01*
G01*
G37*
G36*
G01*
X341550000Y-51340000D02*
X341550000Y-51040000D01*
G75*
G02*
X341700000Y-50890000I150000J0D01*
G01*
X343350000Y-50890000D01*
G75*
G02*
X343500000Y-51040000I0J-150000D01*
G01*
X343500000Y-51340000D01*
G75*
G02*
X343350000Y-51490000I-150000J0D01*
G01*
X341700000Y-51490000D01*
G75*
G02*
X341550000Y-51340000I0J150000D01*
G01*
G37*
G36*
G01*
X346500000Y-26340000D02*
X346500000Y-26040000D01*
G75*
G02*
X346650000Y-25890000I150000J0D01*
G01*
X348300000Y-25890000D01*
G75*
G02*
X348450000Y-26040000I0J-150000D01*
G01*
X348450000Y-26340000D01*
G75*
G02*
X348300000Y-26490000I-150000J0D01*
G01*
X346650000Y-26490000D01*
G75*
G02*
X346500000Y-26340000I0J150000D01*
G01*
G37*
G36*
G01*
X346500000Y-27610000D02*
X346500000Y-27310000D01*
G75*
G02*
X346650000Y-27160000I150000J0D01*
G01*
X348300000Y-27160000D01*
G75*
G02*
X348450000Y-27310000I0J-150000D01*
G01*
X348450000Y-27610000D01*
G75*
G02*
X348300000Y-27760000I-150000J0D01*
G01*
X346650000Y-27760000D01*
G75*
G02*
X346500000Y-27610000I0J150000D01*
G01*
G37*
G36*
G01*
X346500000Y-28880000D02*
X346500000Y-28580000D01*
G75*
G02*
X346650000Y-28430000I150000J0D01*
G01*
X348300000Y-28430000D01*
G75*
G02*
X348450000Y-28580000I0J-150000D01*
G01*
X348450000Y-28880000D01*
G75*
G02*
X348300000Y-29030000I-150000J0D01*
G01*
X346650000Y-29030000D01*
G75*
G02*
X346500000Y-28880000I0J150000D01*
G01*
G37*
G36*
G01*
X346500000Y-30150000D02*
X346500000Y-29850000D01*
G75*
G02*
X346650000Y-29700000I150000J0D01*
G01*
X348300000Y-29700000D01*
G75*
G02*
X348450000Y-29850000I0J-150000D01*
G01*
X348450000Y-30150000D01*
G75*
G02*
X348300000Y-30300000I-150000J0D01*
G01*
X346650000Y-30300000D01*
G75*
G02*
X346500000Y-30150000I0J150000D01*
G01*
G37*
G36*
G01*
X346500000Y-31420000D02*
X346500000Y-31120000D01*
G75*
G02*
X346650000Y-30970000I150000J0D01*
G01*
X348300000Y-30970000D01*
G75*
G02*
X348450000Y-31120000I0J-150000D01*
G01*
X348450000Y-31420000D01*
G75*
G02*
X348300000Y-31570000I-150000J0D01*
G01*
X346650000Y-31570000D01*
G75*
G02*
X346500000Y-31420000I0J150000D01*
G01*
G37*
G36*
G01*
X346500000Y-32690000D02*
X346500000Y-32390000D01*
G75*
G02*
X346650000Y-32240000I150000J0D01*
G01*
X348300000Y-32240000D01*
G75*
G02*
X348450000Y-32390000I0J-150000D01*
G01*
X348450000Y-32690000D01*
G75*
G02*
X348300000Y-32840000I-150000J0D01*
G01*
X346650000Y-32840000D01*
G75*
G02*
X346500000Y-32690000I0J150000D01*
G01*
G37*
G36*
G01*
X346500000Y-33960000D02*
X346500000Y-33660000D01*
G75*
G02*
X346650000Y-33510000I150000J0D01*
G01*
X348300000Y-33510000D01*
G75*
G02*
X348450000Y-33660000I0J-150000D01*
G01*
X348450000Y-33960000D01*
G75*
G02*
X348300000Y-34110000I-150000J0D01*
G01*
X346650000Y-34110000D01*
G75*
G02*
X346500000Y-33960000I0J150000D01*
G01*
G37*
G36*
G01*
X341550000Y-33960000D02*
X341550000Y-33660000D01*
G75*
G02*
X341700000Y-33510000I150000J0D01*
G01*
X343350000Y-33510000D01*
G75*
G02*
X343500000Y-33660000I0J-150000D01*
G01*
X343500000Y-33960000D01*
G75*
G02*
X343350000Y-34110000I-150000J0D01*
G01*
X341700000Y-34110000D01*
G75*
G02*
X341550000Y-33960000I0J150000D01*
G01*
G37*
G36*
G01*
X341550000Y-32690000D02*
X341550000Y-32390000D01*
G75*
G02*
X341700000Y-32240000I150000J0D01*
G01*
X343350000Y-32240000D01*
G75*
G02*
X343500000Y-32390000I0J-150000D01*
G01*
X343500000Y-32690000D01*
G75*
G02*
X343350000Y-32840000I-150000J0D01*
G01*
X341700000Y-32840000D01*
G75*
G02*
X341550000Y-32690000I0J150000D01*
G01*
G37*
G36*
G01*
X341550000Y-31420000D02*
X341550000Y-31120000D01*
G75*
G02*
X341700000Y-30970000I150000J0D01*
G01*
X343350000Y-30970000D01*
G75*
G02*
X343500000Y-31120000I0J-150000D01*
G01*
X343500000Y-31420000D01*
G75*
G02*
X343350000Y-31570000I-150000J0D01*
G01*
X341700000Y-31570000D01*
G75*
G02*
X341550000Y-31420000I0J150000D01*
G01*
G37*
G36*
G01*
X341550000Y-30150000D02*
X341550000Y-29850000D01*
G75*
G02*
X341700000Y-29700000I150000J0D01*
G01*
X343350000Y-29700000D01*
G75*
G02*
X343500000Y-29850000I0J-150000D01*
G01*
X343500000Y-30150000D01*
G75*
G02*
X343350000Y-30300000I-150000J0D01*
G01*
X341700000Y-30300000D01*
G75*
G02*
X341550000Y-30150000I0J150000D01*
G01*
G37*
G36*
G01*
X341550000Y-28880000D02*
X341550000Y-28580000D01*
G75*
G02*
X341700000Y-28430000I150000J0D01*
G01*
X343350000Y-28430000D01*
G75*
G02*
X343500000Y-28580000I0J-150000D01*
G01*
X343500000Y-28880000D01*
G75*
G02*
X343350000Y-29030000I-150000J0D01*
G01*
X341700000Y-29030000D01*
G75*
G02*
X341550000Y-28880000I0J150000D01*
G01*
G37*
G36*
G01*
X341550000Y-27610000D02*
X341550000Y-27310000D01*
G75*
G02*
X341700000Y-27160000I150000J0D01*
G01*
X343350000Y-27160000D01*
G75*
G02*
X343500000Y-27310000I0J-150000D01*
G01*
X343500000Y-27610000D01*
G75*
G02*
X343350000Y-27760000I-150000J0D01*
G01*
X341700000Y-27760000D01*
G75*
G02*
X341550000Y-27610000I0J150000D01*
G01*
G37*
G36*
G01*
X341550000Y-26340000D02*
X341550000Y-26040000D01*
G75*
G02*
X341700000Y-25890000I150000J0D01*
G01*
X343350000Y-25890000D01*
G75*
G02*
X343500000Y-26040000I0J-150000D01*
G01*
X343500000Y-26340000D01*
G75*
G02*
X343350000Y-26490000I-150000J0D01*
G01*
X341700000Y-26490000D01*
G75*
G02*
X341550000Y-26340000I0J150000D01*
G01*
G37*
D25*
X238850000Y-42500000D03*
X243650000Y-42500000D03*
D26*
X82100000Y-21548000D03*
X84640000Y-21548000D03*
X79560000Y-21548000D03*
D27*
X82100000Y-31452000D03*
G36*
G01*
X295149999Y-52000000D02*
X296050001Y-52000000D01*
G75*
G02*
X296300000Y-52249999I0J-249999D01*
G01*
X296300000Y-52950001D01*
G75*
G02*
X296050001Y-53200000I-249999J0D01*
G01*
X295149999Y-53200000D01*
G75*
G02*
X294900000Y-52950001I0J249999D01*
G01*
X294900000Y-52249999D01*
G75*
G02*
X295149999Y-52000000I249999J0D01*
G01*
G37*
G36*
G01*
X295149999Y-50000000D02*
X296050001Y-50000000D01*
G75*
G02*
X296300000Y-50249999I0J-249999D01*
G01*
X296300000Y-50950001D01*
G75*
G02*
X296050001Y-51200000I-249999J0D01*
G01*
X295149999Y-51200000D01*
G75*
G02*
X294900000Y-50950001I0J249999D01*
G01*
X294900000Y-50249999D01*
G75*
G02*
X295149999Y-50000000I249999J0D01*
G01*
G37*
G36*
G01*
X297949999Y-52000000D02*
X298850001Y-52000000D01*
G75*
G02*
X299100000Y-52249999I0J-249999D01*
G01*
X299100000Y-52950001D01*
G75*
G02*
X298850001Y-53200000I-249999J0D01*
G01*
X297949999Y-53200000D01*
G75*
G02*
X297700000Y-52950001I0J249999D01*
G01*
X297700000Y-52249999D01*
G75*
G02*
X297949999Y-52000000I249999J0D01*
G01*
G37*
G36*
G01*
X297949999Y-50000000D02*
X298850001Y-50000000D01*
G75*
G02*
X299100000Y-50249999I0J-249999D01*
G01*
X299100000Y-50950001D01*
G75*
G02*
X298850001Y-51200000I-249999J0D01*
G01*
X297949999Y-51200000D01*
G75*
G02*
X297700000Y-50950001I0J249999D01*
G01*
X297700000Y-50249999D01*
G75*
G02*
X297949999Y-50000000I249999J0D01*
G01*
G37*
D28*
X194430000Y-8625000D03*
X186810000Y-3545000D03*
D20*
X182370000Y-6715000D03*
X194430000Y-16885000D03*
D17*
X194430000Y-13070000D03*
X186810000Y-13070000D03*
D20*
X186810000Y-16885000D03*
D28*
X154430000Y-8625000D03*
X146810000Y-3545000D03*
D20*
X142370000Y-6715000D03*
X154430000Y-16885000D03*
D17*
X154430000Y-13070000D03*
X146810000Y-13070000D03*
D20*
X146810000Y-16885000D03*
D29*
X249990000Y-37750000D03*
X252530000Y-37750000D03*
X255070000Y-37750000D03*
X257610000Y-37750000D03*
X260150000Y-37750000D03*
X262690000Y-37750000D03*
X265230000Y-37750000D03*
X267770000Y-37750000D03*
X270310000Y-37750000D03*
X272850000Y-37750000D03*
X275390000Y-37750000D03*
X277930000Y-37750000D03*
X280470000Y-37750000D03*
X283010000Y-37750000D03*
X285550000Y-37750000D03*
X288090000Y-37750000D03*
X290630000Y-37750000D03*
X293170000Y-37750000D03*
X295710000Y-37750000D03*
D30*
X298250000Y-37750000D03*
D19*
X367800000Y-4130000D03*
X355800000Y-4130000D03*
D31*
X362310000Y-6430000D03*
X361290000Y-8970000D03*
X360270000Y-6430000D03*
D32*
X359250000Y-8970000D03*
D31*
X364350000Y-6430000D03*
X363330000Y-8970000D03*
D19*
X347800000Y-4130000D03*
X335800000Y-4130000D03*
D31*
X342310000Y-6430000D03*
X341290000Y-8970000D03*
X340270000Y-6430000D03*
D32*
X339250000Y-8970000D03*
D31*
X344350000Y-6430000D03*
X343330000Y-8970000D03*
D29*
X298260000Y-47220000D03*
X295720000Y-47220000D03*
X293180000Y-47220000D03*
X290640000Y-47220000D03*
X288100000Y-47220000D03*
X285560000Y-47220000D03*
X283020000Y-47220000D03*
X280480000Y-47220000D03*
X277940000Y-47220000D03*
X275400000Y-47220000D03*
X272860000Y-47220000D03*
X270320000Y-47220000D03*
X267780000Y-47220000D03*
X265240000Y-47220000D03*
X262700000Y-47220000D03*
X260160000Y-47220000D03*
X257620000Y-47220000D03*
X255080000Y-47220000D03*
X252540000Y-47220000D03*
D30*
X250000000Y-47220000D03*
D29*
X298260000Y-65000000D03*
X295720000Y-65000000D03*
X293180000Y-65000000D03*
X290640000Y-65000000D03*
X288100000Y-65000000D03*
X285560000Y-65000000D03*
X283020000Y-65000000D03*
X280480000Y-65000000D03*
X277940000Y-65000000D03*
X275400000Y-65000000D03*
X272860000Y-65000000D03*
X270320000Y-65000000D03*
X267780000Y-65000000D03*
X265240000Y-65000000D03*
X262700000Y-65000000D03*
X260160000Y-65000000D03*
X257620000Y-65000000D03*
X255080000Y-65000000D03*
X252540000Y-65000000D03*
D30*
X250000000Y-65000000D03*
D19*
X327800000Y-4130000D03*
X315800000Y-4130000D03*
D31*
X322310000Y-6430000D03*
X321290000Y-8970000D03*
X320270000Y-6430000D03*
D32*
X319250000Y-8970000D03*
D31*
X324350000Y-6430000D03*
X323330000Y-8970000D03*
D19*
X307800000Y-4130000D03*
X295800000Y-4130000D03*
D31*
X302310000Y-6430000D03*
X301290000Y-8970000D03*
X300270000Y-6430000D03*
D32*
X299250000Y-8970000D03*
D31*
X304350000Y-6430000D03*
X303330000Y-8970000D03*
D33*
X107000000Y-24187000D03*
X107000000Y-46813000D03*
D17*
X107270000Y-3125000D03*
D34*
X113400000Y-2175000D03*
X103550000Y-2175000D03*
D20*
X107270000Y-12625000D03*
D35*
X112470000Y-9375000D03*
X107270000Y-9375000D03*
G36*
G01*
X79975000Y-15550000D02*
X79025000Y-15550000D01*
G75*
G02*
X78775000Y-15300000I0J250000D01*
G01*
X78775000Y-14625000D01*
G75*
G02*
X79025000Y-14375000I250000J0D01*
G01*
X79975000Y-14375000D01*
G75*
G02*
X80225000Y-14625000I0J-250000D01*
G01*
X80225000Y-15300000D01*
G75*
G02*
X79975000Y-15550000I-250000J0D01*
G01*
G37*
G36*
G01*
X79975000Y-17625000D02*
X79025000Y-17625000D01*
G75*
G02*
X78775000Y-17375000I0J250000D01*
G01*
X78775000Y-16700000D01*
G75*
G02*
X79025000Y-16450000I250000J0D01*
G01*
X79975000Y-16450000D01*
G75*
G02*
X80225000Y-16700000I0J-250000D01*
G01*
X80225000Y-17375000D01*
G75*
G02*
X79975000Y-17625000I-250000J0D01*
G01*
G37*
G36*
G01*
X85350003Y-15200000D02*
X84049997Y-15200000D01*
G75*
G02*
X83800000Y-14950003I0J249997D01*
G01*
X83800000Y-14124997D01*
G75*
G02*
X84049997Y-13875000I249997J0D01*
G01*
X85350003Y-13875000D01*
G75*
G02*
X85600000Y-14124997I0J-249997D01*
G01*
X85600000Y-14950003D01*
G75*
G02*
X85350003Y-15200000I-249997J0D01*
G01*
G37*
G36*
G01*
X85350003Y-18325000D02*
X84049997Y-18325000D01*
G75*
G02*
X83800000Y-18075003I0J249997D01*
G01*
X83800000Y-17249997D01*
G75*
G02*
X84049997Y-17000000I249997J0D01*
G01*
X85350003Y-17000000D01*
G75*
G02*
X85600000Y-17249997I0J-249997D01*
G01*
X85600000Y-18075003D01*
G75*
G02*
X85350003Y-18325000I-249997J0D01*
G01*
G37*
M02*
