G04 #@! TF.GenerationSoftware,KiCad,Pcbnew,(5.1.10)-1*
G04 #@! TF.CreationDate,2022-11-18T11:00:14-07:00*
G04 #@! TF.ProjectId,Lift_02,4c696674-5f30-4322-9e6b-696361645f70,rev?*
G04 #@! TF.SameCoordinates,Original*
G04 #@! TF.FileFunction,Soldermask,Bot*
G04 #@! TF.FilePolarity,Negative*
%FSLAX46Y46*%
G04 Gerber Fmt 4.6, Leading zero omitted, Abs format (unit mm)*
G04 Created by KiCad (PCBNEW (5.1.10)-1) date 2022-11-18 11:00:14*
%MOMM*%
%LPD*%
G01*
G04 APERTURE LIST*
%ADD10C,2.500000*%
%ADD11C,2.400000*%
%ADD12C,2.000000*%
%ADD13R,1.200000X1.200000*%
%ADD14C,1.200000*%
%ADD15C,5.300000*%
%ADD16C,9.200000*%
%ADD17C,1.800000*%
%ADD18O,1.700000X1.700000*%
%ADD19R,1.700000X1.700000*%
%ADD20C,1.600000*%
%ADD21R,1.600000X1.600000*%
%ADD22O,2.400000X1.000000*%
%ADD23O,1.200000X3.800000*%
%ADD24O,1.200000X2.500000*%
G04 APERTURE END LIST*
D10*
X81800000Y-87000000D03*
X76800000Y-87000000D03*
X71800000Y-87000000D03*
X66800000Y-87000000D03*
X61800000Y-87000000D03*
X56800000Y-87000000D03*
X202746000Y-86106000D03*
X197746000Y-86106000D03*
X192746000Y-86106000D03*
X187746000Y-86106000D03*
X182746000Y-86106000D03*
X177746000Y-86106000D03*
D11*
X264320000Y-87000000D03*
X259240000Y-87000000D03*
X254160000Y-87000000D03*
X249080000Y-87000000D03*
D12*
X241240000Y-87000000D03*
X236160000Y-87000000D03*
D11*
X143420000Y-87000000D03*
X138340000Y-87000000D03*
X133260000Y-87000000D03*
X128180000Y-87000000D03*
D12*
X120340000Y-87000000D03*
X115260000Y-87000000D03*
D13*
X297000000Y-83000000D03*
D14*
X298500000Y-83000000D03*
X300000000Y-83000000D03*
X301500000Y-83000000D03*
X303000000Y-83000000D03*
X304500000Y-83000000D03*
X306000000Y-83000000D03*
X307500000Y-83000000D03*
X309000000Y-83000000D03*
X310500000Y-83000000D03*
X312000000Y-83000000D03*
D15*
X100000000Y-85000000D03*
X220750000Y-85000000D03*
X370000000Y-85000000D03*
D16*
X30250000Y-23000000D03*
D17*
X194430000Y-8625000D03*
X186810000Y-3545000D03*
D12*
X182370000Y-6715000D03*
X194430000Y-16885000D03*
D10*
X194430000Y-13070000D03*
X186810000Y-13070000D03*
D12*
X186810000Y-16885000D03*
D17*
X154430000Y-8625000D03*
X146810000Y-3545000D03*
D12*
X142370000Y-6715000D03*
X154430000Y-16885000D03*
D10*
X154430000Y-13070000D03*
X146810000Y-13070000D03*
D12*
X146810000Y-16885000D03*
D18*
X249990000Y-37750000D03*
X252530000Y-37750000D03*
X255070000Y-37750000D03*
X257610000Y-37750000D03*
X260150000Y-37750000D03*
X262690000Y-37750000D03*
X265230000Y-37750000D03*
X267770000Y-37750000D03*
X270310000Y-37750000D03*
X272850000Y-37750000D03*
X275390000Y-37750000D03*
X277930000Y-37750000D03*
X280470000Y-37750000D03*
X283010000Y-37750000D03*
X285550000Y-37750000D03*
X288090000Y-37750000D03*
X290630000Y-37750000D03*
X293170000Y-37750000D03*
X295710000Y-37750000D03*
D19*
X298250000Y-37750000D03*
D11*
X367800000Y-4130000D03*
X355800000Y-4130000D03*
D20*
X362310000Y-6430000D03*
X361290000Y-8970000D03*
X360270000Y-6430000D03*
D21*
X359250000Y-8970000D03*
D20*
X364350000Y-6430000D03*
X363330000Y-8970000D03*
D11*
X347800000Y-4130000D03*
X335800000Y-4130000D03*
D20*
X342310000Y-6430000D03*
X341290000Y-8970000D03*
X340270000Y-6430000D03*
D21*
X339250000Y-8970000D03*
D20*
X344350000Y-6430000D03*
X343330000Y-8970000D03*
D18*
X298260000Y-47220000D03*
X295720000Y-47220000D03*
X293180000Y-47220000D03*
X290640000Y-47220000D03*
X288100000Y-47220000D03*
X285560000Y-47220000D03*
X283020000Y-47220000D03*
X280480000Y-47220000D03*
X277940000Y-47220000D03*
X275400000Y-47220000D03*
X272860000Y-47220000D03*
X270320000Y-47220000D03*
X267780000Y-47220000D03*
X265240000Y-47220000D03*
X262700000Y-47220000D03*
X260160000Y-47220000D03*
X257620000Y-47220000D03*
X255080000Y-47220000D03*
X252540000Y-47220000D03*
D19*
X250000000Y-47220000D03*
D18*
X298260000Y-65000000D03*
X295720000Y-65000000D03*
X293180000Y-65000000D03*
X290640000Y-65000000D03*
X288100000Y-65000000D03*
X285560000Y-65000000D03*
X283020000Y-65000000D03*
X280480000Y-65000000D03*
X277940000Y-65000000D03*
X275400000Y-65000000D03*
X272860000Y-65000000D03*
X270320000Y-65000000D03*
X267780000Y-65000000D03*
X265240000Y-65000000D03*
X262700000Y-65000000D03*
X260160000Y-65000000D03*
X257620000Y-65000000D03*
X255080000Y-65000000D03*
X252540000Y-65000000D03*
D19*
X250000000Y-65000000D03*
D11*
X327800000Y-4130000D03*
X315800000Y-4130000D03*
D20*
X322310000Y-6430000D03*
X321290000Y-8970000D03*
X320270000Y-6430000D03*
D21*
X319250000Y-8970000D03*
D20*
X324350000Y-6430000D03*
X323330000Y-8970000D03*
D11*
X307800000Y-4130000D03*
X295800000Y-4130000D03*
D20*
X302310000Y-6430000D03*
X301290000Y-8970000D03*
X300270000Y-6430000D03*
D21*
X299250000Y-8970000D03*
D20*
X304350000Y-6430000D03*
X303330000Y-8970000D03*
D22*
X107000000Y-24187000D03*
X107000000Y-46813000D03*
D10*
X107270000Y-3125000D03*
D23*
X113400000Y-2175000D03*
X103550000Y-2175000D03*
D12*
X107270000Y-12625000D03*
D24*
X112470000Y-9375000D03*
X107270000Y-9375000D03*
M02*
