M48
; DRILL file {KiCad (5.1.10)-1} date 11/18/22 11:00:15
; FORMAT={-:-/ absolute / inch / decimal}
; #@! TF.CreationDate,2022-11-18T11:00:15-07:00
; #@! TF.GenerationSoftware,Kicad,Pcbnew,(5.1.10)-1
; #@! TF.FileFunction,Plated,1,2,PTH
FMAT,2
INCH
T1C0.0157
T2C0.0236
T3C0.0315
T4C0.0394
T5C0.0512
T6C0.0551
T7C0.0591
T8C0.0669
T9C0.0709
T10C0.0945
T11C0.2087
%
G90
G05
T1
X2.9724Y-0.8819
X3.11Y-3.01
X3.58Y-2.87
X4.87Y-3.01
X4.8705Y-2.9315
X4.8732Y-2.8669
X7.3789Y-3.0089
X8.0846Y-2.9287
X8.2273Y-2.8673
X8.961Y-2.8673
X9.03Y-2.93
X9.1323Y-3.0083
X9.2087Y-1.6693
X10.16Y-2.86
X10.41Y-3.09
X10.7Y-2.98
X10.75Y-3.19
X10.828Y-2.98
X11.752Y-2.1358
X11.8701Y-3.373
X12.9763Y-1.4901
X13.0588Y-1.4939
X13.1004Y-2.0965
X13.1201Y-1.8602
X13.1398Y-1.2106
X13.1398Y-1.939
X13.1398Y-2.1752
X13.1398Y-2.3031
X13.1594Y-0.9055
X13.2776Y-2.2146
X13.2776Y-2.4705
X13.3465Y-2.4311
X13.5148Y-0.8671
X13.6811Y-1.7815
X13.878Y-2.2343
X14.0157Y-1.9291
X14.0231Y-2.1777
X14.172Y-2.3771
T3
X11.6929Y-3.2677
X11.752Y-3.2677
X11.811Y-3.2677
X11.8701Y-3.2677
X11.9291Y-3.2677
X11.9882Y-3.2677
X12.0472Y-3.2677
X12.1063Y-3.2677
X12.1654Y-3.2677
X12.2244Y-3.2677
X12.2835Y-3.2677
T4
X9.8421Y-1.4862
X9.8425Y-1.8591
X9.8425Y-2.5591
X9.9421Y-1.4862
X9.9425Y-1.8591
X9.9425Y-2.5591
X10.0421Y-1.4862
X10.0425Y-1.8591
X10.0425Y-2.5591
X10.1421Y-1.4862
X10.1425Y-1.8591
X10.1425Y-2.5591
X10.2421Y-1.4862
X10.2425Y-1.8591
X10.2425Y-2.5591
X10.3421Y-1.4862
X10.3425Y-1.8591
X10.3425Y-2.5591
X10.4421Y-1.4862
X10.4425Y-1.8591
X10.4425Y-2.5591
X10.5421Y-1.4862
X10.5425Y-1.8591
X10.5425Y-2.5591
X10.6421Y-1.4862
X10.6425Y-1.8591
X10.6425Y-2.5591
X10.7421Y-1.4862
X10.7425Y-1.8591
X10.7425Y-2.5591
X10.8421Y-1.4862
X10.8425Y-1.8591
X10.8425Y-2.5591
X10.9421Y-1.4862
X10.9425Y-1.8591
X10.9425Y-2.5591
X11.0421Y-1.4862
X11.0425Y-1.8591
X11.0425Y-2.5591
X11.1421Y-1.4862
X11.1425Y-1.8591
X11.1425Y-2.5591
X11.2421Y-1.4862
X11.2425Y-1.8591
X11.2425Y-2.5591
X11.3421Y-1.4862
X11.3425Y-1.8591
X11.3425Y-2.5591
X11.4421Y-1.4862
X11.4425Y-1.8591
X11.4425Y-2.5591
X11.5421Y-1.4862
X11.5425Y-1.8591
X11.5425Y-2.5591
X11.6421Y-1.4862
X11.6425Y-1.8591
X11.6425Y-2.5591
X11.7421Y-1.4862
X11.7425Y-1.8591
X11.7425Y-2.5591
X11.7815Y-0.3531
X11.8217Y-0.2531
X11.8618Y-0.3531
X11.902Y-0.2531
X11.9421Y-0.3531
X11.9823Y-0.2531
X12.5689Y-0.3531
X12.6091Y-0.2531
X12.6492Y-0.3531
X12.6894Y-0.2531
X12.7295Y-0.3531
X12.7697Y-0.2531
X13.3563Y-0.3531
X13.3965Y-0.2531
X13.4366Y-0.3531
X13.4768Y-0.2531
X13.5169Y-0.3531
X13.5571Y-0.2531
X14.1437Y-0.3531
X14.1839Y-0.2531
X14.224Y-0.3531
X14.2642Y-0.2531
X14.3043Y-0.3531
X14.3445Y-0.2531
T5
X4.2232Y-0.497
X4.5378Y-3.4252
X4.7378Y-3.4252
X9.2976Y-3.4252
X9.4976Y-3.4252
T6
X5.6051Y-0.2644
X5.7799Y-0.6648
X6.0799Y-0.6648
X7.1799Y-0.2644
X7.3547Y-0.6648
X7.6547Y-0.6648
T7
X5.0465Y-3.4252
X5.2465Y-3.4252
X5.4465Y-3.4252
X5.6465Y-3.4252
X9.8063Y-3.4252
X10.0063Y-3.4252
X10.2063Y-3.4252
X10.4063Y-3.4252
T8
X2.2362Y-3.4252
X2.4331Y-3.4252
X2.6299Y-3.4252
X2.8268Y-3.4252
X3.0236Y-3.4252
X3.2205Y-3.4252
X6.9979Y-3.39
X7.1947Y-3.39
X7.3916Y-3.39
X7.5884Y-3.39
X7.7853Y-3.39
X7.9821Y-3.39
T9
X5.7799Y-0.5146
X6.0799Y-0.5146
X7.3547Y-0.5146
X7.6547Y-0.5146
T10
X11.6457Y-0.1626
X12.1181Y-0.1626
X12.4331Y-0.1626
X12.9055Y-0.1626
X13.2205Y-0.1626
X13.6929Y-0.1626
X14.0079Y-0.1626
X14.4803Y-0.1626
T11
X1.1909Y-0.9055
T2
G00X4.0768Y-0.0384
M15
G01X4.0768Y-0.1329
M16
G05
G00X4.2339Y-0.9522
M15
G01X4.1913Y-0.9522
M16
G05
G00X4.2339Y-1.843
M15
G01X4.1913Y-1.843
M16
G05
G00X4.2232Y-0.3415
M15
G01X4.2232Y-0.3967
M16
G05
G00X4.428Y-0.3415
M15
G01X4.428Y-0.3967
M16
G05
G00X4.4646Y-0.0384
M15
G01X4.4646Y-0.1329
M16
G05
T0
M30
