%TF.GenerationSoftware,KiCad,Pcbnew,(5.1.10)-1*%
%TF.CreationDate,2022-11-15T16:39:47-07:00*%
%TF.ProjectId,dm542t_mount,646d3534-3274-45f6-9d6f-756e742e6b69,rev?*%
%TF.SameCoordinates,Original*%
%TF.FileFunction,Copper,L2,Bot*%
%TF.FilePolarity,Positive*%
%FSLAX46Y46*%
G04 Gerber Fmt 4.6, Leading zero omitted, Abs format (unit mm)*
G04 Created by KiCad (PCBNEW (5.1.10)-1) date 2022-11-15 16:39:47*
%MOMM*%
%LPD*%
G01*
G04 APERTURE LIST*
%TA.AperFunction,ComponentPad*%
%ADD10C,9.200000*%
%TD*%
%TA.AperFunction,Conductor*%
%ADD11C,0.254000*%
%TD*%
%TA.AperFunction,Conductor*%
%ADD12C,0.100000*%
%TD*%
G04 APERTURE END LIST*
D10*
%TO.P,H6,1*%
%TO.N,GND*%
X390000000Y60660000D03*
%TD*%
%TO.P,H5,1*%
%TO.N,GND*%
X36500000Y30330000D03*
%TD*%
%TO.P,H4,1*%
%TO.N,GND*%
X390000000Y30330000D03*
%TD*%
%TO.P,H3,1*%
%TO.N,GND*%
X36500000Y60660000D03*
%TD*%
%TO.P,H2,1*%
%TO.N,GND*%
X220000000Y60660000D03*
%TD*%
%TO.P,H1,1*%
%TO.N,GND*%
X220000000Y30330000D03*
%TD*%
D11*
%TO.N,GND*%
X416340000Y660000D02*
X660000Y660000D01*
X660000Y26633954D01*
X32983559Y26633954D01*
X33511702Y26000895D01*
X34413688Y25501089D01*
X35395850Y25186856D01*
X36420443Y25070271D01*
X37448094Y25155814D01*
X38439310Y25440199D01*
X39356000Y25912496D01*
X39488298Y26000895D01*
X40016441Y26633954D01*
X216483559Y26633954D01*
X217011702Y26000895D01*
X217913688Y25501089D01*
X218895850Y25186856D01*
X219920443Y25070271D01*
X220948094Y25155814D01*
X221939310Y25440199D01*
X222856000Y25912496D01*
X222988298Y26000895D01*
X223516441Y26633954D01*
X386483559Y26633954D01*
X387011702Y26000895D01*
X387913688Y25501089D01*
X388895850Y25186856D01*
X389920443Y25070271D01*
X390948094Y25155814D01*
X391939310Y25440199D01*
X392856000Y25912496D01*
X392988298Y26000895D01*
X393516441Y26633954D01*
X390000000Y30150395D01*
X386483559Y26633954D01*
X223516441Y26633954D01*
X220000000Y30150395D01*
X216483559Y26633954D01*
X40016441Y26633954D01*
X36500000Y30150395D01*
X32983559Y26633954D01*
X660000Y26633954D01*
X660000Y30409557D01*
X31240271Y30409557D01*
X31325814Y29381906D01*
X31610199Y28390690D01*
X32082496Y27474000D01*
X32170895Y27341702D01*
X32803954Y26813559D01*
X36320395Y30330000D01*
X36679605Y30330000D01*
X40196046Y26813559D01*
X40829105Y27341702D01*
X41328911Y28243688D01*
X41643144Y29225850D01*
X41759729Y30250443D01*
X41674186Y31278094D01*
X41389801Y32269310D01*
X40991896Y33041612D01*
X73546870Y33041612D01*
X73546870Y32558388D01*
X73641142Y32084448D01*
X73826064Y31638007D01*
X74094529Y31236221D01*
X74436221Y30894529D01*
X74838007Y30626064D01*
X75284448Y30441142D01*
X75758388Y30346870D01*
X76241612Y30346870D01*
X76715552Y30441142D01*
X77161993Y30626064D01*
X77563779Y30894529D01*
X77905471Y31236221D01*
X78173936Y31638007D01*
X78358858Y32084448D01*
X78453130Y32558388D01*
X78453130Y33041612D01*
X185546870Y33041612D01*
X185546870Y32558388D01*
X185641142Y32084448D01*
X185826064Y31638007D01*
X186094529Y31236221D01*
X186436221Y30894529D01*
X186838007Y30626064D01*
X187284448Y30441142D01*
X187758388Y30346870D01*
X188241612Y30346870D01*
X188556762Y30409557D01*
X214740271Y30409557D01*
X214825814Y29381906D01*
X215110199Y28390690D01*
X215582496Y27474000D01*
X215670895Y27341702D01*
X216303954Y26813559D01*
X219820395Y30330000D01*
X220179605Y30330000D01*
X223696046Y26813559D01*
X224329105Y27341702D01*
X224828911Y28243688D01*
X225143144Y29225850D01*
X225259729Y30250443D01*
X225174186Y31278094D01*
X224889801Y32269310D01*
X224491896Y33041612D01*
X247546870Y33041612D01*
X247546870Y32558388D01*
X247641142Y32084448D01*
X247826064Y31638007D01*
X248094529Y31236221D01*
X248436221Y30894529D01*
X248838007Y30626064D01*
X249284448Y30441142D01*
X249758388Y30346870D01*
X250241612Y30346870D01*
X250715552Y30441142D01*
X251161993Y30626064D01*
X251563779Y30894529D01*
X251905471Y31236221D01*
X252173936Y31638007D01*
X252358858Y32084448D01*
X252453130Y32558388D01*
X252453130Y33038182D01*
X359581701Y33038182D01*
X359581701Y32561818D01*
X359674635Y32094608D01*
X359856931Y31654506D01*
X360121585Y31258424D01*
X360458424Y30921585D01*
X360854506Y30656931D01*
X361294608Y30474635D01*
X361761818Y30381701D01*
X362238182Y30381701D01*
X362378223Y30409557D01*
X384740271Y30409557D01*
X384825814Y29381906D01*
X385110199Y28390690D01*
X385582496Y27474000D01*
X385670895Y27341702D01*
X386303954Y26813559D01*
X389820395Y30330000D01*
X390179605Y30330000D01*
X393696046Y26813559D01*
X394329105Y27341702D01*
X394828911Y28243688D01*
X395143144Y29225850D01*
X395259729Y30250443D01*
X395174186Y31278094D01*
X394889801Y32269310D01*
X394417504Y33186000D01*
X394329105Y33318298D01*
X393696046Y33846441D01*
X390179605Y30330000D01*
X389820395Y30330000D01*
X386303954Y33846441D01*
X385670895Y33318298D01*
X385171089Y32416312D01*
X384856856Y31434150D01*
X384740271Y30409557D01*
X362378223Y30409557D01*
X362705392Y30474635D01*
X363145494Y30656931D01*
X363541576Y30921585D01*
X363878415Y31258424D01*
X364143069Y31654506D01*
X364325365Y32094608D01*
X364418299Y32561818D01*
X364418299Y33038182D01*
X364325365Y33505392D01*
X364143069Y33945494D01*
X364089246Y34026046D01*
X386483559Y34026046D01*
X390000000Y30509605D01*
X393516441Y34026046D01*
X392988298Y34659105D01*
X392086312Y35158911D01*
X391104150Y35473144D01*
X390079557Y35589729D01*
X389051906Y35504186D01*
X388060690Y35219801D01*
X387144000Y34747504D01*
X387011702Y34659105D01*
X386483559Y34026046D01*
X364089246Y34026046D01*
X363878415Y34341576D01*
X363541576Y34678415D01*
X363145494Y34943069D01*
X362705392Y35125365D01*
X362238182Y35218299D01*
X361761818Y35218299D01*
X361294608Y35125365D01*
X360854506Y34943069D01*
X360458424Y34678415D01*
X360121585Y34341576D01*
X359856931Y33945494D01*
X359674635Y33505392D01*
X359581701Y33038182D01*
X252453130Y33038182D01*
X252453130Y33041612D01*
X252358858Y33515552D01*
X252173936Y33961993D01*
X251905471Y34363779D01*
X251563779Y34705471D01*
X251161993Y34973936D01*
X250715552Y35158858D01*
X250241612Y35253130D01*
X249758388Y35253130D01*
X249284448Y35158858D01*
X248838007Y34973936D01*
X248436221Y34705471D01*
X248094529Y34363779D01*
X247826064Y33961993D01*
X247641142Y33515552D01*
X247546870Y33041612D01*
X224491896Y33041612D01*
X224417504Y33186000D01*
X224329105Y33318298D01*
X223696046Y33846441D01*
X220179605Y30330000D01*
X219820395Y30330000D01*
X216303954Y33846441D01*
X215670895Y33318298D01*
X215171089Y32416312D01*
X214856856Y31434150D01*
X214740271Y30409557D01*
X188556762Y30409557D01*
X188715552Y30441142D01*
X189161993Y30626064D01*
X189563779Y30894529D01*
X189905471Y31236221D01*
X190173936Y31638007D01*
X190358858Y32084448D01*
X190453130Y32558388D01*
X190453130Y33041612D01*
X190358858Y33515552D01*
X190173936Y33961993D01*
X190131138Y34026046D01*
X216483559Y34026046D01*
X220000000Y30509605D01*
X223516441Y34026046D01*
X222988298Y34659105D01*
X222086312Y35158911D01*
X221104150Y35473144D01*
X220079557Y35589729D01*
X219051906Y35504186D01*
X218060690Y35219801D01*
X217144000Y34747504D01*
X217011702Y34659105D01*
X216483559Y34026046D01*
X190131138Y34026046D01*
X189905471Y34363779D01*
X189563779Y34705471D01*
X189161993Y34973936D01*
X188715552Y35158858D01*
X188241612Y35253130D01*
X187758388Y35253130D01*
X187284448Y35158858D01*
X186838007Y34973936D01*
X186436221Y34705471D01*
X186094529Y34363779D01*
X185826064Y33961993D01*
X185641142Y33515552D01*
X185546870Y33041612D01*
X78453130Y33041612D01*
X78358858Y33515552D01*
X78173936Y33961993D01*
X77905471Y34363779D01*
X77563779Y34705471D01*
X77161993Y34973936D01*
X76715552Y35158858D01*
X76241612Y35253130D01*
X75758388Y35253130D01*
X75284448Y35158858D01*
X74838007Y34973936D01*
X74436221Y34705471D01*
X74094529Y34363779D01*
X73826064Y33961993D01*
X73641142Y33515552D01*
X73546870Y33041612D01*
X40991896Y33041612D01*
X40917504Y33186000D01*
X40829105Y33318298D01*
X40196046Y33846441D01*
X36679605Y30330000D01*
X36320395Y30330000D01*
X32803954Y33846441D01*
X32170895Y33318298D01*
X31671089Y32416312D01*
X31356856Y31434150D01*
X31240271Y30409557D01*
X660000Y30409557D01*
X660000Y34026046D01*
X32983559Y34026046D01*
X36500000Y30509605D01*
X40016441Y34026046D01*
X39488298Y34659105D01*
X38586312Y35158911D01*
X37604150Y35473144D01*
X36579557Y35589729D01*
X35551906Y35504186D01*
X34560690Y35219801D01*
X33644000Y34747504D01*
X33511702Y34659105D01*
X32983559Y34026046D01*
X660000Y34026046D01*
X660000Y56963954D01*
X32983559Y56963954D01*
X33511702Y56330895D01*
X34413688Y55831089D01*
X35395850Y55516856D01*
X36420443Y55400271D01*
X37448094Y55485814D01*
X37642576Y55541612D01*
X73546870Y55541612D01*
X73546870Y55058388D01*
X73641142Y54584448D01*
X73826064Y54138007D01*
X74094529Y53736221D01*
X74436221Y53394529D01*
X74838007Y53126064D01*
X75284448Y52941142D01*
X75758388Y52846870D01*
X76241612Y52846870D01*
X76715552Y52941142D01*
X77161993Y53126064D01*
X77563779Y53394529D01*
X77905471Y53736221D01*
X78173936Y54138007D01*
X78358858Y54584448D01*
X78453130Y55058388D01*
X78453130Y55541612D01*
X78358858Y56015552D01*
X78173936Y56461993D01*
X77905471Y56863779D01*
X77563779Y57205471D01*
X77161993Y57473936D01*
X76715552Y57658858D01*
X76241612Y57753130D01*
X75758388Y57753130D01*
X75284448Y57658858D01*
X74838007Y57473936D01*
X74436221Y57205471D01*
X74094529Y56863779D01*
X73826064Y56461993D01*
X73641142Y56015552D01*
X73546870Y55541612D01*
X37642576Y55541612D01*
X38439310Y55770199D01*
X39356000Y56242496D01*
X39488298Y56330895D01*
X40016441Y56963954D01*
X36500000Y60480395D01*
X32983559Y56963954D01*
X660000Y56963954D01*
X660000Y60739557D01*
X31240271Y60739557D01*
X31325814Y59711906D01*
X31610199Y58720690D01*
X32082496Y57804000D01*
X32170895Y57671702D01*
X32803954Y57143559D01*
X36320395Y60660000D01*
X36679605Y60660000D01*
X40196046Y57143559D01*
X40829105Y57671702D01*
X41328911Y58573688D01*
X41574600Y59341612D01*
X185546870Y59341612D01*
X185546870Y58858388D01*
X185641142Y58384448D01*
X185826064Y57938007D01*
X186094529Y57536221D01*
X186436221Y57194529D01*
X186838007Y56926064D01*
X187284448Y56741142D01*
X187758388Y56646870D01*
X188241612Y56646870D01*
X188715552Y56741142D01*
X189161993Y56926064D01*
X189218699Y56963954D01*
X216483559Y56963954D01*
X217011702Y56330895D01*
X217913688Y55831089D01*
X218895850Y55516856D01*
X219920443Y55400271D01*
X220948094Y55485814D01*
X221142576Y55541612D01*
X247546870Y55541612D01*
X247546870Y55058388D01*
X247641142Y54584448D01*
X247826064Y54138007D01*
X248094529Y53736221D01*
X248436221Y53394529D01*
X248838007Y53126064D01*
X249284448Y52941142D01*
X249758388Y52846870D01*
X250241612Y52846870D01*
X250715552Y52941142D01*
X251161993Y53126064D01*
X251563779Y53394529D01*
X251905471Y53736221D01*
X252173936Y54138007D01*
X252358858Y54584448D01*
X252453130Y55058388D01*
X252453130Y55541612D01*
X252358858Y56015552D01*
X252173936Y56461993D01*
X251905471Y56863779D01*
X251563779Y57205471D01*
X251161993Y57473936D01*
X250715552Y57658858D01*
X250241612Y57753130D01*
X249758388Y57753130D01*
X249284448Y57658858D01*
X248838007Y57473936D01*
X248436221Y57205471D01*
X248094529Y56863779D01*
X247826064Y56461993D01*
X247641142Y56015552D01*
X247546870Y55541612D01*
X221142576Y55541612D01*
X221939310Y55770199D01*
X222856000Y56242496D01*
X222988298Y56330895D01*
X223516441Y56963954D01*
X220000000Y60480395D01*
X216483559Y56963954D01*
X189218699Y56963954D01*
X189563779Y57194529D01*
X189905471Y57536221D01*
X190173936Y57938007D01*
X190358858Y58384448D01*
X190453130Y58858388D01*
X190453130Y59341612D01*
X190358858Y59815552D01*
X190173936Y60261993D01*
X189905471Y60663779D01*
X189829693Y60739557D01*
X214740271Y60739557D01*
X214825814Y59711906D01*
X215110199Y58720690D01*
X215582496Y57804000D01*
X215670895Y57671702D01*
X216303954Y57143559D01*
X219820395Y60660000D01*
X220179605Y60660000D01*
X223696046Y57143559D01*
X224329105Y57671702D01*
X224828911Y58573688D01*
X225073503Y59338182D01*
X359581701Y59338182D01*
X359581701Y58861818D01*
X359674635Y58394608D01*
X359856931Y57954506D01*
X360121585Y57558424D01*
X360458424Y57221585D01*
X360854506Y56956931D01*
X361294608Y56774635D01*
X361761818Y56681701D01*
X362238182Y56681701D01*
X362705392Y56774635D01*
X363145494Y56956931D01*
X363156004Y56963954D01*
X386483559Y56963954D01*
X387011702Y56330895D01*
X387913688Y55831089D01*
X388895850Y55516856D01*
X389920443Y55400271D01*
X390948094Y55485814D01*
X391939310Y55770199D01*
X392856000Y56242496D01*
X392988298Y56330895D01*
X393516441Y56963954D01*
X390000000Y60480395D01*
X386483559Y56963954D01*
X363156004Y56963954D01*
X363541576Y57221585D01*
X363878415Y57558424D01*
X364143069Y57954506D01*
X364325365Y58394608D01*
X364418299Y58861818D01*
X364418299Y59338182D01*
X364325365Y59805392D01*
X364143069Y60245494D01*
X363878415Y60641576D01*
X363780434Y60739557D01*
X384740271Y60739557D01*
X384825814Y59711906D01*
X385110199Y58720690D01*
X385582496Y57804000D01*
X385670895Y57671702D01*
X386303954Y57143559D01*
X389820395Y60660000D01*
X390179605Y60660000D01*
X393696046Y57143559D01*
X394329105Y57671702D01*
X394828911Y58573688D01*
X395143144Y59555850D01*
X395259729Y60580443D01*
X395174186Y61608094D01*
X394889801Y62599310D01*
X394417504Y63516000D01*
X394329105Y63648298D01*
X393696046Y64176441D01*
X390179605Y60660000D01*
X389820395Y60660000D01*
X386303954Y64176441D01*
X385670895Y63648298D01*
X385171089Y62746312D01*
X384856856Y61764150D01*
X384740271Y60739557D01*
X363780434Y60739557D01*
X363541576Y60978415D01*
X363145494Y61243069D01*
X362705392Y61425365D01*
X362238182Y61518299D01*
X361761818Y61518299D01*
X361294608Y61425365D01*
X360854506Y61243069D01*
X360458424Y60978415D01*
X360121585Y60641576D01*
X359856931Y60245494D01*
X359674635Y59805392D01*
X359581701Y59338182D01*
X225073503Y59338182D01*
X225143144Y59555850D01*
X225259729Y60580443D01*
X225174186Y61608094D01*
X224889801Y62599310D01*
X224417504Y63516000D01*
X224329105Y63648298D01*
X223696046Y64176441D01*
X220179605Y60660000D01*
X219820395Y60660000D01*
X216303954Y64176441D01*
X215670895Y63648298D01*
X215171089Y62746312D01*
X214856856Y61764150D01*
X214740271Y60739557D01*
X189829693Y60739557D01*
X189563779Y61005471D01*
X189161993Y61273936D01*
X188715552Y61458858D01*
X188241612Y61553130D01*
X187758388Y61553130D01*
X187284448Y61458858D01*
X186838007Y61273936D01*
X186436221Y61005471D01*
X186094529Y60663779D01*
X185826064Y60261993D01*
X185641142Y59815552D01*
X185546870Y59341612D01*
X41574600Y59341612D01*
X41643144Y59555850D01*
X41759729Y60580443D01*
X41674186Y61608094D01*
X41389801Y62599310D01*
X40917504Y63516000D01*
X40829105Y63648298D01*
X40196046Y64176441D01*
X36679605Y60660000D01*
X36320395Y60660000D01*
X32803954Y64176441D01*
X32170895Y63648298D01*
X31671089Y62746312D01*
X31356856Y61764150D01*
X31240271Y60739557D01*
X660000Y60739557D01*
X660000Y64356046D01*
X32983559Y64356046D01*
X36500000Y60839605D01*
X40016441Y64356046D01*
X216483559Y64356046D01*
X220000000Y60839605D01*
X223516441Y64356046D01*
X386483559Y64356046D01*
X390000000Y60839605D01*
X393516441Y64356046D01*
X392988298Y64989105D01*
X392086312Y65488911D01*
X391104150Y65803144D01*
X390079557Y65919729D01*
X389051906Y65834186D01*
X388060690Y65549801D01*
X387144000Y65077504D01*
X387011702Y64989105D01*
X386483559Y64356046D01*
X223516441Y64356046D01*
X222988298Y64989105D01*
X222086312Y65488911D01*
X221104150Y65803144D01*
X220079557Y65919729D01*
X219051906Y65834186D01*
X218060690Y65549801D01*
X217144000Y65077504D01*
X217011702Y64989105D01*
X216483559Y64356046D01*
X40016441Y64356046D01*
X39488298Y64989105D01*
X38586312Y65488911D01*
X37604150Y65803144D01*
X36579557Y65919729D01*
X35551906Y65834186D01*
X34560690Y65549801D01*
X33644000Y65077504D01*
X33511702Y64989105D01*
X32983559Y64356046D01*
X660000Y64356046D01*
X660000Y90315000D01*
X416340001Y90315000D01*
X416340000Y660000D01*
%TA.AperFunction,Conductor*%
D12*
G36*
X416340000Y660000D02*
G01*
X660000Y660000D01*
X660000Y26633954D01*
X32983559Y26633954D01*
X33511702Y26000895D01*
X34413688Y25501089D01*
X35395850Y25186856D01*
X36420443Y25070271D01*
X37448094Y25155814D01*
X38439310Y25440199D01*
X39356000Y25912496D01*
X39488298Y26000895D01*
X40016441Y26633954D01*
X216483559Y26633954D01*
X217011702Y26000895D01*
X217913688Y25501089D01*
X218895850Y25186856D01*
X219920443Y25070271D01*
X220948094Y25155814D01*
X221939310Y25440199D01*
X222856000Y25912496D01*
X222988298Y26000895D01*
X223516441Y26633954D01*
X386483559Y26633954D01*
X387011702Y26000895D01*
X387913688Y25501089D01*
X388895850Y25186856D01*
X389920443Y25070271D01*
X390948094Y25155814D01*
X391939310Y25440199D01*
X392856000Y25912496D01*
X392988298Y26000895D01*
X393516441Y26633954D01*
X390000000Y30150395D01*
X386483559Y26633954D01*
X223516441Y26633954D01*
X220000000Y30150395D01*
X216483559Y26633954D01*
X40016441Y26633954D01*
X36500000Y30150395D01*
X32983559Y26633954D01*
X660000Y26633954D01*
X660000Y30409557D01*
X31240271Y30409557D01*
X31325814Y29381906D01*
X31610199Y28390690D01*
X32082496Y27474000D01*
X32170895Y27341702D01*
X32803954Y26813559D01*
X36320395Y30330000D01*
X36679605Y30330000D01*
X40196046Y26813559D01*
X40829105Y27341702D01*
X41328911Y28243688D01*
X41643144Y29225850D01*
X41759729Y30250443D01*
X41674186Y31278094D01*
X41389801Y32269310D01*
X40991896Y33041612D01*
X73546870Y33041612D01*
X73546870Y32558388D01*
X73641142Y32084448D01*
X73826064Y31638007D01*
X74094529Y31236221D01*
X74436221Y30894529D01*
X74838007Y30626064D01*
X75284448Y30441142D01*
X75758388Y30346870D01*
X76241612Y30346870D01*
X76715552Y30441142D01*
X77161993Y30626064D01*
X77563779Y30894529D01*
X77905471Y31236221D01*
X78173936Y31638007D01*
X78358858Y32084448D01*
X78453130Y32558388D01*
X78453130Y33041612D01*
X185546870Y33041612D01*
X185546870Y32558388D01*
X185641142Y32084448D01*
X185826064Y31638007D01*
X186094529Y31236221D01*
X186436221Y30894529D01*
X186838007Y30626064D01*
X187284448Y30441142D01*
X187758388Y30346870D01*
X188241612Y30346870D01*
X188556762Y30409557D01*
X214740271Y30409557D01*
X214825814Y29381906D01*
X215110199Y28390690D01*
X215582496Y27474000D01*
X215670895Y27341702D01*
X216303954Y26813559D01*
X219820395Y30330000D01*
X220179605Y30330000D01*
X223696046Y26813559D01*
X224329105Y27341702D01*
X224828911Y28243688D01*
X225143144Y29225850D01*
X225259729Y30250443D01*
X225174186Y31278094D01*
X224889801Y32269310D01*
X224491896Y33041612D01*
X247546870Y33041612D01*
X247546870Y32558388D01*
X247641142Y32084448D01*
X247826064Y31638007D01*
X248094529Y31236221D01*
X248436221Y30894529D01*
X248838007Y30626064D01*
X249284448Y30441142D01*
X249758388Y30346870D01*
X250241612Y30346870D01*
X250715552Y30441142D01*
X251161993Y30626064D01*
X251563779Y30894529D01*
X251905471Y31236221D01*
X252173936Y31638007D01*
X252358858Y32084448D01*
X252453130Y32558388D01*
X252453130Y33038182D01*
X359581701Y33038182D01*
X359581701Y32561818D01*
X359674635Y32094608D01*
X359856931Y31654506D01*
X360121585Y31258424D01*
X360458424Y30921585D01*
X360854506Y30656931D01*
X361294608Y30474635D01*
X361761818Y30381701D01*
X362238182Y30381701D01*
X362378223Y30409557D01*
X384740271Y30409557D01*
X384825814Y29381906D01*
X385110199Y28390690D01*
X385582496Y27474000D01*
X385670895Y27341702D01*
X386303954Y26813559D01*
X389820395Y30330000D01*
X390179605Y30330000D01*
X393696046Y26813559D01*
X394329105Y27341702D01*
X394828911Y28243688D01*
X395143144Y29225850D01*
X395259729Y30250443D01*
X395174186Y31278094D01*
X394889801Y32269310D01*
X394417504Y33186000D01*
X394329105Y33318298D01*
X393696046Y33846441D01*
X390179605Y30330000D01*
X389820395Y30330000D01*
X386303954Y33846441D01*
X385670895Y33318298D01*
X385171089Y32416312D01*
X384856856Y31434150D01*
X384740271Y30409557D01*
X362378223Y30409557D01*
X362705392Y30474635D01*
X363145494Y30656931D01*
X363541576Y30921585D01*
X363878415Y31258424D01*
X364143069Y31654506D01*
X364325365Y32094608D01*
X364418299Y32561818D01*
X364418299Y33038182D01*
X364325365Y33505392D01*
X364143069Y33945494D01*
X364089246Y34026046D01*
X386483559Y34026046D01*
X390000000Y30509605D01*
X393516441Y34026046D01*
X392988298Y34659105D01*
X392086312Y35158911D01*
X391104150Y35473144D01*
X390079557Y35589729D01*
X389051906Y35504186D01*
X388060690Y35219801D01*
X387144000Y34747504D01*
X387011702Y34659105D01*
X386483559Y34026046D01*
X364089246Y34026046D01*
X363878415Y34341576D01*
X363541576Y34678415D01*
X363145494Y34943069D01*
X362705392Y35125365D01*
X362238182Y35218299D01*
X361761818Y35218299D01*
X361294608Y35125365D01*
X360854506Y34943069D01*
X360458424Y34678415D01*
X360121585Y34341576D01*
X359856931Y33945494D01*
X359674635Y33505392D01*
X359581701Y33038182D01*
X252453130Y33038182D01*
X252453130Y33041612D01*
X252358858Y33515552D01*
X252173936Y33961993D01*
X251905471Y34363779D01*
X251563779Y34705471D01*
X251161993Y34973936D01*
X250715552Y35158858D01*
X250241612Y35253130D01*
X249758388Y35253130D01*
X249284448Y35158858D01*
X248838007Y34973936D01*
X248436221Y34705471D01*
X248094529Y34363779D01*
X247826064Y33961993D01*
X247641142Y33515552D01*
X247546870Y33041612D01*
X224491896Y33041612D01*
X224417504Y33186000D01*
X224329105Y33318298D01*
X223696046Y33846441D01*
X220179605Y30330000D01*
X219820395Y30330000D01*
X216303954Y33846441D01*
X215670895Y33318298D01*
X215171089Y32416312D01*
X214856856Y31434150D01*
X214740271Y30409557D01*
X188556762Y30409557D01*
X188715552Y30441142D01*
X189161993Y30626064D01*
X189563779Y30894529D01*
X189905471Y31236221D01*
X190173936Y31638007D01*
X190358858Y32084448D01*
X190453130Y32558388D01*
X190453130Y33041612D01*
X190358858Y33515552D01*
X190173936Y33961993D01*
X190131138Y34026046D01*
X216483559Y34026046D01*
X220000000Y30509605D01*
X223516441Y34026046D01*
X222988298Y34659105D01*
X222086312Y35158911D01*
X221104150Y35473144D01*
X220079557Y35589729D01*
X219051906Y35504186D01*
X218060690Y35219801D01*
X217144000Y34747504D01*
X217011702Y34659105D01*
X216483559Y34026046D01*
X190131138Y34026046D01*
X189905471Y34363779D01*
X189563779Y34705471D01*
X189161993Y34973936D01*
X188715552Y35158858D01*
X188241612Y35253130D01*
X187758388Y35253130D01*
X187284448Y35158858D01*
X186838007Y34973936D01*
X186436221Y34705471D01*
X186094529Y34363779D01*
X185826064Y33961993D01*
X185641142Y33515552D01*
X185546870Y33041612D01*
X78453130Y33041612D01*
X78358858Y33515552D01*
X78173936Y33961993D01*
X77905471Y34363779D01*
X77563779Y34705471D01*
X77161993Y34973936D01*
X76715552Y35158858D01*
X76241612Y35253130D01*
X75758388Y35253130D01*
X75284448Y35158858D01*
X74838007Y34973936D01*
X74436221Y34705471D01*
X74094529Y34363779D01*
X73826064Y33961993D01*
X73641142Y33515552D01*
X73546870Y33041612D01*
X40991896Y33041612D01*
X40917504Y33186000D01*
X40829105Y33318298D01*
X40196046Y33846441D01*
X36679605Y30330000D01*
X36320395Y30330000D01*
X32803954Y33846441D01*
X32170895Y33318298D01*
X31671089Y32416312D01*
X31356856Y31434150D01*
X31240271Y30409557D01*
X660000Y30409557D01*
X660000Y34026046D01*
X32983559Y34026046D01*
X36500000Y30509605D01*
X40016441Y34026046D01*
X39488298Y34659105D01*
X38586312Y35158911D01*
X37604150Y35473144D01*
X36579557Y35589729D01*
X35551906Y35504186D01*
X34560690Y35219801D01*
X33644000Y34747504D01*
X33511702Y34659105D01*
X32983559Y34026046D01*
X660000Y34026046D01*
X660000Y56963954D01*
X32983559Y56963954D01*
X33511702Y56330895D01*
X34413688Y55831089D01*
X35395850Y55516856D01*
X36420443Y55400271D01*
X37448094Y55485814D01*
X37642576Y55541612D01*
X73546870Y55541612D01*
X73546870Y55058388D01*
X73641142Y54584448D01*
X73826064Y54138007D01*
X74094529Y53736221D01*
X74436221Y53394529D01*
X74838007Y53126064D01*
X75284448Y52941142D01*
X75758388Y52846870D01*
X76241612Y52846870D01*
X76715552Y52941142D01*
X77161993Y53126064D01*
X77563779Y53394529D01*
X77905471Y53736221D01*
X78173936Y54138007D01*
X78358858Y54584448D01*
X78453130Y55058388D01*
X78453130Y55541612D01*
X78358858Y56015552D01*
X78173936Y56461993D01*
X77905471Y56863779D01*
X77563779Y57205471D01*
X77161993Y57473936D01*
X76715552Y57658858D01*
X76241612Y57753130D01*
X75758388Y57753130D01*
X75284448Y57658858D01*
X74838007Y57473936D01*
X74436221Y57205471D01*
X74094529Y56863779D01*
X73826064Y56461993D01*
X73641142Y56015552D01*
X73546870Y55541612D01*
X37642576Y55541612D01*
X38439310Y55770199D01*
X39356000Y56242496D01*
X39488298Y56330895D01*
X40016441Y56963954D01*
X36500000Y60480395D01*
X32983559Y56963954D01*
X660000Y56963954D01*
X660000Y60739557D01*
X31240271Y60739557D01*
X31325814Y59711906D01*
X31610199Y58720690D01*
X32082496Y57804000D01*
X32170895Y57671702D01*
X32803954Y57143559D01*
X36320395Y60660000D01*
X36679605Y60660000D01*
X40196046Y57143559D01*
X40829105Y57671702D01*
X41328911Y58573688D01*
X41574600Y59341612D01*
X185546870Y59341612D01*
X185546870Y58858388D01*
X185641142Y58384448D01*
X185826064Y57938007D01*
X186094529Y57536221D01*
X186436221Y57194529D01*
X186838007Y56926064D01*
X187284448Y56741142D01*
X187758388Y56646870D01*
X188241612Y56646870D01*
X188715552Y56741142D01*
X189161993Y56926064D01*
X189218699Y56963954D01*
X216483559Y56963954D01*
X217011702Y56330895D01*
X217913688Y55831089D01*
X218895850Y55516856D01*
X219920443Y55400271D01*
X220948094Y55485814D01*
X221142576Y55541612D01*
X247546870Y55541612D01*
X247546870Y55058388D01*
X247641142Y54584448D01*
X247826064Y54138007D01*
X248094529Y53736221D01*
X248436221Y53394529D01*
X248838007Y53126064D01*
X249284448Y52941142D01*
X249758388Y52846870D01*
X250241612Y52846870D01*
X250715552Y52941142D01*
X251161993Y53126064D01*
X251563779Y53394529D01*
X251905471Y53736221D01*
X252173936Y54138007D01*
X252358858Y54584448D01*
X252453130Y55058388D01*
X252453130Y55541612D01*
X252358858Y56015552D01*
X252173936Y56461993D01*
X251905471Y56863779D01*
X251563779Y57205471D01*
X251161993Y57473936D01*
X250715552Y57658858D01*
X250241612Y57753130D01*
X249758388Y57753130D01*
X249284448Y57658858D01*
X248838007Y57473936D01*
X248436221Y57205471D01*
X248094529Y56863779D01*
X247826064Y56461993D01*
X247641142Y56015552D01*
X247546870Y55541612D01*
X221142576Y55541612D01*
X221939310Y55770199D01*
X222856000Y56242496D01*
X222988298Y56330895D01*
X223516441Y56963954D01*
X220000000Y60480395D01*
X216483559Y56963954D01*
X189218699Y56963954D01*
X189563779Y57194529D01*
X189905471Y57536221D01*
X190173936Y57938007D01*
X190358858Y58384448D01*
X190453130Y58858388D01*
X190453130Y59341612D01*
X190358858Y59815552D01*
X190173936Y60261993D01*
X189905471Y60663779D01*
X189829693Y60739557D01*
X214740271Y60739557D01*
X214825814Y59711906D01*
X215110199Y58720690D01*
X215582496Y57804000D01*
X215670895Y57671702D01*
X216303954Y57143559D01*
X219820395Y60660000D01*
X220179605Y60660000D01*
X223696046Y57143559D01*
X224329105Y57671702D01*
X224828911Y58573688D01*
X225073503Y59338182D01*
X359581701Y59338182D01*
X359581701Y58861818D01*
X359674635Y58394608D01*
X359856931Y57954506D01*
X360121585Y57558424D01*
X360458424Y57221585D01*
X360854506Y56956931D01*
X361294608Y56774635D01*
X361761818Y56681701D01*
X362238182Y56681701D01*
X362705392Y56774635D01*
X363145494Y56956931D01*
X363156004Y56963954D01*
X386483559Y56963954D01*
X387011702Y56330895D01*
X387913688Y55831089D01*
X388895850Y55516856D01*
X389920443Y55400271D01*
X390948094Y55485814D01*
X391939310Y55770199D01*
X392856000Y56242496D01*
X392988298Y56330895D01*
X393516441Y56963954D01*
X390000000Y60480395D01*
X386483559Y56963954D01*
X363156004Y56963954D01*
X363541576Y57221585D01*
X363878415Y57558424D01*
X364143069Y57954506D01*
X364325365Y58394608D01*
X364418299Y58861818D01*
X364418299Y59338182D01*
X364325365Y59805392D01*
X364143069Y60245494D01*
X363878415Y60641576D01*
X363780434Y60739557D01*
X384740271Y60739557D01*
X384825814Y59711906D01*
X385110199Y58720690D01*
X385582496Y57804000D01*
X385670895Y57671702D01*
X386303954Y57143559D01*
X389820395Y60660000D01*
X390179605Y60660000D01*
X393696046Y57143559D01*
X394329105Y57671702D01*
X394828911Y58573688D01*
X395143144Y59555850D01*
X395259729Y60580443D01*
X395174186Y61608094D01*
X394889801Y62599310D01*
X394417504Y63516000D01*
X394329105Y63648298D01*
X393696046Y64176441D01*
X390179605Y60660000D01*
X389820395Y60660000D01*
X386303954Y64176441D01*
X385670895Y63648298D01*
X385171089Y62746312D01*
X384856856Y61764150D01*
X384740271Y60739557D01*
X363780434Y60739557D01*
X363541576Y60978415D01*
X363145494Y61243069D01*
X362705392Y61425365D01*
X362238182Y61518299D01*
X361761818Y61518299D01*
X361294608Y61425365D01*
X360854506Y61243069D01*
X360458424Y60978415D01*
X360121585Y60641576D01*
X359856931Y60245494D01*
X359674635Y59805392D01*
X359581701Y59338182D01*
X225073503Y59338182D01*
X225143144Y59555850D01*
X225259729Y60580443D01*
X225174186Y61608094D01*
X224889801Y62599310D01*
X224417504Y63516000D01*
X224329105Y63648298D01*
X223696046Y64176441D01*
X220179605Y60660000D01*
X219820395Y60660000D01*
X216303954Y64176441D01*
X215670895Y63648298D01*
X215171089Y62746312D01*
X214856856Y61764150D01*
X214740271Y60739557D01*
X189829693Y60739557D01*
X189563779Y61005471D01*
X189161993Y61273936D01*
X188715552Y61458858D01*
X188241612Y61553130D01*
X187758388Y61553130D01*
X187284448Y61458858D01*
X186838007Y61273936D01*
X186436221Y61005471D01*
X186094529Y60663779D01*
X185826064Y60261993D01*
X185641142Y59815552D01*
X185546870Y59341612D01*
X41574600Y59341612D01*
X41643144Y59555850D01*
X41759729Y60580443D01*
X41674186Y61608094D01*
X41389801Y62599310D01*
X40917504Y63516000D01*
X40829105Y63648298D01*
X40196046Y64176441D01*
X36679605Y60660000D01*
X36320395Y60660000D01*
X32803954Y64176441D01*
X32170895Y63648298D01*
X31671089Y62746312D01*
X31356856Y61764150D01*
X31240271Y60739557D01*
X660000Y60739557D01*
X660000Y64356046D01*
X32983559Y64356046D01*
X36500000Y60839605D01*
X40016441Y64356046D01*
X216483559Y64356046D01*
X220000000Y60839605D01*
X223516441Y64356046D01*
X386483559Y64356046D01*
X390000000Y60839605D01*
X393516441Y64356046D01*
X392988298Y64989105D01*
X392086312Y65488911D01*
X391104150Y65803144D01*
X390079557Y65919729D01*
X389051906Y65834186D01*
X388060690Y65549801D01*
X387144000Y65077504D01*
X387011702Y64989105D01*
X386483559Y64356046D01*
X223516441Y64356046D01*
X222988298Y64989105D01*
X222086312Y65488911D01*
X221104150Y65803144D01*
X220079557Y65919729D01*
X219051906Y65834186D01*
X218060690Y65549801D01*
X217144000Y65077504D01*
X217011702Y64989105D01*
X216483559Y64356046D01*
X40016441Y64356046D01*
X39488298Y64989105D01*
X38586312Y65488911D01*
X37604150Y65803144D01*
X36579557Y65919729D01*
X35551906Y65834186D01*
X34560690Y65549801D01*
X33644000Y65077504D01*
X33511702Y64989105D01*
X32983559Y64356046D01*
X660000Y64356046D01*
X660000Y90315000D01*
X416340001Y90315000D01*
X416340000Y660000D01*
G37*
%TD.AperFunction*%
%TD*%
M02*
